<?xml version="1.0" encoding="UTF-8"?>
<svg width="14px" height="14px" viewBox="0 0 14 14" version="1.1" xmlns="http://www.w3.org/2000/svg" xmlns:xlink="http://www.w3.org/1999/xlink">
    <!-- Generator: Sketch 51.2 (57519) - http://www.bohemiancoding.com/sketch -->
    <title>右键--置底 选中</title>
    <desc>Created with Sketch.</desc>
    <defs></defs>
    <g id="右键--置底-选中" stroke="none" stroke-width="1" fill="none" fill-rule="evenodd">
        <g id="Group-19-Copy" fill="#2CA7E0" fill-rule="nonzero">
            <g id="xiayiyiceng-copy-3" transform="translate(3.000000, 0.000000)">
                <path d="M3.3921962,0.216216301 L3.3921962,9.57858288 L1.37116579,7.55608135 C1.23067178,7.41476459 1.03951239,7.33555125 0.840292128,7.33609594 C0.641141008,7.33551157 0.45004841,7.41473636 0.309680686,7.55608135 C0.0171691651,7.84867375 0.0171691651,8.32511204 0.309680686,8.61790121 L3.46902801,11.7800111 C3.60946034,11.9213799 3.80062266,12.0006042 3.99983612,11.9999965 C4.20063459,11.9999965 4.38910851,11.9220112 4.53064423,11.7800111 L7.69031933,8.61790121 C7.83145739,8.47737187 7.91061788,8.2862431 7.91019464,8.08702407 C7.91019464,7.88638741 7.83211727,7.69781911 7.69031933,7.55601576 C7.54852138,7.4142124 7.36004746,7.33616153 7.15970788,7.33616153 C6.96058584,7.33559373 6.7695149,7.41476232 6.62909644,7.55601576 L4.6076727,9.57864846 L4.6076727,0.216216301 L3.3921962,0.216216301 Z" id="Shape"></path>
            </g>
            <path d="M13.3795712,13 L0.620428752,13 C0.277427491,13 0,13.2135546 0,13.4785911 C0,13.7436277 0.277427491,13.9571823 0.620428752,13.9571823 L13.3795712,13.9571823 C13.7225725,13.9571823 14,13.7436277 14,13.4785911 C14,13.2135546 13.7225725,13 13.3795712,13 Z" id="Path-Copy"></path>
        </g>
    </g>
</svg>