<?xml version="1.0" encoding="UTF-8"?>
<svg width="22px" height="22px" viewBox="0 0 22 22" version="1.1" xmlns="http://www.w3.org/2000/svg" xmlns:xlink="http://www.w3.org/1999/xlink">
    <!-- Generator: Sketch 51.2 (57519) - http://www.bohemiancoding.com/sketch -->
    <title>识色器</title>
    <desc>Created with Sketch.</desc>
    <defs></defs>
    <g id="识色器" stroke="none" stroke-width="1" fill="none" fill-rule="evenodd">
        <g id="sehuan" fill-rule="nonzero">
            <path d="M9,2 C9,3.1045695 9.8954305,4 11,4 C12.1045695,4 13,3.1045695 13,2 C13,0.8954305 12.1045695,0 11,0 C9.8954305,0 9,0.8954305 9,2 Z" id="Shape" fill="#FF0080"></path>
            <path d="M9,20 C9,21.1045695 9.8954305,22 11,22 C12.1045695,22 13,21.1045695 13,20 C13,18.8954305 12.1045695,18 11,18 C9.8954305,18 9,18.8954305 9,20 Z" id="Shape" fill="#00FF80"></path>
            <path d="M14,19 C14,19.7145312 14.3811978,20.3747852 15,20.7320508 C15.6188021,21.0893164 16.3811979,21.0893164 17,20.7320508 C17.6188022,20.3747852 18,19.7145312 18,19 C18,18.2854688 17.6188022,17.6252148 17,17.2679492 C16.3811979,16.9106836 15.6188021,16.9106836 15,17.2679492 C14.3811978,17.6252148 14,18.2854688 14,19 Z" id="Shape" fill="#00FF00"></path>
            <path d="M4,19 C4,20.1045695 4.8954305,21 6,21 C7.1045695,21 8,20.1045695 8,19 C8,17.8954305 7.1045695,17 6,17 C4.8954305,17 4,17.8954305 4,19 Z" id="Shape" fill="#00FFFF"></path>
            <path d="M1,16 C0.999999989,16.7145312 1.38119783,17.3747852 1.99999999,17.7320508 C2.61880215,18.0893164 3.38119785,18.0893164 4.00000001,17.7320508 C4.61880217,17.3747852 5.00000001,16.7145312 5,16 C5.00000001,15.2854688 4.61880217,14.6252148 4.00000001,14.2679492 C3.38119785,13.9106836 2.61880215,13.9106836 1.99999999,14.2679492 C1.38119783,14.6252148 0.999999989,15.2854688 1,16 Z" id="Shape" fill="#0080FF"></path>
            <path d="M17,16 C17,17.1045695 17.8954305,18 19,18 C20.1045695,18 21,17.1045695 21,16 C21,14.8954305 20.1045695,14 19,14 C17.8954305,14 17,14.8954305 17,16 Z" id="Shape" fill="#80FF00"></path>
            <path d="M18,11 C18,12.1045695 18.8954305,13 20,13 C21.1045695,13 22,12.1045695 22,11 C22,9.8954305 21.1045695,9 20,9 C18.8954305,9 18,9.8954305 18,11 Z" id="Shape" fill="#FFFF00"></path>
            <path d="M0,11 C1.74580525e-16,12.1045695 0.8954305,13 2,13 C3.1045695,13 4,12.1045695 4,11 C4,9.8954305 3.1045695,9 2,9 C0.8954305,9 1.74580525e-16,9.8954305 0,11 Z" id="Shape" fill="#0000FF"></path>
            <path d="M1,7.00000001 C1,8.10456951 1.8954305,9 3,9 C4.1045695,9 5,8.10456951 5,7.00000001 C5.00000001,6.28546883 4.61880217,5.62521479 4.00000001,5.2679492 C3.38119785,4.9106836 2.61880215,4.9106836 1.99999999,5.2679492 C1.38119783,5.62521479 0.999999989,6.28546883 1,7.00000001 Z" id="Shape" fill="#8000FF"></path>
            <path d="M4,2.99999998 C3.99999998,3.71453116 4.38119783,4.37478521 4.99999999,4.7320508 C5.61880215,5.0893164 6.38119785,5.0893164 7.00000001,4.7320508 C7.61880217,4.37478521 8.00000002,3.71453116 8,2.99999998 C8,1.89543049 7.1045695,1 6,1 C4.8954305,1 4,1.89543049 4,2.99999998 Z" id="Shape" fill="#FF00FF"></path>
            <path d="M14,3 C14,4.1045695 14.8954305,5 16,5 C17.1045695,5 18,4.1045695 18,3 C18,1.8954305 17.1045695,1 16,1 C14.8954305,1 14,1.8954305 14,3 Z" id="Shape" fill="#FF0000"></path>
            <path d="M17,7 C17,8.1045695 17.8954305,9 19,9 C20.1045695,9 21,8.1045695 21,7 C21,5.8954305 20.1045695,5 19,5 C17.8954305,5 17,5.8954305 17,7 Z" id="Shape" fill="#FF8000"></path>
        </g>
    </g>
</svg>