<?xml version="1.0" encoding="UTF-8"?>
<svg width="15px" height="15px" viewBox="0 0 15 15" version="1.1" xmlns="http://www.w3.org/2000/svg" xmlns:xlink="http://www.w3.org/1999/xlink">
    <!-- Generator: Sketch 51.2 (57519) - http://www.bohemiancoding.com/sketch -->
    <title>右键--删除</title>
    <desc>Created with Sketch.</desc>
    <defs></defs>
    <g id="右键--删除" stroke="none" stroke-width="1" fill="none" fill-rule="evenodd">
        <g id="删除-4" fill="#A8B0BB" fill-rule="nonzero">
            <path d="M14.4270791,2.36460402 L11.3462013,2.36460402 L11.3462013,0.93240508 C11.3462013,0.408717812 10.8428946,5.61748467e-16 10.1996453,5.61748467e-16 L4.89698476,0 C4.25373555,0 3.75042879,0.409701663 3.75042879,0.93240508 L3.75042879,2.36460402 L0.573349467,2.36460402 C0.256870857,2.36460402 0,2.60367864 0,2.8993947 C0,3.1952513 0.256870857,3.43432593 0.573349467,3.43432593 L1.77937025,3.43432593 L1.77937025,13.9564203 C1.77937025,14.5319703 2.29368373,15 2.92592622,15 L12.1698462,15 C12.8022316,15 13.3164021,14.5319703 13.3164021,13.9564203 L13.3164022,3.43446647 L14.4267932,3.43446647 C14.7431289,3.43446647 14.9999998,3.19539185 14.9999998,2.89953525 C15.0002856,2.60367864 14.7434148,2.36460402 14.4270791,2.36460402 Z M5,1 L10,1 L10,2 L5,2 L5,1 Z M11.4036298,13.9782237 C11.4036298,13.9782237 4.190609,14 3.58061544,14 C2.97062188,14 3.00023187,13.4259339 3.00023187,13.4259339 L3.00023187,4.48762893 L3.00023187,4 L11.9911031,4 C11.9911031,4 11.9911031,4.29124138 11.9911031,4.48762893 C11.9911031,5.01132904 12,12.9806552 12,13.4733608 C12.000139,13.9660664 11.4036298,13.9782237 11.4036298,13.9782237 Z" id="Shape"></path>
            <path d="M10,5.52700083 C10,5.23705344 10.2250343,5 10.5000623,5 C10.7749657,5 11,5.23719191 11,5.52700083 L11,11.4729992 C11,11.7629466 10.7749657,12 10.5000623,12 C10.2250343,12 10,11.7628081 10,11.4729992 L10,5.52700083 Z" id="Shape"></path>
            <path d="M4,5.52700083 C4,5.23705344 4.22503429,5 4.49993766,5 C4.77496571,5 5,5.23719191 5,5.52700083 L5,11.4729992 C5,11.7629466 4.77496571,12 4.49993766,12 C4.22503429,12 4,11.7628081 4,11.4729992 L4,5.52700083 Z" id="Shape"></path>
            <path d="M7,6.451715 C7,6.20318867 7.22503429,6 7.50006234,6 C7.77496571,6 8,6.20330735 8,6.451715 L8,11.548285 C8,11.7968113 7.77496571,12 7.50006234,12 C7.22503429,12 7,11.7966927 7,11.548285 L7,6.451715 Z" id="Shape"></path>
        </g>
    </g>
</svg>