<?xml version="1.0" encoding="UTF-8"?>
<svg width="10px" height="13px" viewBox="0 0 10 13" version="1.1" xmlns="http://www.w3.org/2000/svg" xmlns:xlink="http://www.w3.org/1999/xlink">
    <!-- Generator: Sketch 51.2 (57519) - http://www.bohemiancoding.com/sketch -->
    <title>右键--下移一层 选中</title>
    <desc>Created with Sketch.</desc>
    <defs></defs>
    <g id="右键--下移一层-选中" stroke="none" stroke-width="1" fill="none" fill-rule="evenodd">
        <g id="xiayiyiceng" fill-rule="nonzero">
            <path d="M0.607771037,1.2162163 L4.3921962,1.2162163 L4.3921962,10.5785829 L2.37116579,8.55608135 C2.23067178,8.41476459 2.03951239,8.33555125 1.84029213,8.33609594 C1.64114101,8.33551157 1.45004841,8.41473636 1.30968069,8.55608135 C1.01716917,8.84867375 1.01716917,9.32511204 1.30968069,9.61790121 L4.46902801,12.7800111 C4.60946034,12.9213799 4.80062266,13.0006042 4.99983612,12.9999965 C5.20063459,12.9999965 5.38910851,12.9220112 5.53064423,12.7800111 L8.69031933,9.61790121 C8.83145739,9.47737187 8.91061788,9.2862431 8.91019464,9.08702407 C8.91019464,8.88638741 8.83211727,8.69781911 8.69031933,8.55601576 C8.54852138,8.4142124 8.36004746,8.33616153 8.15970788,8.33616153 C7.96058584,8.33559373 7.7695149,8.41476232 7.62909644,8.55601576 L5.6076727,10.5786485 L5.6076727,1.2162163 L9.39222898,1.2162163 C9.72728643,1.2162163 10,0.943366179 10,0.608140945 C10,0.272915711 9.72735199,0 9.39222898,0 L0.607771037,0 C0.272648021,0 1.1816535e-08,0.272850122 1.1816535e-08,0.608075356 C-6.55443289e-05,0.943366179 0.272648021,1.2162163 0.607771037,1.2162163 Z" id="Shape" fill="#2CA7E0"></path>
            <path d="M4,4 L0.748708513,4 C0.335857335,4 0,4.22423899 0,4.5 C0,4.77566648 0.335857335,5 0.748708513,5 L4,5 L4,4 Z M9.25891419,4 L6,4 L6,5 L9.25891419,5 C9.66753065,5 10,4.77566648 10,4.5 C10,4.22423899 9.66753065,4 9.25891419,4 Z" id="Shape" fill="#A2B0C3"></path>
        </g>
    </g>
</svg>