<?xml version="1.0" encoding="UTF-8"?>
<svg width="32px" height="40px" viewBox="0 0 32 40" version="1.1" xmlns="http://www.w3.org/2000/svg" xmlns:xlink="http://www.w3.org/1999/xlink">
    <!-- Generator: Sketch 51.2 (57519) - http://www.bohemiancoding.com/sketch -->
    <title>右侧--图片组件默认</title>
    <desc>Created with Sketch.</desc>
    <defs></defs>
    <g id="右侧--图片组件默认" stroke="none" stroke-width="1" fill="none" fill-rule="evenodd" opacity="0.414397321">
        <g id="Group-15">
            <g id="PSD">
                <g id="Group-4" transform="translate(20.444444, 0.909091)" stroke="#656D8B" stroke-linejoin="round" stroke-width="2">
                    <path d="M0.5208,0 L0.5208,9.09090909 C0.5208,9.59363636 0.918133333,10 1.40968889,10 L10.2985778,10" id="Stroke-3"></path>
                </g>
                <path d="M19.8871111,0 L2.66666667,0 C1.19377778,0 0,1.22090909 0,2.72727273 L0,37.2727273 C0,38.7790909 1.19377778,40 2.66666667,40 L29.3333333,40 C30.8062222,40 32,38.7790909 32,37.2727273 L32,12.0654545 C32,11.3263636 31.7066667,10.6190909 31.1866667,10.1045455 L21.7404444,0.766363636 C21.2426667,0.275454545 20.5777778,0 19.8871111,0 M19.8871111,1.81818182 C20.1191111,1.81818182 20.3386667,1.90909091 20.5048889,2.07363636 L29.9511111,11.4127273 C30.1235556,11.5827273 30.2222222,11.8209091 30.2222222,12.0654545 L30.2222222,37.2727273 C30.2222222,37.7745455 29.824,38.1818182 29.3333333,38.1818182 L2.66666667,38.1818182 C2.176,38.1818182 1.77777778,37.7745455 1.77777778,37.2727273 L1.77777778,2.72727273 C1.77777778,2.22545455 2.176,1.81818182 2.66666667,1.81818182 L19.8871111,1.81818182" id="Fill-5" fill="#656D8B"></path>
            </g>
            <path d="M21,15 C22.2595838,15 23.2727273,16.0401606 23.2727273,17.3333333 C23.2727273,18.626506 22.2595838,19.6666667 21,19.6666667 C19.7404162,19.6666667 18.7272727,18.626506 18.7272727,17.3333333 C18.7272727,16.0401606 19.7541073,15 21,15 Z M6,29 C6,29 7.64574616,19.6666667 11.4532775,19.6666667 C15.1910739,19.6666667 16.153417,26.1972789 18.7754533,26.1972789 C20.4351464,26.1972789 20.2677824,23.244898 22.9037657,23.244898 C24.7866109,23.244898 26,29 26,29 L6,29 Z" id="Shape" fill="#656D8B" fill-rule="nonzero"></path>
        </g>
    </g>
</svg>