<?xml version="1.0" encoding="UTF-8"?>
<svg width="14px" height="14px" viewBox="0 0 14 14" version="1.1" xmlns="http://www.w3.org/2000/svg" xmlns:xlink="http://www.w3.org/1999/xlink">
    <!-- Generator: Sketch 51.2 (57519) - http://www.bohemiancoding.com/sketch -->
    <title>右键--置顶 </title>
    <desc>Created with Sketch.</desc>
    <defs></defs>
    <g id="右键--置顶-" stroke="none" stroke-width="1" fill="none" fill-rule="evenodd">
        <g id="Group-18" fill-rule="nonzero">
            <g id="xiayiyiceng-copy-6" transform="translate(7.000000, 8.000000) scale(1, -1) translate(-7.000000, -8.000000) translate(3.000000, 2.000000)" fill="#A9B7CA">
                <path d="M3.3921962,0.216216301 L3.3921962,9.57858288 L1.37116579,7.55608135 C1.23067178,7.41476459 1.03951239,7.33555125 0.840292128,7.33609594 C0.641141008,7.33551157 0.45004841,7.41473636 0.309680686,7.55608135 C0.0171691651,7.84867375 0.0171691651,8.32511204 0.309680686,8.61790121 L3.46902801,11.7800111 C3.60946034,11.9213799 3.80062266,12.0006042 3.99983612,11.9999965 C4.20063459,11.9999965 4.38910851,11.9220112 4.53064423,11.7800111 L7.69031933,8.61790121 C7.83145739,8.47737187 7.91061788,8.2862431 7.91019464,8.08702407 C7.91019464,7.88638741 7.83211727,7.69781911 7.69031933,7.55601576 C7.54852138,7.4142124 7.36004746,7.33616153 7.15970788,7.33616153 C6.96058584,7.33559373 6.7695149,7.41476232 6.62909644,7.55601576 L4.6076727,9.57864846 L4.6076727,0.216216301 L3.3921962,0.216216301 Z" id="Shape"></path>
            </g>
            <path d="M13.3795712,0 L0.620428752,0 C0.277427491,0 0,0.213554611 0,0.478591138 C0,0.743627664 0.277427491,0.957182275 0.620428752,0.957182275 L13.3795712,0.957182275 C13.7225725,0.957182275 14,0.743627664 14,0.478591138 C14,0.213554611 13.7225725,0 13.3795712,0 Z" id="Path-Copy-2" fill="#A6B5C8"></path>
        </g>
    </g>
</svg>