<?xml version="1.0" encoding="UTF-8"?>
<svg width="30px" height="30px" viewBox="0 0 30 30" version="1.1" xmlns="http://www.w3.org/2000/svg" xmlns:xlink="http://www.w3.org/1999/xlink">
    <!-- Generator: Sketch 51.2 (57519) - http://www.bohemiancoding.com/sketch -->
    <title>上箭头-收起</title>
    <desc>Created with Sketch.</desc>
    <defs></defs>
    <g id="上箭头-收起" stroke="none" stroke-width="1" fill="none" fill-rule="evenodd">
        <path d="M17.7146586,20.4869565 C17.6694765,20.4836957 17.6579757,20.4840885 17.6132417,20.4759953 C17.5126462,20.4577266 17.4158968,20.4176141 17.3305363,20.3586829 C17.2873706,20.328903 17.2496939,20.2942515 17.2120546,20.257282 L12.731187,15.5427858 C12.7002691,15.5079378 12.6916434,15.5000017 12.6641981,15.4619322 C12.6333921,15.4191874 12.6067683,15.3731032 12.5848494,15.3246225 C12.4891082,15.1128237 12.4891082,14.8615018 12.5848494,14.6497031 C12.6067683,14.6012223 12.6333921,14.5551381 12.6641981,14.5123934 C12.6916434,14.4743631 12.7002691,14.4663877 12.731187,14.431579 L17.2120546,9.71708287 C17.2451757,9.68455284 17.2527559,9.67543815 17.2889015,9.64660115 C17.3838212,9.57081562 17.4958429,9.51966334 17.6132417,9.49833024 C17.6970712,9.48316528 17.7832159,9.48316528 17.8670455,9.49833024 C17.9340718,9.51050936 17.9994551,9.53235319 18.0608803,9.56307599 C18.2941842,9.67979906 18.4566156,9.92192773 18.4830527,10.1923041 C18.4934708,10.299166 18.4828287,10.4079923 18.451948,10.5103754 C18.4262204,10.5956685 18.3866021,10.6761685 18.3352214,10.747436 C18.3077761,10.7855056 18.2991505,10.7934416 18.2682325,10.8282896 L14.3154351,14.9871824 L18.2682325,19.1460752 L18.3030339,19.1852841 C18.3315994,19.2222143 18.3397397,19.2308183 18.3646085,19.2707344 C18.4112468,19.3455377 18.4456002,19.4287093 18.4657267,19.5156132 C18.4818205,19.585152 18.4888405,19.6569695 18.4865254,19.7284727 C18.477713,20.0001455 18.331338,20.2533532 18.1061744,20.386577 C18.0320534,20.4304219 17.9508377,20.4607911 17.8670455,20.4759953 C17.8223115,20.4840885 17.8108106,20.4836957 17.7656285,20.4869565 L17.7146586,20.4869565 L17.7146586,20.4869565 Z" id="Shape-Copy" fill="#FFFFFF" transform="translate(15.500000, 14.986957) rotate(90.000000) translate(-15.500000, -14.986957) "></path>
    </g>
</svg>