<?xml version="1.0" encoding="UTF-8"?>
<svg width="18px" height="18px" viewBox="0 0 18 18" version="1.1" xmlns="http://www.w3.org/2000/svg" xmlns:xlink="http://www.w3.org/1999/xlink">
    <!-- Generator: Sketch 50.2 (55047) - http://www.bohemiancoding.com/sketch -->
    <title>新建布局</title>
    <desc>Created with Sketch.</desc>
    <defs></defs>
    <g id="新建布局" stroke="none" stroke-width="1" fill="none" fill-rule="evenodd">
        <g id="Icons/icon-add" transform="translate(2.000000, 2.000000)">
            <polygon id="Shape" points="0 0 14 0 14 14 0 14"></polygon>
            <path d="M6.41666667,6.41666667 L6.41666667,3.50399319 C6.41666667,3.17962171 6.68725586,2.91666667 7,2.91666667 C7.3221661,2.91666667 7.58333333,3.17003403 7.58333333,3.50399319 L7.58333333,6.41666667 L10.4960068,6.41666667 C10.8203783,6.41666667 11.0833333,6.68725586 11.0833333,7 C11.0833333,7.3221661 10.829966,7.58333333 10.4960068,7.58333333 L7.58333333,7.58333333 L7.58333333,10.4960068 C7.58333333,10.8203783 7.31274414,11.0833333 7,11.0833333 C6.6778339,11.0833333 6.41666667,10.829966 6.41666667,10.4960068 L6.41666667,7.58333333 L3.50399319,7.58333333 C3.17962171,7.58333333 2.91666667,7.31274414 2.91666667,7 C2.91666667,6.6778339 3.17003403,6.41666667 3.50399319,6.41666667 L6.41666667,6.41666667 Z" id="Shape" fill="#12ACE5"></path>
        </g>
        <rect id="BG" stroke="#12ACE5" x="0.5" y="0.5" width="17" height="17" rx="3"></rect>
    </g>
</svg>