<?xml version="1.0" encoding="UTF-8"?>
<svg width="19px" height="20px" viewBox="0 0 19 20" version="1.1" xmlns="http://www.w3.org/2000/svg" xmlns:xlink="http://www.w3.org/1999/xlink">
    <!-- Generator: Sketch 51.2 (57519) - http://www.bohemiancoding.com/sketch -->
    <title>应用场景--选中</title>
    <desc>Created with Sketch.</desc>
    <defs></defs>
    <g id="应用场景--选中" stroke="none" stroke-width="1" fill="none" fill-rule="evenodd">
        <g id="Group-3-Copy-2" fill="#2CA7E0" fill-rule="nonzero">
            <g id="Group-2">
                <g id="确定" transform="translate(0.000000, 18.000000)">
                    <path d="M17.8395276,4.54747351e-13 L1,4.54969395e-13 C0.44771525,4.55070849e-13 -6.76353751e-17,0.44771525 0,1 L0,1 C6.76353751e-17,1.55228475 0.44771525,2 1,2 L17.8395276,2 C18.3918124,2 18.8395276,1.55228475 18.8395276,1 L18.8395276,1 C18.8395276,0.44771525 18.3918124,4.54645898e-13 17.8395276,4.54747351e-13 Z" id="Shape"></path>
                </g>
                <g id="fabu" transform="translate(2.000000, 0.000000)">
                    <polygon id="Shape" points="16 9.09494702e-13 0 6.69333333 0 7.5648 6.08 9.92 8.42666667 16 9.29813333 16"></polygon>
                </g>
            </g>
        </g>
    </g>
</svg>