<?xml version="1.0" encoding="UTF-8"?>
<svg width="18px" height="18px" viewBox="0 0 18 18" version="1.1" xmlns="http://www.w3.org/2000/svg" xmlns:xlink="http://www.w3.org/1999/xlink">
    <!-- Generator: Sketch 51.2 (57519) - http://www.bohemiancoding.com/sketch -->
    <title>取消</title>
    <desc>Created with Sketch.</desc>
    <defs></defs>
    <g id="蓝湖上传" stroke="none" stroke-width="1" fill="none" fill-rule="evenodd">
        <g id="Artboard-2-Copy-2" transform="translate(-645.000000, -355.000000)" fill="#02A5E2" fill-rule="nonzero">
            <g id="取消" transform="translate(645.000000, 355.000000)">
                <path d="M17.080906,0 L1.13686838e-13,0 L1.13686838e-13,7.95903614 L1.19277108,7.95903614 L1.19277108,1.19277108 L15.8881349,1.19277108 L15.8881349,7.95903614 L17.080906,7.95903614 L17.080906,0 Z M15.9471632,16.8072289 L1.19277108,16.8072289 L1.19277108,10.0409639 L1.13686838e-13,10.0409639 L1.13686838e-13,18 L17.1399343,18 L17.1399343,10.0409639 L15.9471632,10.0409639 L15.9471632,16.8072289 Z" id="Shape"></path>
                <path d="M9.10690236,9.50589226 L11.8762626,6.7483165 C12.0412458,6.58333333 12.0412458,6.30050505 11.8762626,6.13552189 C11.7112795,5.97053872 11.4284512,5.97053872 11.263468,6.13552189 L8.49410774,8.89309764 L5.73653199,6.12373737 C5.55976431,5.95875421 5.28872054,5.95875421 5.12373737,6.12373737 C4.95875421,6.28872054 4.95875421,6.57154882 5.12373737,6.73653199 L7.88131313,9.50589226 L5.12373737,12.263468 C4.95875421,12.4402357 4.95875421,12.7112795 5.12373737,12.8762626 C5.28872054,13.0412458 5.57154882,13.0412458 5.73653199,12.8762626 L8.49410774,10.1186869 L11.2516835,12.8762626 C11.4284512,13.0412458 11.6994949,13.0412458 11.8644781,12.8762626 C12.0294613,12.7112795 12.0294613,12.4284512 11.8644781,12.263468 L9.10690236,9.50589226 Z" id="Shape"></path>
            </g>
        </g>
    </g>
</svg>