<?xml version="1.0" encoding="UTF-8"?>
<svg width="20px" height="15px" viewBox="0 0 20 15" version="1.1" xmlns="http://www.w3.org/2000/svg" xmlns:xlink="http://www.w3.org/1999/xlink">
    <!-- Generator: Sketch 47.1 (45422) - http://www.bohemiancoding.com/sketch -->
    <title>大屏配置 选中</title>
    <desc>Created with Sketch.</desc>
    <defs></defs>
    <g id="Page-5" stroke="none" stroke-width="1" fill="none" fill-rule="evenodd">
        <g id="大屏配置-选中" fill-rule="nonzero" fill="#2CA7E0">
            <g id="系统配置">
                <path d="M18.7033615,0 L1.29663846,0 C0.581704431,0 0,0.595355267 0,1.32706663 L0,13.0729334 C0,13.8046447 0.581704431,14.4 1.29663846,14.4 L18.7033615,14.4 C19.4182956,14.4 20,13.8046447 20,13.0729334 L20,1.32706663 C20,0.595355267 19.4182956,0 18.7033615,0 Z M18.7015787,13.0729334 L1.29663846,13.0729334 L1.29663846,1.32706663 L18.7033615,1.32706663 L18.7015787,13.0729334 Z M18.7033615,13.7364667 L18.7033615,13.0729334 L18.7038737,13.0729334 L18.7033615,13.7364667 Z" id="Shape"></path>
                <path d="M12.4467735,5.6 C12.7774384,5.6 13.0945601,5.47499374 13.3283755,5.25248116 C13.5621909,5.02996859 13.693547,4.72817678 13.693547,4.41349648 C13.693547,4.35090842 13.6870014,4.2899518 13.6771831,4.23003337 L14.3534018,3.58650352 L17.6,3.58650352 L17.6,2.4 L13.8367701,2.4 L12.8865728,3.30441231 C12.7461098,3.25347104 12.5970903,3.22723865 12.4467735,3.22699296 C11.7581995,3.22699296 11.2,3.75820868 11.2,4.41349648 C11.2,5.06878428 11.7581995,5.6 12.4467735,5.6 L12.4467735,5.6 Z" id="Shape"></path>
                <path d="M12.762254,9.58267393 C13.3838949,8.86466322 13.7282764,7.92692525 13.7275505,6.95420766 C13.7275505,6.57895579 13.4393838,6.27475405 13.0839122,6.27475405 C12.7284406,6.27475405 12.440274,6.57895579 12.440274,6.95420766 C12.440274,8.35914785 11.3575135,9.50215868 10.0266305,9.50215868 C8.69574754,9.50215868 7.6129871,8.35914785 7.6129871,6.95420766 C7.6129871,5.54926746 8.69574754,4.40625664 10.0266305,4.40625664 C10.3821021,4.40625664 10.6702688,4.10205489 10.6702688,3.72680303 C10.6702688,3.35155116 10.3821021,3.04734942 10.0266305,3.04734942 C9.15192615,3.04734942 8.34753925,3.37008989 7.71355557,3.90770755 L6.2853223,2.4 L2.4,2.4 L2.4,3.75890721 L5.75206801,3.75890721 L6.86202217,4.93045509 C6.5105201,5.54020552 6.32501088,6.24042803 6.32587151,6.95420766 C6.32587151,9.10841532 7.98597546,10.8610659 10.0267914,10.8610659 C10.6424314,10.8610659 11.2228322,10.7007148 11.7340419,10.4187416 L13.231949,12 L17.6,12 L17.6,10.6410928 L13.7652033,10.6410928 L12.762254,9.58267393 L12.762254,9.58267393 Z M2.4,7.81337674 L5.06015689,7.81337674 L5.06015689,9.17228395 L2.4,9.17228395 L2.4,7.81337674 Z M2.4,10.6410928 L6.59410775,10.6410928 L6.59410775,12 L2.4,12 L2.4,10.6410928 Z" id="Shape"></path>
            </g>
        </g>
    </g>
</svg>