<svg id="图层_1" data-name="图层 1" xmlns="http://www.w3.org/2000/svg" viewBox="0 0 16 12"><defs><style>.cls-1{opacity:0.4;}.cls-2{fill:#fff;}</style></defs><title>连接大屏-为选中状态</title><g class="cls-1"><path class="cls-2" d="M2.52,6.32Z"/><path class="cls-2" d="M15.62,6.39H9a.41.41,0,0,0-.37.37v4a.38.38,0,0,0,.37.38h6.61a.38.38,0,0,0,.38-.38v-4A.38.38,0,0,0,15.62,6.39ZM15.29,10a.44.44,0,0,1-.45.45h-5A.44.44,0,0,1,9.35,10V7.54A.43.43,0,0,1,9.8,7.1h5a.43.43,0,0,1,.45.44V10Z"/><path class="cls-2" d="M10.78,11.55h3.08V12H10.78Z"/><path class="cls-2" d="M7,0H.38A.38.38,0,0,0,0,.37v4a.36.36,0,0,0,.38.38H7a.35.35,0,0,0,.37-.38v-4A.41.41,0,0,0,7,0ZM6.61,3.6a.44.44,0,0,1-.45.45h-5A.44.44,0,0,1,.71,3.6V1.15A.43.43,0,0,1,1.16.71h5a.43.43,0,0,1,.45.44Z"/><path class="cls-2" d="M2.14,5.16H5.22v.45H2.14Z"/><path class="cls-2" d="M11.94,2.45h.45V6.5h-.45Z"/><path class="cls-2" d="M12.39.37a1.21,1.21,0,0,0-1.2,1.19,1.24,1.24,0,0,0,1.2,1.19A1.21,1.21,0,0,0,13.6,1.56,1.21,1.21,0,0,0,12.39.37Zm0,1.9a.71.71,0,0,1-.71-.71.72.72,0,0,1,1.43,0A.69.69,0,0,1,12.39,2.27Z"/><path class="cls-2" d="M4.54,9.18h4.1v.44H4.54Z"/><path class="cls-2" d="M7.32,1.37h4.1v.45H7.32Z"/><path class="cls-2" d="M3.57,5.61H4V8.69H3.57Z"/><path class="cls-2" d="M3.57,8.36a1.2,1.2,0,0,0-1.2,1.19,1.23,1.23,0,0,0,1.2,1.19,1.23,1.23,0,0,0,1.2-1.19A1.21,1.21,0,0,0,3.57,8.36Zm0,1.89a.71.71,0,0,1-.72-.7.69.69,0,0,1,.72-.71.69.69,0,0,1,.71.71A.7.7,0,0,1,3.57,10.25Z"/></g></svg>