<?xml version="1.0" encoding="UTF-8"?>
<svg width="20px" height="22px" viewBox="0 0 20 22" version="1.1" xmlns="http://www.w3.org/2000/svg" xmlns:xlink="http://www.w3.org/1999/xlink">
    <!-- Generator: Sketch 50.2 (55047) - http://www.bohemiancoding.com/sketch -->
    <title>添加数据源</title>
    <desc>Created with Sketch.</desc>
    <defs></defs>
    <g id="添加数据源" stroke="none" stroke-width="1" fill="none" fill-rule="evenodd">
        <g id="数据库表" fill="#02B0F0" fill-rule="nonzero">
            <polygon id="Shape" points="14 0 20 6 14 6"></polygon>
            <polygon id="Shape" points="0 0 0 22 20 22 20 7.33333333 18.5714286 7.33333333 18.5714286 20.5333333 1.42857143 20.5333333 1.42857143 1.46666667 12.8571429 1.46666667 12.8571429 0"></polygon>
            <path d="M14.8049107,14.3500095 C14.2022321,15.1852773 12.2799107,15.7962249 10,15.7962249 C7.72142857,15.7962249 5.79776786,15.1856601 5.19553571,14.3500095 C5.06785714,14.1731562 5,14.2680904 5,14.3553686 L5,15.5814746 C5,16.7689178 7.23839286,18 10,18 C12.7616071,18 15,16.7689178 15,15.5814746 L15,14.3553686 C15,14.2677076 14.93125,14.1727734 14.8049107,14.3500095 Z M14.8120536,10.5929141 C14.2200893,11.3882911 12.2892857,11.9710181 10,11.9710181 C7.71071429,11.9710181 5.77991071,11.3882911 5.18794643,10.5929141 C5.06517857,10.4288933 5,10.5179096 5,10.5920899 L5,12.1457538 C5,13.308323 7.23839286,14.25 10,14.25 C12.7616071,14.25 15,13.308323 15,12.1457538 L15,10.5920899 C15,10.5174975 14.934375,10.4284812 14.8120536,10.5929141 Z M10,6.00042084 C7.23839286,6.00042084 5,6.7936968 5,7.77256148 L5,8.6201253 C5,9.65832787 7.23839286,10.5 10,10.5 C12.7616071,10.5 15,9.65832787 15,8.6201253 L15,7.77298233 C15,6.79327598 12.7616071,6 10,6 L10,6.00042084 Z" id="Shape"></path>
        </g>
    </g>
</svg>