<?xml version="1.0" encoding="UTF-8"?>
<svg width="19px" height="19px" viewBox="0 0 19 19" version="1.1" xmlns="http://www.w3.org/2000/svg" xmlns:xlink="http://www.w3.org/1999/xlink">
    <!-- Generator: Sketch 50.2 (55047) - http://www.bohemiancoding.com/sketch -->
    <title>Artboard 12</title>
    <desc>Created with Sketch.</desc>
    <defs></defs>
    <g id="Artboard-12" stroke="none" stroke-width="1" fill="none" fill-rule="evenodd">
        <g id="仪表盘-添加问题" fill="#02A5E2" fill-rule="nonzero">
            <path d="M1.20611096,17.1 C1.20611096,17.2674375 1.26882873,17.4289375 1.38220316,17.5476875 C1.49437148,17.6664375 1.64754757,17.7329375 1.80796033,17.7329375 L16.1908336,17.7329375 C16.5237202,17.7329375 16.793889,17.4503125 16.793889,17.1 L16.793889,7.6 L18,7.6 L18,17.7329375 C18,18.4335625 17.4596623,19 16.793889,19 L1.20490485,19 C0.5391316,19 0,18.432375 0,17.7329375 L0,1.2670625 C0,0.5664375 0.5391316,0 1.20611096,0 L11.9718574,0 L11.9718574,1.2670625 L1.80916644,1.2670625 C1.64729891,1.26802341 1.49310368,1.33511487 1.38340927,1.4523125 C1.26888396,1.57406572 1.20552337,1.73405451 1.20611096,1.9 L1.20611096,17.1 Z" id="Shape"></path>
            <polygon id="Shape" points="5 10 6 10 6 15 5 15"></polygon>
            <polygon id="Shape" points="8 5 9 5 9 15 8 15"></polygon>
            <polygon id="Shape" points="12 8 13 8 13 14 12 14 12 8"></polygon>
            <polygon id="Shape" points="16.5997599 3.60022501 16.5997599 6 15.3990394 6 15.3990394 3.60022501 13 3.60022501 13 2.39977499 15.4002401 2.39977499 15.4002401 0 16.6009606 0 16.6009606 2.39977499 19 2.39977499 19 3.60022501"></polygon>
        </g>
    </g>
</svg>