<?xml version="1.0" encoding="UTF-8"?>
<svg width="20px" height="20px" viewBox="0 0 20 20" version="1.1" xmlns="http://www.w3.org/2000/svg" xmlns:xlink="http://www.w3.org/1999/xlink">
    <!-- Generator: Sketch 50.2 (55047) - http://www.bohemiancoding.com/sketch -->
    <title>数据库</title>
    <desc>Created with Sketch.</desc>
    <defs></defs>
    <g id="数据库" stroke="none" stroke-width="1" fill="none" fill-rule="evenodd">
        <g id="数据库-2-copy-4" transform="translate(1.000000, 1.000000)" fill="#CED1DC" fill-rule="nonzero">
            <path d="M9.0001164,1.18981558e-16 C4.02913229,1.18981558e-16 0,1.1776875 0,2.62982827 L0,4.7338081 C0,6.18594886 4.02911438,7.36363636 9.0001164,7.36363636 C13.9709035,7.36363636 18,6.18598235 18,4.7338081 L18,2.62982827 C18,1.1776875 13.9708856,0 9.0001164,1.18981558e-16 Z" id="Shape"></path>
            <path d="M9.0001164,9.5207266 C4.02913229,9.5207266 0,8.18841062 0,6.54545455 L0,10.1157696 C0,11.7585931 4.02911438,13.0909091 9.0001164,13.0909091 C13.9709035,13.0909091 18,11.7586121 18,10.1157886 L18,6.54545455 C18,8.18842956 13.9708856,9.5207266 9.0001164,9.5207266 Z" id="Shape"></path>
            <path d="M9.0001164,14.4297348 C4.02913229,14.4297348 0,13.097407 0,11.4545455 L0,15.0247727 C0,16.6676342 4.02911438,18 9.0001164,18 C13.9709035,18 18,16.6676532 18,15.0247917 L18,11.4545455 C18,13.097407 13.9708856,14.4297538 9.0001164,14.4297538 L9.0001164,14.4297348 Z" id="Shape"></path>
        </g>
    </g>
</svg>