<svg id="图层_1" data-name="图层 1" xmlns="http://www.w3.org/2000/svg" viewBox="0 0 23 20"><defs><style>.cls-1{fill:#353c43;}</style></defs><title>筛选器-日期</title><path class="cls-1" d="M17.24,1.43V0H15.81V1.43H7.19V0H5.76V1.43H0V20H23V1.43Zm4.32,17.3H1.44V8.58H21.56Zm0-11.58H1.44V2.71h4.3V4.28H7.18V2.71h8.63V4.28h1.43V2.71h4.31V7.15Z"/><path class="cls-1" d="M15.81,14.29h2.87v2.85H15.81ZM10.06,10h2.88v2.85H10.06Zm5.75,0h2.87v2.85H15.81ZM4.31,14.29H7.18v2.85H4.31Zm5.75,0h2.88v2.85H10.06ZM4.31,10H7.18v2.85H4.31Z"/></svg>