<?xml version="1.0" encoding="UTF-8"?>
<svg width="28px" height="28px" viewBox="0 0 28 28" version="1.1" xmlns="http://www.w3.org/2000/svg" xmlns:xlink="http://www.w3.org/1999/xlink">
    <!-- Generator: Sketch 50.2 (55047) - http://www.bohemiancoding.com/sketch -->
    <title>编辑</title>
    <desc>Created with Sketch.</desc>
    <defs></defs>
    <g id="编辑" stroke="none" stroke-width="1" fill="none" fill-rule="evenodd">
        <g id="Group-6" transform="translate(1.000000, 1.000000)">
            <g id="Group-5-Copy">
                <circle id="Oval" fill="#FFFFFF" cx="13" cy="14" r="13"></circle>
                <g id="虚线+" fill="#CED1DC" fill-rule="nonzero">
                    <path d="M13.018009,26 L13.018009,24.8693686 C14.4896334,24.8693686 15.9239011,24.6025396 17.2687394,24.0881023 L17.6740021,25.1429814 C16.2001137,25.7082971 14.6288717,26 13.018009,26 Z M19.8508742,24.0666203 L19.2554323,23.1055836 C20.491564,22.3423484 21.5779642,21.3603459 22.4613094,20.2077753 L23.3601323,20.8951992 C22.3931211,22.1566052 21.2039183,23.2313232 19.8508742,24.0666203 Z M24.6506336,18.8408419 L23.6397409,18.3320578 C24.2895197,17.043138 24.7004425,15.6434163 24.8453409,14.1882936 L25.9716995,14.3002261 C25.8147362,15.8820408 25.3668832,17.4213497 24.6506336,18.8408419 Z M26,12.0174813 L24.8713773,12.1022787 C24.764082,10.6549514 24.3902945,9.23982579 23.7687911,7.92798747 L24.792136,7.44520787 C25.4690832,8.87432596 25.880006,10.4187685 26,12.0174813 Z M23.5888001,5.40667942 L22.6696008,6.06696818 C21.8202109,4.88939944 20.7629757,3.87637182 19.5497572,3.0775787 L20.1723675,2.13350148 C21.5005419,3.00814483 22.6579039,4.117345 23.587668,5.40667942 L23.5888001,5.40667942 Z M18.0192678,0.990433119 L17.5845726,2.03400593 C16.2434199,1.47637626 14.8109311,1.17014646 13.3587466,1.1306314 L13.3904432,0 C14.9979098,0.0452252455 16.5612277,0.38441467 18.0203999,0.990433119 L18.0192678,0.990433119 Z M11.0573526,0.142459558 L11.2271554,1.25952338 C9.79099415,1.47574908 8.4071266,1.95487123 7.14509578,2.67281266 L6.58587851,1.69142461 C7.96899369,0.904562577 9.48564698,0.379444008 11.0596166,0.142459558 L11.0573526,0.142459558 Z M4.63314617,3.05044355 L5.36329826,3.91537658 C4.25150914,4.85082279 3.32005722,5.98114225 2.61475676,7.25073927 L1.62537235,6.70238303 C2.39687414,5.3128972 3.4157786,4.0756945 4.63201416,3.0515742 L4.63314617,3.05044355 Z M0.675608648,8.8539746 L1.74876242,9.21464604 C1.28250368,10.6020792 1.07754815,12.0637603 1.14426441,13.5257436 L0.0133776819,13.5754914 C-0.0593851794,11.9746968 0.165140306,10.3742778 0.675608648,8.85510525 L0.675608648,8.8539746 Z M0.331474927,15.920421 L1.4351932,15.6671595 C1.7612146,17.0861019 2.34646828,18.4259002 3.15699372,19.6255001 L2.21855019,20.2586537 C1.32793614,18.9406929 0.688220549,17.4700388 0.331474927,15.920421 Z M3.73319127,22.1083667 L4.54032064,21.3169247 C5.55913752,22.3514524 6.75794537,23.1937728 8.0778792,23.79753 L7.60695943,24.825274 C6.16063838,24.163128 4.84777856,23.2423402 3.73319127,22.1083667 Z M9.82571616,25.6065403 L10.1030608,24.5098278 C11.0432765,24.746128 12.0088656,24.8668686 12.9783884,24.8693686 L12.9738603,26 C11.9127356,25.9972138 10.8559179,25.8650836 9.82684816,25.6065403 L9.82571616,25.6065403 Z" id="Shape"></path>
                </g>
            </g>
            <g id="编辑-4" transform="translate(7.000000, 6.000000)" fill="#02B0F0" fill-rule="nonzero">
                <path d="M10.4762286,14 L1.4974967,14 C0.672728001,14 0,13.3261333 0,12.49531 L0,2.47311185 C0,1.64438133 0.670645252,0.968421839 1.4974967,0.968421839 L8.48095486,0.968421839 C8.75587776,0.968421839 8.97873193,1.1923465 8.97873193,1.46859001 C8.97873193,1.74483351 8.75587776,1.96875817 8.48095486,1.96875817 L1.4974967,1.96875817 C1.2225738,1.96875817 0.99971963,2.19477559 0.99971963,2.46892634 L0.99971963,12.4932172 C0.99971963,12.7694607 1.22465655,12.9933854 1.4974967,12.9933854 L10.4762286,12.9933854 C10.7511515,12.9933854 10.9740057,12.7694607 10.9740057,12.4932172 L10.9740057,4.47797003 C10.9740057,4.20172652 11.1968599,3.97780186 11.4717828,3.97780186 C11.7467057,3.97780186 11.9695598,4.20172652 11.9695598,4.47797003 L11.9695598,12.4974027 C11.9737253,13.3261333 11.2989146,14 10.4762286,14 M7.54371771,5.98266004 C7.41667,5.98266004 7.28753955,5.9345267 7.19173309,5.83616727 C6.99803741,5.64154116 6.99803741,5.32344258 7.19173309,5.12672372 L12.1486763,0.14596958 C12.3423719,-0.0486565268 12.6589498,-0.0486565268 12.8547282,0.14596958 C13.0484239,0.340595687 13.0484239,0.658694271 12.8547282,0.855413132 L7.89778508,5.83616727 C7.79989586,5.9345267 7.67284816,5.98266004 7.54371771,5.98266004 M5.48804422,5.98266004 L2.49513358,5.98266004 C2.22021068,5.98266004 1.99735651,5.75873538 1.99735651,5.48249187 C1.99735651,5.20624837 2.22021068,4.9823237 2.49513358,4.9823237 L5.48804422,4.9823237 C5.76296712,4.9823237 5.98582128,5.20624837 5.98582128,5.48249187 C5.98790403,5.75664262 5.76296712,5.98266004 5.48804422,5.98266004 M8.48095486,8.98785455 L2.49513358,8.98785455 C2.22021068,8.98785455 1.99735651,8.76392989 1.99735651,8.48768639 C1.99735651,8.21144288 2.22021068,7.98751822 2.49513358,7.98751822 L8.48095486,7.98751822 C8.75587776,7.98751822 8.97873193,8.21144288 8.97873193,8.48768639 C8.97873193,8.76392989 8.75587776,8.98785455 8.48095486,8.98785455" id="Shape"></path>
            </g>
        </g>
    </g>
</svg>