<?xml version="1.0" encoding="UTF-8"?>
<svg width="14px" height="13px" viewBox="0 0 14 13" version="1.1" xmlns="http://www.w3.org/2000/svg" xmlns:xlink="http://www.w3.org/1999/xlink">
    <!-- Generator: Sketch 50.2 (55047) - http://www.bohemiancoding.com/sketch -->
    <title>Artboard 18</title>
    <desc>Created with Sketch.</desc>
    <defs></defs>
    <g id="Artboard-18" stroke="none" stroke-width="1" fill="none" fill-rule="evenodd">
        <g id="编辑-3-copy-2" fill="#C6CACF" fill-rule="nonzero">
            <path d="M10.263132,11.6950267 L10.163132,11.6988442 C10.197209,11.698741 10.2304224,11.6972965 10.263132,11.6950267 Z M2.48146883,11.6950413 C2.5141901,11.697208 2.54738878,11.6987556 2.58146883,11.6987556 L2.48146883,11.6950413 Z M12.0872175,6.48776807 C11.7358552,6.48776807 11.4510354,6.77862591 11.4510354,7.13742915 L11.4547481,10.4906319 C11.441775,11.4292183 11.2218206,11.6824947 10.2428196,11.6950121 L11.4468209,11.6868135 L11.4547194,10.4924473 L11.4560526,11.6956855 L1.2775249,11.7009267 L1.2775249,11.6869453 L2.48144016,11.6949974 C1.59025474,11.6838562 1.32726695,11.4736808 1.27703751,10.7301464 L1.27267971,2.00148317 L1.28711494,2.59836615 C1.28711494,1.6409231 1.44925681,1.34614167 2.31254656,1.30440232 L10.8238842,1.29943928 C11.1752322,1.29943928 11.4600663,1.00852288 11.4600663,0.649704999 C11.4600663,0.29088712 11.1752179,0 10.8238842,0 L1.15387219,0.00560721562 C0.513489894,0.0657640014 0.0107798331,0.610352008 0,1.2774789 L0.00523223281,11.8172728 C0.0655677613,12.4776798 0.60950495,12.9946124 1.27181961,12.9946124 L1.94779542,12.9946124 L1.94779542,13 L11.4507917,12.9946124 C12.1535164,12.9946124 12.723199,12.4128381 12.723199,11.6950706 L12.723199,11.0454095 L12.7277432,11.0454095 L12.7233854,7.13742915 C12.723371,6.77862591 12.4385512,6.48778271 12.0871889,6.48778271 L12.0872175,6.48776807 Z M1.27235,1.30646304 L1.67538961,1.30481225 L1.27235,1.3236932 L1.27235,1.30656622 L1.27235,1.30646304 Z M13.7407034,1.52451848 C13.3949317,1.17138101 12.8342944,1.17138101 12.488537,1.52451848 L5.33078514,8.86673544 C4.98508506,9.2198729 4.98508506,9.79245306 5.33078514,10.1455759 C5.67658555,10.4987133 6.23719421,10.4987133 6.58295162,10.1455759 L13.7407034,2.80335892 C14.0864322,2.45022146 14.0864322,1.87768522 13.7407034,1.52451848 Z" id="Shape"></path>
        </g>
    </g>
</svg>