<?xml version="1.0" encoding="UTF-8"?>
<svg width="17px" height="17px" viewBox="0 0 17 17" version="1.1" xmlns="http://www.w3.org/2000/svg" xmlns:xlink="http://www.w3.org/1999/xlink">
    <!-- Generator: Sketch 50.2 (55047) - http://www.bohemiancoding.com/sketch -->
    <title>Artboard 3</title>
    <desc>Created with Sketch.</desc>
    <defs></defs>
    <g id="Artboard-3" stroke="none" stroke-width="1" fill="none" fill-rule="evenodd">
        <g id="仪表盘-4" fill="#1296DB" fill-rule="nonzero">
            <path d="M6.671875,5.5 L6.671875,12.5833333 C6.671875,12.7916667 6.90624999,13 7.14062498,13 C7.37499997,13 7.60937499,12.7916667 7.60937499,12.5833333 L7.60937499,5.5 C7.60937499,5.29166667 7.375,5.08333333 7.14062498,5.08333335 C6.90624996,5.08333337 6.67187497,5.29166667 6.671875,5.5 Z M12.0625,10.0833333 L12.0625,12.5833333 C12.0625,12.7916667 12.296875,13 12.53125,13 C12.765625,13 13,12.7916667 13,12.5833333 L13,10.0833333 C13,9.87500002 12.765625,9.66666667 12.53125,9.66666667 C12.296875,9.66666667 12.0625,9.875 12.0625,10.0833333 Z M9.85937499,7.16666667 C9.625,7.16666667 9.39062498,7.375 9.39062498,7.58333335 L9.39062498,12.5833333 C9.39062498,12.7916667 9.62499997,13 9.85937499,13 C10.09375,13 10.328125,12.7916667 10.328125,12.5833333 L10.328125,7.58333335 C10.328125,7.37500002 10.09375,7.16666667 9.85937499,7.16666667 Z M4,3.41666667 L4,12.5833333 C4,12.7916667 4.23437499,13 4.46874998,13 C4.70312497,13 4.93749999,12.7916667 4.93749999,12.5833333 L4.93749999,3.41666667 C4.93749999,3.20833335 4.703125,3 4.46874998,3 C4.23437496,3 3.99999997,3.20833333 4,3.41666667 Z" id="Shape"></path>
            <path d="M15.9208294,13.9578947 L15.9208294,2.01315792 L15.0238812,2.01315792 L15.0238812,13.9578947 C14.5305598,14.0921052 14.1269331,14.4947368 13.9923909,14.9868421 L3.04962364,14.9868421 C2.91508142,14.4947369 2.51145476,14.0921053 2.0181333,13.9578947 L2.0181333,3.04210528 C2.51145476,2.90789475 2.91508142,2.50526317 3.04962364,2.01315789 L15.9208294,2.01315789 L15.9208294,1.11842106 L3.04962364,1.11842106 C2.87023403,0.44736843 2.24237032,0 1.56965922,0 C0.717558489,0 1.26767081e-16,0.715789482 1.26767081e-16,1.56578949 C1.26767081e-16,2.28157897 0.493321464,2.8631579 1.12118518,3.04210528 L1.12118518,13.9578947 C0.448474075,14.1368421 0,14.7631579 0,15.4342105 C0,16.2842105 0.717558515,17 1.56965922,17 C2.28721774,17 2.87023401,16.5078947 3.04962364,15.8815789 L13.9475435,15.8815789 C14.1269331,16.5078947 14.7547968,17 15.4275079,17 C16.2796086,17 16.9971671,16.2842105 16.9971671,15.4342105 C17.0420145,14.7631579 16.5486931,14.1368421 15.9208294,13.9578947 Z M0.896948124,1.56578949 C0.896948124,1.20789476 1.21087998,0.894736859 1.56965922,0.894736859 C1.92843847,0.894736859 2.24237032,1.20789476 2.24237032,1.56578949 C2.24237032,1.92368422 1.92843847,2.23684212 1.56965922,2.23684212 C1.21087998,2.23684212 0.896948124,1.92368422 0.896948124,1.56578949 Z M1.56965922,16.1052631 C1.21087998,16.1052631 0.896948124,15.7921052 0.896948124,15.4342105 C0.896948124,15.0763158 1.21087998,14.7631579 1.56965922,14.7631579 C1.92843847,14.7631579 2.24237032,15.0763158 2.24237032,15.4342105 C2.24237032,15.7921052 1.92843847,16.1052631 1.56965922,16.1052631 Z M15.4723553,16.1052631 C15.1135761,16.1052631 14.7996442,15.7921052 14.7996442,15.4342105 C14.7996442,15.0763158 15.1135761,14.7631579 15.4723553,14.7631579 C15.8311345,14.7631579 16.1450664,15.0763158 16.1450664,15.4342105 C16.1450664,15.7921052 15.8311345,16.1052631 15.4723553,16.1052631 Z" id="Shape"></path>
        </g>
    </g>
</svg>