<?xml version="1.0" encoding="UTF-8"?>
<svg width="20px" height="20px" viewBox="0 0 20 20" version="1.1" xmlns="http://www.w3.org/2000/svg" xmlns:xlink="http://www.w3.org/1999/xlink">
    <!-- Generator: Sketch 47.1 (45422) - http://www.bohemiancoding.com/sketch -->
    <title>编辑</title>
    <desc>Created with Sketch.</desc>
    <defs></defs>
    <g id="Page-1" stroke="none" stroke-width="1" fill="none" fill-rule="evenodd">
        <g id="编辑" fill-rule="nonzero" fill="#C6CACF">
            <g id="Group-2" transform="translate(4.000000, 4.000000)">
                <g id="更改库存说明">
                    <path d="M11.690268,0.0848131055 C11.5890566,-0.0164102695 11.4249479,-0.0164102695 11.3237365,0.0847891172 L7.92560045,3.48292518 C7.82437707,3.58412456 7.82437707,3.74824529 7.92561244,3.84946866 L7.92561244,3.84946866 C8.02681182,3.95066804 8.19093255,3.95066804 8.29213194,3.84946866 L11.690268,0.451332598 C11.7914794,0.350133223 11.7914794,0.18602448 11.690268,0.0848131055 L11.690268,0.0848131055 Z" id="Shape"></path>
                    <path d="M10.4665457,11.9442084 L1.53345432,11.9442084 C0.690425895,11.9442084 0.00457490625,11.2583574 0.00457490625,10.415341 L0.00457490625,1.68889354 C0.00457490625,0.845853117 0.690425895,0.160002129 1.53345432,0.160002129 L6.32040477,0.160002129 C6.32595701,0.159654363 6.33154521,0.159414527 6.33718139,0.159414527 C6.4830385,0.159414527 6.60129033,0.277666348 6.60129033,0.423535453 C6.60129033,0.564248051 6.49121695,0.679226098 6.35249501,0.687164707 C6.35242305,0.68733259 6.3523511,0.687488484 6.35229115,0.687632391 L1.53345432,0.687632391 C0.981372633,0.687632391 0.532217168,1.13678787 0.532217168,1.68888155 L0.532217168,10.415329 C0.532217168,10.9673987 0.981372645,11.4165542 1.53345432,11.4165542 L10.4665457,11.4165542 C11.0186274,11.4165542 11.4677828,10.9673987 11.4677828,10.415329 L11.4677828,6.43516757 C11.4674351,6.42963932 11.4672072,6.42406309 11.4672072,6.41846289 C11.4672072,6.27259378 11.5854471,6.15434196 11.7313162,6.15434196 C11.8771733,6.15434196 11.9954251,6.27259378 11.9954251,6.41846289 L11.9954251,10.415341 C11.9954251,11.2583574 11.3095741,11.9442084 10.4665457,11.9442084 Z" id="Shape"></path>
                    <polygon id="Shape" points="2.08779048 3.85346196 4.04328066 3.85346196 4.04328066 9.86325932 2.08779048 9.86325932"></polygon>
                    <polygon id="Shape" points="5.02248875 6.15437794 6.97802689 6.15437794 6.97802689 9.86325932 5.02248875 9.86325932"></polygon>
                    <polygon id="Shape" points="7.95671934 8.43798966 9.91220952 8.43798966 9.91220952 9.86325932 7.95671934 9.86325932"></polygon>
                </g>
            </g>
        </g>
    </g>
</svg>