<?xml version="1.0" encoding="UTF-8"?>
<svg width="168px" height="148px" viewBox="0 0 168 148" version="1.1" xmlns="http://www.w3.org/2000/svg" xmlns:xlink="http://www.w3.org/1999/xlink">
    <!-- Generator: Sketch 50.2 (55047) - http://www.bohemiancoding.com/sketch -->
    <title>无布局</title>
    <desc>Created with Sketch.</desc>
    <defs></defs>
    <g id="无布局" stroke="none" stroke-width="1" fill="none" fill-rule="evenodd">
        <g id="Illustrations-/-illustration-favorites" opacity="0.492697011" transform="translate(-196.000000, -261.000000)">
            <path d="M324,369 C324,372.3135 321.3135,375 318,375 L246,375 C242.6865,375 240,372.3135 240,369 L240,255 C240,251.6865 242.6865,249 246,249 L318,249 C321.3135,249 324,251.6865 324,255 L324,369 Z" id="Fill-38" fill="#333746" opacity="0.462182971" transform="translate(282.000000, 312.000000) rotate(90.000000) translate(-282.000000, -312.000000) "></path>
            <path d="M246,250 C243.243,250 241,252.243 241,255 L241,369 C241,371.757 243.243,374 246,374 L318,374 C320.757,374 323,371.757 323,369 L323,255 C323,252.243 320.757,250 318,250 L246,250 Z M318,376 L246,376 C242.1405,376 239,372.86 239,369 L239,255 C239,251.14 242.1405,248 246,248 L318,248 C321.8595,248 325,251.14 325,255 L325,369 C325,372.86 321.8595,376 318,376 L318,376 Z" id="Fill-36" fill="#FFFFFF" opacity="0.287533967" transform="translate(282.000000, 312.000000) rotate(90.000000) translate(-282.000000, -312.000000) "></path>
            <path d="M256,344 C256,345.1045 255.1045,346 254,346 L234,346 C232.8955,346 232,345.1045 232,344 L232,314 C232,312.8955 232.8955,312 234,312 L254,312 C255.1045,312 256,312.8955 256,314 L256,344 Z" id="Fill-31" fill-opacity="0.2" fill="#FFFFFF" opacity="0.382529438"></path>
            <path d="M333,344 C333,345.1045 332.1045,346 331,346 L311,346 C309.8955,346 309,345.1045 309,344 L309,314 C309,312.8955 309.8955,312 311,312 L331,312 C332.1045,312 333,312.8955 333,314 L333,344 Z" id="Fill-31-Copy" fill-opacity="0.2" fill="#FFFFFF" opacity="0.394304801"></path>
            <path d="M297,305 C297,306.1045 296.1045,307 295,307 L231,307 C229.8955,307 229,306.1045 229,305 L229,285 C229,283.8955 229.8955,283 231,283 L295,283 C296.1045,283 297,283.8955 297,285 L297,305 Z" id="Fill-30" fill-opacity="0.2" fill="#FFFFFF" opacity="0.484997736"></path>
            <path d="M294.636,306.5 C295.199,306.5 295.7055,306.2655 296.069,305.891 L294.338,300.7665 C293.599,298.5135 291.509,297 289.1375,297 C286.766,297 284.676,298.5135 283.9395,300.759 L282,306.5 L294.636,306.5 Z" id="Fill-29" fill-opacity="0.2" fill="#FFFFFF"></path>
            <path d="M263.5,297 L245.5,297 C243.567,297 242,295.433 242,293.5 C242,291.567 243.567,290 245.5,290 L249.5,290 C251.157,290 252.5,288.657 252.5,287 C252.5,285.343 251.157,284 249.5,284 L230,284 L230,306 L263.5,306 C265.9855,306 268,303.9855 268,301.5 C268,299.0145 265.9855,297 263.5,297" id="Fill-28" fill-opacity="0.2" fill="#FFFFFF" opacity="0.604619565"></path>
            <path d="M231,284 C230.448,284 230,284.4485 230,285 L230,305 C230,305.5515 230.448,306 231,306 L295,306 C295.552,306 296,305.5515 296,305 L296,285 C296,284.4485 295.552,284 295,284 L231,284 Z M295,308 L231,308 C229.3455,308 228,306.6545 228,305 L228,285 C228,283.3455 229.3455,282 231,282 L295,282 C296.6545,282 298,283.3455 298,285 L298,305 C298,306.6545 296.6545,308 295,308 L295,308 Z" id="Fill-27" fill="#FFFFFF" opacity="0.281589674"></path>
            <polygon id="Fill-21" fill-opacity="0.2" fill="#FFFFFF" opacity="0.571841033" points="249 335 249 320 241 320 241 328 235 328 235 346 257 346 257 335"></polygon>
            <polygon id="Fill-21-Copy" fill-opacity="0.2" fill="#FFFFFF" points="323 335 323 320 315 320 315 328 309 328 309 346 331 346 331 335"></polygon>
            <path d="M234,313 C233.448,313 233,313.4485 233,314 L233,344 C233,344.5515 233.448,345 234,345 L254,345 C254.552,345 255,344.5515 255,344 L255,314 C255,313.4485 254.552,313 254,313 L234,313 Z M254,347 L234,347 C232.3455,347 231,345.6545 231,344 L231,314 C231,312.3455 232.3455,311 234,311 L254,311 C255.6545,311 257,312.3455 257,314 L257,344 C257,345.6545 255.6545,347 254,347 L254,347 Z" id="Fill-20" fill="#FFFFFF" opacity="0.304913949"></path>
            <path d="M264,329 C262.8955,329 262,329.8955 262,331 C262,332.1045 262.8955,333 264,333 L302,333 C303.1045,333 304,332.1045 304,331 C304,329.8955 303.1045,329 302,329 L264,329 Z" id="Fill-19" fill-opacity="0.2" fill="#FFFFFF"></path>
            <path d="M264,335 C262.8955,335 262,335.8955 262,337 C262,338.1045 262.8955,339 264,339 L302,339 C303.1045,339 304,338.1045 304,337 C304,335.8955 303.1045,335 302,335 L264,335 Z" id="Fill-19-Copy" fill-opacity="0.2" fill="#FFFFFF"></path>
            <path d="M264,342 C262.8955,342 262,342.8955 262,344 C262,345.1045 262.8955,346 264,346 L302,346 C303.1045,346 304,345.1045 304,344 C304,342.8955 303.1045,342 302,342 L264,342 Z" id="Fill-19-Copy-2" fill-opacity="0.2" fill="#FFFFFF"></path>
            <path d="M266,272 L248,272 C247.4475,272 247,272.4475 247,273 C247,273.552 247.4475,274 248,274 L266,274 C266.5525,274 267,273.552 267,273 C267,272.4475 266.5525,272 266,272" id="Fill-16" fill-opacity="0.2" fill="#FFFFFF"></path>
            <path d="M333,284 L309,284 C308.4475,284 308,284.4475 308,285 C308,285.552 308.4475,286 309,286 L333,286 C333.5525,286 334,285.552 334,285 C334,284.4475 333.5525,284 333,284" id="Fill-15" fill-opacity="0.2" fill="#FFFFFF"></path>
            <path d="M333,288 L309,288 C308.4475,288 308,288.4475 308,289 C308,289.552 308.4475,290 309,290 L333,290 C333.5525,290 334,289.552 334,289 C334,288.4475 333.5525,288 333,288" id="Fill-14" fill-opacity="0.2" fill="#FFFFFF"></path>
            <path d="M333,292 L309,292 C308.4475,292 308,292.4475 308,293 C308,293.552 308.4475,294 309,294 L333,294 C333.5525,294 334,293.552 334,293 C334,292.4475 333.5525,292 333,292" id="Fill-13" fill-opacity="0.2" fill="#FFFFFF"></path>
            <path d="M325.5,296 L309,296 C308.4475,296 308,296.4475 308,297 C308,297.552 308.4475,298 309,298 L325.5,298 C326.0525,298 326.5,297.552 326.5,297 C326.5,296.4475 326.0525,296 325.5,296" id="Fill-12" fill-opacity="0.2" fill="#FFFFFF"></path>
            <path d="M291,272 L274,272 C273.4475,272 273,272.4475 273,273 C273,273.552 273.4475,274 274,274 L291,274 C291.5525,274 292,273.552 292,273 C292,272.4475 291.5525,272 291,272" id="Fill-11" fill-opacity="0.2" fill="#FFFFFF"></path>
            <path d="M316,272 L299,272 C298.4475,272 298,272.4475 298,273 C298,273.552 298.4475,274 299,274 L316,274 C316.5525,274 317,273.552 317,273 C317,272.4475 316.5525,272 316,272" id="Fill-10" fill-opacity="0.2" fill="#FFFFFF"></path>
            <path d="M336,308.5 L335.5,308.5 L335.5,308 C335.5,307.448 335.052,307 334.5,307 C333.948,307 333.5,307.448 333.5,308 L333.5,308.5 L333,308.5 C332.448,308.5 332,308.948 332,309.5 C332,310.052 332.448,310.5 333,310.5 L333.5,310.5 L333.5,311 C333.5,311.552 333.948,312 334.5,312 C335.052,312 335.5,311.552 335.5,311 L335.5,310.5 L336,310.5 C336.552,310.5 337,310.052 337,309.5 C337,308.948 336.552,308.5 336,308.5" id="Fill-6" fill-opacity="0.2" fill="#FFFFFF"></path>
            <path d="M303,279.5 L302.5,279.5 L302.5,279 C302.5,278.448 302.052,278 301.5,278 C300.948,278 300.5,278.448 300.5,279 L300.5,279.5 L300,279.5 C299.448,279.5 299,279.948 299,280.5 C299,281.052 299.448,281.5 300,281.5 L300.5,281.5 L300.5,282 C300.5,282.552 300.948,283 301.5,283 C302.052,283 302.5,282.552 302.5,282 L302.5,281.5 L303,281.5 C303.552,281.5 304,281.052 304,280.5 C304,279.948 303.552,279.5 303,279.5" id="Fill-5" fill-opacity="0.2" fill="#FFFFFF"></path>
            <path d="M227.5,276.5 L227.5,274 C227.5,273.448 227.052,273 226.5,273 C225.948,273 225.5,273.448 225.5,274 L225.5,276.5 L223,276.5 C222.448,276.5 222,276.948 222,277.5 C222,278.052 222.448,278.5 223,278.5 L225.5,278.5 L225.5,281 C225.5,281.552 225.948,282 226.5,282 C227.052,282 227.5,281.552 227.5,281 L227.5,278.5 L230,278.5 C230.552,278.5 231,278.052 231,277.5 C231,276.948 230.552,276.5 230,276.5 L227.5,276.5 Z" id="Fill-4" fill-opacity="0.2" fill="#FFFFFF"></path>
            <path d="M268,321.5 L267.5,321.5 L267.5,321 C267.5,320.448 267.052,320 266.5,320 C265.948,320 265.5,320.448 265.5,321 L265.5,321.5 L265,321.5 C264.448,321.5 264,321.948 264,322.5 C264,323.052 264.448,323.5 265,323.5 L265.5,323.5 L265.5,324 C265.5,324.552 265.948,325 266.5,325 C267.052,325 267.5,324.552 267.5,324 L267.5,323.5 L268,323.5 C268.552,323.5 269,323.052 269,322.5 C269,321.948 268.552,321.5 268,321.5" id="Fill-3" fill-opacity="0.2" fill="#FFFFFF"></path>
            <path d="M348.811715,365 L209.188285,365 C208.531757,365 208,365.4475 208,366 C208,366.552 208.531757,367 209.188285,367 L348.811715,367 C349.468243,367 350,366.552 350,366 C350,365.4475 349.468243,365 348.811715,365" id="Fill-2" fill-opacity="0.2" fill="#FFFFFF"></path>
            <path d="M357.5,365 L353,365 C352.4475,365 352,365.4475 352,366 C352,366.552 352.4475,367 353,367 L357.5,367 C358.0525,367 358.5,366.552 358.5,366 C358.5,365.4475 358.0525,365 357.5,365" id="Fill-1" fill-opacity="0.2" fill="#FFFFFF"></path>
        </g>
        <g id="Group-Copy-2" transform="translate(7.000000, 119.000000)" fill="#A1A1AE" font-family="PingFangSC-Regular, PingFang SC" font-size="12" font-weight="normal">
            <text id="暂时没有布局，去编辑布局吧">
                <tspan x="0" y="13">暂时没有布局，去编辑布局吧</tspan>
            </text>
        </g>
    </g>
</svg>