<?xml version="1.0" encoding="UTF-8"?>
<svg width="18px" height="18px" viewBox="0 0 18 18" version="1.1" xmlns="http://www.w3.org/2000/svg" xmlns:xlink="http://www.w3.org/1999/xlink">
    <!-- Generator: Sketch 51.2 (57519) - http://www.bohemiancoding.com/sketch -->
    <title>选中Excel文件</title>
    <desc>Created with Sketch.</desc>
    <defs></defs>
    <g id="选中Excel文件" stroke="none" stroke-width="1" fill="none" fill-rule="evenodd">
        <g id="Group-6-Copy-2" fill-rule="nonzero">
            <polygon id="Path" fill="#FFFFFF" points="17 3.02202336 10.2012012 3.02202336 10.2012012 1 1 2.75483818 1 15.3540048 10.2012012 17 10.2012012 15.1591188 17 15.1591188"></polygon>
            <g id="excel-copy-2" fill="#4D8E6A">
                <path d="M18,2.27477628 L10.3513514,2.27477628 L10.3513514,0 L0,1.97419295 L0,16.1482554 L10.3513514,18 L10.3513514,15.9290086 L18,15.9290086 L18,2.27477628 Z M7.31531532,12.5377614 C7.30630632,12.5466857 7.29729731,12.5466857 7.28828828,12.5466857 L5.89189189,12.4663667 C5.80180179,12.4663667 5.73873874,12.394972 5.72972973,12.314653 C5.44144145,11.5917819 5.17117118,10.8689108 4.89189189,10.1371153 C4.87387387,10.0746449 4.85585586,10.0121746 4.81981983,9.94970428 C4.66666668,10.315602 4.51351353,10.6725754 4.36936937,11.0117001 L3.86486487,12.2254097 C3.84684685,12.3057287 3.76576576,12.3592747 3.67567567,12.341426 C3.31531531,12.314653 2.96396395,12.28788 2.60360361,12.2789557 C2.45945947,12.2789557 2.44144145,12.234334 2.5045045,12.1183176 C2.99099099,11.1812625 3.45945947,10.2174343 3.94594595,9.28037915 C4.01801803,9.1643628 4.01801803,9.01264911 3.94594595,8.89663275 C3.4954955,7.95957758 3.07207208,7.0671441 2.62162162,6.13008895 C2.53153153,5.94267791 2.57657658,5.9159049 3.02702702,5.89805624 L3.73873874,5.84451024 C3.9009009,5.84451024 3.93693695,5.84451024 3.97297298,5.96945092 C4.24324324,6.66554905 4.5045045,7.37057149 4.77477477,8.05774527 C4.79279279,8.11129127 4.8108108,8.16483729 4.83783784,8.20945898 C5.14414414,7.51336085 5.4954955,6.70124639 5.77477477,6.01407259 C5.79279279,5.80881288 5.97297298,5.66602353 6.18018017,5.68387219 C6.19819819,5.68387219 6.2162162,5.68387219 6.22522523,5.69279653 C6.53153153,5.69279653 6.82882884,5.68387219 7.13513513,5.64817486 C7.17117116,5.63925053 7.21621622,5.64817486 7.25225225,5.67494786 C7.26126126,5.7106452 7.26126126,5.74634255 7.25225225,5.79096422 C6.73873874,6.79941406 6.24324324,7.81678823 5.73873874,8.82523808 C5.66666666,8.95017877 5.66666666,9.10189246 5.73873874,9.22683315 C6.21621622,10.1728127 7.13513513,12.0647716 7.32432433,12.4663667 C7.34234235,12.4842154 7.34234235,12.5109884 7.32432433,12.5288371 C7.32432433,12.5377614 7.31531532,12.5377614 7.31531532,12.5377614 Z M12.8198198,13.992428 C12.8198198,14.045974 12.7837838,14.0816713 12.7297297,14.0816713 L10.3513514,14.0816713 L10.3513514,12.7430211 L12.7297297,12.7430211 C12.7837838,12.7430211 12.8198198,12.7787184 12.8198198,12.8322644 L12.8198198,13.992428 Z M12.8198198,11.8327389 C12.8198198,11.8862849 12.7747748,11.9219823 12.7297297,11.9219823 L10.3513514,11.9219823 L10.3513514,10.5833321 L12.7297297,10.5833321 C12.7837838,10.5833321 12.8198198,10.6190294 12.8198198,10.6725754 L12.8198198,11.8327389 Z M12.8198198,9.67304988 C12.8198198,9.72659589 12.7837838,9.76229324 12.7297297,9.76229324 L10.3513514,9.76229324 L10.3513514,8.423643 L12.7297297,8.423643 C12.7837838,8.423643 12.8198198,8.46826467 12.8198198,8.51288636 L12.8198198,9.67304988 Z M12.8198198,7.53120952 C12.8198198,7.58475552 12.7747748,7.62045287 12.7297297,7.62045287 L10.3513514,7.62045287 L10.3513514,6.2728783 L12.7297297,6.2728783 C12.7837838,6.2728783 12.8198198,6.30857564 12.8198198,6.36212166 L12.8198198,7.53120952 Z M12.8198198,5.38044482 C12.8198198,5.43399082 12.7747748,5.46968817 12.7297297,5.46968817 L10.3513514,5.46968817 L10.3513514,4.1221136 L12.7297297,4.1221136 C12.7837838,4.1221136 12.8198198,4.16673527 12.8198198,4.21135694 L12.8198198,5.38044482 Z M16.6396396,13.992428 C16.6396396,14.045974 16.5945946,14.0816713 16.5495495,14.0816713 L13.6666667,14.0816713 C13.6126126,14.0816713 13.5765766,14.045974 13.5765766,13.992428 L13.5765766,12.8322644 C13.5765766,12.7787184 13.6216216,12.7430211 13.6666667,12.7430211 L16.5495495,12.7430211 C16.6036036,12.7430211 16.6396396,12.7876428 16.6396396,12.8322644 L16.6396396,13.992428 Z M16.6396396,11.8327389 C16.6396396,11.8862849 16.5945946,11.9219823 16.5495495,11.9219823 L13.6666667,11.9219823 C13.6126126,11.9219823 13.5765766,11.8773606 13.5765766,11.8327389 L13.5765766,10.6725754 C13.5765766,10.6190294 13.6126126,10.5833321 13.6666667,10.5833321 L16.5495495,10.5833321 C16.6036036,10.5833321 16.6396396,10.6279537 16.6396396,10.6725754 L16.6396396,11.8327389 Z M16.6396396,9.67304988 C16.6396396,9.72659589 16.5945946,9.76229324 16.5495495,9.76229324 L13.6666667,9.76229324 C13.6126126,9.76229324 13.5765766,9.7265959 13.5765766,9.67304988 L13.5765766,8.52181069 C13.5765766,8.46826469 13.6216216,8.43256734 13.6666667,8.43256734 L16.5495495,8.43256734 C16.6036036,8.43256734 16.6396396,8.477189 16.6396396,8.52181069 L16.6396396,9.67304988 Z M16.6396396,7.53120952 C16.6396396,7.58475552 16.5945946,7.62045287 16.5495495,7.62045287 L13.6666667,7.62045287 C13.6126126,7.62045287 13.5765766,7.5758312 13.5765766,7.53120952 L13.5765766,6.37104599 C13.5765766,6.31749999 13.6126126,6.28180264 13.6666667,6.28180264 L16.5495495,6.28180264 C16.6036036,6.28180264 16.6396396,6.3264243 16.6396396,6.37104599 L16.6396396,7.53120952 Z M16.6396396,5.38044482 C16.6396396,5.43399082 16.5945946,5.46968817 16.5495495,5.46968817 L13.6666667,5.46968817 C13.6126126,5.46968817 13.5765766,5.4250665 13.5765766,5.38044482 L13.5765766,4.21135694 C13.5765766,4.15781094 13.6216216,4.12211358 13.6666667,4.1221136 L16.5495495,4.1221136 C16.6036036,4.1221136 16.6396396,4.16673527 16.6396396,4.21135694 L16.6396396,5.38044482 Z" id="Shape"></path>
            </g>
        </g>
    </g>
</svg>