<?xml version="1.0" encoding="UTF-8"?>
<svg width="18px" height="18px" viewBox="0 0 18 18" version="1.1" xmlns="http://www.w3.org/2000/svg" xmlns:xlink="http://www.w3.org/1999/xlink">
    <!-- Generator: Sketch 50.2 (55047) - http://www.bohemiancoding.com/sketch -->
    <title>缩放</title>
    <desc>Created with Sketch.</desc>
    <defs></defs>
    <g id="缩放" stroke="none" stroke-width="1" fill="none" fill-rule="evenodd">
        <g id="Group-25" fill="#1296DB">
            <path d="M0.897600006,0.158400005 C0.686399998,-0.0528000018 0.369600013,-0.0528000018 0.158400005,0.158400005 C-0.0528000018,0.369600013 -0.0528000018,0.686399998 0.158400005,0.897600006 L4.6992,5.4384 L2.16480002,5.4384 C1.95360001,5.4384 1.74240002,5.64960001 1.7424,5.8608 L1.7424,6.1776 C1.7424,6.38880001 1.95360001,6.6 2.16480002,6.6 L6.1776,6.6 C6.2832,6.6 6.38880001,6.6 6.4944,6.49439999 C6.6,6.38879999 6.6,6.28319998 6.6,6.1776 L6.6,2.1648 C6.6,1.95359999 6.38879999,1.848 6.1776,1.848 L5.8608,1.848 C5.64959999,1.848 5.4384,2.0592 5.4384,2.27039999 L5.4384,4.8048 L0.897600006,0.158400005 Z" id="Path"></path>
            <path d="M1.0032,17.7795918 L5.544,13.1461225 L5.544,15.7322449 C5.544,15.9477551 5.64959999,16.1632653 5.8608,16.1632653 L6.1776,16.1632653 C6.38880001,16.1632653 6.6,16.0555102 6.6,15.84 L6.6,11.7453061 C6.6,11.637551 6.6,11.5297959 6.4944,11.4220408 C6.38880001,11.3142857 6.2832,11.3142857 6.1776,11.3142857 L2.1648,11.3142857 C1.95359999,11.3142857 1.7424,11.5297959 1.7424,11.7453061 L1.7424,12.0685714 C1.7424,12.2840816 1.95360001,12.4995918 2.1648,12.4995918 L4.6992,12.4995918 L0.158400005,17.1330612 C-0.0528000018,17.3485714 -0.0528000018,17.6718367 0.158400005,17.8873469 C0.475200008,17.8873469 0.79200001,17.995102 1.0032,17.7795918 Z" id="Path"></path>
            <path d="M11.3142857,11.1106286 L11.3142857,14.9122286 C11.3142857,15.1234286 11.5254857,15.2290286 11.7366857,15.2290286 L12.0534857,15.2290286 C12.2646857,15.2290286 12.4758857,15.0178286 12.4758857,14.8066286 L12.4758857,12.2722286 L17.0166857,16.8130286 C17.2278857,17.0242286 17.5446857,17.0242286 17.7558857,16.8130286 C17.9670857,16.6018286 17.9670857,16.2850286 17.7558857,16.0738286 L13.2150857,11.5330286 L15.7494857,11.5330286 C15.9606857,11.5330286 16.1718857,11.3218286 16.1718857,11.1106286 L16.1718857,10.7938286 C16.1718857,10.5826286 15.9606857,10.3714286 15.7494857,10.3714286 L11.7366857,10.3714286 C11.6310857,10.3714286 11.5254857,10.3714286 11.4198857,10.4770286 C11.3142857,10.6882286 11.3142857,10.7938286 11.3142857,10.8994286 L11.3142857,11.1106286 Z" id="Path"></path>
            <path d="M17.7533101,0.897600006 C17.9679443,0.686399998 17.9679443,0.369600013 17.7533101,0.158400005 C17.5386759,-0.0528000018 17.2167247,-0.0528000018 17.0020906,0.158400005 L12.3874564,4.6992 L12.3874564,2.1648 C12.3874564,1.95359999 12.1728223,1.7424 11.9581882,1.7424 L11.6362369,1.7424 C11.5289199,1.7424 11.3142857,1.95360001 11.3142857,2.1648 L11.3142857,6.1776 C11.3142857,6.2832 11.3142857,6.38880001 11.4216028,6.49439999 C11.5289199,6.59999998 11.6362369,6.59999998 11.743554,6.6 L15.8216028,6.6 C16.0362369,6.6 16.2508711,6.38879999 16.2508711,6.1776 L16.2508711,5.8608 C16.2508711,5.64959999 16.0362369,5.4384 15.8216028,5.4384 L13.138676,5.4384 L17.7533101,0.897600006 Z" id="Path"></path>
        </g>
    </g>
</svg>