<?xml version="1.0" encoding="UTF-8"?>
<svg width="16px" height="16px" viewBox="0 0 16 16" version="1.1" xmlns="http://www.w3.org/2000/svg" xmlns:xlink="http://www.w3.org/1999/xlink">
    <!-- Generator: Sketch 50.2 (55047) - http://www.bohemiancoding.com/sketch -->
    <title>Artboard 13</title>
    <desc>Created with Sketch.</desc>
    <defs></defs>
    <g id="Artboard-13" stroke="none" stroke-width="1" fill="none" fill-rule="evenodd">
        <g id="Group-24" fill="#1296DB" fill-rule="nonzero">
            <g id="导出">
                <path d="M6.39859423,12 C4.85015972,8.8988764 6.11706068,7.01123596 10.0585303,4.85393258 L11.1846645,6.74157304 C11.3254313,6.87640449 11.4661981,7.01123596 11.6069648,6.87640449 L11.7477316,6.87640449 C11.8884984,6.87640449 11.8884984,6.74157304 11.8884984,6.60674156 L14,1.3483146 C14,1.21348315 13.8592332,0.943820219 13.7184664,0.943820219 L7.80626196,0 C7.66549519,0 7.52472841,0 7.38396164,0.134831455 C7.24319487,0.269662911 7.24319487,0.404494382 7.38396164,0.539325837 L8.51009583,2.42696629 C4.56862617,4.58426966 2.03482424,7.5505618 5.97629391,12 L6.39859423,12 Z" id="Shape"></path>
                <path d="M14.0854701,6.91743119 L14.0854701,13.3853211 C14.0854701,13.7981651 13.6752137,14.2110092 13.2649573,14.2110092 L2.59829059,14.2110092 C2.18803418,14.2110092 1.77777777,13.7981651 1.77777777,13.3853211 L1.77777777,3.61467889 C1.77777777,3.20183486 2.18803418,2.78899082 2.59829059,2.78899082 L5.1965812,2.78899082 L5.1965812,1 L2.73504274,1 C1.23076923,1 0,2.23853211 0,3.75229357 L0,13.2477064 C0,14.7614679 1.23076923,16 2.73504274,16 L13.2649573,16 C14.7692308,16 16,14.7614679 16,13.2477064 L16,6.91743119 L14.0854701,6.91743119 Z" id="Shape"></path>
            </g>
        </g>
    </g>
</svg>