<?xml version="1.0" encoding="UTF-8"?>
<svg width="16px" height="12px" viewBox="0 0 16 12" version="1.1" xmlns="http://www.w3.org/2000/svg" xmlns:xlink="http://www.w3.org/1999/xlink">
    <!-- Generator: Sketch 50.2 (55047) - http://www.bohemiancoding.com/sketch -->
    <title>字段设置</title>
    <desc>Created with Sketch.</desc>
    <defs></defs>
    <g id="字段设置" stroke="none" stroke-width="1" fill="none" fill-rule="evenodd" opacity="0.552064732">
        <g fill="#E96000" fill-rule="nonzero" id="Shape">
            <path d="M0.5,0 L15.5,0 C15.7761424,0 16,0.223857625 16,0.5 L16,11.5 C16,11.7761424 15.7761424,12 15.5,12 L0.5,12 C0.223857625,12 3.38176876e-17,11.7761424 0,11.5 L0,0.5 C-3.38176876e-17,0.223857625 0.223857625,0 0.5,0 Z M1.2,1.2 L1.2,10.8 L14.8,10.8 L14.8,1.2 L1.2,1.2 Z M2,9.149 L3.63,3.643 C3.766,3.185 3.945,2.822 4.168,2.553 C4.468,2.184 4.873,2 5.384,2 C5.892,2 6.284,2.144 6.559,2.432 C6.775,2.661 6.939,2.955 7.051,3.314 L8.824,9.154 L7.668,9.154 L6.986,6.972 L3.852,6.972 L3.123,9.154 L2,9.149 Z M4.094,5.946 L6.694,5.946 L6.011,3.666 C5.96322256,3.52024193 5.88556906,3.38605125 5.783,3.272 C5.69041168,3.16038317 5.55199065,3.09706291 5.407,3.1 C5.23813465,3.10077925 5.07966791,3.18168265 4.98,3.318 C4.89246937,3.41942937 4.82768248,3.53843266 4.79,3.667 L4.094,5.946 Z M9.242,2.05 L10.231,2.05 L10.231,4.394 L12.635,4.394 C13.084,4.394 13.425,4.504 13.656,4.724 C13.886,4.941 14,5.19 14,5.471 L14,7.931 C14,8.325 13.887,8.625 13.661,8.832 C13.429,9.049 13.161,9.157 12.858,9.157 L10.421,9.157 C10.145,9.157 9.901,9.083 9.687,8.934 C9.39,8.734 9.242,8.373 9.242,7.853 L9.242,2.05 Z M10.681,8.28 L12.519,8.28 C12.708,8.28 12.838,8.241 12.909,8.164 C12.977,8.09 13.011,7.967 13.011,7.797 L13.011,5.727 C13.011,5.423 12.872,5.272 12.593,5.272 L10.84,5.272 C10.614,5.272 10.473,5.292 10.417,5.332 C10.299786,5.40439277 10.2294624,5.53325608 10.232,5.671 L10.232,7.778 C10.232,8.113 10.382,8.28 10.682,8.28 L10.681,8.28 Z"></path>
        </g>
    </g>
</svg>