<?xml version="1.0" encoding="UTF-8"?>
<svg width="14px" height="20px" viewBox="0 0 14 20" version="1.1" xmlns="http://www.w3.org/2000/svg" xmlns:xlink="http://www.w3.org/1999/xlink">
    <!-- Generator: Sketch 50.2 (55047) - http://www.bohemiancoding.com/sketch -->
    <title>箭头--收起</title>
    <desc>Created with Sketch.</desc>
    <defs></defs>
    <g id="箭头--收起" stroke="none" stroke-width="1" fill="none" fill-rule="evenodd">
        <g id="展-开" transform="translate(7.000000, 10.000000) scale(1, -1) translate(-7.000000, -10.000000) translate(1.000000, 7.000000)" fill="#787993" fill-rule="nonzero">
            <path d="M5.91806073,5.99999898 C5.79024607,6.00025396 5.66760556,5.95268326 5.57733965,5.8678376 L0.132336763,0.762557194 C-0.0475422278,0.58489056 -0.0435594782,0.305160263 0.141313682,0.132059087 C0.326186842,-0.0410420891 0.62453651,-0.0443928904 0.813778921,0.124506549 L6.25878181,5.22891171 C6.39664521,5.3580794 6.43790404,5.55241334 6.3633065,5.72123533 C6.28870897,5.89005732 6.11295797,6.00009315 5.91806073,5.99999898" id="Shape"></path>
            <path d="M6.07452678,5.99998565 C5.88284466,6.00142992 5.70937322,5.89371431 5.63593278,5.72764446 C5.56249234,5.5615746 5.60375275,5.37032324 5.74025295,5.24409685 L11.2086066,0.116078455 C11.3951615,-0.0438602763 11.6828693,-0.037806367 11.861589,0.129818425 C12.0403087,0.297443218 12.0467634,0.567290062 11.8762384,0.742263615 L6.40971644,5.87028201 C6.32070584,5.95343961 6.20016029,6.00008543 6.07452678,5.99998565" id="Shape"></path>
        </g>
    </g>
</svg>
