<?xml version="1.0" encoding="UTF-8"?>
<svg width="16px" height="16px" viewBox="0 0 16 16" version="1.1" xmlns="http://www.w3.org/2000/svg" xmlns:xlink="http://www.w3.org/1999/xlink">
    <!-- Generator: Sketch 50.2 (55047) - http://www.bohemiancoding.com/sketch -->
    <title>文件 选中</title>
    <desc>Created with Sketch.</desc>
    <defs></defs>
    <g id="文件-选中" stroke="none" stroke-width="1" fill="none" fill-rule="evenodd">
        <g id="布局-copy" fill="#25364A" fill-rule="nonzero">
            <path d="M0,1 L0,15 C6.76353751e-17,15.5522847 0.44771525,16 1,16 L15,16 C15.5522847,16 16,15.5522847 16,15 L16,1 C16,0.44771525 15.5522847,-1.01453063e-16 15,0 L1,0 C0.44771525,1.01453063e-16 -6.76353751e-17,0.44771525 0,1 Z M14.9271137,1.0728863 L14.9271137,4.47813411 L1.0728863,4.47813411 L1.0728863,1.0728863 L14.9271137,1.0728863 Z M1.0728863,5.55102041 L4.47346939,5.55102041 L4.47346939,14.9271137 L1.0728863,14.9271137 L1.0728863,5.55102041 Z M5.54635569,14.9271137 L5.54635569,5.55102041 L14.9271137,5.55102041 L14.9271137,14.9271137 L5.54635569,14.9271137 Z" id="Shape"></path>
        </g>
    </g>
</svg>