<?xml version="1.0" encoding="UTF-8"?>
<svg width="19px" height="19px" viewBox="0 0 19 19" version="1.1" xmlns="http://www.w3.org/2000/svg" xmlns:xlink="http://www.w3.org/1999/xlink">
    <!-- Generator: Sketch 51.2 (57519) - http://www.bohemiancoding.com/sketch -->
    <title>全屏--置灰</title>
    <desc>Created with Sketch.</desc>
    <defs></defs>
    <g id="全屏--置灰" stroke="none" stroke-width="1" fill="none" fill-rule="evenodd">
        <path d="M12.6749482,7.0416379 L17.7214554,1.99513073 L17.7214554,4.8117859 C17.7214554,5.04650717 17.9561767,5.28122842 18.1908979,5.28122842 L18.5429798,5.28122842 C18.7777011,5.28122842 19.0124224,5.1638678 19.0124224,4.92914653 L19.0124224,0.469442525 C19.0124224,0.352081899 19.0124224,0.234721253 18.8950617,0.117360627 C18.6603404,0 18.5429798,0 18.4256192,0 L13.9659152,0 C13.7311939,0 13.4964727,0.234721272 13.4964727,0.469442525 L13.4964727,0.821524424 C13.4964727,1.0562457 13.7311939,1.29096695 13.9659152,1.29096695 L16.7825703,1.29096695 L11.7360632,6.33747412 C11.5013419,6.57219539 11.5013419,6.92427727 11.7360632,7.15899853 C12.0881451,7.27635915 12.440227,7.27635915 12.6749482,7.0416379 Z M6.33747412,11.7360632 L1.29096695,16.7825703 L1.29096695,13.9659152 C1.29096695,13.7311939 1.17360632,13.4964726 0.938885051,13.4964726 L0.586803152,13.4964726 C0.35208188,13.4964726 0.117360627,13.6138333 0.117360627,13.8485545 L0.117360627,18.3082586 C0.117360627,18.4256192 0.117360627,18.5429798 0.234721272,18.6603404 C0.234721272,18.7777011 0.352081899,18.7777011 0.469442525,18.7777011 L4.92914654,18.7777011 C5.16386782,18.7777011 5.39858907,18.5429798 5.39858907,18.3082586 L5.39858907,17.9561767 C5.39858907,17.7214554 5.1638678,17.4867341 4.92914654,17.4867341 L2.11249137,17.4867341 L7.15899854,12.440227 C7.39371982,12.2055057 7.39371982,11.8534238 7.15899854,11.6187025 C6.92427727,11.5013419 6.57219539,11.5013419 6.33747412,11.7360632 Z M18.8950617,18.0735373 L18.8950617,13.8485545 C18.8950617,13.6138333 18.6603404,13.4964726 18.4256192,13.4964726 L18.0735373,13.4964726 C17.838816,13.4964726 17.6040948,13.7311939 17.6040948,13.9659152 L17.6040948,16.7825703 L12.5575876,11.7360632 C12.3228663,11.5013419 11.9707844,11.5013419 11.7360632,11.7360632 C11.5013419,11.9707844 11.5013419,12.3228663 11.7360632,12.5575876 L16.899931,17.6040948 L14.0832758,17.6040948 C13.8485545,17.6040948 13.6138333,17.838816 13.6138333,18.0735373 L13.6138333,18.4256192 C13.6138333,18.6603405 13.8485546,18.8950617 14.0832758,18.8950617 L18.5429798,18.8950617 C18.6603405,18.8950617 18.7777011,18.8950617 18.8950617,18.7777011 C19.0124223,18.6603405 19.0124223,18.5429798 19.0124224,18.4256192 C18.8950617,18.3082586 18.8950617,18.0735373 18.8950617,18.0735373 Z M2.11249137,1.1736063 L4.92914654,1.1736063 C5.16386782,1.1736063 5.39858907,0.938885032 5.39858907,0.704163779 L5.39858907,0.469442525 C5.39858907,0.234721253 5.1638678,0 4.92914654,0 L0.469442525,0 C0.352081899,0 0.234721253,0 0.117360627,0.117360627 C0,0.234721253 0,0.352081899 0,0.469442525 L0,4.92914653 C0,5.1638678 0.234721272,5.28122842 0.469442525,5.28122842 L0.821524424,5.28122842 C1.0562457,5.28122842 1.29096695,5.04650715 1.29096695,4.8117859 L1.29096695,1.99513073 L6.33747412,7.0416379 C6.57219539,7.27635917 6.92427727,7.27635917 7.15899854,7.0416379 C7.39371982,6.80691663 7.39371982,6.45483475 7.15899854,6.22011348 L2.11249137,1.1736063 Z" id="Shape" fill="#6D6F88" fill-rule="nonzero"></path>
    </g>
</svg>