<?xml version="1.0" encoding="UTF-8"?>
<svg width="17px" height="17px" viewBox="0 0 17 17" version="1.1" xmlns="http://www.w3.org/2000/svg" xmlns:xlink="http://www.w3.org/1999/xlink">
    <!-- Generator: Sketch 50.2 (55047) - http://www.bohemiancoding.com/sketch -->
    <title>Artboard 11</title>
    <desc>Created with Sketch.</desc>
    <defs></defs>
    <g id="Artboard-11" stroke="none" stroke-width="1" fill="none" fill-rule="evenodd">
        <g id="Group-27" fill="#1296DB" fill-rule="nonzero">
            <path d="M11.3333333,6.29629629 L15.845679,1.78395061 L15.845679,4.30246913 C15.845679,4.51234568 16.0555556,4.72222221 16.2654321,4.72222221 L16.5802469,4.72222221 C16.7901235,4.72222221 17,4.61728395 17,4.4074074 L17,0.419753085 C17,0.314814818 17,0.209876534 16.8950617,0.104938267 C16.6851852,0 16.5802469,0 16.4753086,0 L12.4876543,0 C12.2777778,0 12.0679012,0.209876551 12.0679012,0.419753085 L12.0679012,0.734567902 C12.0679012,0.944444453 12.2777778,1.15432099 12.4876543,1.15432099 L15.0061728,1.15432099 L10.4938272,5.66666667 C10.2839506,5.87654322 10.2839506,6.19135802 10.4938272,6.40123455 C10.808642,6.50617282 11.1234568,6.50617282 11.3333333,6.29629629 Z M5.66666667,10.4938271 L1.15432099,15.0061728 L1.15432099,12.4876543 C1.15432099,12.2777778 1.04938272,12.0679012 0.839506169,12.0679012 L0.524691352,12.0679012 C0.314814801,12.0679012 0.104938267,12.1728395 0.104938267,12.382716 L0.104938267,16.3703704 C0.104938267,16.4753086 0.104938267,16.5802469 0.209876551,16.6851852 C0.209876551,16.7901234 0.314814818,16.7901234 0.419753085,16.7901234 L4.40740741,16.7901234 C4.61728396,16.7901234 4.8271605,16.5802469 4.8271605,16.3703704 L4.8271605,16.0555555 C4.8271605,15.845679 4.61728395,15.6358025 4.40740741,15.6358025 L1.88888889,15.6358025 L6.40123457,11.1234568 C6.61111112,10.9135802 6.61111112,10.5987654 6.40123457,10.3888889 C6.19135802,10.2839506 5.87654322,10.2839506 5.66666667,10.4938271 Z M16.8950617,16.1604938 L16.8950617,12.382716 C16.8950617,12.1728395 16.6851852,12.0679012 16.4753086,12.0679012 L16.1604938,12.0679012 C15.9506173,12.0679012 15.7407407,12.2777778 15.7407407,12.4876543 L15.7407407,15.0061728 L11.228395,10.4938271 C11.0185185,10.2839506 10.7037037,10.2839506 10.4938272,10.4938271 C10.2839506,10.7037037 10.2839506,11.0185185 10.4938272,11.228395 L15.1111111,15.7407407 L12.5925926,15.7407407 C12.382716,15.7407407 12.1728395,15.9506173 12.1728395,16.1604938 L12.1728395,16.4753086 C12.1728395,16.6851852 12.3827161,16.8950617 12.5925926,16.8950617 L16.5802469,16.8950617 C16.6851852,16.8950617 16.7901235,16.8950617 16.8950617,16.7901234 C17,16.6851852 17,16.5802469 17,16.4753086 C16.8950617,16.3703704 16.8950617,16.1604938 16.8950617,16.1604938 Z M1.88888889,1.0493827 L4.40740741,1.0493827 C4.61728396,1.0493827 4.8271605,0.839506153 4.8271605,0.629629619 L4.8271605,0.419753085 C4.8271605,0.209876534 4.61728395,0 4.40740741,0 L0.419753085,0 C0.314814818,0 0.209876534,0 0.104938267,0.104938267 C0,0.209876534 0,0.314814818 0,0.419753085 L0,4.4074074 C0,4.61728395 0.209876551,4.72222221 0.419753085,4.72222221 L0.734567902,4.72222221 C0.944444453,4.72222221 1.15432099,4.51234566 1.15432099,4.30246913 L1.15432099,1.78395061 L5.66666667,6.29629629 C5.87654322,6.50617284 6.19135802,6.50617284 6.40123457,6.29629629 C6.61111112,6.08641973 6.61111112,5.77160493 6.40123457,5.56172838 L1.88888889,1.0493827 Z" id="Shape"></path>
        </g>
    </g>
</svg>