<?xml version="1.0" encoding="UTF-8"?>
<svg width="20px" height="17px" viewBox="0 0 20 17" version="1.1" xmlns="http://www.w3.org/2000/svg" xmlns:xlink="http://www.w3.org/1999/xlink">
    <!-- Generator: Sketch 50.2 (55047) - http://www.bohemiancoding.com/sketch -->
    <title>列表-图片文件</title>
    <desc>Created with Sketch.</desc>
    <defs></defs>
    <g id="列表-图片文件" stroke="none" stroke-width="1" fill="none" fill-rule="evenodd" opacity="0.68">
        <g id="图片-2-copy-7" fill="#000000" fill-rule="nonzero">
            <path d="M8.69244058,11.6490033 L7.01203034,9.47901959 C6.7894008,9.19152879 6.42845296,9.19153176 6.20582569,9.47901959 L3.10793318,13.4794572 C2.88530364,13.766948 3.01814054,14 3.40462763,14 L9.03096943,14 L17.5980153,14 C17.9847194,14 18.1145983,13.7674577 17.8898063,13.4806022 L12.9804864,7.21585438 C12.7542062,6.92709977 12.3912345,6.92899888 12.1664425,7.21585438 L8.69244058,11.6490033 Z" id="Shape"></path>
            <path d="M5,5.5 C5,6.32842712 5.67157288,7 6.5,7 C7.32842712,7 8,6.32842712 8,5.5 C8,4.67157288 7.32842712,4 6.5,4 C5.67157288,4 5,4.67157288 5,5.5 Z" id="Shape"></path>
            <path d="M0.998583999,1.35999999 L19.001416,1.35999999 C18.8140711,1.35999999 18.6666667,1.20784646 18.6666667,1.02120876 L18.6666667,15.9787912 C18.6666667,15.7917618 18.8148034,15.64 19.001416,15.64 L0.998583999,15.64 C1.1859289,15.64 1.33333332,15.7921535 1.33333332,15.9787912 L1.33333332,1.02120876 C1.33333332,1.2082382 1.18519667,1.35999999 0.998583999,1.35999999 Z M0,15.9787912 C0,16.5396597 0.445971901,17 0.998583999,17 L19.001416,17 C19.5524918,17 20,16.5415405 20,15.9787912 L20,1.02120876 C20,0.460340341 19.5540281,0 19.001416,0 L0.998583999,0 C0.447508215,0 0,0.45845945 0,1.02120876 L0,15.9787912 Z" id="Shape"></path>
        </g>
    </g>
</svg>