<?xml version="1.0" encoding="UTF-8"?>
<svg width="20px" height="23px" viewBox="0 0 20 23" version="1.1" xmlns="http://www.w3.org/2000/svg" xmlns:xlink="http://www.w3.org/1999/xlink">
    <!-- Generator: Sketch 51.2 (57519) - http://www.bohemiancoding.com/sketch -->
    <title>实时交互---选中</title>
    <desc>Created with Sketch.</desc>
    <defs></defs>
    <g id="实时交互---选中" stroke="none" stroke-width="1" fill="none" fill-rule="evenodd">
        <g id="交互-2-copy" fill="#2CA7E0" fill-rule="nonzero">
            <path d="M2.90360044,8.1151403 L6.77700347,8.1151403 C7.87456443,8.1151403 8.7108014,7.238486 8.7108014,6.08787718 L8.7108014,2.02726308 C8.7108014,0.876654305 7.87456448,-5.00525761e-08 6.77700347,0 L2.90360044,0 C1.80603948,0 0.969802503,0.876654305 0.969802551,2.02726308 L0.969802551,6.08787718 C0.969802551,7.23848595 1.86991868,8.1151403 2.90360044,8.1151403 Z M2.25900117,2.02726308 C2.25900117,1.61937532 2.51451799,1.3515087 2.90360044,1.35150875 L6.77700347,1.35150875 C7.16608592,1.35150875 7.42160278,1.61937532 7.42160278,2.02726308 L7.42160278,6.08787718 C7.42160278,6.49576493 7.16608596,6.76363155 6.77700347,6.76363155 L2.90360044,6.76363155 C2.51451799,6.76363155 2.25900112,6.49576498 2.25900117,6.08787718 L2.25900117,2.02726308 Z M17.485482,14.8787719 L12.8397213,14.8787719 C12.0034843,14.8787719 11.2891986,15.6214929 11.2891986,16.5042351 L11.2891986,21.3745368 C11.2891986,22.2511911 11.9976771,23 12.8397213,23 L17.485482,23 C18.3217189,23 19.0360047,22.257279 19.0360046,21.3745368 L19.0360046,16.5042351 C19.0301974,15.6214929 18.3217189,14.8787719 17.485482,14.8787719 Z M17.6771196,10.5502912 L16.7711963,10.5502912 L18.3855981,13.4602965 L20,10.5502912 L18.9663182,10.5502912 C18.5133566,5.74695607 14.6457607,2.02726313 9.99999998,2.02726308 L9.99999998,3.37877183 C13.9372822,3.37877183 17.2241579,6.55664373 17.6771196,10.5502912 Z M2.32288038,12.5105876 L3.22880372,12.5105876 L1.61440186,9.60058234 L0,12.5105876 L1.03368176,12.5105876 C1.48664341,17.2469561 5.35423927,20.966649 9.99999998,20.966649 L9.99999998,19.6090524 C6.06271774,19.6090524 2.77584203,16.4981472 2.32288038,12.5105876 Z" id="Shape"></path>
        </g>
    </g>
</svg>