<?xml version="1.0" encoding="UTF-8"?>
<svg width="20px" height="16px" viewBox="0 0 20 16" version="1.1" xmlns="http://www.w3.org/2000/svg" xmlns:xlink="http://www.w3.org/1999/xlink">
    <!-- Generator: Sketch 50.2 (55047) - http://www.bohemiancoding.com/sketch -->
    <title>大屏布局 选中</title>
    <desc>Created with Sketch.</desc>
    <defs></defs>
    <g id="大屏布局-选中" stroke="none" stroke-width="1" fill="none" fill-rule="evenodd">
        <g id="布局-2" transform="translate(1.000000, 0.000000)" fill="#2CA7E0" fill-rule="nonzero">
            <path d="M16.0002453,0 L2.00124265,0 C0.899499612,0 0,0.866366533 0,1.9270641 L0,13.4821921 C0,14.5398392 0.899475619,15.4074074 2.00124265,15.4074074 L16.0002693,15.4074074 C17.0990364,15.4074074 18,14.5398392 18,13.4821921 L18,1.9270641 C17.999976,0.866366533 17.0990124,0 16.0002453,0 Z M11.0006787,13.4821921 L2.00124265,13.4821921 L2.00124265,9.62975096 L11.0006787,9.62975096 L11.0006787,13.4821921 Z M11.0006787,8.66673889 L2.00124265,8.66673889 L2.00124265,4.81448261 L11.0006787,4.81448261 L11.0006787,8.66673889 Z M16.0002453,13.4821921 L11.999896,13.4821921 L11.999896,4.81570743 L16.0002453,4.81570743 L16.0002453,13.4821921 Z" id="Shape"></path>
        </g>
    </g>
</svg>