<?xml version="1.0" encoding="UTF-8"?>
<svg width="20px" height="16px" viewBox="0 0 20 16" version="1.1" xmlns="http://www.w3.org/2000/svg" xmlns:xlink="http://www.w3.org/1999/xlink">
    <!-- Generator: Sketch 50.2 (55047) - http://www.bohemiancoding.com/sketch -->
    <title>大屏布局</title>
    <desc>Created with Sketch.</desc>
    <defs></defs>
    <g id="大屏布局" stroke="none" stroke-width="1" fill="none" fill-rule="evenodd">
        <g id="布局-2" transform="translate(1.000000, 0.000000)" fill="#5B6775" fill-rule="nonzero">
            <path d="M16.0002453,0 L2.00124265,0 C0.899499612,0 0,0.877196115 0,1.9511524 L0,13.6507195 C0,14.7215872 0.899475619,15.6 2.00124265,15.6 L16.0002693,15.6 C17.0990364,15.6 18,14.7215871 18,13.6507195 L18,1.9511524 C17.999976,0.877196115 17.0990124,0 16.0002453,0 Z M11.0006787,13.6507195 L2.00124265,13.6507195 L2.00124265,9.75012285 L11.0006787,9.75012285 L11.0006787,13.6507195 Z M11.0006787,8.77507313 L2.00124265,8.77507313 L2.00124265,4.87466364 L11.0006787,4.87466364 L11.0006787,8.77507313 Z M16.0002453,13.6507195 L11.999896,13.6507195 L11.999896,4.87590377 L16.0002453,4.87590377 L16.0002453,13.6507195 Z" id="Shape"></path>
        </g>
    </g>
</svg>