<?xml version="1.0" encoding="UTF-8"?>
<svg width="22px" height="20px" viewBox="0 0 22 20" version="1.1" xmlns="http://www.w3.org/2000/svg" xmlns:xlink="http://www.w3.org/1999/xlink">
    <!-- Generator: Sketch 50.2 (55047) - http://www.bohemiancoding.com/sketch -->
    <title>关联 </title>
    <desc>Created with Sketch.</desc>
    <defs></defs>
    <g id="关联-" stroke="none" stroke-width="1" fill="none" fill-rule="evenodd">
        <g id="关联" transform="translate(1.000000, 1.000000)" fill="#5DBFE2" fill-rule="nonzero">
            <path d="M4.53470437,12 C4.85861183,12 5.07455013,12.2181818 5.07455013,12.5454545 C5.07455013,12.8727273 4.85861183,13.0909091 4.53470437,13.0909091 L2.15938303,13.0909091 C0.971722365,13.0909091 0,12.1090909 0,10.9090909 L0,2.18181818 C0,0.981818182 0.971722365,0 2.15938303,0 L12.4164524,0 C13.6041131,0 14.5758355,0.981818182 14.5758355,2.18181818 L14.5758355,10.9090909 C14.5758355,12.1090909 13.6041131,13.0909091 12.4164524,13.0909091 L9.71722365,13.0909091 C9.3933162,13.0909091 9.17737789,12.8727273 9.17737789,12.5454545 C9.17737789,12.2181818 9.3933162,12 9.71722365,12 L12.3624679,12 C12.9562982,12 13.4421594,11.5090909 13.4421594,10.9090909 L13.4421594,2.18181818 C13.4421594,1.58181818 12.9562982,1.09090909 12.3624679,1.09090909 L2.10539846,1.09090909 C1.51156812,1.09090909 1.02570694,1.58181818 1.02570694,2.18181818 L1.02570694,10.9090909 C1.02570694,11.5090909 1.51156812,12 2.10539846,12 L4.53470437,12 Z M11.0128535,5.45454545 C11.3367609,5.45454545 11.5526992,5.67272727 11.5526992,6 C11.5526992,6.32727273 11.3367609,6.54545455 11.0128535,6.54545455 L8.63753213,6.54545455 C8.0437018,6.54545455 7.55784062,7.03636364 7.55784062,7.63636364 L7.55784062,15.8181818 C7.55784062,16.4181818 8.0437018,16.9090909 8.63753213,16.9090909 L18.8946015,16.9090909 C19.4884319,16.9090909 19.9742931,16.4181818 19.9742931,15.8181818 L19.9742931,7.63636364 C19.9742931,7.03636364 19.4884319,6.54545455 18.8946015,6.54545455 L16.1953728,6.54545455 C15.8714653,6.54545455 15.655527,6.32727273 15.655527,6 C15.655527,5.67272727 15.8714653,5.45454545 16.1953728,5.45454545 L18.840617,5.45454545 C20.0282776,5.45454545 21,6.43636364 21,7.63636364 L21,15.8181818 C21,17.0181818 20.0282776,18 18.840617,18 L8.58354756,18 C7.39588689,18 6.42416452,17.0181818 6.42416452,15.8181818 L6.42416452,7.63636364 C6.42416452,6.43636364 7.39588689,5.45454545 8.58354756,5.45454545 L11.0128535,5.45454545 Z" id="Shape"></path>
        </g>
    </g>
</svg>