<?xml version="1.0" encoding="UTF-8"?>
<svg width="24px" height="24px" viewBox="0 0 24 24" version="1.1" xmlns="http://www.w3.org/2000/svg" xmlns:xlink="http://www.w3.org/1999/xlink">
    <!-- Generator: Sketch 50.2 (55047) - http://www.bohemiancoding.com/sketch -->
    <title>关联表文件--选中</title>
    <desc>Created with Sketch.</desc>
    <defs></defs>
    <g id="关联表文件--选中" stroke="none" stroke-width="1" fill="none" fill-rule="evenodd">
        <g id="Group-9" transform="translate(2.000000, 2.000000)" fill="#A9AEB5" fill-rule="nonzero">
            <path d="M4.46034713,19 L2.54739652,19 C1.11508678,19 0,17.8820695 0,16.446107 L0,2.71290895 C0,1.27694649 1.11508678,0 2.54739652,0 L15.4526035,0 C16.8849132,0 18,1.11793051 18,2.55389297 L18,4.47172204 C18,4.94876997 17.8750334,5.2716206 17.3943925,5.2716206 C16.9137517,5.2716206 16.6445928,4.95358865 16.6445928,4.47172204 L16.6445928,2.71290895 C16.6445928,2.07202637 15.9284379,1.4022318 15.4477971,1.4022318 L2.54739652,1.4022318 C2.07156208,1.4022318 1.35060079,2.07202637 1.35060079,2.71290895 L1.35060079,16.446107 C1.35060079,16.9231549 2.06675567,17.5977682 2.54739652,17.5977682 L4.46034713,17.5977682 C4.93618157,17.5977682 5.25821095,17.8676135 5.25821095,18.3494801 C5.25821095,18.826528 4.93618157,19 4.46034713,19 Z" id="Shape"></path>
            <path d="M10.4163467,6.4068323 L3.87328579,6.4068323 C3.43883708,6.4068323 3.14481624,6.14596273 3.14481624,5.68012423 C3.14481624,5.2189441 3.43444871,5 3.87328579,5 L10.2715305,5 C10.7059792,5 11,5.21428571 11,5.68012423 C11,6.14130435 10.7059791,6.4068323 10.4163467,6.4068323 Z M8.66977511,10.2965839 L3.87328579,10.2965839 C3.43883708,10.2965839 3.14481623,10.0357143 3.14481624,9.56987578 C3.14481624,9.10869565 3.43444871,8.9363354 3.87328579,8.9363354 L8.67416347,8.9363354 C9.10861218,8.9363354 9.40263303,9.10403728 9.40263303,9.56987578 C9.39824467,10.0310559 9.10861218,10.2965839 8.66977511,10.2965839 Z M6.34393856,14 L3.72846956,14 C3.29402085,14 3,13.7857143 3,13.3198758 C3,12.8586957 3.28963247,12.5465838 3.72846956,12.5465838 L6.49314317,12.5465838 C6.92759188,12.5465838 7.22161273,12.8540373 7.22161273,13.3198758 C7.21722436,13.7857143 6.78277565,14 6.34393856,14 Z" id="Shape"></path>
            <path d="M16.2923947,14.4097957 C16.1748201,14.4097957 16.0572456,14.3646165 15.9668037,14.2742581 C15.8808839,14.1884177 15.8311408,14.0709518 15.8311408,13.9489681 C15.8311408,13.8269843 15.8808839,13.7095184 15.9668037,13.623678 L17.5495375,12.0424068 C18.2640288,11.3285758 18.2640288,10.1629531 17.5495375,9.44912208 C16.8350463,8.7352911 15.6683453,8.7352911 14.9538541,9.44912208 L13.3711203,11.0303933 C13.2852004,11.1162337 13.1676259,11.1659308 13.0455293,11.1659308 C12.9234327,11.1659308 12.8058582,11.1162337 12.7199383,11.0303933 C12.5390545,10.8496765 12.5390545,10.5605298 12.7199383,10.384331 L14.3026721,8.80305986 C15.374409,7.73231338 17.1199384,7.73231338 18.1961973,8.80305986 C19.2679342,9.87380633 19.2679342,11.6177226 18.1961973,12.692987 L16.6134635,14.2742581 C16.5320658,14.3600986 16.4144913,14.4097957 16.2923947,14.4097957 M10.7483042,19 C10.0428571,19 9.33741008,18.7334429 8.80380267,18.1958107 C7.73206578,17.1250642 7.73206578,15.381148 8.80380267,14.3058836 L10.4136691,12.6975049 C10.4995889,12.6116644 10.6171634,12.5619673 10.73926,12.5619673 C10.8613566,12.5619673 10.9789311,12.6116644 11.064851,12.6975049 C11.1507708,12.7833453 11.2005139,12.9008112 11.2005139,13.0227949 C11.2005139,13.1447787 11.1507708,13.2622446 11.064851,13.348085 L9.45498458,14.9564637 C8.74049332,15.6702947 8.74049332,16.8359174 9.45498458,17.5497484 C10.1694758,18.2635794 11.3361768,18.2635794 12.050668,17.5497484 L13.6605344,15.9413698 C13.8414183,15.760653 14.1308325,15.760653 14.3071942,15.9413698 C14.4880781,16.1220865 14.4880781,16.4112332 14.3071942,16.587432 L12.6973279,18.1958107 C12.1591984,18.728925 11.4537513,19 10.7483042,19" id="Shape"></path>
            <path d="M11.501845,16 C11.3739237,16 11.2460025,15.9507995 11.1476015,15.8523985 C11.0541205,15.7589176 11,15.6309963 11,15.498155 C11,15.3653136 11.0541205,15.2373924 11.1476015,15.1439114 L14.1439114,12.1476015 C14.2373924,12.0541205 14.3653136,12 14.498155,12 C14.6309963,12 14.7589176,12.0541205 14.8523985,12.1476015 C14.9458795,12.2410824 15,12.3690037 15,12.501845 C15,12.6346864 14.9458795,12.7626076 14.8523985,12.8560886 L11.8560886,15.8523985 C11.7576876,15.9507995 11.6297663,16 11.501845,16" id="Shape"></path>
        </g>
    </g>
</svg>