<?xml version="1.0" encoding="UTF-8"?>
<svg width="14px" height="12px" viewBox="0 0 14 12" version="1.1" xmlns="http://www.w3.org/2000/svg" xmlns:xlink="http://www.w3.org/1999/xlink">
    <!-- Generator: Sketch 50.2 (55047) - http://www.bohemiancoding.com/sketch -->
    <title>Artboard 8 Copy</title>
    <desc>Created with Sketch.</desc>
    <defs></defs>
    <g id="Artboard-8-Copy" stroke="none" stroke-width="1" fill="none" fill-rule="evenodd">
        <g id="移动到" fill="#1296DB" fill-rule="nonzero">
            <path d="M13.9931686,11.315042 L13.9931686,2.62957205 C13.9931686,1.57932036 13.0352367,1.6769175 13.0352367,1.6769175 C13.0352367,1.6769175 7.18541404,1.68374296 7.48791158,1.6769175 C7.15969747,1.68407389 6.99787495,1.50486083 6.99787495,1.50486083 C6.99787495,1.50486083 6.77060838,1.16790387 6.36132426,0.549283054 C5.93184512,-0.0995903967 5.43464429,0.00643170282 5.43464429,0.00643170282 L1.18129197,0.00643170282 C0.0133483218,0.00643170282 0,1.12888156 0,1.12888156 L0,10.8967863 C0,12.1493197 0.947178692,11.9938509 0.947178692,11.9938509 L13.1222009,11.9938509 C14.135155,11.9938647 13.9931962,11.3150558 13.9931962,11.3150558 L13.9931686,11.315042 Z M12.2743298,11.193608 L1.79701215,11.193608 C1.79701215,11.193608 0.823529412,11.3552386 0.823529412,10.0529614 L0.823529412,1.97372748 C0.823529412,1.97372748 0.837248229,0.806687208 2.03762347,0.806687208 L4.64248214,0.806687208 C4.64248214,0.806687208 5.15314278,0.696453278 5.59454253,1.37110386 C6.01520091,2.01431433 6.2487613,2.35618431 6.2487613,2.35618431 C6.2487613,2.35618431 6.41508954,2.54251679 6.75239937,2.53507611 C6.44186039,2.54217271 12.1849943,2.53507611 12.1849943,2.53507611 C12.1849943,2.53507611 13.1695145,2.4336305 13.1695145,3.52557579 L13.1695145,10.1137915 C13.1695145,10.1137915 13.3150872,11.1935937 12.274344,11.1935937 L12.2743298,11.193608 Z M8.68957,4.16464962 C8.45973948,3.94511679 8.0872396,3.94511679 7.85774508,4.16464962 C7.62790056,4.38450018 7.62790056,4.74048969 7.85774508,4.96035349 L9.01881128,5.91846293 L3.88256049,5.91846293 C3.55763107,5.91846293 3.29411765,6.08302649 3.29411765,6.39376433 C3.29411765,6.70450216 3.55763107,6.88155031 3.88256049,6.88155031 L9.01881128,6.88155031 L7.85774508,7.83997749 C7.62790056,8.05949707 7.62790056,8.4155263 7.85774508,8.63535038 C8.0872536,8.85488321 8.45975348,8.85488321 8.68957,8.63535038 L10.4192417,6.98181096 C10.6104615,6.7991229 10.7058824,6.55926787 10.7058824,6.31914806 C10.7058824,6.07900176 10.6104615,5.83884223 10.4192417,5.65615417 L8.68957,4.16467609 L8.68957,4.16464962 Z" id="Shape"></path>
        </g>
    </g>
</svg>