<?xml version="1.0" encoding="UTF-8"?>
<svg width="180px" height="20px" viewBox="0 0 180 20" version="1.1" xmlns="http://www.w3.org/2000/svg" xmlns:xlink="http://www.w3.org/1999/xlink">
    <!-- Generator: Sketch 50.2 (55047) - http://www.bohemiancoding.com/sketch -->
    <title>数据可视化展示平台</title>
    <desc>Created with Sketch.</desc>
    <defs></defs>
    <g id="蓝湖上传" stroke="none" stroke-width="1" fill="none" fill-rule="evenodd">
        <g id="数据大屏模块---数据配置-copy-3" transform="translate(-181.000000, -14.000000)" fill="#3C9ACE">
            <path d="M194.34,19.32 C194.26,19.64 194.18,19.94 194.1,20.22 C194.54,22.3 195.12,24.12 195.82,25.68 C196.48,23.84 196.84,21.72 196.92,19.32 L194.34,19.32 Z M194.96,27.62 C194.28,26.24 193.68,24.68 193.18,22.94 C192.86,23.66 192.54,24.34 192.18,24.94 L190.98,23.46 C192.1,21.26 192.86,18.3 193.26,14.58 L195.12,14.9 C195,15.82 194.88,16.68 194.72,17.5 L199.8,17.5 L199.8,19.32 L198.64,19.32 C198.52,22.58 197.92,25.36 196.84,27.66 C197.84,29.32 199,30.62 200.36,31.54 L199.3,33.08 C198,32.14 196.88,30.9 195.92,29.36 C194.98,30.82 193.8,32.06 192.4,33.06 L191.42,31.48 C192.9,30.48 194.08,29.2 194.96,27.62 Z M185.48,23.88 L187.26,24.1 C187.14,24.42 187.04,24.72 186.92,25.04 L191,25.04 L191,26.58 C190.64,27.78 190,28.84 189.08,29.76 C189.9,30.12 190.7,30.52 191.46,30.92 L190.44,32.4 C189.66,31.92 188.72,31.44 187.62,30.94 C186.3,31.8 184.64,32.48 182.66,33 L181.78,31.44 C183.28,31.08 184.58,30.64 185.66,30.08 C184.84,29.74 183.96,29.4 183.04,29.04 C183.52,28.2 183.96,27.42 184.34,26.66 L182.24,26.66 L182.24,25.04 L185.06,25.04 C185.22,24.64 185.36,24.24 185.48,23.88 Z M187.34,29.04 C188.22,28.34 188.86,27.54 189.3,26.66 L186.2,26.66 C185.92,27.22 185.62,27.76 185.3,28.28 C186,28.52 186.68,28.76 187.34,29.04 Z M184.1,14.9 C184.54,15.66 184.92,16.46 185.26,17.34 L183.9,17.96 C183.5,17 183.06,16.14 182.6,15.4 L184.1,14.9 Z M189.84,14.88 L191.18,15.52 C190.78,16.36 190.28,17.2 189.66,18.02 L188.34,17.34 C188.98,16.5 189.48,15.68 189.84,14.88 Z M182.28,18.3 L186.06,18.3 L186.06,14.62 L187.8,14.62 L187.8,18.3 L191.28,18.3 L191.28,19.96 L187.8,19.96 L187.8,20.06 C188.86,20.5 189.94,21.02 191.04,21.6 L190.04,23.1 C189.16,22.4 188.42,21.84 187.8,21.44 L187.8,23.68 L186.06,23.68 L186.06,20.3 C185.4,21.74 184.3,23 182.76,24.08 L181.82,22.54 C183.22,21.74 184.2,20.88 184.8,19.96 L182.28,19.96 L182.28,18.3 Z M204.3,32.88 L202.6,32.88 L202.2,31.08 C202.7,31.16 203.18,31.22 203.66,31.22 C204.1,31.22 204.34,30.96 204.34,30.44 L204.34,26.14 C203.62,26.4 202.92,26.64 202.22,26.88 L201.74,25 C202.62,24.8 203.48,24.54 204.34,24.24 L204.34,20.1 L202.1,20.1 L202.1,18.28 L204.34,18.28 L204.34,14.66 L206.18,14.66 L206.18,18.28 L207.94,18.28 L207.94,20.1 L206.18,20.1 L206.18,23.52 C206.74,23.26 207.32,22.98 207.88,22.68 L207.88,24.54 C207.3,24.82 206.74,25.1 206.18,25.36 L206.18,30.9 C206.18,32.22 205.54,32.88 204.3,32.88 Z M210.52,24.2 C210.26,27.56 209.5,30.52 208.22,33.08 L206.74,31.76 C208.08,29.18 208.76,25.86 208.78,21.8 L208.78,15.28 L219.6,15.28 L219.6,20.46 L215.96,20.46 L215.96,22.46 L220.08,22.46 L220.08,24.2 L215.96,24.2 L215.96,26.26 L219.18,26.26 L219.18,33.06 L217.42,33.06 L217.42,32.2 L212.68,32.2 L212.68,33.06 L210.92,33.06 L210.92,26.26 L214.12,26.26 L214.12,24.2 L210.52,24.2 Z M214.12,20.46 L210.62,20.46 L210.62,21.8 C210.62,22.02 210.6,22.24 210.6,22.46 L214.12,22.46 L214.12,20.46 Z M212.68,30.52 L217.42,30.52 L217.42,27.94 L212.68,27.94 L212.68,30.52 Z M217.76,17.02 L210.62,17.02 L210.62,18.76 L217.76,18.76 L217.76,17.02 Z M222.04,15.7 L240,15.7 L240,17.54 L237.48,17.54 L237.48,30.76 C237.48,32.2 236.78,32.92 235.42,32.92 L232.06,32.92 L231.62,31.08 C232.72,31.14 233.76,31.18 234.76,31.18 C235.3,31.18 235.58,30.88 235.58,30.28 L235.58,17.54 L222.04,17.54 L222.04,15.7 Z M232.36,20.14 L232.36,27.84 L226.06,27.84 L226.06,29.48 L224.24,29.48 L224.24,20.14 L232.36,20.14 Z M226.06,26.12 L230.56,26.12 L230.56,21.84 L226.06,21.84 L226.06,26.12 Z M244.6,25.28 C243.92,25.96 243.18,26.64 242.38,27.32 L241.78,25.32 C244.32,23.16 246.04,21.08 246.94,19.04 L242.24,19.04 L242.24,17.22 L245.08,17.22 C244.78,16.44 244.44,15.68 244.04,14.94 L245.84,14.42 C246.28,15.44 246.64,16.38 246.88,17.22 L248.84,17.22 L248.84,18.82 C248.36,20.24 247.58,21.64 246.54,23.04 C247.58,23.68 248.54,24.4 249.42,25.22 L248.34,26.86 C247.72,26.18 247.1,25.58 246.46,25.06 L246.46,33.06 L244.6,33.06 L244.6,25.28 Z M258.82,15.28 L258.82,26.54 L256.9,26.54 L256.9,17.1 L251.84,17.1 L251.84,26.54 L249.96,26.54 L249.96,15.28 L258.82,15.28 Z M258.22,32.74 L256.24,32.74 C255.04,32.74 254.44,32.08 254.44,30.78 L254.44,27.46 C254.2,28.16 253.94,28.78 253.66,29.34 C252.68,31.02 251.12,32.3 248.96,33.22 L247.94,31.56 C250.04,30.64 251.46,29.46 252.22,28.04 C252.94,26.52 253.34,24.56 253.42,22.14 L253.42,18.36 L255.26,18.36 L255.26,22.14 C255.2,23.78 255.02,25.24 254.72,26.48 L256.28,26.48 L256.28,30.38 C256.28,30.78 256.44,31 256.8,31 L257.88,31 C258.08,31 258.24,30.9 258.36,30.7 C258.48,30.46 258.56,29.78 258.62,28.64 L260.38,29.22 C260.24,30.92 260,31.94 259.68,32.28 C259.36,32.58 258.86,32.74 258.22,32.74 Z M267.68,14.42 L269.46,15.26 C268.78,16.9 267.9,18.46 266.82,19.92 L266.82,33.1 L264.94,33.1 L264.94,22.14 C264.12,22.98 263.24,23.8 262.3,24.58 L261.7,22.6 C264.4,20.26 266.4,17.54 267.68,14.42 Z M277.18,32.74 L273.44,32.74 C271.84,32.74 271.04,31.94 271.04,30.34 L271.04,24.74 C270.32,25.12 269.58,25.5 268.82,25.86 L267.96,24.06 C269.04,23.58 270.08,23.08 271.04,22.52 L271.04,14.74 L272.94,14.74 L272.94,21.34 C274.9,20.04 276.64,18.56 278.12,16.9 L279.44,18.4 C277.54,20.36 275.38,22.12 272.94,23.64 L272.94,30.08 C272.94,30.64 273.24,30.92 273.88,30.92 L276.86,30.92 C277.32,30.92 277.66,30.76 277.88,30.46 C278.08,30.16 278.22,29.1 278.26,27.26 L280.02,27.84 C279.88,30.14 279.62,31.54 279.26,32.02 C278.88,32.5 278.18,32.74 277.18,32.74 Z M286.04,22.06 L288.8,22.06 L288.8,20.46 L285.46,20.46 L285.46,21.98 C285.46,23.18 285.38,24.34 285.26,25.42 L288.8,25.42 L288.8,23.74 L286.04,23.74 L286.04,22.06 Z M285.02,27.14 C284.64,29.32 284.02,31.3 283.16,33.06 L281.62,31.68 C282.88,29.16 283.52,25.94 283.54,21.98 L283.54,15.26 L298.84,15.26 L298.84,20.46 L296.06,20.46 L296.06,22.06 L299.06,22.06 L299.06,23.74 L296.06,23.74 L296.06,25.42 L299.74,25.42 L299.74,27.14 L297.74,27.14 L298.9,28.28 C298.28,29.04 297.6,29.66 296.88,30.14 C297.9,30.72 299.06,31.14 300.38,31.4 L299.48,33.2 C295.88,32.26 293.32,30.24 291.78,27.14 L289.3,27.14 L289.3,30.94 C290.5,30.64 291.56,30.3 292.46,29.92 L292.82,31.66 C291.2,32.22 289.28,32.7 287.06,33.1 L286.54,31.44 C287.14,31.2 287.44,30.78 287.44,30.14 L287.44,27.14 L285.02,27.14 Z M293.7,27.14 C294.18,27.88 294.74,28.52 295.38,29.08 C296.14,28.62 296.84,27.98 297.48,27.14 L293.7,27.14 Z M294.22,20.46 L290.62,20.46 L290.62,22.06 L294.22,22.06 L294.22,20.46 Z M290.62,25.42 L294.22,25.42 L294.22,23.74 L290.62,23.74 L290.62,25.42 Z M296.92,17 L285.46,17 L285.46,18.76 L296.92,18.76 L296.92,17 Z M309.9,32.82 L307.32,32.82 L306.92,30.98 C307.72,31.04 308.5,31.08 309.24,31.08 C309.8,31.08 310.08,30.82 310.08,30.3 L310.08,22.46 L302.42,22.46 L302.42,20.58 L319.58,20.58 L319.58,22.46 L312.02,22.46 L312.02,30.78 C312.02,32.14 311.3,32.82 309.9,32.82 Z M305.3,24.4 L307.18,24.82 C306.36,27.58 305.2,29.96 303.72,31.96 L302.06,30.94 C303.58,28.9 304.66,26.72 305.3,24.4 Z M316.36,24.16 C317.72,26.32 318.88,28.6 319.86,31.02 L318.12,31.8 C317.06,29.14 315.9,26.78 314.64,24.74 L316.36,24.16 Z M304.26,15.54 L317.8,15.54 L317.8,17.38 L304.26,17.38 L304.26,15.54 Z M322.88,15.36 L339.16,15.36 L339.16,17.22 L331.88,17.22 L331.88,24.3 L339.92,24.3 L339.92,26.12 L331.88,26.12 L331.88,33.04 L329.96,33.04 L329.96,26.12 L322.08,26.12 L322.08,24.3 L329.96,24.3 L329.96,17.22 L322.88,17.22 L322.88,15.36 Z M325.68,18.16 C326.4,19.52 327.1,21 327.78,22.64 L326,23.52 C325.34,21.84 324.64,20.34 323.9,19.02 L325.68,18.16 Z M336.48,18.08 L338.22,18.9 C337.64,20.44 336.88,21.94 335.96,23.42 L334.24,22.54 C335.18,21.02 335.92,19.54 336.48,18.08 Z M357.84,24.58 L357.84,33.08 L355.92,33.08 L355.92,32.26 L346.08,32.26 L346.08,33.08 L344.16,33.08 L344.16,24.58 L357.84,24.58 Z M346.08,30.44 L355.92,30.44 L355.92,26.4 L346.08,26.4 L346.08,30.44 Z M342.86,22.72 L342.5,20.92 C344.02,20.58 346.12,18.44 348.8,14.52 L350.78,15.2 C349.16,17.44 347.52,19.32 345.84,20.84 C349.24,20.72 352.52,20.5 355.7,20.2 C355.06,19.24 354.4,18.36 353.74,17.52 L355.46,16.7 C357.08,18.7 358.62,20.9 360.08,23.32 L358.22,24.24 C357.74,23.4 357.28,22.62 356.82,21.88 C352.64,22.24 347.98,22.52 342.86,22.72 Z" id="数据可视化展示平台"></path>
        </g>
    </g>
</svg>