<?xml version="1.0" encoding="UTF-8"?>
<svg width="18px" height="18px" viewBox="0 0 18 18" version="1.1" xmlns="http://www.w3.org/2000/svg" xmlns:xlink="http://www.w3.org/1999/xlink">
    <!-- Generator: Sketch 50.2 (55047) - http://www.bohemiancoding.com/sketch -->
    <title>保存布局 copy 4</title>
    <desc>Created with Sketch.</desc>
    <defs></defs>
    <g id="保存布局-copy-4" stroke="none" stroke-width="1" fill="none" fill-rule="evenodd">
        <g id="创建v" transform="translate(2.000000, 2.000000)" fill="#12ACE5" fill-rule="nonzero">
            <path d="M13.5392001,10.9371639 L10.9180265,10.9371639 L10.9180265,13.5618355 C10.9180265,13.8036717 10.7224366,13.9997186 10.4811642,13.9997186 C10.2398918,13.9997186 10.0443019,13.8036717 10.0443019,13.5618355 L10.0443019,10.9371639 L7.42312836,10.9371639 C7.26255017,10.9443674 7.11099648,10.862602 7.02856072,10.7242892 C6.94612496,10.5859763 6.94612496,10.4134609 7.02856072,10.2751481 C7.11099648,10.1368352 7.26255017,10.0550699 7.42312836,10.0622734 L10.0443019,10.0622734 L10.0443019,7.43760177 C10.0443019,7.19576559 10.2398918,6.99971863 10.4811642,6.99971863 C10.7224366,6.99971863 10.9180265,7.19576559 10.9180265,7.43760177 L10.9180265,10.0622734 L13.5392001,10.0622734 C13.6997783,10.0550699 13.8513319,10.1368352 13.9337677,10.2751481 C14.0162035,10.4134609 14.0162035,10.5859763 13.9337677,10.7242892 C13.8513319,10.862602 13.6997783,10.9443674 13.5392001,10.9371639 Z" id="Shape"></path>
            <g id="编辑-4" transform="translate(6.500000, 6.500000) scale(1, -1) translate(-6.500000, -6.500000) ">
                <path d="M12.3066667,5.37333332 C11.96,5.37333332 11.6133333,5.63333332 11.6133333,6.06666664 L11.6133333,10.5733333 C11.6133333,11.18 11.0933333,11.6133333 10.5733333,11.6133333 L2.42666667,11.6133333 C1.82,11.6133333 1.38666667,11.0933333 1.38666667,10.5733333 L1.38666667,2.34 C1.38666667,1.73333332 1.90666667,1.3 2.42666667,1.3 L7.01999999,1.3 C7.36666666,1.3 7.71333331,1.04 7.71333331,0.606666672 C7.71333331,0.173333347 7.36666666,0 7.01999999,0 L2.42666667,0 C1.12666667,0 0,1.04 0,2.42666667 L0,10.5733333 C0,11.8733333 1.04,13 2.42666667,13 L10.5733333,13 C11.8733333,13 13,11.96 13,10.5733333 L13,6.06666666 C12.9133333,5.63333332 12.6533333,5.37333332 12.3066667,5.37333332 Z" id="Shape"></path>
            </g>
        </g>
    </g>
</svg>