<?xml version="1.0" encoding="UTF-8"?>
<svg width="120px" height="140px" viewBox="0 0 120 140" version="1.1" xmlns="http://www.w3.org/2000/svg" xmlns:xlink="http://www.w3.org/1999/xlink">
    <!-- Generator: Sketch 50.2 (55047) - http://www.bohemiancoding.com/sketch -->
    <title>无数据</title>
    <desc>Created with Sketch.</desc>
    <defs></defs>
    <g id="无数据" stroke="none" stroke-width="1" fill="none" fill-rule="evenodd">
        <g id="Group" transform="translate(5.000000, 5.000000)" fill="#D5D5D6">
            <path d="M54.8425605,50.7288075 C85.13449,50.7288075 109.683908,43.3373024 109.683908,34.2219663 L109.683908,16.5068412 C109.683908,13.5161739 107.041304,10.711067 102.420304,8.2916871 C101.380756,7.7474194 85.1247914,10.1755104 53.6524089,15.57596 C80.5766272,8.48602239 93.4783856,4.78281363 92.357684,4.46633375 C82.5493647,1.69651899 69.3549813,0 54.8425605,0 C53.1689211,0 49.8116992,0.109438188 44.7708948,0.328314564 L53.6524089,15.57596 C43.6687914,5.67615707 38.3807381,0.755402358 37.7882491,0.813695873 C29.9764962,1.58227476 22.9370919,2.86453711 17.1103281,4.52781314 C15.8833374,4.87806318 28.064031,8.56077881 53.6524089,15.57596 C23.8006945,10.1697837 8.43467924,7.69161711 7.5543631,8.14146037 C2.75363565,10.5946415 0,13.4540676 0,16.5068412 L4.75678126e-17,34.2231854 C4.75678126e-17,37.0512932 2.36399659,39.7135378 6.5299054,42.0405468 C6.98997226,42.2975327 6.98997226,35.9203657 6.5299054,22.909046 L53.6524089,15.57596 L15.3240644,26.393413 C14.6746996,39.0396135 14.6746996,45.4642471 15.3240644,45.6673136 C20.7996725,47.379622 27.4922213,48.7369878 34.9830221,49.6132481 C35.6776712,49.6945069 35.6776712,43.1823404 34.9830221,30.0767486 L53.6524089,15.57596 L41.9567329,30.9983263 C41.4589488,43.8104242 41.4589488,50.2345128 41.9567329,50.2705923 C46.0893544,50.5701252 50.4043559,50.7288075 54.8425605,50.7288075 Z" id="Shape" fill-rule="nonzero"></path>
            <path d="M54.8413445,75.4076868 C69.8951177,75.4076868 83.5272131,73.613835 93.4365018,70.7130366 C103.345791,67.8122382 109.683902,62.6288694 109.683902,59.2043822 L109.683908,39.7604167 C109.683902,48.7081352 85.1344854,55.9637213 54.8425576,55.9637213 C24.5506298,55.9637213 0,48.7081352 0,39.7604167 L0,59.2055789 C-0.00121303571,68.150904 24.5506298,75.4076868 54.8413445,75.4076868 Z" id="Path"></path>
            <path d="M54.8413445,101.457615 C69.8951177,101.457615 83.5272131,99.6637631 93.4365018,96.7629647 C103.345791,93.8621663 109.683902,88.6787976 109.683902,85.2543103 L109.683908,65.8103448 C109.683902,74.7580633 85.1344854,82.0136494 54.8425576,82.0136494 C24.5506298,82.0136494 0,74.7580633 0,65.8103448 L0,85.255507 C-0.00121303571,94.2008321 24.5506298,101.457615 54.8413445,101.457615 Z" id="Path-Copy"></path>
            <path d="M54.8413445,127.507543 C69.8951177,127.507543 83.5272131,125.713691 93.4365018,122.812893 C103.345791,119.912094 109.683902,114.728726 109.683902,111.304239 L109.683908,91.860273 C109.683902,100.807991 85.1344854,108.063578 54.8425576,108.063578 C24.5506298,108.063578 0,100.807991 0,91.860273 L0,111.305435 C-0.00121303571,120.25076 24.5506298,127.507543 54.8413445,127.507543 Z" id="Path-Copy-2"></path>
        </g>
    </g>
</svg>