<?xml version="1.0" encoding="UTF-8"?>
<svg width="43px" height="47px" viewBox="0 0 43 47" version="1.1" xmlns="http://www.w3.org/2000/svg" xmlns:xlink="http://www.w3.org/1999/xlink">
    <!-- Generator: Sketch 50.2 (55047) - http://www.bohemiancoding.com/sketch -->
    <title>无-数据库列表信息</title>
    <desc>Created with Sketch.</desc>
    <defs></defs>
    <g id="无-数据库列表信息" stroke="none" stroke-width="1" fill="none" fill-rule="evenodd" opacity="0.450558036">
        <g id="数据库表" fill-rule="nonzero">
            <polygon id="Shape" fill="#C8C8CF" points="30 0 43 13 30 13"></polygon>
            <polygon id="Shape" fill="#C6C6CE" points="0 0 0 47 43 47 43 15.6666667 39.9285714 15.6666667 39.9285714 43.8666667 3.07142857 43.8666667 3.07142857 3.13333333 27.6428571 3.13333333 27.6428571 0"></polygon>
            <path d="M32.5708036,31.0916871 C31.2449107,32.9014342 27.0158036,34.2251539 22,34.2251539 C16.9871429,34.2251539 12.7550893,32.9022636 11.4301786,31.0916871 C11.1492857,30.7085051 11,30.914196 11,31.1032987 L11,33.7598615 C11,36.3326551 15.9244643,39 22,39 C28.0755357,39 33,36.3326551 33,33.7598615 L33,31.1032987 C33,30.9133666 32.84875,30.7076758 32.5708036,31.0916871 Z M32.5865179,22.9513139 C31.2841964,24.6746308 27.0364286,25.937206 22,25.937206 C16.9635714,25.937206 12.7158036,24.6746308 11.4134821,22.9513139 C11.1433929,22.5959356 11,22.7888042 11,22.949528 L11,26.3157999 C11,28.8346999 15.9244643,30.875 22,30.875 C28.0755357,30.875 33,28.8346999 33,26.3157999 L33,22.949528 C33,22.7879113 32.855625,22.5950426 32.5865179,22.9513139 Z M22,13.0009118 C15.9244643,13.0009118 11,14.7196764 11,16.8405499 L11,18.6769382 C11,20.9263771 15.9244643,22.75 22,22.75 C28.0755357,22.75 33,20.9263771 33,18.6769382 L33,16.8414617 C33,14.7187646 28.0755357,13 22,13 L22,13.0009118 Z" id="Shape" fill="#C6C6CE"></path>
        </g>
    </g>
</svg>