<?xml version="1.0" encoding="UTF-8"?>
<svg width="73px" height="108px" viewBox="0 0 73 108" version="1.1" xmlns="http://www.w3.org/2000/svg" xmlns:xlink="http://www.w3.org/1999/xlink">
    <!-- Generator: Sketch 50.2 (55047) - http://www.bohemiancoding.com/sketch -->
    <title>多表关联--空</title>
    <desc>Created with Sketch.</desc>
    <defs></defs>
    <g id="多表关联--空" stroke="none" stroke-width="1" fill="none" fill-rule="evenodd">
        <g id="Group-6">
            <path d="M51.5360521,43.0517399 C51.0862251,43.5056194 50.300041,43.6515093 49.7104029,43.6515093 C49.1207648,43.6515093 48.4419718,43.5056194 47.9901186,43.0517399 C47.0904646,42.1419547 47.0904646,40.4034341 47.9901186,39.4956751 L54.57745,30.006757 C53.8763683,30.0108095 53.268494,30.006757 52.5512023,30.006757 C33.2876651,30.006757 17.2843605,41.8927262 14.0524954,60.400473 L10,60.400473 C13.3230463,39.3052078 28.690109,25.9542616 50.5249546,25.9542616 C51.4225823,25.9542616 53.6717173,25.9562878 54.57745,25.9542616 L45.9638709,16.2323249 C45.0642169,15.3225397 45.0642169,13.5900979 45.9638709,12.6823389 C46.8635249,11.7725537 48.6081242,11.7725537 49.5098044,12.6823389 L62.6824409,27.9805093 L51.5360521,43.0517399 Z" id="Path" fill="#D8D8D8" transform="translate(36.341220, 36.200236) rotate(45.000000) translate(-36.341220, -36.200236) "></path>
            <g id="拖拽" opacity="0.454241071" transform="translate(15.000000, 46.000000)" fill="#BFBFBF" fill-rule="nonzero">
                <path d="M15.2232502,56 C14.0392196,56 13.7009252,54.9818182 13.531778,54.3030303 C13.1934835,53.6242424 13.7009252,52.6060606 10.1488335,46.1575758 C8.11906677,42.5939394 8.11906677,42.2545455 6.76588898,39.030303 C5.58185841,36.3151515 4.39782784,30.3757576 3.21379726,28.169697 C2.36806114,26.4727273 0,23.7575758 0,23.7575758 C0,23.7575758 2.70635559,21.0424242 6.59674175,21.8909091 C9.47224457,22.569697 11.1637168,24.4363636 11.8403057,25.4545455 L11.8403057,6.78787879 C11.8403057,4.07272727 12.6860418,0 16.0689863,0 C19.4519308,0 20.2976669,4.07272727 20.2976669,6.78787879 L20.2976669,16.969697 C20.2976669,14.9333333 23.0040225,13.2363636 25.0337892,13.7454545 C28.2475865,14.4242424 28.7550282,17.8181818 28.7550282,17.9878788 C29.6007643,16.630303 31.2922365,15.1030303 33.8294449,16.1212121 C36.197506,17.1393939 36.8740949,19.5151515 36.7049477,20.7030303 C36.8740949,19.8545455 38.7347144,18.3272727 40.5953339,18.6666667 C44.48572,19.5151515 43.9782784,23.0787879 43.9782784,25.4545455 L43.9782784,32.4121212 C43.9782784,32.7515152 44.1474256,40.3878788 39.918745,47.8545455 C37.0432422,52.9454545 37.2123894,54.6424242 37.0432422,54.8121212 C36.8740949,55.4909091 36.197506,56 35.5209171,56 L15.2232502,56 Z" id="Shape"></path>
            </g>
        </g>
    </g>
</svg>