<?xml version="1.0" encoding="UTF-8"?>
<svg width="167px" height="98px" viewBox="0 0 167 98" version="1.1" xmlns="http://www.w3.org/2000/svg" xmlns:xlink="http://www.w3.org/1999/xlink">
    <!-- Generator: Sketch 51.2 (57519) - http://www.bohemiancoding.com/sketch -->
    <title>无场景icon</title>
    <desc>Created with Sketch.</desc>
    <defs></defs>
    <g id="无场景icon" stroke="none" stroke-width="1" fill="none" fill-rule="evenodd">
        <g id="Group-Copy" transform="translate(6.000000, 0.000000)">
            <path d="M116,100 C116,103.3135 113.3135,106 110,106 L38,106 C34.6865,106 32,103.3135 32,100 L32,-14 C32,-17.3135 34.6865,-20 38,-20 L110,-20 C113.3135,-20 116,-17.3135 116,-14 L116,100 Z" id="Fill-38" opacity="0.462182971" transform="translate(74.000000, 43.000000) rotate(90.000000) translate(-74.000000, -43.000000) "></path>
            <path d="M38,-19 C35.243,-19 33,-16.757 33,-14 L33,100 C33,102.757 35.243,105 38,105 L110,105 C112.757,105 115,102.757 115,100 L115,-14 C115,-16.757 112.757,-19 110,-19 L38,-19 Z M110,107 L38,107 C34.1405,107 31,103.86 31,100 L31,-14 C31,-17.86 34.1405,-21 38,-21 L110,-21 C113.8595,-21 117,-17.86 117,-14 L117,100 C117,103.86 113.8595,107 110,107 L110,107 Z" id="Fill-36" fill="#B5B5B5" opacity="0.287533967" transform="translate(74.000000, 43.000000) rotate(90.000000) translate(-74.000000, -43.000000) "></path>
            <path d="M48,75 C48,76.1045 47.1045,77 46,77 L26,77 C24.8955,77 24,76.1045 24,75 L24,45 C24,43.8955 24.8955,43 26,43 L46,43 C47.1045,43 48,43.8955 48,45 L48,75 Z" id="Fill-31" fill="#2E496F"></path>
            <path d="M125,75 C125,76.1045 124.1045,77 123,77 L103,77 C101.8955,77 101,76.1045 101,75 L101,45 C101,43.8955 101.8955,43 103,43 L123,43 C124.1045,43 125,43.8955 125,45 L125,75 Z" id="Fill-31-Copy" fill="#2C486D" opacity="0.394304801"></path>
            <path d="M89,36 C89,37.1045 88.1045,38 87,38 L23,38 C21.8955,38 21,37.1045 21,36 L21,16 C21,14.8955 21.8955,14 23,14 L87,14 C88.1045,14 89,14.8955 89,16 L89,36 Z" id="Fill-30" fill-opacity="0.2" fill="#DFDFDF" opacity="0.484997736"></path>
            <path d="M86.636,37.5 C87.199,37.5 87.7055,37.2655 88.069,36.891 L86.338,31.7665 C85.599,29.5135 83.509,28 81.1375,28 C78.766,28 76.676,29.5135 75.9395,31.759 L74,37.5 L86.636,37.5 Z" id="Fill-29" fill="#2C486D"></path>
            <path d="M37.5,28 C35.567,28 34,26.433 34,24.5 C34,22.567 35.567,21 37.5,21 L41.5,21 C43.157,21 44.5,19.657 44.5,18 C44.5,16.343 43.157,15 41.5,15 L22,15 L22,37 L55.5,37 C57.9855,37 60,34.9855 60,32.5 C60,30.0145 57.9855,28 55.5,28 L37.5,28 Z" id="Fill-28" fill="#2C486D" opacity="0.92219769"></path>
            <path d="M23,15 C22.448,15 22,15.4485 22,16 L22,36 C22,36.5515 22.448,37 23,37 L87,37 C87.552,37 88,36.5515 88,36 L88,16 C88,15.4485 87.552,15 87,15 L23,15 Z M87,39 L23,39 C21.3455,39 20,37.6545 20,36 L20,16 C20,14.3455 21.3455,13 23,13 L87,13 C88.6545,13 90,14.3455 90,16 L90,36 C90,37.6545 88.6545,39 87,39 L87,39 Z" id="Fill-27" fill="#D3CFCF" opacity="0.186774554"></path>
            <polygon id="Fill-21" fill-opacity="0.2" fill="#FFFFFF" opacity="0.571841033" points="40 64 40 49 32 49 32 57 26 57 26 75 46.1891487 75 46.1891487 64"></polygon>
            <polygon id="Fill-21-Copy" fill-opacity="0.2" fill="#D0D0D0" points="115.090909 65.6923077 115.090909 53 108.181818 53 108.181818 59.7692308 102.043288 59.7692308 102.043288 75 122 75 122 65.6923077"></polygon>
            <path d="M26,44 C25.448,44 25,44.4485 25,45 L25,75 C25,75.5515 25.448,76 26,76 L46,76 C46.552,76 47,75.5515 47,75 L47,45 C47,44.4485 46.552,44 46,44 L26,44 Z M46,78 L26,78 C24.3455,78 23,76.6545 23,75 L23,45 C23,43.3455 24.3455,42 26,42 L46,42 C47.6545,42 49,43.3455 49,45 L49,75 C49,76.6545 47.6545,78 46,78 L46,78 Z" id="Fill-20" fill="#CDCDCD" opacity="0.304913949"></path>
            <path d="M102,44 C101.448,44 101,44.4485 101,45 L101,75 C101,75.5515 101.448,76 102,76 L122,76 C122.552,76 123,75.5515 123,75 L123,45 C123,44.4485 122.552,44 122,44 L102,44 Z M122,78 L102,78 C100.3455,78 99,76.6545 99,75 L99,45 C99,43.3455 100.3455,42 102,42 L122,42 C123.6545,42 125,43.3455 125,45 L125,75 C125,76.6545 123.6545,78 122,78 L122,78 Z" id="Fill-20-Copy" fill="#CDCDCD" opacity="0.304913949"></path>
            <path d="M56,60 C54.8955,60 54,60.8955 54,62 C54,63.1045 54.8955,64 56,64 L94,64 C95.1045,64 96,63.1045 96,62 C96,60.8955 95.1045,60 94,60 L56,60 Z" id="Fill-19" fill-opacity="0.2" fill="#CFCFCF"></path>
            <path d="M56,66 C54.8955,66 54,66.8955 54,68 C54,69.1045 54.8955,70 56,70 L94,70 C95.1045,70 96,69.1045 96,68 C96,66.8955 95.1045,66 94,66 L56,66 Z" id="Fill-19-Copy" fill-opacity="0.2" fill="#CFCFCF"></path>
            <path d="M56,73 C54.8955,73 54,73.8955 54,75 C54,76.1045 54.8955,77 56,77 L94,77 C95.1045,77 96,76.1045 96,75 C96,73.8955 95.1045,73 94,73 L56,73 Z" id="Fill-19-Copy-2" fill-opacity="0.2" fill="#CFCFCF"></path>
            <path d="M58,3 L40,3 C39.4475,3 39,3.4475 39,4 C39,4.552 39.4475,5 40,5 L58,5 C58.5525,5 59,4.552 59,4 C59,3.4475 58.5525,3 58,3" id="Fill-16" fill-opacity="0.2" fill="#D0D0D0"></path>
            <path d="M125,15 L101,15 C100.4475,15 100,15.4475 100,16 C100,16.552 100.4475,17 101,17 L125,17 C125.5525,17 126,16.552 126,16 C126,15.4475 125.5525,15 125,15" id="Fill-15" fill-opacity="0.2" fill="#D0D0D0"></path>
            <path d="M125,19 L101,19 C100.4475,19 100,19.4475 100,20 C100,20.552 100.4475,21 101,21 L125,21 C125.5525,21 126,20.552 126,20 C126,19.4475 125.5525,19 125,19" id="Fill-14" fill-opacity="0.2" fill="#D0D0D0"></path>
            <path d="M125,23 L101,23 C100.4475,23 100,23.4475 100,24 C100,24.552 100.4475,25 101,25 L125,25 C125.5525,25 126,24.552 126,24 C126,23.4475 125.5525,23 125,23" id="Fill-13" fill-opacity="0.2" fill="#D0D0D0"></path>
            <path d="M117.5,27 L101,27 C100.4475,27 100,27.4475 100,28 C100,28.552 100.4475,29 101,29 L117.5,29 C118.0525,29 118.5,28.552 118.5,28 C118.5,27.4475 118.0525,27 117.5,27" id="Fill-12" fill-opacity="0.2" fill="#D0D0D0"></path>
            <path d="M83,3 L66,3 C65.4475,3 65,3.4475 65,4 C65,4.552 65.4475,5 66,5 L83,5 C83.5525,5 84,4.552 84,4 C84,3.4475 83.5525,3 83,3" id="Fill-11" fill-opacity="0.2" fill="#D0D0D0"></path>
            <path d="M108,3 L91,3 C90.4475,3 90,3.4475 90,4 C90,4.552 90.4475,5 91,5 L108,5 C108.5525,5 109,4.552 109,4 C109,3.4475 108.5525,3 108,3" id="Fill-10" fill-opacity="0.2" fill="#D0D0D0"></path>
            <path d="M128,39.5 L127.5,39.5 L127.5,39 C127.5,38.448 127.052,38 126.5,38 C125.948,38 125.5,38.448 125.5,39 L125.5,39.5 L125,39.5 C124.448,39.5 124,39.948 124,40.5 C124,41.052 124.448,41.5 125,41.5 L125.5,41.5 L125.5,42 C125.5,42.552 125.948,43 126.5,43 C127.052,43 127.5,42.552 127.5,42 L127.5,41.5 L128,41.5 C128.552,41.5 129,41.052 129,40.5 C129,39.948 128.552,39.5 128,39.5" id="Fill-6" fill-opacity="0.2" fill="#EAEAEA"></path>
            <path d="M95,10.5 L94.5,10.5 L94.5,10 C94.5,9.448 94.052,9 93.5,9 C92.948,9 92.5,9.448 92.5,10 L92.5,10.5 L92,10.5 C91.448,10.5 91,10.948 91,11.5 C91,12.052 91.448,12.5 92,12.5 L92.5,12.5 L92.5,13 C92.5,13.552 92.948,14 93.5,14 C94.052,14 94.5,13.552 94.5,13 L94.5,12.5 L95,12.5 C95.552,12.5 96,12.052 96,11.5 C96,10.948 95.552,10.5 95,10.5" id="Fill-5" fill-opacity="0.2" fill="#E2DDDD"></path>
            <path d="M19.5,7.5 L19.5,5 C19.5,4.448 19.052,4 18.5,4 C17.948,4 17.5,4.448 17.5,5 L17.5,7.5 L15,7.5 C14.448,7.5 14,7.948 14,8.5 C14,9.052 14.448,9.5 15,9.5 L17.5,9.5 L17.5,12 C17.5,12.552 17.948,13 18.5,13 C19.052,13 19.5,12.552 19.5,12 L19.5,9.5 L22,9.5 C22.552,9.5 23,9.052 23,8.5 C23,7.948 22.552,7.5 22,7.5 L19.5,7.5 Z" id="Fill-4" fill-opacity="0.2" fill="#D8D8D8"></path>
            <path d="M60,52.5 L59.5,52.5 L59.5,52 C59.5,51.448 59.052,51 58.5,51 C57.948,51 57.5,51.448 57.5,52 L57.5,52.5 L57,52.5 C56.448,52.5 56,52.948 56,53.5 C56,54.052 56.448,54.5 57,54.5 L57.5,54.5 L57.5,55 C57.5,55.552 57.948,56 58.5,56 C59.052,56 59.5,55.552 59.5,55 L59.5,54.5 L60,54.5 C60.552,54.5 61,54.052 61,53.5 C61,52.948 60.552,52.5 60,52.5" id="Fill-3" fill-opacity="0.2" fill="#E0E0E0"></path>
            <path d="M140.811715,96 L1.18828452,96 C0.531757322,96 0,96.4475 0,97 C0,97.552 0.531757322,98 1.18828452,98 L140.811715,98 C141.468243,98 142,97.552 142,97 C142,96.4475 141.468243,96 140.811715,96" id="Fill-2" fill-opacity="0.2" fill="#FFFFFF"></path>
            <path d="M149.5,96 L145,96 C144.4475,96 144,96.4475 144,97 C144,97.552 144.4475,98 145,98 L149.5,98 C150.0525,98 150.5,97.552 150.5,97 C150.5,96.4475 150.0525,96 149.5,96" id="Fill-1" fill-opacity="0.2" fill="#FFFFFF"></path>
        </g>
    </g>
</svg>