<?xml version="1.0" encoding="UTF-8"?>
<svg width="125px" height="115px" viewBox="0 0 125 115" version="1.1" xmlns="http://www.w3.org/2000/svg" xmlns:xlink="http://www.w3.org/1999/xlink">
    <!-- Generator: Sketch 50.2 (55047) - http://www.bohemiancoding.com/sketch -->
    <title>无内容</title>
    <desc>Created with Sketch.</desc>
    <defs></defs>
    <g id="无内容" stroke="none" stroke-width="1" fill="none" fill-rule="evenodd">
        <g id="图表-柱状图" fill="#CED1DC" fill-rule="nonzero">
            <path d="M0,0.702258341 C0,0.522482949 0.0686784322,0.342844716 0.206035296,0.205616304 C0.3435296,0.0685387681 0.523533888,0 0.703689359,0 L5.15565046,0 C5.33579218,0 5.51579647,0.0685387681 5.65330452,0.205616304 C5.79066138,0.342831 5.85933982,0.522469233 5.85933982,0.702258341 L5.85933982,109.152576 L124.296311,109.152576 C124.476315,109.152576 124.656594,109.221114 124.793814,109.358343 C124.931308,109.49542 125,109.675196 125,109.854834 L125,114.297742 C125,114.47738 124.931322,114.657292 124.793814,114.794233 C124.656457,114.931448 124.476315,115 124.296311,115 L0,115 L5.49757312e-07,0.702261084 L0,0.702258341 Z" id="Shape"></path>
            <path d="M43.0000043,2.09937892 C43.0000043,1.56208279 43.2021936,1.024773 43.606869,0.614984078 C44.0113959,0.205044808 44.5415983,0 45.0716658,0 L63.9283385,0 C64.4585409,0 64.9887568,0.204894462 65.3931354,0.614984078 C65.7976623,1.02492335 66,1.56221947 66,2.09937892 L66,101 L43,101 L43,2.09938165 L43.0000043,2.09937892 Z" id="Shape"></path>
            <path d="M14.0000022,31.1033075 C14.0000022,30.5650059 14.2021914,30.0266906 14.6068667,29.6161349 C15.0113937,29.2054285 15.541596,29 16.0716634,29 L34.9283387,29 C35.458541,29 35.9887569,29.2052779 36.3931354,29.6161349 C36.7976624,30.0268413 37,30.5651428 37,31.1033075 L37,101 L14,101 L14,31.103308 L14.0000022,31.1033075 Z" id="Shape"></path>
            <path d="M72.0000032,60.1126069 C72.0000032,59.5719253 72.2023409,59.03123 72.6068678,58.618859 C73.0113947,58.2064881 73.541597,58 74.0716644,58 L92.9283388,58 C93.4585411,58 93.9887569,58.2063368 94.3931355,58.618859 C94.797514,59.0313813 95,59.5720628 95,60.1126069 L95,101 L72,101 L72,60.1126085 L72.0000032,60.1126069 Z" id="Shape"></path>
            <path d="M102.000005,90.161717 C102.000005,89.6084666 102.202343,89.0552022 102.60687,88.6332452 C103.011397,88.2112881 103.541599,88 104.071666,88 L122.928339,88 C123.458541,88 123.988757,88.2111333 124.393136,88.6332452 C124.797514,89.055357 125,89.6086074 125,90.161717 L125,102 L102,102 L102,90.1617165 L102.000005,90.161717 Z" id="Shape"></path>
        </g>
    </g>
</svg>