<?xml version="1.0" encoding="UTF-8"?>
<svg width="23px" height="20px" viewBox="0 0 23 20" version="1.1" xmlns="http://www.w3.org/2000/svg" xmlns:xlink="http://www.w3.org/1999/xlink">
    <!-- Generator: Sketch 50.2 (55047) - http://www.bohemiancoding.com/sketch -->
    <title>Artboard 4</title>
    <desc>Created with Sketch.</desc>
    <defs></defs>
    <g id="Artboard-4" stroke="none" stroke-width="1" fill="none" fill-rule="evenodd">
        <g id="仪表盘-2" fill="#5DBFE2" fill-rule="nonzero">
            <path d="M1.15002829,3.35276969 L1.15002829,16.6472303 C1.15000195,17.8491801 2.1066543,18.8258062 3.29189744,18.8338192 L19.7081026,18.8338192 C20.278661,18.8338323 20.8256436,18.602996 21.2277378,18.1925066 C21.629832,17.7820171 21.853801,17.2258052 21.8499717,16.6472303 L21.8499717,3.35276969 C21.849998,2.15081992 20.8933457,1.17419376 19.7081026,1.16618076 L3.29189744,1.16618076 C2.721339,1.16616773 2.17435635,1.39700398 1.77226218,1.80749341 C1.37016801,2.21798285 1.14619904,2.77419482 1.15002829,3.35276969 Z M3.14311112e-05,3.35276969 C-0.00379194821,2.46490301 0.341340048,1.61207098 0.959099565,0.982882126 C1.57685908,0.353693277 2.41634395,-8.46551502e-06 3.29189744,0 L19.7081026,0 C21.5284728,0.00802611501 22.9999858,1.50676399 22.9999686,3.35276969 L22.9999686,16.6472303 C23.0037919,17.535097 22.65866,18.387929 22.0409004,19.0171179 C21.4231409,19.6463067 20.583656,20.0000085 19.7081026,20 L3.29189744,20 C1.47152725,19.9919739 1.42250858e-05,18.493236 3.14311112e-05,16.6472303 L3.14311112e-05,3.35276969 Z" id="Shape"></path>
            <path d="M12.5079175,8.89169048 L9.24733995,8.89169048 C9.12351312,8.8644314 9.03380807,8.75414106 9.02996812,8.62443672 L9.02996812,5.28376457 C9.02996812,5.12796438 9.15324099,5.00166337 9.30530578,5.00166337 C10.2439693,4.97185004 11.152346,5.34391384 11.8122629,6.02849291 C12.4721798,6.71307199 12.8240114,7.64831242 12.7832551,8.60958928 C12.7832551,8.76538947 12.6599822,8.89169048 12.5079175,8.89169048 Z M7.84166877,13.999207 C5.72212016,13.9280532 4.03125452,12.1629653 4.00143303,9.99040043 C3.97418292,8.99152629 4.33650511,8.02269382 5.00824679,7.2982278 C5.67998847,6.57376178 6.60578161,6.15337605 7.58082255,6.1300682 C7.66026798,6.12996638 7.73627134,6.16328176 7.79106133,6.22222443 C7.84585132,6.28116711 7.874624,6.36056904 7.87065167,6.44186425 L7.87065167,9.67860436 C7.87065167,9.975553 8.18946369,9.99040041 8.18946369,9.99040043 L11.3920754,9.99040043 C11.4714215,9.98633052 11.5489197,10.01581 11.6064492,10.0719459 C11.6639787,10.1280817 11.6964953,10.2059521 11.6963959,10.2873491 C11.6101327,12.3926015 9.89784354,14.0414274 7.84166877,13.999207 Z M14.3338409,10.4655183 L14.3338409,13.3013777 C14.3338409,13.6874109 14.5657042,13.9843596 14.8410418,13.9843596 L15.3772257,13.9843596 C15.6525633,13.9843596 15.8844266,13.6725635 15.8844266,13.3013777 L15.8844266,10.4655183 C15.8844266,10.079485 15.6525633,9.78253638 15.3772257,9.78253638 L14.8265504,9.78253638 C14.5512127,9.78253638 14.3193494,10.0943324 14.3193494,10.4655183 L14.3338409,10.4655183 Z M18.4639057,13.241988 C18.4639057,13.6280212 18.6812775,13.9249698 18.9566152,13.9249698 L19.4927991,13.9249698 C19.7681367,13.9249698 20,13.6131738 20,13.241988 L20,6.44186425 C20,6.05583103 19.7826282,5.75888239 19.4927991,5.75888239 L18.9566152,5.75888239 C18.6812775,5.75888239 18.4639057,6.07067844 18.4639057,6.44186425 L18.4639057,13.3013777 L18.4639057,13.241988 Z" id="Shape"></path>
        </g>
    </g>
</svg>