<?xml version="1.0" encoding="UTF-8"?>
<svg width="25px" height="18px" viewBox="0 0 25 18" version="1.1" xmlns="http://www.w3.org/2000/svg" xmlns:xlink="http://www.w3.org/1999/xlink">
    <!-- Generator: Sketch 50.2 (55047) - http://www.bohemiancoding.com/sketch -->
    <title>轮播图-蓝色</title>
    <desc>Created with Sketch.</desc>
    <defs></defs>
    <g id="轮播图-蓝色" stroke="none" stroke-width="1" fill="none" fill-rule="evenodd">
        <g id="轮播图-2" fill="#4DBAE1" fill-rule="nonzero">
            <path d="M24.984881,14.4665837 L24.984881,2.82857581 C24.984881,2.22550566 24.5538414,1.59389037 23.9130628,1.59389037 L22.2825829,1.59389037 L22.3119316,1.43450133 C22.3119316,0.654074649 21.6493638,0 20.8206354,0 L4.20560055,0 C3.39199108,0 2.71756531,0.795930892 2.71756531,1.59389037 L2.71208097,1.56998202 L1.1674236,1.56998202 C0.526645006,1.56998202 0.0152672208,2.07524526 0.0152672208,2.67831542 L0.0152672208,14.3169029 L0,14.3169029 C0,14.9343181 0.525607428,15.430018 1.15437977,15.430018 L2.71148806,15.430018 L2.71148806,15.5591231 C2.71148806,16.3433172 3.3740558,17 4.20560055,17 L20.8373848,17 C21.6438795,17 22.2711696,16.728459 22.2825829,15.9390486 L23.9130628,15.9390486 C24.5413905,15.9390486 25,15.0841438 25,14.4668735 L24.984881,14.4665837 Z M2.71682418,14.3448684 L1.08634429,14.3448684 L1.08634429,2.65643565 L2.71682418,2.65643565 L2.71682418,14.3448684 Z M21.1956457,15.4074137 C21.1956457,15.5673824 20.8173744,15.9387588 20.652103,15.9387588 L4.34730408,15.9387588 C4.1820327,15.9387588 3.80376137,15.5689762 3.80376137,15.4074137 L3.80376137,1.59374547 C3.80376137,1.43493603 4.03958805,1.13151726 4.20485942,1.13151726 L4.34730408,1.06254528 L20.652103,1.06254528 C20.8161886,1.06254528 21.1956457,1.43493603 21.1956457,1.59389037 L21.1956457,15.4074137 Z M23.9130628,14.8762135 L22.2825829,14.8762135 L22.2825829,2.65643565 L23.8325764,2.60702505 C23.9591609,2.60702505 23.9130628,2.53370609 23.9130628,2.65643565 L23.9130628,14.3448684 C23.9130628,14.4686123 24.0408331,14.8762135 23.9130628,14.8762135 Z M9.96386264,8.10478764 C11.0829647,8.10478764 11.9927725,7.23872557 11.9927725,6.17516599 C11.9927725,5.11044723 11.0829647,4.24554435 9.96386264,4.24554435 C8.84476053,4.24554435 7.93495275,5.11044723 7.93495275,6.17516599 C7.93435984,7.23872557 8.84476053,8.10478764 9.96386264,8.10478764 Z M9.96386264,5.21028272 C10.5231172,5.21028272 10.978614,5.64280661 10.978614,6.17516599 C10.978614,6.70651108 10.5231172,7.14004927 9.96386264,7.14004927 C9.40460803,7.14004927 8.94911124,6.70651108 8.94911124,6.17516599 C8.94911124,5.64222701 9.40460803,5.21028272 9.96386264,5.21028272 Z M19.4781575,6.6713006 C17.034661,7.25249099 15.9693648,8.85710389 15.1916259,10.0286133 C14.5747116,10.9568371 14.1959955,11.4816617 13.5328349,11.4816617 L13.5317973,11.4816617 C12.6285115,11.4816617 12.0768164,11.1262242 11.4926599,10.78035 C10.8720399,10.4131756 10.2306684,10.0344093 9.23444522,10.0344093 C7.30721799,10.0344093 5.23710142,12.3572871 5.00720376,12.6218729 L4.89084678,13.8937975 C4.89084678,14.1605568 5.11807639,14.3448684 5.39851893,14.3448684 L19.6016293,14.3448684 C19.8814789,14.3448684 20.1087085,14.1605568 20.1087085,13.8937975 L20.1087085,7.13990437 C20.1080609,6.99012482 20.0359139,6.84922973 19.9136439,6.75896457 C19.7894043,6.66710129 19.6294167,6.63489557 19.4781575,6.6713006 Z M19.0944018,13.367234 L5.90559818,13.367234 C6.53926196,12.6764999 8.07843498,10.9992926 9.23444522,10.9992926 C9.94103592,10.9992926 10.4122446,11.2772091 10.9568249,11.6001892 C11.5976035,11.9779412 12.323167,12.407712 13.4971126,12.4455307 L13.5721146,12.4471246 C14.7857846,12.4471246 15.3992897,11.5226682 16.0494065,10.5440195 C16.728279,9.52074188 17.4880827,8.573971 19.09455,7.99162142 L19.09455,13.367234 L19.0944018,13.367234 Z" id="Shape"></path>
        </g>
    </g>
</svg>