<?xml version="1.0" encoding="UTF-8"?>
<svg width="18px" height="18px" viewBox="0 0 18 18" version="1.1" xmlns="http://www.w3.org/2000/svg" xmlns:xlink="http://www.w3.org/1999/xlink">
    <!-- Generator: Sketch 50.2 (55047) - http://www.bohemiancoding.com/sketch -->
    <title>保存布局 copy 2</title>
    <desc>Created with Sketch.</desc>
    <defs></defs>
    <g id="保存布局-copy-2" stroke="none" stroke-width="1" fill="none" fill-rule="evenodd">
        <g id="预览-2" transform="translate(2.000000, 5.000000)" fill="#02A6E3" fill-rule="nonzero">
            <path d="M7,0 C2.8000034,0 0,4.5 0,4.5 C0,4.5 2.8000034,9 7,9 C11.1999966,9 14,4.5 14,4.5 C14,4.5 11.1979409,0 7,0 Z M7,7.46687714 C5.4618508,7.46687714 4.21442041,6.13036171 4.21442041,4.48232517 C4.21442041,2.83428864 5.46183381,1.4977732 7,1.4977732 C8.5381492,1.4977732 9.78557959,2.83428864 9.78557959,4.48232517 C9.78350691,6.13254603 8.53816619,7.46687714 7,7.46687714 Z M5.59998981,4.49117169 C5.59998981,4.8822022 5.75051392,5.27099379 6.00823975,5.54714703 C6.26596558,5.82330027 6.62885442,5.98455804 6.99381594,5.98455804 C7.35877746,5.98455804 7.72164931,5.82328207 7.97939213,5.54714703 C8.23711796,5.27101199 8.38764207,4.8822022 8.38764207,4.49117169 C8.38764207,4.10014117 8.23711796,3.71134959 7.97939213,3.43519635 C7.7216663,3.15906131 7.35877746,2.99778534 6.99381594,2.99778534 C6.62885442,2.99778534 6.26598257,3.15906131 6.00823975,3.43519635 C5.75051392,3.71355212 5.59998981,4.10014117 5.59998981,4.49117169 Z" id="Shape"></path>
        </g>
    </g>
</svg>