<?xml version="1.0" encoding="UTF-8"?>
<svg width="18px" height="18px" viewBox="0 0 18 18" version="1.1" xmlns="http://www.w3.org/2000/svg" xmlns:xlink="http://www.w3.org/1999/xlink">
    <!-- Generator: Sketch 50.2 (55047) - http://www.bohemiancoding.com/sketch -->
    <title>重置 copy 2</title>
    <desc>Created with Sketch.</desc>
    <defs></defs>
    <g id="重置-copy-2" stroke="none" stroke-width="1" fill="none" fill-rule="evenodd">
        <g id="恢复重置" fill="#12ACE5" fill-rule="nonzero">
            <path d="M17.4375,16 L0.5625,16 C0.225,16 0,15.7901438 0,15.4753596 C0,15.1605753 0.225,14.9507192 0.5625,14.9507192 L17.4375,14.9507192 C17.775,14.9507192 18,15.1605753 18,15.4753596 C18,15.7901438 17.775,16 17.4375,16 Z M2.1375,7.02864877 C2.025,7.02864877 1.96875,7.02864877 1.9125,6.97618473 C1.6875,6.92372069 1.51875,6.76632856 1.40625,6.60893643 L0.05625,4.0906624 C-0.05625,3.82834219 0.05625,3.51355794 0.3375,3.40862985 C0.61875,3.30370177 0.95625,3.40862985 1.06875,3.67095006 L2.25,5.87443984 L4.66875,4.72023091 C4.95,4.56283878 5.2875,4.66776687 5.45625,4.93008708 C5.625,5.19240729 5.5125,5.50719154 5.23125,5.66458367 L2.53125,6.97618473 C2.41875,7.02864877 2.25,7.02864877 2.1375,7.02864877 Z" id="Shape"></path>
            <path d="M8.94790895,14.3157895 C7.14167995,14.3157895 5.3918956,13.6550607 4.03722385,12.4437247 C3.81144522,12.2234818 3.81144522,11.8931174 3.98077919,11.6728745 C4.20655782,11.4526316 4.54522575,11.4526316 4.77100438,11.6178138 C5.89989751,12.6089069 7.42390323,13.2145749 8.94790895,13.2145749 C12.391033,13.2145749 15.1568212,10.5165992 15.1568212,7.15789474 C15.1568212,3.79919028 12.391033,1.10121457 8.94790895,1.10121457 C5.89989751,1.10121457 3.35988797,3.19352227 2.85188606,6.11174089 C2.79544141,6.44210526 2.51321812,6.60728745 2.17455019,6.55222672 C1.8923269,6.49716599 1.66654828,6.22186235 1.72299293,5.89149798 C2.34388416,2.47773279 5.3918956,0 8.94790895,0 C13.0119242,0 16.2857143,3.19352227 16.2857143,7.15789474 C16.2857143,11.1222672 13.0119242,14.3157895 8.94790895,14.3157895 Z" id="Shape"></path>
        </g>
    </g>
</svg>