<?xml version="1.0" encoding="UTF-8"?>
<svg width="16px" height="16px" viewBox="0 0 16 16" version="1.1" xmlns="http://www.w3.org/2000/svg" xmlns:xlink="http://www.w3.org/1999/xlink">
    <!-- Generator: Sketch 51.2 (57519) - http://www.bohemiancoding.com/sketch -->
    <title>Shape</title>
    <desc>Created with Sketch.</desc>
    <defs></defs>
    <g id="蓝湖上传" stroke="none" stroke-width="1" fill="none" fill-rule="evenodd">
        <g id="Artboard-2-Copy-2" transform="translate(-614.000000, -357.000000)" fill="#02A5E2" fill-rule="nonzero">
            <g id="保存-2" transform="translate(614.000000, 357.000000)">
                <path d="M0,16 L0,0 L12.6370136,0 L16,3.3608386 L16,16 L0,16 Z M7.98404792,13.9884603 C9.69163969,13.9884603 11.4993647,13.9884603 13.2069565,13.9873852 C13.6415775,13.9873852 13.8706057,13.7573086 13.8706057,13.3229584 C13.8706057,11.4318147 13.8706057,11.0856247 13.8706057,9.19448103 C13.8706057,8.75905568 13.639447,8.52360346 13.2122827,8.52360346 C9.79177296,8.52360346 6.17206189,8.52360346 2.75261735,8.52360346 C2.33184458,8.52360346 2.09642487,8.75905568 2.09642487,9.18157954 C2.09535963,11.0780988 2.09535963,11.4286073 2.09642487,13.3240335 C2.09642487,13.3928415 2.09855537,13.4637997 2.11345108,13.5293823 C2.18375742,13.8293419 2.40639415,13.9863101 2.76113933,13.9863101 C4.46979635,13.9895175 6.27752139,13.9884603 7.98404792,13.9884603 Z M7.6900396,6.44644537 L11.0444863,6.44644537 C11.5121477,6.44644537 11.7379624,6.21961206 11.7379624,5.74868969 C11.7379624,4.45963356 11.7379624,4.11235049 11.7379624,2.82327644 C11.7379624,2.34914662 11.5174562,2.12659589 11.0466168,2.12659589 C8.61039571,2.12659589 6.27430789,2.12659589 3.83808682,2.12659589 C3.37683464,2.12659589 3.15100216,2.35237199 3.15100216,2.81465753 C3.14993692,4.10803207 3.14993692,4.46069077 3.15100216,5.7540474 C3.15100216,6.21635085 3.37896513,6.44535233 3.83595632,6.44535233 C5.05459948,6.44642745 6.47137869,6.44642745 7.69002185,6.44642745 L7.6900396,6.44644537 Z M8.52308092,3.16086548 L10.6205533,3.16086548 L10.6205533,5.33801012 L8.52308092,5.33801012 L8.52308092,3.16086548 Z" id="Shape"></path>
            </g>
        </g>
    </g>
</svg>