<?xml version="1.0" encoding="UTF-8"?>
<svg width="18px" height="18px" viewBox="0 0 18 18" version="1.1" xmlns="http://www.w3.org/2000/svg" xmlns:xlink="http://www.w3.org/1999/xlink">
    <!-- Generator: Sketch 50.2 (55047) - http://www.bohemiancoding.com/sketch -->
    <title>另存为</title>
    <desc>Created with Sketch.</desc>
    <defs></defs>
    <g id="另存为" stroke="none" stroke-width="1" fill="none" fill-rule="evenodd">
        <g id="Group-6">
            <g id="Buttons-/-Icon-/-Add-/-Default-Copy-2" stroke="#FFFFFF" stroke-opacity="0.2">
                <rect id="BG" x="0.5" y="0.5" width="17" height="17" rx="3"></rect>
            </g>
            <g id="转发" transform="translate(4.000000, 4.000000)" fill="#12ACE5" fill-rule="nonzero">
                <path d="M5.56117272,8.17242256 C5.54551723,8.28083651 5.58321789,8.39009066 5.66304258,8.46763502 L5.66617607,8.47005545 C5.73555507,8.54020563 5.83146914,8.57996368 5.9317972,8.58016004 C6.04741502,8.58016004 6.14616175,8.52572541 6.21428941,8.44646376 L9.89298634,4.5589875 C9.96723158,4.4872749 10.0059493,4.38807113 9.99923479,4.28675409 C10.0060315,4.18542515 9.96730144,4.08618955 9.89298634,4.01452068 L6.19366227,0.105270566 C6.04626764,-0.0350901887 5.80981466,-0.0350901887 5.66242003,0.105270566 C5.582987,0.183029611 5.54554999,0.292190501 5.56117272,0.400493069 L5.56117272,2.50575743 C2.48996998,2.50575743 2.13394219e-07,4.90502905 2.13394219e-07,7.86570049 C-0.000211315243,8.60033575 0.1568389,9.32704454 0.461247145,10 C0.899999287,7.76769807 3.11121214,6.07199907 5.55492648,6.07199907 L5.56117272,8.17242256 Z" id="Shape"></path>
            </g>
        </g>
    </g>
</svg>