<svg id="图层_1" data-name="图层 1" xmlns="http://www.w3.org/2000/svg" viewBox="0 0 16.02 18"><defs><style>.cls-1{fill:#353c43;}</style></defs><title>文本</title><path class="cls-1" d="M16.79,2.69,14,.18A.7.7,0,0,0,13.52,0H1.68A.66.66,0,0,0,1,.62V17.34a.7.7,0,0,0,.7.66H16.32a.74.74,0,0,0,.68-.73V3.14A.62.62,0,0,0,16.79,2.69ZM16.11,17.1l-14.24,0V.9H12.55V3.28c0,.2.14.31.37.31h3.17ZM13.44,6.29H4.54V5.4h8.89a0,0,0,0,1,0,0h0v.88h0Zm0,2.69H4.54V8.09h8.9V9h0Zm0,2.7H4.54v-.88h8.9v.88h0Zm0,2.69H4.54v-.88h8.9v.88h0Z" transform="translate(-0.98 0)"/></svg>