<?xml version="1.0" encoding="UTF-8"?>
<svg width="20px" height="20px" viewBox="0 0 20 20" version="1.1" xmlns="http://www.w3.org/2000/svg" xmlns:xlink="http://www.w3.org/1999/xlink">
    <!-- Generator: Sketch 47.1 (45422) - http://www.bohemiancoding.com/sketch -->
    <title>新建场景文件</title>
    <desc>Created with Sketch.</desc>
    <defs></defs>
    <g id="Page-1" stroke="none" stroke-width="1" fill="none" fill-rule="evenodd">
        <g id="新建场景文件">
            <g id="Group" transform="translate(3.000000, 4.000000)">
                <polygon id="Shape" fill="#334253" opacity="0.28" points="0 0 0 2.52631579 11.7894737 2.52631579 11.7894737 0"></polygon>
                <path d="M11.7894737,4.21052632 L11.7894737,3.36842105 L0,3.36842105 L0,5.89473684 L8.42074426,5.89473684 C9.18891802,4.87204488 10.4119429,4.21052632 11.7894737,4.21052632 Z" id="Combined-Shape" fill="#C6CACF"></path>
                <path d="M7.92929995,6.73684211 L0,6.73684211 L0,8.42105263 L7.57894737,8.42105263 C7.57894737,7.82222761 7.70395579,7.25259987 7.92929995,6.73684211 Z" id="Combined-Shape" fill="#C6CACF"></path>
                <path d="M7.66317315,9.26315789 L0,9.26315789 L0,10.1052632 L7.92929995,10.1052632 C7.81248084,9.83789274 7.72262614,9.55604522 7.66317315,9.26315789 Z" id="Combined-Shape" fill="#C6CACF"></path>
                <path d="M11.7894737,5.05263158 L11.7894737,5.05263158 C13.6498003,5.05263158 15.1578947,6.56072172 15.1578947,8.42105263 C15.1578947,10.2813835 13.6498003,11.7894737 11.7894737,11.7894737 C9.92914711,11.7894737 8.42105263,10.2813835 8.42105263,8.42105263 C8.42105263,6.56072172 9.92914711,5.05263158 11.7894737,5.05263158 Z M13.1825997,8.71213718 C13.343357,8.71213718 13.4736842,8.58180995 13.4736842,8.42105263 C13.4736842,8.26029531 13.343357,8.12996809 13.1825997,8.12996809 L12.0805582,8.12996809 L12.0805582,7.02792665 C12.0805582,6.86716933 11.950231,6.73684211 11.7894737,6.73684211 C11.6287164,6.73684211 11.4983891,6.86716933 11.4983891,7.02792665 L11.4983891,8.12996809 L10.3963477,8.12996809 C10.2355904,8.12996809 10.1052632,8.26029531 10.1052632,8.42105263 C10.1052632,8.58180995 10.2355904,8.71213718 10.3963477,8.71213718 L11.4983891,8.71213718 L11.4983891,9.81417861 C11.4983891,9.97493593 11.6287164,10.1052632 11.7894737,10.1052632 C11.950231,10.1052632 12.0805582,9.97493593 12.0805582,9.81417861 L12.0805582,8.71213718 L13.1825997,8.71213718 Z" id="Combined-Shape" fill="#C6CACF" fill-rule="nonzero"></path>
            </g>
        </g>
    </g>
</svg>