<?xml version="1.0" encoding="UTF-8"?>
<svg width="18px" height="16px" viewBox="0 0 18 16" version="1.1" xmlns="http://www.w3.org/2000/svg" xmlns:xlink="http://www.w3.org/1999/xlink">
    <!-- Generator: Sketch 50.2 (55047) - http://www.bohemiancoding.com/sketch -->
    <title>数据库--更多-选中</title>
    <desc>Created with Sketch.</desc>
    <defs></defs>
    <g id="数据库--更多-选中" stroke="none" stroke-width="1" fill="none" fill-rule="evenodd">
        <g id="设置" transform="translate(1.000000, 0.000000)" fill-rule="nonzero">
            <path d="M12.789433,1.90791575 C12.789433,1.93034392 12.6977664,1.93735271 12.689433,1.95837911 C12.714433,2.02005654 12.789433,2.07893046 12.789433,2.14200965 L12.789433,1.90791575 Z M2.72388293,13.5873788 L2.09195465,13.5873788 C1.54090222,13.5873788 0.977512803,13.0336836 0.977512803,12.4940061 L0.977512803,2.14200965 C0.977512803,1.58691276 1.55186844,0.999575385 2.09195465,0.999575385 L10.659312,0.999575385 C11.1898028,0.999575385 11.7285182,1.57569868 11.7285182,2.14200965 L11.7285182,1.90791575 C11.7285182,2.24293635 11.9163147,2.45460209 12.2165149,2.45460209 C12.498895,2.45460209 12.6661298,2.25695396 12.6880622,1.95837911 C12.6044448,0.831364195 11.7669,0.00012061307 10.659312,0.00012061307 L2.09195465,0.00012061307 C1.53489578,-0.00595661547 0.998958414,0.217845463 0.605293948,0.620935242 C0.211629482,1.02402502 -0.00652383009,1.57236844 0.00014868469,2.14200965 L0.00014868469,12.4940061 C0.00014868469,13.6883055 0.899378514,14.5882353 2.09195465,14.5882353 L2.72388293,14.5882353 C3.05286946,14.5882353 3.25848603,14.3933907 3.25848603,14.0892088 C3.25848603,13.7794199 3.05286946,13.5873788 2.72388293,13.5873788 Z" id="Shape" fill="#02B0F0"></path>
            <path d="M5.81985401,3.11751883 C5.80762152,3.09267465 5.80762152,3.05678862 5.78723405,3.0388456 C5.71383913,2.91876541 5.60510593,2.82352941 5.45423862,2.82352941 L2.30233493,2.82352941 C2.15146762,2.82352941 2.04273441,2.91738519 1.96798034,3.03746538 C1.95167036,3.0554084 1.95302953,3.08853396 1.94079703,3.10923744 C1.92176872,3.15892579 1.88235294,3.19619206 1.88235294,3.25278157 L1.88507127,3.25968273 L1.88235294,3.26658388 C1.88235294,3.36872105 1.9190504,3.44325358 1.98157198,3.4957024 C2.05768522,3.60060003 2.1637001,3.68065349 2.3036941,3.68065349 L5.45423862,3.68065349 C5.59423261,3.68065349 5.70024749,3.60060004 5.77636072,3.49432216 C5.78043821,3.49018146 5.79131153,3.4915617 5.79538904,3.487421 C5.85095351,3.42818123 5.87996941,3.34827441 5.87557977,3.26658388 L5.87286143,3.25968273 L5.87557977,3.25278157 C5.8742206,3.20033276 5.83752314,3.16306649 5.81985401,3.11751883 Z M3.18986968,4.92424253 L2.33359573,4.92424253 C2.10052011,4.92424253 1.91157499,5.11611629 1.91157499,5.35280457 C1.91157499,5.58949285 2.10052011,5.78136661 2.33359573,5.78136661 L3.18986968,5.78136661 C3.4229453,5.78136661 3.61189042,5.58949285 3.61189042,5.35280457 C3.61189042,5.11611629 3.4229453,4.92424253 3.18986968,4.92424253 Z M15.6330254,10.2381358 C15.3657153,10.181203 15.1304659,10.0214446 14.9765487,9.79232082 C14.7577232,9.57148369 14.6856874,9.27473382 14.7577232,8.97798394 C14.7577232,8.68123406 14.8311181,8.45763648 14.904513,8.38448417 C15.0485845,8.08773429 15.3408049,7.78960417 15.6343846,7.71645188 C15.7440269,7.66120173 15.8430052,7.58640173 15.9266051,7.49561475 C16,7.419702 16,7.27201717 16,7.12433234 C15.9266051,6.90073476 15.8545693,6.6053651 15.7811744,6.38176752 C15.6357438,6.1609304 15.5623488,6.01186535 15.4169182,5.86418052 C15.3363074,5.786296 15.2344888,5.73483809 15.1246977,5.71649571 L15.0513028,5.71649571 C14.9792671,5.71649571 14.9072313,5.79102824 14.8324772,5.79102822 C14.6136517,5.93871305 14.3214312,5.93871305 14.0292107,5.93871305 C13.7342719,5.86556076 13.5154463,5.79102822 13.2966208,5.56881088 C13.0777952,5.34659352 13.0044003,5.12299594 12.9310054,4.82624606 L12.9310054,4.6040287 C12.9310054,4.45496365 13.0057595,4.23274629 13.0057595,4.15821377 C13.0057595,4.08506147 13.0777952,3.93737664 13.0777952,3.86284411 L13.0777952,3.78969182 C13.0777952,3.71515928 13.0057595,3.71515928 13.0057595,3.64062677 C12.9310054,3.56747447 12.8603288,3.41978964 12.713539,3.34525711 C12.6387849,3.27072458 12.4919951,3.19619206 12.3479236,3.12027929 C12.2011338,3.04850723 12.0557031,2.97259446 11.9089133,2.97259446 C11.7634826,2.89944217 11.6900877,2.89944217 11.5432979,2.89944217 C11.4712621,2.89944217 11.3978672,2.97259446 11.3244723,2.97259446 C11.2510774,3.04850722 11.1804008,3.12027929 11.1804008,3.19619206 C11.1056468,3.49156172 10.9602161,3.7151593 10.6679956,4.01052894 C10.4268976,4.16174917 10.1480601,4.2393665 9.86472909,4.23412652 C9.59050452,4.24779204 9.32402553,4.1394475 9.13485748,3.93737664 C8.91603191,3.71515928 8.76924209,3.56609423 8.69720635,3.41840941 C8.69381329,3.28075436 8.64170221,3.14894734 8.55041653,3.04712699 C8.47702162,2.89944217 8.40498587,2.89944217 8.25819604,2.89944217 C8.18480113,2.89944217 8.03937047,2.89944217 7.89258065,2.97259446 C7.74714999,3.04850722 7.60171933,3.04850722 7.45628868,3.12027929 L7.01727838,3.34387687 C6.88000271,3.41426871 6.8025303,3.48466053 6.66933214,3.5564326 C6.73593122,3.77036857 6.79845282,4.02985218 6.79845282,4.23412652 L6.79845282,4.67718099 C6.79845282,4.82486582 6.79845282,4.97393087 6.7250579,4.97393088 C6.73050113,5.17151957 6.65054962,5.36163706 6.50623234,5.49427835 C6.28876594,5.71649571 6.06858121,5.86556076 5.77636072,5.86556076 C5.48414024,5.94009329 5.19191976,5.86556076 4.89969929,5.79102822 C4.82766354,5.71649569 4.7556278,5.71649569 4.68087371,5.71649571 C4.6074788,5.71649571 4.6074788,5.79102824 4.53544305,5.79102822 C4.46204814,5.86556076 4.39001239,5.93871305 4.39001241,6.08639788 C4.31661749,6.16231064 4.24458175,6.30999546 4.39001241,6.01324558 C4.22498346,6.26298955 4.10146771,6.53856305 4.02439702,6.8289627 C3.95236127,6.97664753 3.95236127,7.12571258 3.95236127,7.19886488 C3.95236127,7.27201717 3.95236127,7.419702 4.02439702,7.49561475 C4.02439702,7.57014729 4.09779193,7.64191935 3.87896636,7.57014729 C4.24458175,7.64329958 4.60883797,7.86689716 4.90105844,8.16364706 C5.11988402,8.38586442 5.19191976,8.6826143 5.19191976,8.97798394 C5.19191976,9.27335358 5.11988402,9.57148369 4.90105844,9.64463599 C4.68087371,9.86823357 4.46204814,10.0904509 4.16982766,10.1663637 C4.024397,10.2381357 3.87896634,10.3126683 3.87896636,10.5362659 L3.87896636,10.6094182 C3.95236127,11.0538529 4.09779193,11.4996678 4.31661749,11.86957 C4.46204815,11.9441025 4.53544307,12.0917874 4.60883797,12.0917873 C4.68223288,12.1663199 4.75562778,12.1663199 4.82766354,12.1663199 L4.97309419,12.1663199 C5.19191976,12.1663199 5.41074532,12.0917873 5.55753515,12.0917873 L5.92179138,12.0917873 C6.11428093,12.1448086 6.29020913,12.2469651 6.43283743,12.3885372 C6.651663,12.6107546 6.79845282,12.8329719 6.79845282,13.1311021 C6.79845282,13.4250915 6.7250579,13.6500693 6.65166299,13.7232216 C6.57962724,13.8709064 6.57962724,14.0199715 6.57962724,14.0931238 C6.57962724,14.1690365 6.57962724,14.2421888 6.65166299,14.3167213 C6.70953989,14.4491125 6.81433951,14.5545511 6.94524263,14.612091 L7.38153461,14.8356886 C7.52696527,14.9102211 7.67375509,14.9102211 7.81918575,14.9833734 C7.95840991,15.0387371 8.10744399,15.0641178 8.25683688,15.0579059 C8.33322104,15.0450509 8.40709325,15.0198898 8.47566245,14.9833734 C8.54905736,14.9833734 8.62109311,14.9088409 8.62109311,14.9833734 C8.69584718,14.6107108 8.91331358,14.3167213 9.20553406,14.0917435 C9.42707796,13.8709064 9.71793926,13.7963739 10.0115189,13.7963739 C10.3050986,13.7963739 10.5946007,13.8722866 10.5946007,13.9468192 C10.8868212,14.0917435 11.1056468,14.3898736 11.2510774,14.7611561 L11.2510774,14.6866235 C11.2510774,14.8343083 11.3244723,14.9088409 11.3965081,14.9833734 C11.469903,15.0579059 11.5419387,15.0579059 11.6153336,15.0579059 L11.6887286,15.0579059 C11.7526093,15.0579059 11.8137717,15.0537652 11.8708567,15.0482443 C12.2228804,14.9709513 12.5667492,14.8329281 12.6374257,14.7611561 C12.7842156,14.6866235 12.9282871,14.612091 13.0750769,14.4644062 C13.2035953,14.3243786 13.2328629,14.1179809 13.1484718,13.9468192 C13.0044003,13.6500693 13.0044003,13.4250915 13.0044003,13.2042544 C13.0044003,12.9061242 13.149831,12.6107546 13.2952616,12.4630698 C13.4420514,12.3140047 13.5874821,12.2408524 13.5874821,12.2408524 C13.742956,12.1477444 13.9194289,12.0968816 14.0998873,12.0931676 L14.171923,12.0931676 C14.3907486,12.0931676 14.6109334,12.0931676 14.8283997,12.1677001 C14.9017947,12.2422326 14.9738304,12.2422326 15.0472253,12.2422326 C15.1206202,12.2422326 15.26741,12.2422326 15.3394458,12.1677001 C15.470391,12.1100027 15.5748495,12.0039251 15.6316663,11.8709502 L15.7050612,11.7232654 C15.8504918,11.501048 15.9238868,11.2788307 15.9959225,10.9820808 L15.9959225,10.6853309 C15.9959225,10.5376461 15.8504918,10.3872008 15.7770969,10.3126683 C15.7784561,10.3126683 15.7064204,10.2381358 15.6330254,10.2381358 Z M12.4919951,10.0145382 C12.3479236,10.3872008 12.1277389,10.6853309 12.2011338,10.5362659 C11.9089133,10.9807006 11.4712622,11.3506028 10.9602161,11.5728201 C10.5946007,11.7218852 10.2289853,11.7950375 9.86472909,11.7950375 C9.50047286,11.7950374 9.13485748,11.7218852 8.76924209,11.5728201 C8.47702162,11.4251353 8.11276538,11.2760702 7.89393982,10.9807006 C7.64242007,10.7266602 7.44368006,10.4239295 7.30949887,10.0904509 C7.1677082,9.73713663 7.09388877,9.35950734 7.09203246,8.97798394 C7.09203246,8.53354923 7.16406821,8.16226682 7.16406821,8.38448417 C7.30949887,7.86689716 7.52832443,7.34792993 7.60171934,7.419702 C7.90981756,6.96045213 8.34087111,6.60030266 8.84399618,6.38176752 C9.20961157,6.23408269 9.57386779,6.1609304 9.93948318,6.16093041 C10.5361566,6.16093041 11.1260342,6.36796521 11.6031012,6.72406507 C11.9768715,7.0139138 12.3003528,7.39485784 12.4933542,7.78960417 C12.6401441,8.16226682 12.713539,8.53216899 12.713539,8.90345141 C12.713539,9.27473382 12.6387849,9.64463599 12.4919951,10.0145382 Z" id="Shape" fill="#02B0F0"></path>
            <path d="M6.62743529,3.36431279 L6.58823529,3.36992841 C6.58823529,3.50751089 6.7842353,3.62403482 6.62743529,3.36431279 Z M6.65490193,3.39411765 L6.68823529,3.38811765 L6.58823529,3.29411765 L6.65490193,3.39411765 Z M11.7726975,15.0433806 C11.7524903,15.0604344 11.7321851,15.0725647 11.711828,15.0797442 L11.6726975,15.1433806 L11.7726975,15.0433806 Z" id="Shape" fill="#10A0F7"></path>
        </g>
    </g>
</svg>