<?xml version="1.0" encoding="UTF-8"?>
<svg width="20px" height="17px" viewBox="0 0 20 17" version="1.1" xmlns="http://www.w3.org/2000/svg" xmlns:xlink="http://www.w3.org/1999/xlink">
    <!-- Generator: Sketch 50.2 (55047) - http://www.bohemiancoding.com/sketch -->
    <title>Artboard 14</title>
    <desc>Created with Sketch.</desc>
    <defs></defs>
    <g id="Artboard-14" stroke="none" stroke-width="1" fill="none" fill-rule="evenodd">
        <g id="-" fill="#5DBFE2" fill-rule="nonzero">
            <path d="M18.5714286,0 L1.42857143,0 C0.642857143,0 0,0.640625 0,1.42361111 L0,15.6597222 C0,16.4427083 0.642857143,17.0833333 1.42857143,17.0833333 L18.5714286,17.0833333 C19.3571429,17.0833333 20,16.4427083 20,15.6597222 L20,1.42361111 C20,0.640625 19.3571429,0 18.5714286,0 Z M6.42857143,15.6597222 L1.42857143,15.6597222 L1.42857143,12.1006944 L6.42857143,12.1006944 L6.42857143,15.6597222 Z M6.42857143,10.6770833 L1.42857143,10.6770833 L1.42857143,7.11805556 L6.42857143,7.11805556 L6.42857143,10.6770833 Z M6.42857143,5.69444444 L1.42857143,5.69444444 L1.42857143,2.13541667 L6.42857143,2.13541667 L6.42857143,5.69444444 Z M12.1428571,15.6597222 L7.85714286,15.6597222 L7.85714286,12.1006944 L12.1428571,12.1006944 L12.1428571,15.6597222 Z M12.1428571,10.6770833 L7.85714286,10.6770833 L7.85714286,7.11805556 L12.1428571,7.11805556 L12.1428571,10.6770833 Z M12.1428571,5.69444444 L7.85714286,5.69444444 L7.85714286,2.13541667 L12.1428571,2.13541667 L12.1428571,5.69444444 Z M18.5714286,15.6597222 L13.5714286,15.6597222 L13.5714286,12.1006944 L18.5714286,12.1006944 L18.5714286,15.6597222 Z M18.5714286,10.6770833 L13.5714286,10.6770833 L13.5714286,7.11805556 L18.5714286,7.11805556 L18.5714286,10.6770833 Z M18.5714286,5.69444444 L13.5714286,5.69444444 L13.5714286,2.13541667 L18.5714286,2.13541667 L18.5714286,5.69444444 Z" id="Shape"></path>
        </g>
    </g>
</svg>