<svg xmlns="http://www.w3.org/2000/svg" viewBox="0 0 12 12"><defs><style>.cls-1{fill:#c6cacf;}</style></defs><title>放大_1</title><g id="图层_2" data-name="图层 2"><g id="图层_1-2" data-name="图层 1"><g id="_2-2" data-name=" 2-2"><path class="cls-1" d="M7.63,5.73H5.5V7.85H4.77V5.73H2.65V5H4.77V2.86H5.5V5H7.63Z"/></g><path class="cls-1" d="M11.77,10.72,9.44,8.39A5.17,5.17,0,0,0,9,1.54a5.29,5.29,0,0,0-7.54.08,5.32,5.32,0,0,0,.23,7.52,5.24,5.24,0,0,0,6.71.3l2.34,2.34a.74.74,0,0,0,1.05-1.05Zm-10-2.92a4.27,4.27,0,0,1,0-5.1,4.31,4.31,0,0,1,7,0,4.24,4.24,0,0,1,0,5.1A4.31,4.31,0,0,1,1.79,7.81Z"/><path class="cls-1" d="M8.23,3"/></g></g></svg>