<?xml version="1.0" encoding="UTF-8"?>
<svg width="190px" height="190px" viewBox="0 0 190 190" version="1.1" xmlns="http://www.w3.org/2000/svg" xmlns:xlink="http://www.w3.org/1999/xlink">
    <!-- Generator: Sketch 51.2 (57519) - http://www.bohemiancoding.com/sketch -->
    <title>excel</title>
    <desc>Created with Sketch.</desc>
    <defs></defs>
    <g id="excel" stroke="none" stroke-width="1" fill="none" fill-rule="evenodd">
        <rect id="Rectangle-8-Copy-8" fill="#4D8E6A" x="0" y="0" width="190" height="190"></rect>
        <g transform="translate(71.000000, 58.000000)" fill="#FFFFFF" fill-rule="nonzero" id="Shape">
            <path d="M45,5.81331716 L25.8783784,5.81331716 L25.8783784,0 L0,5.04515976 L0,41.2677638 L25.8783784,46 L25.8783784,40.7074665 L45,40.7074665 L45,5.81331716 Z M18.2882883,32.0409458 C18.2657658,32.0637524 18.2432433,32.0637524 18.2207207,32.0637524 L14.7297297,31.8584927 C14.5045045,31.8584927 14.3468469,31.6760396 14.3243243,31.4707799 C13.6036036,29.6234426 12.927928,27.7761053 12.2297297,25.9059613 C12.1846847,25.7463149 12.1396396,25.5866685 12.0495496,25.427022 C11.6666667,26.362094 11.2837838,27.2743594 10.9234234,28.1410114 L9.66216217,31.2427136 C9.61711713,31.4479733 9.41441441,31.5848131 9.18918917,31.5391998 C8.28828827,31.4707799 7.40990988,31.4023601 6.50900902,31.3795534 C6.14864866,31.3795534 6.10360362,31.2655203 6.26126126,30.969034 C7.47747748,28.5743374 8.64864866,26.111221 9.86486488,23.7165245 C10.0450451,23.4200383 10.0450451,23.0323255 9.86486488,22.7358393 C8.73873874,20.3411427 7.6801802,18.0604794 6.55405406,15.6657829 C6.32882882,15.1868435 6.44144146,15.1184236 7.56756756,15.0728104 L9.34684685,14.9359706 C9.75225224,14.9359706 9.84234236,14.9359706 9.93243244,15.2552635 C10.6081081,17.0341809 11.2612613,18.8359049 11.9369369,20.5920157 C11.981982,20.7288555 12.027027,20.8656953 12.0945946,20.9797285 C12.8603604,19.2008111 13.7387387,17.1254074 14.4369369,15.3692966 C14.481982,14.844744 14.9324324,14.4798379 15.4504504,14.5254512 C15.4954955,14.5254512 15.5405405,14.5254512 15.5630631,14.5482578 C16.3288288,14.5482578 17.0720721,14.5254512 17.8378378,14.4342246 C17.9279279,14.411418 18.0405406,14.4342246 18.1306306,14.5026445 C18.1531531,14.5938711 18.1531531,14.6850976 18.1306306,14.7991308 C16.8468469,17.3762804 15.6081081,19.9762366 14.3468469,22.5533862 C14.1666667,22.8726791 14.1666667,23.2603918 14.3468469,23.5796847 C15.5405406,25.9971879 17.8378378,30.8321942 18.3108108,31.8584927 C18.3558559,31.904106 18.3558559,31.9725259 18.3108108,32.0181392 C18.3108108,32.0409458 18.2882883,32.0409458 18.2882883,32.0409458 Z M32.0495496,35.758427 C32.0495496,35.8952668 31.9594595,35.9864934 31.8243243,35.9864934 L25.8783784,35.9864934 L25.8783784,32.5654983 L31.8243243,32.5654983 C31.9594594,32.5654983 32.0495496,32.6567249 32.0495496,32.7935647 L32.0495496,35.758427 Z M32.0495496,30.2392217 C32.0495496,30.3760615 31.936937,30.4672881 31.8243243,30.4672881 L25.8783784,30.4672881 L25.8783784,27.046293 L31.8243243,27.046293 C31.9594594,27.046293 32.0495496,27.1375195 32.0495496,27.2743594 L32.0495496,30.2392217 Z M32.0495496,24.7200164 C32.0495496,24.8568562 31.9594595,24.9480827 31.8243243,24.9480827 L25.8783784,24.9480827 L25.8783784,21.5270877 L31.8243243,21.5270877 C31.9594594,21.5270877 32.0495496,21.6411208 32.0495496,21.755154 L32.0495496,24.7200164 Z M32.0495496,19.2464243 C32.0495496,19.3832641 31.936937,19.4744907 31.8243243,19.4744907 L25.8783784,19.4744907 L25.8783784,16.030689 L31.8243243,16.030689 C31.9594594,16.030689 32.0495496,16.1219155 32.0495496,16.2587553 L32.0495496,19.2464243 Z M32.0495496,13.7500256 C32.0495496,13.8868654 31.936937,13.978092 31.8243243,13.978092 L25.8783784,13.978092 L25.8783784,10.5342903 L31.8243243,10.5342903 C31.9594594,10.5342903 32.0495496,10.6483235 32.0495496,10.7623566 L32.0495496,13.7500256 Z M41.5990991,35.758427 C41.5990991,35.8952668 41.4864865,35.9864934 41.3738739,35.9864934 L34.1666667,35.9864934 C34.0315315,35.9864934 33.9414414,35.8952669 33.9414415,35.758427 L33.9414415,32.7935647 C33.9414415,32.6567249 34.0540541,32.5654983 34.1666667,32.5654983 L41.3738739,32.5654983 C41.509009,32.5654983 41.5990991,32.6795315 41.5990991,32.7935647 L41.5990991,35.758427 Z M41.5990991,30.2392217 C41.5990991,30.3760615 41.4864865,30.4672881 41.3738739,30.4672881 L34.1666667,30.4672881 C34.0315315,30.4672881 33.9414414,30.3532549 33.9414415,30.2392217 L33.9414415,27.2743594 C33.9414415,27.1375196 34.0315315,27.046293 34.1666667,27.046293 L41.3738739,27.046293 C41.509009,27.046293 41.5990991,27.1603262 41.5990991,27.2743594 L41.5990991,30.2392217 Z M41.5990991,24.7200164 C41.5990991,24.8568562 41.4864865,24.9480827 41.3738739,24.9480827 L34.1666667,24.9480827 C34.0315315,24.9480827 33.9414414,24.8568562 33.9414415,24.7200164 L33.9414415,21.7779607 C33.9414415,21.6411209 34.0540541,21.5498943 34.1666667,21.5498943 L41.3738739,21.5498943 C41.509009,21.5498943 41.5990991,21.6639275 41.5990991,21.7779607 L41.5990991,24.7200164 Z M41.5990991,19.2464243 C41.5990991,19.3832641 41.4864865,19.4744907 41.3738739,19.4744907 L34.1666667,19.4744907 C34.0315315,19.4744907 33.9414414,19.3604575 33.9414415,19.2464243 L33.9414415,16.281562 C33.9414415,16.1447222 34.0315315,16.0534956 34.1666667,16.0534956 L41.3738739,16.0534956 C41.509009,16.0534956 41.5990991,16.1675288 41.5990991,16.281562 L41.5990991,19.2464243 Z M41.5990991,13.7500256 C41.5990991,13.8868654 41.4864865,13.978092 41.3738739,13.978092 L34.1666667,13.978092 C34.0315315,13.978092 33.9414414,13.8640588 33.9414415,13.7500256 L33.9414415,10.7623566 C33.9414415,10.6255168 34.0540541,10.5342903 34.1666667,10.5342903 L41.3738739,10.5342903 C41.509009,10.5342903 41.5990991,10.6483235 41.5990991,10.7623566 L41.5990991,13.7500256 Z"></path>
        </g>
    </g>
</svg>