<?xml version="1.0" encoding="UTF-8"?>
<svg width="190px" height="190px" viewBox="0 0 190 190" version="1.1" xmlns="http://www.w3.org/2000/svg" xmlns:xlink="http://www.w3.org/1999/xlink">
    <!-- Generator: Sketch 50.2 (55047) - http://www.bohemiancoding.com/sketch -->
    <title>my SQL</title>
    <desc>Created with Sketch.</desc>
    <defs></defs>
    <g id="my-SQL" stroke="none" stroke-width="1" fill="none" fill-rule="evenodd">
        <rect id="Rectangle-8-Copy-5" fill="#5F9DBD" x="0" y="0" width="190" height="190"></rect>
        <g id="mysql" transform="translate(34.000000, 60.000000)" fill-rule="nonzero">
            <path d="M86.5638386,10.5716604 L85.866145,9.09888354 C85.5671334,8.67089709 85.131075,8.34361334 84.8818987,7.84009988 L84.8071458,7.84009988 L84.8071458,7.76457286 C85.2182867,7.66387016 85.6418863,7.61351882 86.065486,7.62610665 C86.3146623,7.86527555 86.7008855,8.04150526 86.9002265,8.33102551 C87.0497323,8.54501873 87.0746499,8.78418762 87.2490733,8.96041734 C87.2490733,9.7030997 87.0497323,10.1940253 86.6136738,10.5087212 C86.6385914,10.4961334 86.5638386,10.5716604 86.5638386,10.5716604 Z M117.947591,42.1797182 C116.788921,41.4370358 115.443369,41.0216372 114.234864,40.2789549 C113.562088,39.8635563 112.901771,39.347455 112.27883,38.8691172 C111.693266,38.4285429 111.045408,37.5977457 110.671643,36.9683538 C110.472302,36.6410701 110.434926,36.2508472 110.18575,35.9865026 C110.260502,35.4074621 110.983114,35.4074621 111.44409,35.2186446 C113.051277,34.5389014 114.932558,34.3123203 117.399403,34.3752595 C117.32465,33.7458677 115.792216,32.9654218 115.293863,32.6255502 C114.297158,31.9206314 113.275535,31.1653612 112.216536,30.5107937 C111.65589,30.1709221 110.696561,29.9191653 110.110997,29.6674086 C109.276256,29.3149492 107.432352,28.9750776 106.958917,28.3330979 C106.049423,27.1246656 105.426483,25.6518887 104.791083,24.1916997 C104.143225,22.7315106 103.333402,21.1957945 102.685544,19.697842 C102.361614,18.9551596 102.212109,18.2880043 101.850803,17.5956733 C99.5957578,13.2528696 96.2941722,9.61498484 92.2575165,7.05965401 C90.9368822,6.21626895 89.4667422,5.44841092 87.8470964,4.95748529 C86.9251442,4.68055288 85.8163097,4.83160692 84.8320634,4.60502586 L84.1966639,4.60502586 C83.6484761,4.44138399 83.1875,3.84975566 82.7265239,3.54764758 C81.779654,2.91825575 80.8327842,2.46509363 79.7114909,1.99934368 C79.2878913,1.82311397 78.1541392,1.40771536 77.7554572,1.72241127 C77.5187397,1.79793829 77.4066104,1.89864099 77.3318575,2.13780988 C77.09514,2.50285714 77.3069399,3.05672196 77.4689044,3.39659355 C77.9174217,4.3784448 78.5652801,4.97007312 79.1508443,5.78828251 C79.6741145,6.51837703 80.309514,7.34917425 80.6957372,8.17997147 C81.4806425,9.90450508 81.8419481,11.8178563 82.5894769,13.5172142 C82.8760297,14.1717817 83.2996293,14.9144641 83.7107702,15.4809167 C84.0471582,15.9340788 84.6451812,16.2865383 84.8320634,16.8907544 C85.2182867,17.4949706 84.2714168,19.5467879 84.059617,20.1887676 C83.2497941,22.7063349 83.4242175,26.2183414 84.3337109,28.4086249 C84.6950165,29.2771857 85.0438633,30.2842126 86.0156507,30.5107937 C86.0904036,30.4604423 86.0281096,30.485618 86.1526977,30.4478545 C86.3644975,28.7610844 86.4267916,27.1372534 86.9874382,25.8155306 C87.336285,24.9847334 88.009061,24.4182807 88.4575783,23.7133619 C88.7939662,23.9021794 88.7815074,24.4686321 88.943472,24.8336793 C89.3546129,25.7903549 89.7906713,26.8351454 90.2765651,27.7792331 C91.3106466,29.7555235 92.4319399,31.6562868 93.7151977,33.3934082 C94.163715,34.0102122 94.7741969,34.6773676 95.3223847,35.2186446 C95.5591021,35.4452256 95.8456549,35.571104 96.0200783,35.8480364 L96.0948311,35.8480364 L96.0948311,35.9235634 C95.1479613,35.5962797 94.5873147,34.6521919 93.8522446,34.0983271 C92.4443987,33.0409488 90.7873764,31.4548814 89.8654242,29.9569288 L88.607084,27.4267737 L88.607084,27.3512467 C88.4326606,27.5904156 88.4824959,27.8421723 88.3952842,28.1946317 C87.9966021,29.7429356 88.3080725,31.4926449 86.9251442,32.0590976 C85.3428748,32.7010772 84.1966639,31.0143071 83.6983114,30.2338612 C82.1035832,27.6785304 81.6924423,23.3734903 82.788818,19.9118352 C83.0255354,19.1439772 83.050453,18.1998894 83.4865115,17.5956733 C83.4117586,17.0543963 82.9757002,16.8907544 82.7140651,16.538295 C82.2904654,15.9592545 81.9291598,15.2795113 81.5927718,14.6375317 C80.9324547,13.3661602 80.4963962,11.8682076 79.9855848,10.4961334 C79.773785,9.94226859 79.7364086,9.41357946 79.4996911,8.88489032 C79.1383855,8.07926877 78.4780684,7.28623506 77.9547982,6.56872838 C77.2197282,5.54911361 75.1764827,3.58541109 75.9987644,1.58394507 C77.2944811,-1.6007776 81.8045717,0.816087036 83.5612644,1.9364045 C83.9973229,2.2133369 84.4956755,2.79237739 84.9566516,2.99378277 L87.2739909,3.13224898 C88.7067545,3.47212057 90.0647652,3.73646513 91.1985173,4.39103264 C96.505972,7.50022829 99.919687,10.6723631 103.109143,15.9089032 C103.76946,17.0040449 104.118307,18.1998894 104.654036,19.4209096 C105.438942,21.2335581 106.273682,23.008443 107.183175,24.7581523 C107.606775,25.5637739 107.905787,26.4575103 108.441516,27.1498413 C108.665774,27.4393615 109.288715,27.5400642 109.637562,27.7162939 C110.671643,28.2449831 111.880148,28.635206 112.864395,29.2645978 C114.633546,30.3849153 116.340404,31.719226 117.910214,33.0535367 C118.508237,33.569638 118.906919,34.3123203 119.455107,34.878773 L119.455107,35.1557054 C118.969213,35.2941716 118.470861,35.4326378 117.984967,35.571104 C116.90105,35.8480364 115.95418,35.7850972 114.90764,36.0620296 C114.284699,36.2256715 113.487335,36.4774282 112.8021,36.5529552 L112.876853,36.6158944 C113.275535,37.7362119 115.418451,38.6677118 116.37778,39.3600428 C117.573826,40.2286035 118.707578,41.2608061 119.604613,42.4440628 L120.514106,43.3629749 C120.725906,43.6650829 120.775741,44.0553059 121,44.3448261 L121,44.4077653 C120.5764,44.2567113 120.352142,43.8790762 120.015754,43.6399073 C119.305601,43.1615695 118.632825,42.6202925 117.947591,42.1797182 Z M43.8550247,63 L31.1968699,63 L31.1968699,60.2936151 L43.8674835,60.2936151 C46.446458,60.0166827 46.1474465,58.7327234 46.1474465,58.3047369 L46.1474465,57.2473587 L37.6380766,57.2473587 C33.6761738,57.2095951 31.1470346,55.4724737 31.122117,53.4835955 C31.122117,53.294778 31.2093287,44.5462315 31.122117,44.4707045 L35.133855,44.4707045 L35.133855,53.2192509 C35.0964786,53.6975887 35.2833608,54.8053184 37.476112,54.8430819 C38.5974053,54.8556697 46.1225288,54.8430819 46.1848229,54.8430819 L46.1848229,44.432941 L50.196561,44.432941 C50.2214786,44.432941 50.196561,58.6320207 50.196561,58.6949599 C50.2214786,62.1817906 45.8608937,62.9370608 43.8550247,63 Z M23.7714168,41.5125629 L17.5669275,55.3465953 C16.8318575,57.0207776 15.8725288,57.6124059 13.9040362,57.6124059 C11.9355437,57.6124059 10.9388386,57.0207776 10.2037685,55.3465953 L4.01173806,41.5125629 L4.01173806,57.3858249 L0,57.3858249 L0,41.5377385 C0,39.9894346 0.610481878,39.2467523 1.8937397,38.8565293 C4.93369028,37.8998538 7.01431219,38.730651 7.89888797,40.7824683 L13.7919069,54.4402711 L19.8842669,40.7824683 C20.8062191,38.7180631 22.8494646,37.8998538 25.901874,38.8565293 C27.172673,39.2467523 27.7956137,39.9894346 27.7956137,41.5377385 L27.7956137,57.3858249 L23.7838756,57.3858249 L23.7714168,41.5125629 Z" id="Shape" fill="#FFFFFF"></path>
            <path d="M79.7522785,39.0371901 L87.4371127,39.0371901 C87.8270142,39.0371901 88.1791834,39.0619835 88.5690849,39.1115702 C91.9650018,39.5702479 93.6755377,41.0206612 93.6755377,43.4132231 L93.6755377,52.822314 C93.6755377,54.7561983 92.9460445,55.7975207 91.273241,56.4793388 L95.2602989,60 L90.5689027,60 L87.3490704,57.1487603 L84.1040831,57.3471074 L79.7774335,57.3471074 C78.9724754,57.3471074 78.1675173,57.2355372 77.4002917,57.0123967 C74.8219103,56.3305785 73.5767408,55.0041322 73.5767408,52.822314 L73.5767408,43.4132231 C73.5767408,41.0206612 75.2872767,39.5702479 78.6831936,39.1115702 C79.0102078,39.0619835 79.4001094,39.0371901 79.7522785,39.0371901 Z M77.9159679,52.5867769 C77.9159679,52.7107438 77.9537003,52.8471074 77.9914327,52.9958678 C78.2304047,54.0867769 79.2743347,54.6942149 80.8716734,54.6942149 L84.556872,54.6942149 L81.1861101,51.7066116 L85.8775064,51.7066116 L88.8206343,54.3099174 C89.3614655,54.0247934 89.7262122,53.5909091 89.8519869,53.0330579 C89.8897193,52.9090909 89.8897193,52.7727273 89.8897193,52.6487603 L89.8897193,43.6239669 C89.8897193,43.5247934 89.8897193,43.3884298 89.8519869,43.2644628 C89.6130149,42.2479339 88.5690849,41.6652893 87.0094787,41.6652893 L80.8842508,41.6652893 C79.0856726,41.6652893 77.9159679,42.4338843 77.9159679,43.6239669 L77.9159679,52.5867769 Z M59.1881152,41.6652893 C57.7417062,41.7892562 57.3140722,42.0247934 57.1254101,42.8305785 C57.0876777,42.9545455 57.0876777,43.0661157 57.0876777,43.1652893 L57.0876777,44.9628099 C57.0876777,45.0867769 57.0876777,45.1859504 57.1254101,45.322314 C57.3140722,46.3884298 58.0938753,46.8719008 59.7289464,46.8719008 L64.6341597,46.8719008 C65.8415968,46.8719008 67.0867663,47.0702479 68.0929639,47.4545455 C70.0047393,48.161157 70.9732045,49.2272727 70.9732045,50.3677686 L70.9732045,53.2561983 C70.9732045,54.6570248 70.1179366,55.7231405 68.3696682,56.5041322 C67.3257382,56.9876033 65.9925264,57.2603306 64.6341597,57.2603306 L53,57.2603306 L53,54.6198347 L64.1687933,54.6198347 C64.3197229,54.6198347 64.4454976,54.5950413 64.5964273,54.5950413 C65.3762304,54.5454545 65.954794,54.3347107 66.3069632,54.0371901 C66.6968647,53.7272727 66.8855268,53.3801653 66.8855268,53.0950413 L66.8855268,50.7892562 C66.8855268,50.5165289 66.7723296,50.2561983 66.57109,50.0826446 C66.1811885,49.6239669 65.6403573,49.4008264 64.3574553,49.3016529 C64.2442581,49.2768595 64.080751,49.2768595 63.9298214,49.2768595 L59.7289464,49.2768595 C59.3390448,49.2768595 58.9491433,49.2520661 58.5592417,49.2272727 C55.1004375,48.8677686 53.0377324,47.3553719 53.0377324,45.5702479 L53.0377324,43.2644628 C53.0377324,41.231405 54.0942399,40.0661157 56.4965366,39.3347107 C57.2763398,39.1115702 58.1316077,39 59.7666788,39 L71.1241342,39 L71.1241342,41.6404959 L59.5654393,41.6404959 C59.4522421,41.6404959 59.3013124,41.6652893 59.1881152,41.6652893 Z M100.253555,52.6487603 C100.253555,54.0495868 101.146555,54.6322314 103.523697,54.6322314 L114.139081,54.6322314 L114.139081,57.2727273 L103.599162,57.2727273 C103.20926,57.2727273 102.819358,57.2479339 102.429457,57.2231405 C98.2663143,56.9256198 96.2036092,55.4008264 96.2036092,52.6859504 L96.2036092,39 L100.253555,39 L100.253555,52.6487603 Z M119.01914,51.6322314 C120.591323,51.6322314 122,52.8099174 122,54.5454545 C122,56.2933884 120.591323,57.4586777 119.01914,57.4586777 C117.446956,57.4586777 116.038279,56.2809917 116.038279,54.5454545 C116.038279,52.8099174 117.446956,51.6322314 119.01914,51.6322314 Z M119.01914,56.8636364 C120.302042,56.8636364 121.333394,55.8719008 121.333394,54.5578512 C121.333394,53.231405 120.302042,52.2520661 119.01914,52.2520661 C117.72366,52.2520661 116.704885,53.2438017 116.704885,54.5578512 C116.717463,55.8719008 117.72366,56.8636364 119.01914,56.8636364 Z M120.440394,53.8512397 C120.440394,54.4586777 120.037915,54.7066116 119.522238,54.7561983 L120.503281,56.2190083 L119.836675,56.2190083 L118.943675,54.7809917 L118.415421,54.7809917 L118.415421,56.2190083 L117.849435,56.2190083 L117.849435,52.8842975 L119.182647,52.8842975 C120.000182,52.8842975 120.440394,53.1694215 120.440394,53.8512397 Z M118.402844,53.3553719 L118.402844,54.3099174 L119.01914,54.3099174 C119.446774,54.3099174 119.824098,54.2727273 119.824098,53.8016529 C119.824098,53.4173554 119.409041,53.3553719 119.06945,53.3553719 L118.402844,53.3553719 Z" id="Shape" fill="#F2A72F"></path>
        </g>
    </g>
</svg>