<?xml version="1.0" encoding="UTF-8"?>
<svg width="190px" height="190px" viewBox="0 0 190 190" version="1.1" xmlns="http://www.w3.org/2000/svg" xmlns:xlink="http://www.w3.org/1999/xlink">
    <!-- Generator: Sketch 50.2 (55047) - http://www.bohemiancoding.com/sketch -->
    <title>oracle</title>
    <desc>Created with Sketch.</desc>
    <defs></defs>
    <g id="oracle" stroke="none" stroke-width="1" fill="none" fill-rule="evenodd">
        <rect fill="#F01F1F" x="0" y="0" width="190" height="190"></rect>
        <g id="Oracle" transform="translate(34.000000, 80.000000)" fill="#FFFFFF" fill-rule="nonzero">
            <path d="M50.0972662,9.1070421 L57.7662158,9.1070421 L53.7153381,3.05169711 L46.278446,13.9974378 L42.8896691,14 L51.9417554,0.855887234 C52.3396913,0.314322159 53.0032303,-0.00684452491 53.709813,0.00011070145 C54.4225612,0.00011070145 55.0763741,0.311845672 55.4622158,0.832827387 L64.5456115,14 L61.1540719,13.9974378 L59.563741,11.5505318 L51.7925755,11.5505318 L50.0981871,9.1070421 L50.0972662,9.1070421 Z M85.2806906,11.553094 L85.2806906,0.136761644 L82.4048345,0.136761644 L82.4048345,12.6693614 C82.4048345,13.0161132 82.556777,13.3474917 82.8238273,13.5951716 C83.1056115,13.8539543 83.4776403,13.9965837 83.877295,13.9965837 L96.9821007,13.9965837 L98.6728057,11.5539481 L85.2806906,11.5539481 L85.2806906,11.553094 Z M37.736518,9.51016239 C40.5007423,9.47555303 42.7219988,7.38741663 42.7219988,4.82346202 C42.7219988,2.2595074 40.5007423,0.171370999 37.736518,0.136761644 L25.1593669,0.136761644 L25.1593669,13.9974378 L28.0324604,13.9974378 L28.0324604,2.57939728 L37.5385324,2.57939728 C38.18026,2.57871586 38.795902,2.81490694 39.2495859,3.23584306 C39.7032698,3.65677918 39.9576985,4.2278554 39.9567194,4.82303498 C39.9574529,5.41822349 39.7029747,5.98925509 39.2493707,6.41027738 C38.7957666,6.83129966 38.1802697,7.06775388 37.5385324,7.06752675 L29.4395396,7.06496455 L38.0155396,13.9974378 L42.1907338,13.9974378 L36.4206043,9.50760018 L37.736518,9.51016239 Z M7.47234532,13.9974378 C3.34548295,13.9974378 5.05451994e-16,10.8946197 0,7.06709972 C-5.0540085e-16,3.23957969 3.34548295,0.136761644 7.47234532,0.136761644 L16.1588489,0.136761644 C20.285606,0.137233284 23.6307338,3.24010438 23.6307338,7.06752675 C23.6312223,8.90582792 22.8442532,10.6690046 21.4429765,11.9691201 C20.0416998,13.2692355 18.1409198,13.9997735 16.1588489,14 L7.47234532,13.9974378 Z M15.9654676,11.5548022 C17.2486325,11.5550288 18.479299,11.0823092 19.3865472,10.2407081 C20.2937955,9.39910703 20.8032513,8.25761708 20.8027626,7.06752675 C20.8032513,5.87743643 20.2937955,4.73594648 19.3865472,3.89434539 C18.479299,3.0527443 17.2486325,2.58002466 15.9654676,2.58025135 L7.66480576,2.58025135 C5.02952007,2.6279401 2.92006994,4.62292655 2.92006994,7.06752675 C2.92006994,9.51212695 5.02952007,11.5071134 7.66480576,11.5548022 L15.9654676,11.5548022 Z M70.5413525,13.9974378 C67.8519741,14.0251279 65.3540115,12.7103024 64.0006298,10.5546685 C62.6472482,8.39903458 62.6472482,5.73516485 64.0006298,3.57953093 C65.3540115,1.42389702 67.8519741,0.109071492 70.5413525,0.136761644 L80.8642302,0.136761644 L79.1726043,2.58025135 L70.7356547,2.58025135 C68.9846257,2.54856431 67.3517873,3.39683626 66.4662615,4.79823352 C65.5807357,6.19963079 65.5807357,7.93542272 66.4662615,9.33681998 C67.3517873,10.7382172 68.9846257,11.5864892 70.7356547,11.5548022 L81.0962878,11.5548022 L79.4083453,13.9974378 L70.5404317,13.9974378 L70.5413525,13.9974378 Z M105.695309,11.5548022 C103.532977,11.5546342 101.633509,10.2232539 101.043108,8.29396898 L113.327424,8.29396898 L115.01905,5.85047928 L101.039424,5.84962521 C101.626981,3.91574027 103.528978,2.57980398 105.695309,2.57939728 L114.127655,2.58025135 L115.822043,0.136761644 L105.499165,0.136761644 C101.40466,0.178919147 98.1093129,3.26935547 98.1093129,7.06709972 C98.1093129,10.864844 101.40466,13.9552803 105.499165,13.9974378 L114.367079,13.9974378 L116.055022,11.5548022 L105.695309,11.5548022 Z M117.360806,1.61259184 C117.360806,0.936661566 117.95161,0.388711812 118.680403,0.388711812 C119.409196,0.388711812 120,0.936661566 120,1.61259184 C120,2.28852212 119.409196,2.83647187 118.680403,2.83647187 C117.95161,2.83647187 117.360806,2.28852212 117.360806,1.61259184 Z M118.522935,0.69276017 C118.781698,0.69276017 118.888518,0.695322376 119.015597,0.739733932 C119.347108,0.843076214 119.38118,1.12577286 119.38118,1.22911514 C119.379922,1.27747324 119.373131,1.32557075 119.360921,1.37259862 C119.32977,1.49770592 119.245413,1.60582158 119.127022,1.67237664 C119.107683,1.68604173 119.096633,1.69458242 119.042302,1.71337192 L119.479712,2.43933006 L119.057036,2.43933006 L118.673957,1.77144858 L118.418878,1.77144858 L118.418878,2.43847599 L118.050532,2.43847599 L118.050532,0.69276017 L118.522935,0.69276017 Z M118.654619,1.48191938 C118.767885,1.48021124 118.894043,1.47252462 118.967712,1.37259862 C118.997862,1.32792056 119.012636,1.27579014 119.010072,1.22313666 C119.011576,1.13287555 118.956156,1.05010039 118.868259,1.01132769 C118.78354,0.980581225 118.696978,0.980581225 118.522935,0.980581225 L118.418878,0.980581225 L118.418878,1.48191938 L118.654619,1.48191938 Z" id="Shape"></path>
        </g>
    </g>
</svg>