<?xml version="1.0" encoding="UTF-8"?>
<svg width="190px" height="190px" viewBox="0 0 190 190" version="1.1" xmlns="http://www.w3.org/2000/svg" xmlns:xlink="http://www.w3.org/1999/xlink">
    <!-- Generator: Sketch 50.2 (55047) - http://www.bohemiancoding.com/sketch -->
    <title>my SQL Copy</title>
    <desc>Created with Sketch.</desc>
    <defs>
        <linearGradient x1="8.73973895%" y1="8.48103513%" x2="92.1351617%" y2="100%" id="linearGradient-1">
            <stop stop-color="#FBFBFB" offset="0%"></stop>
            <stop stop-color="#F0F0F0" offset="63.5543661%"></stop>
            <stop stop-color="#E2E2E2" offset="100%"></stop>
        </linearGradient>
        <linearGradient x1="50%" y1="-3.54507025%" x2="19.1819533%" y2="96.601005%" id="linearGradient-2">
            <stop stop-color="#B2B2B2" offset="0%"></stop>
            <stop stop-color="#FCFCFC" offset="50.469967%"></stop>
            <stop stop-color="#888888" offset="100%"></stop>
        </linearGradient>
        <linearGradient x1="6.55095472%" y1="92.210546%" x2="20.0521128%" y2="-9.67709816%" id="linearGradient-3">
            <stop stop-color="#AF0119" offset="0%"></stop>
            <stop stop-color="#FCA6A6" offset="50.5992725%"></stop>
            <stop stop-color="#B00906" offset="100%"></stop>
        </linearGradient>
    </defs>
    <g id="my-SQL-Copy" stroke="none" stroke-width="1" fill="none" fill-rule="evenodd">
        <g id="Group-10">
            <rect id="Rectangle-8-Copy-6" fill="url(#linearGradient-1)" x="0" y="0" width="190" height="190"></rect>
            <g id="microsoft-sql-server" transform="translate(68.000000, 36.000000)" fill-rule="nonzero">
                <path d="M22.070667,0 C20.1907773,0.556447875 5.02255949,5.02629679 10.9051398,8.95934666 C20.7221817,15.5233803 20.2887236,28.7723367 5.73094537,39.8454593 C-14.6745801,55.3663618 25.9250587,59.8488874 26.5031945,58.872842 C36.5663666,41.8824838 31.8374137,29.3691771 31.8374137,29.3691771 C31.8374137,29.3691771 43.6457419,25.5261891 53.8485334,23.9716269 C55.1652896,23.7710475 48.0282616,13.1576845 27.2732566,10.2256876 C24.6977417,9.8618098 22.0525032,0.00547401347 22.070667,0 Z M43.3086781,16.2664632 C43.3086781,16.2664632 36.0270299,18.2940954 32.6558742,20.0514266 C32.6558742,20.0514266 34.5436386,14.1712989 34.4762718,13.157454 C34.4762718,13.157454 41.75792,15.1850862 43.3087355,16.2664056 L43.3086781,16.2664632 Z M31.0378068,20.0514842 C31.0378068,20.0514842 27.6995872,18.091384 26.5031945,17.7534933 L33.5999863,13.157454 C33.5999863,13.157454 33.5999863,15.6581562 31.0378643,20.0514266 L31.0378068,20.0514842 Z M25.0371047,31.4737336 L31.0377493,35.0558704 C30.1613488,35.9344207 24.4040179,38.6380072 24.4040179,38.6380072 C25.2541499,36.610375 25.0371047,31.4735607 25.0371047,31.4735607 L25.0371047,31.4737336 Z M25.9811019,31.2034326 L31.1727128,29.4363634 C31.6446252,31.2514886 31.5096042,34.2449097 31.5096042,34.2449097 C30.0263853,33.6366027 25.9810444,31.2034326 25.9810444,31.2034326 L25.9811019,31.2034326 Z M13.5754396,43.0312775 C13.5754396,43.0312775 18.2275989,35.1235176 18.0588945,34.2449097 C18.0588945,34.2449097 18.5846083,36.4077788 22.0132443,39.5167304 C22.0132443,39.5167304 19.5085449,41.2063567 13.5754396,43.0312775 Z M21.6793418,41.0713502 C21.6793418,41.0713502 20.7547155,45.3834899 18.5235644,48.7425174 C18.5235644,48.7425174 15.2609312,47.4245479 12.9011394,44.3155963 C12.9011394,44.3155963 20.8160468,41.6796572 21.6793418,41.0713502 Z M23.2021645,18.5645693 C23.2021645,18.5645693 20.5581332,21.1326883 18.9545508,22.6198337 C18.9545508,22.6198337 18.887184,17.0100647 18.5235069,16.8072381 C18.5235069,16.8072381 21.7717125,17.618314 23.2021645,18.5645693 Z M18.9545508,15.1851439 L23.4865191,11.2651164 C23.4865191,11.2651164 24.6325591,12.5492047 24.3629195,17.0100071 C24.3629195,17.0100071 20.2208969,15.4554449 18.9544934,15.1851439 L18.9545508,15.1851439 Z M23.8235254,19.7134207 C23.8235254,19.7134207 23.0820309,23.4309673 21.3289426,25.6613108 C21.3289426,25.6613108 19.6816753,24.2419279 18.9545508,23.7686851 C18.9545508,23.7686851 23.351613,20.1189586 23.8235254,19.7134207 Z M20.8629507,28.1619554 C20.8629507,28.1619554 22.1380338,28.9730314 22.0031278,31.0006636 C22.0031278,31.0006636 13.5079003,34.8531014 12.2269543,35.731767 C12.2269543,35.731767 20.3967288,28.9730314 20.8629507,28.1619554 Z M18.9545508,33.8392565 L23.5538858,31.9468612 C23.5538858,31.9468612 24.2280135,35.1233448 22.7447947,38.6380648 C22.7447947,38.6380648 20.4102367,37.2807399 18.9544934,33.8392565 L18.9545508,33.8392565 Z M23.2021645,30.6626576 C23.2021645,30.6626576 22.6775428,27.2157002 22.0031278,26.6750981 C22.0031278,26.6750981 24.9697954,25.2557152 29.3523151,22.6873657 C29.3523151,22.6873657 23.7944404,29.7841649 23.2021645,30.6626576 Z M23.5538858,24.512229 C23.5538858,24.512229 25.1719532,20.0514842 25.1046439,19.0376393 L29.3522576,21.3355149 L23.5538858,24.512229 Z M32.1840193,12.8872106 C31.7119345,13.0899796 25.1045864,16.8072381 25.1045864,16.8072381 C26.1159504,13.6982865 24.4039604,11.2651164 24.4039604,11.2651164 L32.1839618,12.887153 L32.1840193,12.8872106 Z M25.1046439,9.98079757 L20.3849454,9.23748416 L23.8910646,7.07461501 L25.1046439,9.98079757 Z M14.7214796,4.03313788 C15.1260252,3.69513196 21.8009124,0.721417354 21.8009124,0.721417354 C21.8009124,0.721417354 23.6889068,5.45252076 23.0820884,5.45252076 C22.47527,5.45252076 14.3171065,4.37120143 14.7215946,4.03325312 L14.7214796,4.03313788 Z M23.2021645,6.33107112 L18.9545508,8.96701028 L17.89042,8.96701028 C17.89042,8.96701028 13.9799851,4.97945076 13.8450791,4.57397041 C13.8450791,4.57397041 22.1762581,6.46636568 23.2021645,6.33112874 L23.2021645,6.33107112 Z M13.035988,5.0469828 L16.0026556,8.52782153 C16.0026556,8.52782153 11.3504963,7.48015297 11.0133175,7.07461501 C10.6761387,6.66907704 13.035988,5.0469828 13.035988,5.0469828 Z M12.5641331,8.96701028 L15.5306283,9.98085519 L16.6095315,13.5631072 C16.6095315,13.5631072 13.7777698,9.84584873 12.5641905,8.9670679 L12.5641331,8.96701028 Z M16.2722377,9.98079757 L22.7448521,10.9271104 L17.8904775,14.5768369 C17.8904775,13.765761 16.2722377,9.98079757 16.2722377,9.98079757 Z M18.1600596,25.6613108 C18.1600596,25.6613108 19.3062721,25.9990286 19.8457812,26.6751557 C19.8457812,26.6751557 17.8904775,28.4128381 16.2722952,29.4363634 C16.2722952,29.4363634 18.0926928,26.2696178 18.1600596,25.6613108 Z M14.1147187,32.1833962 C14.1147187,32.1833962 16.5942992,29.88287 19.5086024,28.6350254 L11.4179206,35.7318246 L14.1147187,32.1834538 L14.1147187,32.1833962 Z M15.8677496,35.0558704 C15.8677496,35.0558704 13.9124459,40.5980497 11.9573147,42.5581499 C11.9573147,42.5581499 11.0806843,41.4768305 10.9459507,37.4890405 C10.9459507,37.4890405 15.0586584,35.3261714 15.8676921,35.0558704 L15.8677496,35.0558704 Z M9.26028661,38.2326421 C9.26028661,38.2326421 9.12561052,40.3953383 10.6088294,43.8422958 C10.6088294,43.8422958 3.05754166,46.207934 1.84396238,46.207934 C1.84396238,46.207934 2.65305356,41.4091256 9.26028661,38.2326421 Z M1.84396238,46.8161833 C4.06890563,46.8161833 10.2716506,45.0588521 10.2716506,45.0588521 C9.93464422,46.2754084 5.21494569,52.4260675 5.21494569,52.4260675 C1.50678358,49.8576604 1.84396238,46.8162985 1.84396238,46.8162985 L1.84396238,46.8161833 Z M5.75439729,52.763843 L11.4178631,45.4644477 C11.4178631,45.4644477 13.9124459,47.8300858 16.609474,49.3168855 L6.05375413,53.1693233 L5.75445477,52.7637854 L5.75439729,52.763843 Z M6.69839447,53.3046179 L17.4185652,50.3984353 L13.5755545,56.2107428 C13.5755545,56.2107428 9.19303479,55.6024359 6.69845196,53.3045603 L6.69839447,53.3046179 Z M18.9545508,50.3984353 C18.9545508,50.3984353 23.4303034,52.3583626 28.0094629,52.4260675 C28.0094629,52.4260675 17.2162924,56.5940966 14.1147187,56.7404545 C14.1147187,56.7404545 19.0073751,50.8039733 18.9544934,50.3984353 L18.9545508,50.3984353 Z M25.9811019,58.6439706 C25.9811019,58.6439706 18.4735566,58.019645 16.2722952,56.7404545 C16.2722952,56.7404545 22.8534322,55.467487 28.2940473,53.1693809 C28.2940473,53.1693809 26.6552296,57.8329523 25.9811019,58.6439706 Z M28.2939898,52.0880616 C28.2939898,52.0880616 20.7221242,50.7362108 19.5085449,49.3168855 C19.5085449,49.3168855 30.0264428,45.0596588 30.39719,44.315942 C30.39719,44.315942 29.5567722,50.4992148 28.2939898,52.0880616 Z M20.1826726,47.8975602 L23.5539433,40.7333443 C23.5539433,40.7333443 28.5432814,43.3692834 30.3972475,43.7748214 C30.3972475,43.7748214 21.8684517,47.9653228 20.182845,47.8976179 L20.1826726,47.8975602 Z M30.7005705,43.0312775 C27.6665361,42.2879641 24.4040179,39.787089 24.4040179,39.787089 C25.8609683,39.3815511 31.527653,36.0022985 31.527653,36.0022985 C31.9499025,39.6520249 30.7005705,43.0312775 30.7005705,43.0312775 Z M24.7674076,30.0543507 C24.7674076,30.0543507 30.700513,23.4309096 31.0376918,22.6198337 C31.0376918,22.6198337 34.7458539,24.4446969 36.0270299,26.4046242 C36.0270299,26.4046242 26.3327657,29.4461014 24.7674076,30.0543507 Z M32.6559316,20.9977395 C32.6559316,20.9977395 42.9714993,17.0775391 43.9828632,17.0100071 C43.9828632,17.0100071 41.4207412,21.8088154 37.1731275,25.9990863 C37.1731275,25.9990863 34.8593773,22.2811939 32.6558742,20.9977395 L32.6559316,20.9977395 Z M38.9935251,25.6613108 C38.9935251,25.6613108 44.1177118,19.7134783 45.1290757,17.0100071 C45.1290757,17.0100071 51.9385816,21.5383415 52.9499456,23.633621 C52.9499456,23.633621 41.623014,24.5797034 38.9935251,25.6613108 Z" id="Shape" fill="url(#linearGradient-2)"></path>
                <path d="M17.8468014,9.64030645 C17.153884,9.64030645 15.0191539,9.09353764 11.4426113,8 C10.6948317,8.52058276 10.569987,9.06735157 11.0680771,9.64030645 C20.8303982,16.3049873 20.4766323,29.7570918 6,41 C9.52635648,40.3579204 14.030206,37.3805189 17.8468014,35.7363841 C20.3911984,34.6402943 22.9640324,33.4914985 25.5653033,32.2899967 C29.8290673,31.0053879 31.9609493,30.3630835 31.9609493,30.3630835 C31.9609493,30.3630835 43.7034572,26.4611705 53.8493777,24.882772 C55.1587942,24.6791171 48.0615485,13.903018 27.4222331,10.9260644 C24.8610742,10.5566072 17.8287389,9.6458644 17.8468014,9.64030645 Z M43.3682721,17.059464 C43.3682721,17.059464 36.1272123,19.1181861 32.7748476,20.9024627 C32.7748476,20.9024627 34.6520896,14.9321743 34.5850983,13.902784 C34.5850983,13.902784 41.8261581,15.9615061 43.3683293,17.0594055 L43.3682721,17.059464 Z M31.1657994,20.9025212 C31.1657994,20.9025212 27.8461873,18.9123666 26.6564633,18.569295 L33.7136972,13.902784 C33.7136972,13.902784 33.7136972,16.4418298 31.1658566,20.9024627 L31.1657994,20.9025212 Z M23.3738335,19.3928072 C23.3738335,19.3928072 20.7445402,22.0003036 19.1498963,23.5102516 C19.1498963,23.5102516 19.082905,17.8144672 18.721255,17.6085307 C18.721255,17.6085307 21.9513549,18.4320429 23.3738335,19.3928072 Z M19.1498963,15.9615646 L23.656603,11.9814308 C23.656603,11.9814308 24.796255,13.2852083 24.5281184,17.8144087 C24.5281184,17.8144087 20.4091837,16.2360102 19.1498391,15.9615646 L19.1498963,15.9615646 Z M23.9917309,20.5592741 C23.9917309,20.5592741 23.2543696,24.3338224 21.511053,26.5983641 C21.511053,26.5983641 19.8729677,25.1572176 19.1498963,24.6767184 C19.1498963,24.6767184 23.522449,20.9710302 23.9917309,20.5592741 Z M21.0476586,29.1373514 C21.0476586,29.1373514 22.3156343,29.9608637 22.1814803,32.0195858 C22.1814803,32.0195858 13.7336057,35.9310936 12.4597997,36.8232319 C12.4597997,36.8232319 20.5840355,29.9608637 21.0476586,29.1373514 Z M23.3738335,31.6763972 C23.3738335,31.6763972 22.8521361,28.1765871 22.1814803,27.6276959 C22.1814803,27.6276959 25.1316115,26.1865494 29.4897028,23.5788191 C29.4897028,23.5788191 23.9628081,30.7844344 23.3738335,31.6763972 Z M23.7235943,25.4316632 C23.7235943,25.4316632 25.3326425,20.9025212 25.2657084,19.8731309 L29.4896456,22.2062401 L23.7235943,25.4316632 Z M32.3056229,13.6283969 C31.8361695,13.8342749 25.2656512,17.6085307 25.2656512,17.6085307 C26.2713778,14.4519091 24.5689305,11.9814308 24.5689305,11.9814308 L32.3055657,13.6283384 L32.3056229,13.6283969 Z M12.7950991,9.64808758 L15.7450589,10.6774779 L16.8179482,14.3146571 C16.8179482,14.3146571 14.001971,10.5404014 12.7951562,9.64814608 L12.7950991,9.64808758 Z M16.4825345,10.6774194 L22.9190702,11.6382422 L18.0917542,15.3439304 C18.0917542,14.5204182 16.4825345,10.6774194 16.4825345,10.6774194 Z M18.3598336,26.5983641 C18.3598336,26.5983641 19.4996571,26.9412602 20.0361589,27.6277544 C20.0361589,27.6277544 18.0917542,29.3920809 16.4825917,30.4313 C16.4825917,30.4313 18.2928423,27.2159983 18.3598336,26.5983641 Z M14.3370417,33.2204535 C14.3370417,33.2204535 16.8028008,30.884653 19.7008595,29.6176751 L11.6552756,36.8232904 L14.3370417,33.220512 L14.3370417,33.2204535 Z M24.9303519,31.058763 C24.9303519,31.058763 30.8303858,24.3337639 31.1656851,23.5102516 C31.1656851,23.5102516 34.8531777,25.3630957 36.1272123,27.3530748 C36.1272123,27.3530748 26.4869845,30.4411873 24.9303519,31.058763 Z M32.7749048,21.8632855 C32.7749048,21.8632855 43.0329728,17.8829762 44.0386994,17.8144087 C44.0386994,17.8144087 41.4908587,22.6867978 37.2669215,26.9413187 C37.2669215,26.9413187 34.9660683,23.1664194 32.7748476,21.8632855 L32.7749048,21.8632855 Z M39.0771721,26.5983641 C39.0771721,26.5983641 44.1727962,20.5593326 45.1785228,17.8144087 C45.1785228,17.8144087 51.9500721,22.4121767 52.9557986,24.5395834 C52.9557986,24.5395834 41.692004,25.5001722 39.0771721,26.5983641 Z" id="Shape" fill="url(#linearGradient-3)"></path>
            </g>
            <path d="M77.2228864,111.21145 C76.6940244,111.505881 76.4883559,111.844476 76.4883559,112.477503 C76.4883559,112.948593 76.4295934,113.051644 76.1210907,113.125251 C75.6509912,113.243024 75.6509912,113.522733 76.1357813,113.846608 C76.5177371,114.096874 76.5177371,114.111596 76.4736653,115.657359 L76.4149029,117.232565 L76.8262399,117.276729 L77.2228864,117.320894 L77.2228864,115.627916 C77.2228864,114.052709 77.2375769,113.920215 77.5020079,113.920215 C77.8252013,113.920215 78.1630854,113.552177 78.0308699,113.331353 C77.9867981,113.257745 77.7811295,113.184138 77.5901516,113.184138 C77.1788146,113.184138 77.0759803,112.948593 77.2522676,112.418617 C77.3551019,112.124186 77.5313892,111.991692 77.8986544,111.918084 C78.4715881,111.815033 78.589113,111.388108 78.1190136,111.12312 C77.7664389,110.946462 77.6929859,110.946462 77.2228864,111.21145 Z M55.8774312,111.373387 C55.7011438,111.535324 55.7599063,112.109464 55.9655748,112.271401 C56.2153151,112.477503 56.7588677,112.345009 56.8763926,112.050578 C57.0379893,111.623653 56.8029395,111.270336 56.3769119,111.270336 C56.1565527,111.270336 55.921503,111.3145 55.8774312,111.373387 Z M48.9434636,111.550045 C48.8993918,111.623653 48.8406293,112.91915 48.7965575,114.406027 C48.737795,117.335616 48.7818669,117.541717 49.4282537,117.291451 C49.7808283,117.158957 49.7808283,117.158957 49.677994,115.392371 C49.5751598,113.846608 49.5898503,113.625784 49.7955189,113.625784 C49.9277344,113.625784 50.0746405,113.773 50.1187123,113.949658 C50.206856,114.273533 50.4565963,114.877116 50.8532427,115.760409 C50.956077,115.995954 51.1617455,116.452323 51.293961,116.761475 C51.7199887,117.762541 52.0725633,117.37978 53.0568341,114.803509 C53.4094088,113.861329 53.4975524,113.728835 53.7179116,113.655227 C53.8795083,113.596341 53.8941989,113.920215 53.8207458,115.377649 C53.7472928,117.158957 53.7472928,117.158957 54.0851768,117.247286 C54.2761547,117.291451 54.4965138,117.291451 54.5699669,117.247286 C54.7462542,117.144235 54.6581106,111.711982 54.4818233,111.535324 C54.0704862,111.12312 53.43879,111.947527 52.5867347,114.023266 C51.7640606,116.040119 51.7346794,116.069562 51.3674141,115.09794 C51.0442207,114.229368 50.6328836,113.272467 50.4125245,112.860264 C50.2949997,112.654162 50.1921654,112.389174 50.1921654,112.271401 C50.1921654,111.770869 49.1785133,111.196728 48.9434636,111.550045 Z M79.1620468,112.183072 C79.0739031,112.271401 78.9857595,112.521668 78.9857595,112.713048 C78.9857595,112.933871 78.8829252,113.095808 78.6919473,113.139973 C78.5303506,113.184138 78.3981351,113.30191 78.3981351,113.404961 C78.3981351,113.49329 78.5303506,113.699392 78.6919473,113.846608 C78.9416876,114.067431 78.9857595,114.302976 78.9857595,115.377649 C78.9857595,116.80564 79.1326655,117.144235 79.867196,117.453388 C80.2785331,117.630047 80.3519861,117.615325 80.6751796,117.306173 C81.1012072,116.908691 81.0424448,116.761475 80.4107486,116.599538 C79.9406491,116.481766 79.9406491,116.467044 79.8525054,115.377649 C79.7643617,114.067431 79.793743,113.920215 80.2344613,113.920215 C80.7045607,113.920215 80.9836823,113.552177 80.7486326,113.257745 C80.6457983,113.125251 80.4254392,113.051644 80.2491518,113.066365 C79.9994115,113.095808 79.9259585,113.022201 79.867196,112.595276 C79.793743,112.050578 79.4705496,111.873919 79.1620468,112.183072 Z M58.4629783,113.346075 C57.7872103,113.773 57.4933981,114.509077 57.5668512,115.554308 C57.6403042,116.481766 57.875354,116.879248 58.6245751,117.262008 C59.5060116,117.718376 60.8281665,117.365059 60.6665697,116.71731 C60.5931167,116.467044 60.504973,116.437601 60.020183,116.511209 C59.22689,116.643703 58.8302436,116.496487 58.5217408,115.995954 C58.213238,115.465978 58.213238,115.127383 58.4923596,114.553242 C58.8008624,113.934937 59.4472492,113.669949 60.0495642,113.920215 C60.4168294,114.082152 60.5196637,114.082152 60.6224979,113.920215 C60.7547134,113.699392 60.6518792,113.316632 60.4168294,113.154695 C60.093636,112.933871 58.9330779,113.036922 58.4629783,113.346075 Z M61.6067687,113.213581 C61.3864096,113.390239 61.3570284,113.640506 61.3864096,115.318763 L61.4304814,117.232565 L61.7977466,117.232565 C62.1503213,117.232565 62.1650118,117.203122 62.2384649,115.907625 C62.2825367,115.171547 62.385371,114.479634 62.4588241,114.34714 C62.5469677,114.214646 62.8554705,113.993823 63.1639733,113.861329 C63.5606197,113.699392 63.7222165,113.552176 63.6781446,113.375518 C63.6193822,113.022201 63.0464484,112.963314 62.6204208,113.243024 C62.3266086,113.434404 62.2531556,113.434404 62.0621776,113.243024 C61.9005809,113.066365 61.8124373,113.066365 61.6067687,113.213581 Z M64.4273657,113.625784 C63.8397413,114.24409 63.5753104,115.171547 63.7809789,115.86346 C63.9719568,116.467044 64.5742718,117.129514 65.1031338,117.306173 C66.5281229,117.777262 67.8208964,116.790918 67.8208964,115.245155 C67.8208964,113.817164 67.1010566,113.036922 65.7935924,113.036922 C65.0443713,113.036922 64.941537,113.081087 64.4273657,113.625784 Z M66.557504,114.141039 C66.8660069,114.43547 66.9394599,114.62685 66.9394599,115.245155 C66.9394599,116.540652 65.9698797,117.129514 65.0884431,116.363993 C64.7358685,116.069562 64.677106,115.907625 64.677106,115.245155 C64.677106,114.582685 64.7358685,114.420748 65.0884431,114.126317 C65.6026145,113.669949 66.0580234,113.68467 66.557504,114.141039 Z M68.7904767,113.49329 C68.1293993,114.273533 68.3497584,114.921281 69.5103165,115.598472 C70.2301564,116.025397 70.2595375,116.084284 69.9657254,116.496487 C69.8041287,116.732032 69.7012944,116.746754 69.1283606,116.599538 C68.3938302,116.408158 68.0853274,116.555373 68.3497584,116.982298 C68.7317142,117.571161 70.0538691,117.571161 70.6121122,116.982298 C71.0381399,116.511209 70.9940681,115.789853 70.509278,115.318763 C70.2889188,115.112661 70.0244878,114.950724 69.9363442,114.950724 C69.8482005,114.950724 69.6278413,114.788787 69.4515541,114.597407 C69.1430513,114.273533 69.1430513,114.24409 69.378101,113.993823 C69.6131508,113.758278 69.7453662,113.758278 70.6121122,113.949658 C70.8912338,114.008545 70.9940681,113.331353 70.7296371,113.169416 C70.6268028,113.095808 70.2301564,113.036922 69.8482005,113.036922 C69.2752668,113.036922 69.1136701,113.095808 68.7904767,113.49329 Z M72.3162229,113.346075 C71.7579797,113.787721 71.3025708,114.759344 71.3907145,115.318763 C71.6698361,117.070628 72.8891567,117.85087 74.3582175,117.247286 C75.166201,116.908691 75.4893944,116.246221 75.430632,115.039053 C75.3718696,114.096874 75.3424884,114.008545 74.8283171,113.537455 C74.3582176,113.095808 74.1966209,113.036922 73.4914716,113.036922 C72.9185379,113.036922 72.6100351,113.125252 72.3162229,113.346075 Z M74.2994551,114.229368 C74.7842453,114.744622 74.8430077,115.318763 74.5051237,115.981233 C74.2260021,116.52593 73.7705932,116.776197 73.2858031,116.643703 C72.6247257,116.481766 72.3015323,116.010676 72.3015323,115.20099 C72.3015323,114.597407 72.3602947,114.420748 72.7128694,114.126317 C73.2711125,113.640506 73.7852839,113.669949 74.2994551,114.229368 Z M55.9068123,113.287189 C55.9068123,113.346075 55.8921217,114.258811 55.8774312,115.318763 L55.8480499,117.232565 L56.7294865,117.232565 L56.7294865,113.257745 L56.33284,113.213581 C56.0977903,113.184138 55.921503,113.213581 55.9068123,113.287189 Z M51.6612262,118.910822 C50.7357179,119.072759 50.089331,119.455519 49.2372757,120.324091 C48.5761983,120.986561 48.473364,121.192663 48.3117674,122.01707 C48.1207895,123.106465 48.2823861,124.151695 48.8112481,124.976102 C49.1785133,125.564964 50.4859775,126.639637 51.4996296,127.199056 C51.8375136,127.390437 52.2488506,127.61126 52.4104474,127.699589 C53.2625027,128.185401 54.4671327,129.274795 54.6728012,129.760607 C55.054757,130.673343 54.8931603,131.733295 54.305536,132.322157 C53.2478121,133.367387 50.618193,133.279058 49.1197509,132.130777 C48.8259387,131.909954 48.4439829,131.733295 48.2676956,131.733295 C47.9738834,131.733295 47.9591928,131.777459 48.0473364,132.410486 C48.0914082,132.793247 48.1354801,133.249615 48.1354801,133.455717 C48.1354801,133.720705 48.2823861,133.86792 48.7671763,134.074022 C50.7504085,134.957315 53.0421436,134.927872 54.8343979,133.970971 C56.4209837,133.146564 57.2583484,130.83528 56.5531992,129.274795 C56.0096467,128.067628 54.5993481,126.786853 52.763022,125.844674 C50.6916461,124.77 49.9277344,123.72477 50.1480935,122.282058 C50.2362372,121.634309 50.956077,120.868789 51.6906075,120.603801 C52.7336408,120.22104 54.8490885,120.486028 55.4954753,121.07489 C55.6423814,121.207384 55.8774312,121.280992 56.0243372,121.251549 C56.2446964,121.207384 56.2887682,121.07489 56.2446964,120.324091 C56.1712433,119.043316 56.0537185,118.954987 54.0117237,118.866657 C53.0862154,118.837214 52.0284914,118.851936 51.6612262,118.910822 Z M64.001338,118.925543 C63.1199015,119.043316 62.1797025,119.36719 61.9152715,119.632178 C61.8124373,119.735229 61.6508406,119.808837 61.5480063,119.808837 C61.1954317,119.808837 59.5207022,121.678474 59.0946745,122.547046 C58.1544755,124.460847 57.8900446,126.919347 58.4042159,129.039251 C58.7421,130.45252 58.9183873,130.864723 59.6088459,131.806903 C60.7400228,133.367387 62.0327964,134.206516 63.7809789,134.515668 C64.3539126,134.618719 64.9562277,134.736492 65.1325149,134.765935 C65.3234928,134.795378 65.8964266,135.369519 66.4987416,136.120318 C68.3938302,138.446323 68.2763053,138.357994 69.5984602,138.357994 C70.920615,138.357994 71.0528305,138.210778 70.3183,137.518865 C67.8796588,135.251746 67.1745096,134.53039 67.3067251,134.412618 C67.3948688,134.33901 67.7915152,134.191794 68.1881617,134.088743 C70.9353056,133.352666 72.6687975,130.45252 72.6687975,126.56603 C72.6687975,123.077021 71.3025708,120.662687 68.6141894,119.381912 C67.8796589,119.028594 67.4830125,118.940265 66.2636919,118.881379 C65.470399,118.837214 64.4420563,118.851936 64.001338,118.925543 Z M67.0129129,120.603801 C68.4525926,121.001282 69.3634104,121.752082 70.0391784,123.077021 C70.4358249,123.857264 70.9059244,125.800509 70.9059244,126.698524 C70.9059244,127.41988 70.5239685,129.436733 70.3183,129.819493 C70.244847,129.937265 70.053869,130.290583 69.8775818,130.599735 C69.5250071,131.247484 69.2752668,131.527193 68.4966645,132.116055 C67.6446091,132.749082 66.9982223,132.955184 65.6466863,133.01407 C64.0160287,133.102399 62.8848517,132.690196 61.8711997,131.659687 C60.9603819,130.732229 60.5343542,129.893101 60.2405421,128.420945 C59.8879675,126.624916 60.0495642,124.990823 60.7253322,123.503947 C61.1366693,122.605932 62.1943931,121.398764 62.8848517,121.045447 C64.0894817,120.41242 65.7054487,120.250483 67.0129129,120.603801 Z M90.6647938,118.910822 C89.342639,119.146367 87.9911029,120.132711 87.5063128,121.236827 C87.1096664,122.149564 87.1096664,123.710048 87.5063128,124.475569 C87.9323405,125.314698 89.2398047,126.580751 90.0037164,126.919347 C90.1212412,126.978233 90.356291,127.110727 90.5178877,127.199056 C90.6794845,127.302107 91.2524182,127.670146 91.7812801,128.008742 C92.3248326,128.347338 93.0006007,128.906757 93.2944129,129.245352 C93.7645123,129.804771 93.8232748,129.951987 93.8232748,130.732229 C93.8232748,131.394699 93.7498218,131.703852 93.5000814,132.042447 C92.5158106,133.367387 89.6217605,133.39683 87.9764124,132.071891 C87.2125007,131.453585 87.0655946,131.556636 87.0655946,132.778525 C87.0655946,133.764869 87.0802852,133.794312 87.5356941,134.029857 C88.2555339,134.412618 90.5766502,134.854264 91.2524182,134.736492 C93.4266284,134.397896 94.4255898,133.853199 95.2629545,132.54298 C95.5861479,132.027726 95.6302197,131.792181 95.6449103,130.702786 C95.6449103,129.716442 95.5714573,129.333682 95.3364075,128.862592 C94.8516174,127.949856 93.3384847,126.654359 91.9869487,126.006611 C91.8253519,125.933003 91.4433962,125.697458 91.1348933,125.491356 C90.8263905,125.285255 90.5325784,125.108596 90.4738159,125.108596 C90.282838,125.108596 89.4601639,124.181138 89.2104235,123.680605 C88.6815616,122.620653 89.2104235,121.3546 90.4444347,120.721573 C91.3846337,120.250483 93.0152913,120.324091 94.1611588,120.898232 C94.6018771,121.133776 95.0425954,121.26627 95.1160484,121.222106 C95.3510982,121.07489 95.1454297,119.484962 94.8663081,119.190531 C94.6753302,118.98443 94.2933743,118.910822 92.9418383,118.866657 C92.0163299,118.837214 90.9879872,118.851936 90.6647938,118.910822 Z M75.019295,119.028594 C74.9752232,119.867723 75.0339855,134.294845 75.0780574,134.33901 C75.1808917,134.442061 82.9081521,134.427339 83.0844394,134.324288 C83.3047986,134.177073 83.290108,133.176007 83.0697489,132.881576 C82.8934616,132.675474 82.5555775,132.660753 80.0875552,132.749082 C78.4862788,132.807968 77.1788146,132.793247 77.0172178,132.719639 C76.7821681,132.601867 76.7527868,132.469373 76.8409305,131.527193 C76.899693,130.761672 76.9878366,120.854067 76.9290742,119.102202 C76.9290742,118.910822 75.019295,118.837214 75.019295,119.028594 Z M101.168579,123.224237 C99.831734,123.474503 98.4655074,124.549177 97.6575239,125.977168 C97.3930929,126.462979 97.0552089,128.111793 97.0552088,128.9362 C97.0552088,129.848936 97.3930929,131.556636 97.7015957,132.130777 C98.3626731,133.426274 99.420397,134.221237 100.992292,134.603998 C101.991254,134.854264 102.13816,134.854264 103.284027,134.633441 C104.855922,134.324288 105.810812,133.897363 105.928337,133.470438 C105.972409,133.279058 106.016481,132.881576 106.016481,132.572423 C106.016481,132.130777 105.957718,132.027726 105.737359,132.027726 C105.575762,132.027726 105.355403,132.116055 105.252569,132.233828 C105.135044,132.336879 104.767779,132.572423 104.415204,132.749082 C103.519077,133.220172 101.41832,133.220172 100.625027,132.749082 C100.008021,132.395765 99.1118941,131.321091 99.1118941,130.938331 C99.1118941,130.805837 99.0237505,130.467241 98.9062256,130.187532 C98.7152477,129.731164 98.7152477,129.657556 98.9209163,129.436733 C99.0531318,129.304239 99.2881815,129.245352 99.4644688,129.289517 C99.6407561,129.31896 101.300795,129.377846 103.151812,129.392568 L106.530652,129.436733 L106.574724,128.185401 C106.648177,125.609129 105.355403,123.72477 103.166502,123.25368 C102.15285,123.032857 102.240994,123.032857 101.168579,123.224237 Z M103.269337,124.902494 C103.959795,125.255811 104.209536,125.520799 104.532729,126.197991 C104.855922,126.919347 104.988138,127.434601 104.899994,127.670146 C104.855922,127.80264 104.033248,127.846805 101.859038,127.832083 L98.891535,127.832083 L98.9356068,127.478766 C99.0237505,126.654359 99.6995185,125.71218 100.654408,125.064431 C101.344867,124.593342 102.520115,124.519734 103.269337,124.902494 Z M129.448002,123.238959 C128.346207,123.459782 126.877146,124.505012 126.348284,125.43247 C125.584372,126.801574 125.52561,127.051841 125.52561,129.009807 C125.510919,130.761672 125.5403,130.997217 125.892875,131.748016 C126.627405,133.352666 127.596986,134.162351 129.315787,134.603998 C130.314748,134.868986 130.417582,134.868986 131.607522,134.633441 C133.01782,134.353731 134.148997,133.897363 134.281213,133.558767 C134.325285,133.426273 134.369356,133.028792 134.369356,132.675474 C134.369356,132.130777 134.325285,132.027726 134.090235,132.027726 C133.928638,132.027726 133.708279,132.116055 133.605445,132.233828 C133.48792,132.336879 133.120655,132.572423 132.782771,132.749082 C131.989478,133.161286 129.653671,133.20545 129.080737,132.807968 C128.067085,132.130777 127.450079,131.276927 127.259102,130.246418 C127.112195,129.451454 127.259102,129.186466 127.817345,129.289517 C128.067085,129.333682 129.756505,129.377846 131.56345,129.392568 C134.281213,129.422011 134.868837,129.392568 134.956981,129.215909 C135.133268,128.921478 134.839456,126.462979 134.545644,125.771066 C133.958019,124.328354 132.885605,123.489225 131.269638,123.209515 C130.740776,123.121186 130.270676,123.0623 130.241295,123.0623 C130.211914,123.077021 129.859339,123.150629 129.448002,123.238959 Z M131.857262,125.020267 C132.621174,125.506078 133.061892,126.271599 133.091273,127.125449 L133.120655,127.817362 L130.182533,127.832083 L127.244411,127.832083 L127.273792,127.434601 C127.317864,126.831018 128.155229,125.653293 128.91914,125.138039 C129.815268,124.534455 131.005207,124.490291 131.857262,125.020267 Z M112.406896,123.312566 C111.833962,123.503947 111.363862,123.930872 110.937835,124.652228 C110.306138,125.71218 110.085779,125.638572 110.159232,124.401961 L110.203304,123.415617 L108.499193,123.415617 L108.469812,128.892035 C108.440431,134.927872 108.366978,134.53039 109.395321,134.53039 C110.408973,134.53039 110.364901,134.677606 110.306138,131.424142 C110.232685,128.200122 110.379591,127.037119 110.937835,126.139105 C111.598912,125.108596 112.52442,124.666949 113.435238,124.96138 C114.228531,125.226368 114.360746,125.108596 114.272603,124.19586 C114.228531,123.768935 114.125697,123.371453 114.037553,123.312566 C113.846575,123.180072 112.818233,123.180072 112.406896,123.312566 Z M140.73039,123.297845 C140.348434,123.371453 139.393545,124.284189 139.217257,124.755279 C139.143804,124.931937 138.938136,125.167482 138.761848,125.255811 C138.453346,125.43247 138.453346,125.417748 138.55618,124.711114 C138.747158,123.312566 138.80592,123.415617 137.82165,123.371453 L136.940213,123.327288 L136.940213,134.456782 L138.703086,134.456782 L138.717777,130.850002 C138.717777,127.493488 138.747158,127.199056 139.026279,126.580751 C139.672666,125.226368 140.745081,124.637506 141.861567,125.034988 C142.228832,125.167482 142.552026,125.211647 142.625479,125.138039 C142.698932,125.064431 142.743004,124.608063 142.713622,124.136973 L142.669551,123.268402 L141.861567,123.25368 C141.420849,123.238959 140.906677,123.25368 140.73039,123.297845 Z M114.948371,123.430339 C114.845537,123.518668 114.963062,123.945593 115.41847,125.108596 C115.594758,125.550242 115.785736,126.080218 115.859189,126.28632 C115.932642,126.492422 116.12362,127.022398 116.299907,127.464044 C116.476194,127.905691 116.667172,128.435667 116.740625,128.641769 C116.814078,128.84787 117.005056,129.377846 117.181344,129.819493 C117.357631,130.261139 117.548609,130.791115 117.622062,130.997217 C117.695515,131.203319 117.886493,131.733295 118.06278,132.174941 C118.239067,132.616588 118.444736,133.220172 118.53288,133.499881 C118.767929,134.309567 119.047051,134.53039 119.840344,134.53039 C120.618946,134.53039 120.883377,134.294845 121.089046,133.426274 C121.147808,133.176007 121.265333,132.82269 121.368167,132.616588 C121.471001,132.410486 121.661979,131.954118 121.808885,131.586079 C121.941101,131.218041 122.146769,130.717508 122.249604,130.481963 C122.352438,130.231696 122.543416,129.760607 122.675631,129.407289 C122.807847,129.068694 123.013515,128.509275 123.145731,128.155957 C123.277946,127.817362 123.468924,127.33155 123.571759,127.096006 C123.674593,126.845739 123.880261,126.359928 124.012477,125.991889 C124.159383,125.62385 124.453195,124.946659 124.688245,124.475569 C124.923295,124.019201 125.114272,123.562833 125.114272,123.474503 C125.114272,123.224237 123.175112,123.371453 123.057587,123.636441 C122.925372,123.91615 122.63156,124.77 122.469963,125.329419 C122.337747,125.771066 122.190841,126.197991 121.588526,127.758475 C121.412239,128.200122 121.221261,128.759541 121.147808,129.009807 C121.074355,129.245352 120.883377,129.819493 120.70709,130.26114 C120.530803,130.702786 120.339825,131.394699 120.295753,131.792181 C120.23699,132.189663 120.119465,132.54298 120.016631,132.572423 C119.810963,132.646031 119.384935,131.88051 119.384935,131.409421 C119.384935,131.218041 119.120504,130.305304 118.78262,129.377846 C118.459427,128.450388 118.136233,127.478766 118.06278,127.243221 C118.004018,126.992955 117.798349,126.433536 117.622062,125.991889 C117.445775,125.550242 117.254797,124.946659 117.181344,124.666949 C117.122581,124.38724 116.990366,123.975036 116.887531,123.739491 C116.711244,123.371453 116.6231,123.342009 115.859189,123.342009 C115.40378,123.342009 114.992443,123.386174 114.948371,123.430339 Z" id="Shape" fill="#595151" fill-rule="nonzero"></path>
        </g>
    </g>
</svg>