<?xml version="1.0" encoding="UTF-8"?>
<svg width="16px" height="16px" viewBox="0 0 16 16" version="1.1" xmlns="http://www.w3.org/2000/svg" xmlns:xlink="http://www.w3.org/1999/xlink">
    <!-- Generator: Sketch 50.2 (55047) - http://www.bohemiancoding.com/sketch -->
    <title>导航菜单--数据源</title>
    <desc>Created with Sketch.</desc>
    <defs></defs>
    <g id="导航菜单--数据源" stroke="none" stroke-width="1" fill="none" fill-rule="evenodd">
        <g id="数据源-2-copy" transform="translate(1.000000, 1.000000)" fill="#CFDBE6" fill-rule="nonzero">
            <path d="M6.99999999,14 C3.13372811,14 0,13.1857809 0,12.1818346 L0,10 C4.45372667e-16,11.0039602 3.13371207,11.8181932 6.99999999,11.8181932 C10.866304,11.8181932 14,11.0039463 14,10 L14,12.1818207 C14,13.1857809 10.866304,14 6.99999999,14 Z M7,10 C3.13372811,10 0,9.1857809 0,8.18180679 L0,6 C4.45372668e-16,7.00396019 3.13371208,7.81817929 7,7.81817929 C10.866304,7.81817929 14,7.00396019 14,6 L14,8.18180681 C14,9.1857948 10.866304,10 7,10 Z M7,6 C3.13372811,6 0,5.04036847 0,3.85714637 L4.45372668e-16,2.14285363 C4.45372668e-16,0.959615131 3.13371208,0 7,0 C10.866304,0 14,0.959631533 14,2.14285363 L14,3.85712997 C14,5.04036847 10.866304,6 7,6 Z" id="Shape"></path>
        </g>
    </g>
</svg>