<?xml version="1.0" encoding="UTF-8"?>
<svg width="19px" height="16px" viewBox="0 0 19 16" version="1.1" xmlns="http://www.w3.org/2000/svg" xmlns:xlink="http://www.w3.org/1999/xlink">
    <!-- Generator: Sketch 51.2 (57519) - http://www.bohemiancoding.com/sketch -->
    <title>可视化分析_轮廓化0614</title>
    <desc>Created with Sketch.</desc>
    <defs></defs>
    <g id="蓝湖上传" stroke="none" stroke-width="1" fill="none" fill-rule="evenodd">
        <g id="可视化分析_轮廓化0614" fill="#1296DB" fill-rule="nonzero">
            <path d="M1.10347169,1.06465622 L14.8965283,1.06465622 L14.8965283,6.22809383 L16,6.22809383 L16,0 L0,0 L0,13.8402735 L7.17237199,13.8402735 L7.17237199,12.7756173 L1.10347169,12.7756173 L1.10347169,1.06465622 Z M14.5655256,11.5513281 C13.9034959,11.5513281 13.3517358,12.0836095 13.3517358,12.7756173 C13.3517358,13.4144531 13.9034959,14 14.5655256,14 C15.2276523,14 15.7793396,13.4676251 15.7793396,12.7756173 C15.8345471,12.136875 15.2827628,11.5513281 14.5655256,11.5513281 Z" id="Shape"></path>
            <path d="M14,10 C10.7222328,10 9,12.9999561 9,12.9999561 C9,12.9999561 10.2778258,16 14,16 C17.3888751,16 19,12.9999561 19,12.9999561 C19,12.9999561 17.3333577,10 14,10 Z M13.9987982,15 C12.810321,15 12,14.1466473 12,12.9733049 C12,11.8533527 12.8643772,11 13.9987982,11 C15.1872991,11 15.9975964,11.8533527 15.9975964,12.9733049 C16.0516763,14.0933508 15.1872991,15 13.9987982,15 Z M4,3 L5,3 L5,9 L4,9 L4,3 Z M7,4 L8,4 L8,9 L7,9 L7,4 Z M10,5 L11,5 L11,9 L10,9 L10,5 Z" id="Shape"></path>
        </g>
    </g>
</svg>