<?xml version="1.0" encoding="UTF-8"?>
<svg width="18px" height="16px" viewBox="0 0 18 16" version="1.1" xmlns="http://www.w3.org/2000/svg" xmlns:xlink="http://www.w3.org/1999/xlink">
    <!-- Generator: Sketch 51.2 (57519) - http://www.bohemiancoding.com/sketch -->
    <title>sql serve表 copy</title>
    <desc>Created with Sketch.</desc>
    <defs></defs>
    <g id="蓝湖上传" stroke="none" stroke-width="1" fill="none" fill-rule="evenodd">
        <g id="sql-serve表-copy" fill="#D9E3EC" fill-rule="nonzero">
            <polygon id="Shape" points="3.90877069 16 0 16 0 0 12.7058824 0 12.7058824 6.26126126 12.040155 6.26126126 12.040155 0.630630634 0.665727373 0.630630634 0.665727373 15.3693694 3.91828109 15.3693694"></polygon>
            <path d="M6.6754439,14.4967033 C6.53412248,14.6021978 6.38337964,14.6725275 6.17610824,14.6725275 C5.81809399,14.6725275 5.46950116,14.4 5.18685832,13.9076923 L4.23529412,14.4527473 C4.46140838,14.8923077 4.73462978,15.2 5.0455369,15.3934066 C5.36586543,15.5868132 5.7238797,15.7098901 6.15726538,15.7098901 C6.70370819,15.7098901 7.14651529,15.5604396 7.46684383,15.2527472 C7.80601522,14.9362637 7.9661795,14.5406593 7.9661795,14.0571429 C7.9661795,13.810989 7.91907235,13.6 7.82485807,13.3714286 C7.7306438,13.178022 7.57047952,12.9494505 7.32552241,12.7384615 C7.23130813,12.6417582 6.96750816,12.421978 6.53412248,12.0791209 C6.08189394,11.7098901 5.7898297,11.4461539 5.70503684,11.3318681 C5.63908684,11.2351648 5.59197971,11.156044 5.59197971,11.0505495 C5.59197971,10.945055 5.63908686,10.8747253 5.73330113,10.778022 C5.82751541,10.7164835 5.95941539,10.6725275 6.09131538,10.6725275 C6.41164391,10.6725275 6.70370817,10.8659341 6.99577244,11.2615385 L7.82485807,10.5406593 C7.50452954,10.1978022 7.21246528,9.95164836 6.95808673,9.81978022 C6.68486532,9.67912089 6.39280106,9.62637363 6.09131538,9.62637363 C5.63908684,9.62637363 5.22454403,9.77582419 4.91363692,10.0659341 C4.59330838,10.3472527 4.44256552,10.6989011 4.44256552,11.1032967 C4.44256552,11.3846154 4.5367798,11.6483517 4.73462978,11.9472528 C4.91363692,12.2285714 5.34702258,12.632967 5.9971011,13.1428572 C6.33627249,13.4153846 6.56238677,13.6 6.64717961,13.7318681 C6.73197247,13.8725275 6.80734389,14.0043956 6.80734389,14.1362637 C6.87329389,14.2417582 6.81676532,14.3648352 6.6754439,14.4967033 Z M13.6473004,10.5054945 C13.0349076,9.91648353 12.3094576,9.6 11.4709506,9.6 C10.9056649,9.6 10.4063293,9.74065934 9.90699359,10.021978 C9.40765793,10.3032967 9.04022225,10.6549451 8.77642228,11.1296703 C8.51262231,11.5956044 8.36187945,12.0967033 8.36187945,12.6505495 C8.36187945,13.4945055 8.65394371,14.189011 9.24749365,14.778022 C9.84104359,15.367033 10.5853364,15.6835165 11.480372,15.6835165 C12.0268148,15.6835165 12.5073077,15.578022 12.9218505,15.3406593 L13.440029,16 L14.7778717,16 L13.7320932,14.6989011 C14.2502718,14.1186813 14.5234932,13.4417582 14.5234932,12.6769231 C14.5517575,11.8153846 14.2596932,11.0945055 13.6473004,10.5054945 Z M13.0537504,13.8021978 L12.5073076,13.1164835 L11.1506221,13.1164835 L12.2152434,14.4615385 C11.9608648,14.567033 11.7159077,14.610989 11.4426863,14.610989 C10.9716149,14.610989 10.5570721,14.4615385 10.180215,14.1714286 C9.70914361,13.8021978 9.47360793,13.2835165 9.47360793,12.6505495 C9.47360793,12.0703297 9.65261506,11.5956044 10.0388936,11.2175824 C10.4157507,10.8483517 10.8679792,10.6725275 11.4426863,10.6725275 C11.9891291,10.6725275 12.4319362,10.8659341 12.8276362,11.2527473 C13.2044933,11.621978 13.3929219,12.1142857 13.3929218,12.6593407 C13.4211861,13.0813187 13.308129,13.4769231 13.0537504,13.8021978 Z M16.3418287,9.74945055 L15.2112574,9.74945055 L15.2112574,15.5516484 L18,15.5516484 L18,14.4967033 L16.3418287,14.4967033 L16.3418287,9.74945055 Z" id="Shape"></path>
        </g>
    </g>
</svg>