<?xml version="1.0" encoding="UTF-8"?>
<svg width="13px" height="15px" viewBox="0 0 13 15" version="1.1" xmlns="http://www.w3.org/2000/svg" xmlns:xlink="http://www.w3.org/1999/xlink">
    <!-- Generator: Sketch 51.2 (57519) - http://www.bohemiancoding.com/sketch -->
    <title>工作表-图表 copy 3</title>
    <desc>Created with Sketch.</desc>
    <defs></defs>
    <g id="蓝湖上传" stroke="none" stroke-width="1" fill="none" fill-rule="evenodd">
        <g id="工作表-图表-copy-3" fill="#1296DB" fill-rule="nonzero">
            <path d="M0,0 L0,15 L13,15 L13,5.80989865 L7.30033333,0.00334821055 L0.666666667,0.000334821055 L0.666666667,0 L0,0 Z M0.666666667,0.66996019 L6.66666667,0.672705722 L6.66666667,6.66695684 L12.3333333,6.69524922 L12.3333333,14.3303746 L0.666666667,14.3303746 L0.666666667,0.66996019 Z M7.33333333,6.0006462 L7.33333333,0.990752242 L12.27525,6.02533926 L7.33333333,6.0006462 Z" id="Shape"></path>
            <path d="M2,6.83727034 L5.66666667,6.83727034 L5.66666667,5 L2,5 L2,6.83727034 Z M2,9.79527559 L5.66666667,9.79527559 L5.66666667,9.06036745 L2,9.06036745 L2,9.79527559 Z M2,12 L5.66666667,12 L5.66666667,11.2650919 L2,11.2650919 L2,12 Z M7.33333333,9.79527559 L11,9.79527559 L11,9.06036745 L7.33333333,9.06036745 L7.33333333,9.79527559 Z M7.33333333,12 L11,12 L11,11.2650919 L7.33333333,11.2650919 L7.33333333,12 Z" id="Shape"></path>
        </g>
    </g>
</svg>