<?xml version="1.0" encoding="UTF-8"?>
<svg width="13px" height="15px" viewBox="0 0 13 15" version="1.1" xmlns="http://www.w3.org/2000/svg" xmlns:xlink="http://www.w3.org/1999/xlink">
    <!-- Generator: Sketch 51.2 (57519) - http://www.bohemiancoding.com/sketch -->
    <title>工作表-图表 copy 4</title>
    <desc>Created with Sketch.</desc>
    <defs></defs>
    <g id="蓝湖上传" stroke="none" stroke-width="1" fill="none" fill-rule="evenodd">
        <g id="工作表-图表-copy-4" fill="#CFDBE6" fill-rule="nonzero">
            <path d="M0,0 L0,15 L13,15 L13,5.80989865 L7.30033333,0.00334821055 L0.666666667,0.000334821055 L0.666666667,0 L0,0 Z M0.666666667,0.66996019 L6.66666667,0.672705722 L6.66666667,6.66695684 L12.3333333,6.69524922 L12.3333333,14.3303746 L0.666666667,14.3303746 L0.666666667,0.66996019 Z M7.33333333,6.0006462 L7.33333333,0.990752242 L12.27525,6.02533926 L7.33333333,6.0006462 Z" id="Shape"></path>
            <path d="M2,7 L6,7 L6,5 L2,5 L2,7 Z M2,10 L6,10 L6,9 L2,9 L2,10 Z M2,12 L6,12 L6,11 L2,11 L2,12 Z M7,10 L11,10 L11,9 L7,9 L7,10 Z M7,12 L11,12 L11,11 L7,11 L7,12 Z" id="Shape"></path>
        </g>
    </g>
</svg>