<?xml version="1.0" encoding="UTF-8"?>
<svg width="30px" height="30px" viewBox="0 0 30 30" version="1.1" xmlns="http://www.w3.org/2000/svg" xmlns:xlink="http://www.w3.org/1999/xlink">
    <!-- Generator: Sketch 50.2 (55047) - http://www.bohemiancoding.com/sketch -->
    <title>横向柱状堆叠图</title>
    <desc>Created with Sketch.</desc>
    <defs></defs>
    <g id="横向柱状堆叠图" stroke="none" stroke-width="1" fill="none" fill-rule="evenodd">
        <g id="Group-6" transform="translate(4.000000, 5.000000)" fill-rule="nonzero">
            <g id="柱状堆叠图" transform="translate(10.500000, 9.500000) rotate(90.000000) translate(-10.500000, -9.500000) translate(3.000000, 2.000000)">
                <path d="M0,11 L3,11 L3,14.4285714 C3,14.7714286 2.7,15 2.25,15 L0.749999995,15 C0.299999998,15 0,14.7714286 0,14.4285714 L0,11 Z" id="Shape" fill="#0CA294"></path>
                <path d="M0.749999995,7 L2.25,7 C2.7,7 3,7.32 3,7.79999999 L3,11 L0,11 L0,7.79999999 C0,7.32 0.299999998,7 0.749999995,7 Z" id="Shape" fill="#FFA5A5"></path>
                <path d="M4,9 L7,9 L7,14.3333333 C7,14.7333333 6.7,15 6.24999999,15 L4.74999999,15 C4.3,15 4,14.7333333 4,14.3333333 L4,9 Z" id="Shape" fill="#0CA294"></path>
                <path d="M4.74999999,5 L6.24999999,5 C6.69999998,5 6.99999998,5.26666666 7,5.66666668 L7,9 L4,9 L4,5.66666668 C4,5.26666668 4.3,5.00000002 4.74999999,5 Z" id="Shape" fill="#FFA5A5"></path>
                <path d="M8,5 L11,5 L11,14.2857143 C11,14.7142857 10.7,15 10.25,15 L8.75000001,15 C8.30000002,15 8.00000002,14.7142857 8,14.2857143 L8,5 Z" id="Shape" fill="#0CA294"></path>
                <path d="M8.75000001,0 L10.25,0 C10.7,0 11,0.249999998 11,0.624999994 L11,5 L8,5 L8,0.624999994 C8,0.249999998 8.3,0 8.75000001,0 Z" id="Shape" fill="#FFA5A5"></path>
                <path d="M12,9 L15,9 L15,14.3333333 C15,14.7333333 14.7,15 14.25,15 L12.75,15 C12.3,15 12,14.7333333 12,14.3333333 L12,9 Z" id="Shape" fill="#0CA294"></path>
                <path d="M12.75,4 L14.25,4 C14.7,4 15,4.25 15,4.62499999 L15,9 L12,9 L12,4.62499999 C12,4.25 12.3,4 12.75,4 Z" id="Shape" fill="#FFA5A5"></path>
            </g>
            <polygon id="Shape" fill="#819292" points="0.910500485 18.9657287 0.910500485 0 0 0 0 20 22 20 22 18.9657287"></polygon>
        </g>
    </g>
</svg>