<?xml version="1.0" encoding="UTF-8"?>
<svg width="20px" height="14px" viewBox="0 0 20 14" version="1.1" xmlns="http://www.w3.org/2000/svg" xmlns:xlink="http://www.w3.org/1999/xlink">
    <!-- Generator: Sketch 51.2 (57519) - http://www.bohemiancoding.com/sketch -->
    <title>边框--已选组件列表</title>
    <desc>Created with Sketch.</desc>
    <defs></defs>
    <g id="边框--已选组件列表" stroke="none" stroke-width="1" fill="none" fill-rule="evenodd">
        <g id="ziyuan-2-copy-6" fill-rule="nonzero">
            <path d="M18.5714286,14 L15.2380952,14 L14.4761905,12.8552941 L7.41904762,12.8552941 L6.66666667,14 L1.42857143,14 C0.639593214,14 9.66219643e-17,13.44694 0,12.7647059 L0,1.23529412 C1.1477521e-15,0.553060014 0.639593214,-4.17747904e-17 1.42857143,0 L2.85714285,0 L3.61904763,1.14470588 L11.6380952,1.14470588 L12.3809524,0 L18.5714286,0 C19.3604068,4.17747904e-17 20,0.553060014 20,1.23529412 L20,12.7647059 C20,13.0923263 19.8494902,13.4065281 19.5815811,13.6381907 C19.313672,13.8698533 18.9503093,14 18.5714286,14 Z M15.8,13.1764706 L18.5714286,13.1764706 C18.8344213,13.1764706 19.047619,12.9921173 19.047619,12.7647059 L19.047619,1.23529412 C19.047619,1.00788275 18.8344213,0.82352941 18.5714286,0.82352941 L12.9428571,0.82352941 L12.1809524,1.96823529 L3.05714286,1.96823529 L2.2952381,0.82352941 L1.42857143,0.82352941 C1.16557869,0.82352941 0.952380951,1.00788275 0.952380951,1.23529412 L0.952380951,12.7647059 C0.952380951,12.9921173 1.16557869,13.1764706 1.42857143,13.1764706 L6.1047619,13.1764706 L6.86666668,12.0317647 L15.0380952,12.0317647 L15.8,13.1764706 Z" id="Shape" fill="#787993"></path>
            <polygon id="Shape" fill="#BAC0D6" points="4 0 4.45320197 1 11.546798 1 12 0"></polygon>
        </g>
    </g>
</svg>