<?xml version="1.0" encoding="UTF-8"?>
<svg width="22px" height="19px" viewBox="0 0 22 19" version="1.1" xmlns="http://www.w3.org/2000/svg" xmlns:xlink="http://www.w3.org/1999/xlink">
    <!-- Generator: Sketch 51.2 (57519) - http://www.bohemiancoding.com/sketch -->
    <title>中国地图--已选组件列表</title>
    <desc>Created with Sketch.</desc>
    <defs></defs>
    <g id="中国地图--已选组件列表" stroke="none" stroke-width="1" fill="none" fill-rule="evenodd">
        <path d="M19.1124237,16.7041666 C19.0399685,16.6947639 19.1013979,16.5913338 19.005316,16.55529 L19.005316,16.5145449 L18.9848395,16.4926052 C18.950187,16.4690983 18.9060839,16.4800682 18.8604056,16.4581285 C18.8604056,16.4236518 18.8336287,16.4017121 18.8226029,16.3546985 C18.7784997,16.3546985 18.7879504,16.3029834 18.7674739,16.2685068 L18.6776925,16.1776137 C18.6887183,16.1023919 18.7438472,16.0099317 18.7328214,15.92374 C18.7217956,15.8892633 18.7217956,15.8438168 18.6887183,15.8203099 C18.7066726,15.6697374 18.7560293,15.5245537 18.8336287,15.3940528 C18.8336287,15.3486063 18.8226029,15.2749516 18.8619807,15.2185352 L18.9297106,15.1824914 C18.9517622,15.1589845 18.9517622,15.0947326 18.9612128,15.0398833 C18.9848395,14.9818998 19.0809214,14.9709299 19.1013979,14.8831711 C19.1470762,14.8722013 19.1911794,14.8612314 19.2258319,14.8142178 C19.2636346,14.8142178 19.3203386,14.7797411 19.3644418,14.7797411 C19.3975192,14.8142178 19.408545,14.8612314 19.4825753,14.8722013 C19.5581807,15.1589845 19.4825753,15.5100198 19.4699744,15.8312798 C19.3864934,15.9738879 19.4416224,16.1760466 19.3203386,16.3139533 C19.2856862,16.3891751 19.3077377,16.4800682 19.296712,16.5662599 C19.2856862,16.6242434 19.2746604,16.6696899 19.213231,16.6947639 C19.1801536,16.6822269 19.1565269,16.7167036 19.1124237,16.7041666 Z M13.8357944,18.9984329 C13.815318,18.9749261 13.760189,18.9623891 13.7050601,18.9404494 L13.6814334,18.9059727 C13.6420555,18.8950028 13.5869266,18.9059727 13.5428234,18.871496 L13.5081709,18.8354522 C13.4971451,18.7962742 13.5081709,18.7508276 13.4750935,18.7053811 L13.4467415,18.6818743 C13.4467415,18.6113538 13.4136641,18.5502361 13.4246899,18.4687457 C13.4357157,18.434269 13.4971451,18.4123293 13.4861193,18.3480773 C13.5853514,18.266587 13.690884,18.1709926 13.8263438,18.0895023 C13.9098248,18.0895023 13.9555031,18.0675625 14.0326836,18.0315187 C14.0830872,18.0315187 14.0830872,18.0675625 14.1382162,18.0785324 L14.2059461,18.0675625 L14.2390234,18.0080119 L14.2169718,17.9798037 C14.1838945,17.9688339 14.1287655,17.957864 14.0830872,17.9343572 C14.0563103,17.8998805 14.010632,17.8763737 13.9885804,17.8309272 C13.9885804,17.7557053 13.9318764,17.7102588 13.9224257,17.6193657 L13.8877732,17.5833219 C13.8767474,17.5425768 13.8767474,17.4861604 13.8657216,17.442281 L13.8499705,17.417207 C13.7932664,17.4062372 13.7491632,17.4062372 13.6814334,17.3937002 C13.6546564,17.365492 13.6089781,17.3545221 13.5869266,17.3075085 C13.5088018,17.2839957 13.4275525,17.2723721 13.3459342,17.2730318 C13.2687537,17.2730318 13.2908053,17.3419852 13.2199252,17.365492 C13.1506202,17.3827303 13.0939161,17.3827303 13.0120102,17.3827303 C12.9238039,17.352955 12.8670998,17.3200455 12.7710179,17.2730318 C12.7284899,17.2730318 12.6544595,17.2840017 12.5977555,17.249525 C12.5536523,17.1805716 12.4764717,17.1288566 12.4150423,17.0489334 C12.3929907,17.0363964 12.3929907,16.9909499 12.3709392,16.9392349 C12.3599134,16.8593117 12.4024414,16.7668515 12.381965,16.6696899 L12.3473125,16.6477502 C12.3158102,16.6477502 12.2528057,16.6587201 12.2087025,16.6587201 C12.0768489,16.6122737 11.950168,16.5524056 11.8306753,16.4800682 C11.8180744,16.5380517 11.7298681,16.5662599 11.7062414,16.6367804 C11.6747391,16.6806598 11.589683,16.7041666 11.5550305,16.7778213 C11.4983264,16.824835 11.394369,16.8013282 11.3156133,16.8013282 C11.2809608,16.8138651 11.269935,16.8483418 11.2085056,16.8593117 C11.0478441,16.8013282 10.8682812,16.8593117 10.6950187,16.7903583 C10.657216,16.7903583 10.6131128,16.8028953 10.5894861,16.8264021 L10.5564087,16.8937883 C10.5107305,16.8937883 10.4382753,16.8937883 10.3831463,16.8828185 C10.3390431,16.8937883 10.282339,16.8828185 10.2429612,16.9298321 C10.2209096,17.0943799 10.3154164,17.2949715 10.2098838,17.4516837 C10.1547549,17.4391467 10.1437291,17.4955631 10.0759992,17.5081001 C10.0366214,17.5081001 10.0145698,17.4955631 9.97046663,17.4861604 C9.91376255,17.4516837 9.93581414,17.3827303 9.85233314,17.365492 C9.84130734,17.3075085 9.82083087,17.262062 9.79720417,17.1931086 L9.77357748,17.1696018 C9.70584761,17.1696018 9.72947431,17.249525 9.6570191,17.2730318 C9.61291593,17.2730318 9.54518606,17.2855688 9.48848198,17.249525 C9.46117705,17.2138057 9.4294204,17.1816836 9.39397519,17.1539306 C9.37192361,17.1413936 9.37192361,17.0724402 9.33884623,17.0505005 C9.31679464,17.0379635 9.28371727,17.0254266 9.27269147,16.9690102 C9.24227848,16.9446089 9.20464057,16.9308416 9.16558378,16.9298321 C9.14195708,16.9047582 9.11045481,16.8937883 9.07737744,16.8608788 C9.06005119,16.8264021 9.02697381,16.8138651 9.01437291,16.7511803 C9.01437291,16.6822269 9.02697381,16.6258105 9.02697381,16.5396188 C9.08682812,16.5145449 9.03799961,16.4581285 9.07737744,16.4017121 C9.0490254,16.3656683 9.00334712,16.3546985 8.94821815,16.3249231 C8.92459146,16.2685068 8.86946249,16.2465671 8.84111045,16.1650767 C8.84111045,16.0898549 8.83008466,16.0318714 8.83008466,15.9535153 L8.7985824,15.8782934 C8.69620004,15.8203099 8.54656428,15.8908304 8.417405,15.8547866 L8.37172672,15.8203099 C8.3431351,15.6689851 8.33624107,15.5143927 8.35125025,15.3611433 C8.36070093,15.2984584 8.43945659,15.3078611 8.46150817,15.2404749 L8.46150817,15.1730886 C8.51191179,15.1151051 8.55601496,15.0069737 8.65682221,14.9724971 C8.69620004,14.9254834 8.74187832,14.8627985 8.80803308,14.8283219 C8.84111045,14.8063821 8.84111045,14.7483986 8.84111045,14.6841466 C8.8746607,14.6437056 8.89934059,14.5967315 8.91356566,14.5462399 C8.90411498,14.4725852 8.92459146,14.4146017 8.93561725,14.3346785 C8.97026974,14.2140101 8.93561725,14.1685636 8.93561725,14.0996102 L8.89151408,14.0369254 L8.81905887,14.0149857 C8.76020068,13.8901173 8.70608355,13.7630906 8.65682221,13.6341751 C8.62374483,13.6232052 8.60011813,13.6341751 8.55759008,13.6232052 C8.53396338,13.6576819 8.46308328,13.7329037 8.43945659,13.7893201 C8.37172672,13.8473036 8.25516834,13.8112598 8.16538689,13.8237968 C8.0362276,13.7767831 7.96062217,13.6686517 7.85351447,13.5996984 L7.71805474,13.5996984 L7.63457373,13.6576819 C7.58732034,13.6576819 7.56684387,13.6968599 7.50068911,13.7078298 L7.46131128,13.7078298 L7.39358141,13.7329037 C7.34947824,13.7658133 7.29434928,13.8112598 7.22031896,13.8473036 C7.16519,13.9334953 7.03603071,13.9209583 6.92577279,13.9664049 L6.9037212,14.0008816 C6.86434337,14.0134185 6.85331758,14.0478952 6.79661351,14.0588651 L6.73045875,14.0588651 C6.69580626,14.071402 6.68478047,14.1121472 6.62335105,14.1215499 C6.48701765,14.1521246 6.34516937,14.148354 6.21067139,14.1105801 L6.13191573,14.0243884 C6.10986415,13.9664049 6.13191573,13.9209583 6.12088994,13.8457365 C6.06616499,13.7810122 5.99996328,13.7268323 5.9255759,13.6858901 C5.90072743,13.6333646 5.85922111,13.590417 5.80744241,13.5636546 L5.77594015,13.4962683 L5.70821028,13.4555232 L5.67355779,13.3881369 C5.61370348,13.3520931 5.51289624,13.3411233 5.42941524,13.3191836 L5.36168537,13.2549316 L5.15692065,13.2549316 C5.10966726,13.3066466 5.03721205,13.3411233 5.00413467,13.3959726 C5.00413467,13.4555232 4.96948218,13.4962683 4.9474306,13.5652217 C4.9364048,13.5871614 4.89230163,13.5871614 4.84189801,13.6122354 C4.80882063,13.6122354 4.75211656,13.5871614 4.70801339,13.5761916 C4.62453239,13.4852985 4.71903918,13.3066466 4.62453239,13.1969481 C4.56940343,13.2094851 4.52372514,13.2533645 4.45126994,13.2423946 C4.40716677,13.2314248 4.39614097,13.1624714 4.34101201,13.1405317 L4.16774956,13.1405317 L4.06064186,13.0825482 C3.95983461,13.0590414 3.83225044,12.9947894 3.72041741,12.9728497 C3.67473912,12.9728497 3.65741288,12.9368059 3.61488482,12.9148662 C3.54715495,12.9148662 3.45264816,12.9148662 3.3738925,12.8803895 C3.35184091,12.8396443 3.32978933,12.8051676 3.30773774,12.7362143 C3.24473322,12.7236773 3.20063005,12.6892006 3.13447529,12.6672609 C3.11084859,12.6374856 3.10139791,12.6280829 3.07934633,12.5810692 C3.07934633,12.5465926 3.07934633,12.5246529 3.0635952,12.4776392 C3.01791691,12.4556995 2.96278795,12.4447296 2.90608387,12.4149543 L2.86828116,12.3475681 L2.80055129,12.3099572 C2.76904903,12.2786147 2.7784997,12.192423 2.76904903,12.1328724 L2.71076984,12.076456 L2.63831463,12.0294424 C2.59421146,12.0012342 2.51703091,12.0012342 2.46505218,11.9557877 C2.33452247,11.7043316 2.15642596,11.480313 1.94053948,11.2960294 C1.90903721,11.2960294 1.8838354,11.2960294 1.83500689,11.3069992 C1.78932861,11.3414759 1.76885214,11.3978923 1.70112227,11.4166978 C1.67907068,11.3869224 1.61764127,11.3869224 1.57196298,11.3540129 C1.51686723,11.246495 1.45201833,11.1442074 1.37822406,11.0484241 C1.34357157,11.0029776 1.33097066,10.9167859 1.28686749,10.8697723 C1.2125138,10.7929791 1.14406612,10.7107348 1.08210278,10.6237341 L1.00807246,10.6111972 C0.976570191,10.5720191 0.952943493,10.5030658 0.886788738,10.4795589 C0.836385115,10.2664304 0.886788738,10.0658388 0.8584367,9.84174039 C0.886788738,9.80726371 0.8584367,9.74301171 0.886788738,9.6991323 C0.930891908,9.67405836 0.952943493,9.6411488 1.02067336,9.61764197 L1.05217563,9.61764197 C1.09155346,9.65211865 1.10415436,9.6991323 1.17030912,9.71166928 L1.20496161,9.6630885 C1.20496161,9.46249692 1.15928332,9.29638201 1.13723174,9.14123695 C1.17030912,9.08325345 1.20496161,9.03780692 1.23803898,8.95788371 C1.14541116,8.78271335 1.09932428,8.58689381 1.10415436,8.38901851 C1.10415436,8.30282681 1.00964757,8.38901851 0.978145304,8.31379666 L0.908840323,8.31379666 C0.801732625,8.25738028 0.724552077,8.12887629 0.628470171,8.02074489 C0.573341209,8.00977504 0.562315416,7.97373124 0.494585548,7.95179153 L0.467808624,7.92828471 C0.412679661,7.7621698 0.467808624,7.57254806 0.412679661,7.3954633 C0.355975586,7.37038936 0.344949793,7.28576478 0.288245718,7.23875113 C0.217365623,7.20427445 0.182713133,7.15882792 0.103957472,7.10241153 C0.0929234241,7.05498007 0.0929234241,7.0056678 0.103957472,6.95823633 C0.149635755,6.91122268 0.217365623,6.90025283 0.300846623,6.85950766 L0.322898208,6.83756795 L0.322898208,6.696527 C0.344949793,6.63384212 0.379602284,6.59936545 0.401653869,6.51787511 C0.401653869,6.48339844 0.390628076,6.42071356 0.390628076,6.37526703 C0.378027171,6.34079035 0.378027171,6.2937767 0.344949793,6.27026987 C0.25989368,6.23109183 0.195314038,6.27026987 0.103957472,6.21855486 C0.0834810002,6.19661515 0.0661547549,6.1496015 0.0204764717,6.12766179 L0,6.05400707 L0.022051585,5.98662083 C0.0567040756,5.95057703 0.0945067927,5.92863733 0.129159283,5.87065382 C0.0988740293,5.77673692 0.102777329,5.67521123 0.140185076,5.58387054 C0.185863359,5.58387054 0.196889151,5.54939386 0.240992321,5.52588703 L0.252018114,5.49141036 C0.315022642,5.45693368 0.381177397,5.42872548 0.448907265,5.34880227 C0.543414058,5.31275847 0.622169718,5.3362653 0.727702304,5.32529545 L0.793857058,5.28925165 C0.888363851,5.28925165 0.967119512,5.3362653 1.06792676,5.32529545 C1.11675527,5.32529545 1.16243355,5.37074198 1.18448513,5.41618851 C1.24118921,5.43812822 1.29001772,5.41618851 1.35774759,5.42715836 C1.42547746,5.39268168 1.44752904,5.34880227 1.53101004,5.32529545 L1.56408742,5.25477497 C1.57511321,5.22656678 1.62079149,5.22656678 1.66489466,5.20305995 C1.73734987,5.20305995 1.83815712,5.21559692 1.89958653,5.14507644 C2.10592636,5.07769021 2.3012404,5.14507644 2.52018114,5.16858327 C2.60838748,5.13410659 2.71549518,5.07769021 2.8257531,5.08866006 L2.88875763,5.05418338 C2.9328608,4.95545471 3.02106714,4.84262194 2.99901555,4.69844674 L3.06674542,4.63889611 C3.10612325,4.63889611 3.10612325,4.5871811 3.15022642,4.55427154 L3.1833038,4.55427154 L3.20535538,4.53389896 C3.21638118,4.28629372 3.21638118,4.01674877 3.22740697,3.75033807 C3.28883639,3.72839837 3.23843276,3.67198198 3.27781059,3.61399848 C3.33451467,3.61399848 3.33451467,3.53877663 3.39909431,3.52623966 C3.56133097,3.54974648 3.76924591,3.45885342 3.90785588,3.6014615 L4.18192558,3.6014615 L4.21342784,3.54974648 C4.22602875,3.4713904 4.21342784,3.40086992 4.24808033,3.30370837 L4.31108486,3.25669471 L4.33156133,3.18930848 C4.34984003,3.15425771 4.37698378,3.12455107 4.41031699,3.10311678 C4.43236858,3.05610313 4.45442016,2.98714977 4.49379799,2.9244649 C4.55050207,2.91192792 4.52687537,2.84297457 4.57255365,2.79909516 C4.62768261,2.78655818 4.63870841,2.73484316 4.70171294,2.71133634 C4.78991928,2.71133634 4.84662335,2.79752804 4.96318173,2.82103486 C5.0072849,2.83200471 5.02933648,2.89939095 5.10179169,2.91192792 L5.13486907,2.91192792 L5.2577279,2.9464046 C5.32931086,2.94750654 5.40010089,2.93137734 5.46406773,2.89939095 C5.50344556,2.88998822 5.49241977,2.79752804 5.53652294,2.76931984 C5.52549715,2.67842678 5.51447135,2.54522143 5.58062611,2.45276125 C5.59322701,2.42925442 5.6751329,2.44179139 5.6751329,2.38537501 C5.70978539,2.37283804 5.76491435,2.38537501 5.80901752,2.37283804 C5.8657216,2.35716682 5.90509943,2.34462984 5.93975192,2.29918331 L5.95077771,2.26313951 C5.98227998,2.23022996 5.98227998,2.19418615 6.02795826,2.15970948 C6.19019492,2.12053143 6.38550896,2.0390411 6.54774562,2.10956158 C6.60287458,2.23022996 6.53514471,2.40731472 6.59184879,2.55619128 C6.63595196,2.5859666 6.67532979,2.61887615 6.70998228,2.67842678 C6.75251034,2.68939663 6.78716283,2.72230619 6.80921441,2.78655818 C6.84229179,2.81006501 6.88166962,2.83357184 6.9509746,2.85551154 C6.98247687,2.86804852 7.00610356,2.83200471 7.04863162,2.84297457 C7.10061036,2.86804852 7.11163615,2.93700187 7.1777909,2.9464046 C7.1888167,2.97147855 7.1888167,3.02162645 7.22346919,3.04513328 C7.23449498,3.13602634 7.22346919,3.25669471 7.25654656,3.35855763 L7.29592439,3.38363158 C7.37310494,3.4933301 7.31640087,3.64847516 7.38413073,3.77541202 C7.35262847,3.87100645 7.34002756,3.98697346 7.24552077,4.07316516 C7.23247788,4.16710512 7.23621045,4.2625986 7.25654656,4.35524707 C7.33907331,4.41015769 7.43606123,4.43959709 7.5353416,4.43987165 L7.59047057,4.4868853 C7.73223075,4.52136198 7.8928923,4.53389896 8.00472534,4.62949338 L8.07718055,4.62949338 C8.17798779,4.65300021 8.23469187,4.75643025 8.35125025,4.80187678 C8.35125025,4.84262194 8.37330183,4.89903833 8.38275251,4.94605198 C8.45205749,4.95702183 8.45205749,5.0557505 8.5245127,5.08866006 L8.55759008,5.08866006 C8.58909234,5.10119704 8.63634574,5.10119704 8.65682221,5.13567371 C8.69620004,5.1920901 8.68517425,5.30178862 8.69620004,5.38327895 L8.76392991,5.4804405 C8.75290411,5.52588703 8.80803308,5.54939386 8.7985824,5.61834722 C8.81905887,5.64185405 8.83008466,5.68103209 8.86946249,5.71550877 L8.86946249,5.78446213 C8.86946249,5.81893881 8.91514078,5.81893881 8.92616657,5.8831908 C8.95924395,5.89416065 8.99232132,5.93020445 9.0490254,5.95057703 C9.11045481,5.93960718 9.11045481,5.99759069 9.17660957,6.00856054 C9.33884623,6.00856054 9.4900571,6.04303722 9.6570191,6.08378238 L9.71844851,6.13079604 C9.9909431,6.11825906 10.2319354,6.17467545 10.5107305,6.17467545 C10.5564087,6.18721242 10.5674345,6.23265895 10.6335893,6.2436288 L10.7721993,6.2436288 C10.8194526,6.28437397 10.8682812,6.30631368 10.9139594,6.34235748 C10.9139594,6.37683415 10.936011,6.39877386 10.9454617,6.44578751 C11.0352432,6.48496556 11.1187242,6.44578751 11.2195314,6.50847238 C11.241583,6.57742574 11.325064,6.61190242 11.3707423,6.68555714 C11.5093522,6.70906397 11.6322111,6.68555714 11.7834219,6.69809412 C11.8275251,6.70906397 11.8385509,6.7545105 11.9125812,6.76548035 C12.0330049,6.72982605 12.1446021,6.66950637 12.2402048,6.58839559 C12.2795826,6.58839559 12.3032093,6.57585862 12.3473125,6.56488877 L12.3914156,6.50690526 C12.4481197,6.49593541 12.4985233,6.48496556 12.5646781,6.46772722 L12.6213822,6.40974371 C12.7946446,6.35332733 12.9789329,6.34079035 13.1411695,6.29534382 C13.2293759,6.29534382 13.3459342,6.29534382 13.4467415,6.271837 C13.6420555,6.28437397 13.7475881,6.271837 13.8877732,6.2436288 C13.9224257,6.22012198 13.9318764,6.17310832 13.9555031,6.11825906 C14.0072687,6.05654972 14.0653341,6.00035444 14.1287655,5.95057703 C14.1618429,5.95057703 14.1838945,5.95057703 14.2295728,5.93804006 C14.2673755,5.9051305 14.2673755,5.84087851 14.302028,5.7969991 C14.3373996,5.78675179 14.3659413,5.76067305 14.3792085,5.72647862 L14.3792085,5.69043482 L14.3240795,5.62774995 C14.2894271,5.56036371 14.2169718,5.49141036 14.1823194,5.38327895 C14.1949203,5.28925165 14.1823194,5.20305995 14.1949203,5.10119704 C14.2295728,5.08866006 14.2673755,5.08866006 14.2784013,5.02597519 C14.3130538,5.00403549 14.3461311,4.97896154 14.4122859,4.95702183 C14.6186257,4.92254515 14.8155149,5.0557505 15.0328805,4.99149851 C15.0832841,4.99149851 15.0943099,4.95702183 15.1384131,4.93508213 L15.1604647,4.89903833 L15.2281945,4.86456165 C15.3006497,4.80187678 15.3573538,4.75486312 15.4329592,4.66397006 C15.4959638,4.64046324 15.5416421,4.64046324 15.6077968,4.61225504 L15.6519,4.56524139 C15.7133294,4.56524139 15.7700335,4.53389896 15.8251624,4.49785515 C15.8361882,4.41009634 15.8865918,4.35367995 15.8865918,4.25024992 L15.8976176,4.22831021 C15.9188227,4.19718457 15.9507681,4.17488046 15.9873991,4.16562534 L16.0929317,4.16562534 C16.1827131,4.11861169 16.2268163,4.01518165 16.333924,3.9399598 L16.5071865,3.9399598 L16.5859421,3.88354342 C16.6914747,3.88354342 16.8017326,3.84906674 16.932467,3.86003659 L16.9765702,3.81302294 C16.9765702,3.76287505 16.9419177,3.75033807 16.918291,3.70332442 C16.8741878,3.70332442 16.8741878,3.65944501 16.8363851,3.62496833 C16.779681,3.61243136 16.7466037,3.54974648 16.7009254,3.49176298 L16.6300453,3.45885342 L16.5953928,3.38363158 C16.5512896,3.36012475 16.472534,3.37266172 16.4221303,3.41183977 L16.3780272,3.48236025 C16.3118724,3.48236025 16.2882457,3.53877663 16.2268163,3.57325331 C16.1921638,3.56071634 16.1496358,3.57325331 16.1039575,3.53877663 L16.0425281,3.49176298 L15.9086434,3.49176298 L15.8141366,3.56071634 C15.7601372,3.58692231 15.7009518,3.60084061 15.6408742,3.6014615 L15.5731443,3.54974648 L15.5510927,3.52623966 C15.5400669,3.49176298 15.5069896,3.48236025 15.4959638,3.42437674 C15.4959638,3.30370837 15.5290411,3.15953316 15.5510927,3.0325963 L15.5857452,2.99968674 C15.596771,2.88998822 15.6408742,2.82103486 15.6692262,2.71290346 L15.7038787,2.68939663 C15.7149045,2.57342962 15.7920851,2.49820778 15.8361882,2.39634486 L15.8661154,2.37283804 C15.9984249,2.35716682 16.1275842,2.37283804 16.2772199,2.37283804 C16.3118724,2.35716682 16.3559756,2.35716682 16.3796023,2.32112302 C16.4347312,2.23963269 16.5182122,2.17224645 16.5969679,2.08605475 C16.6410711,1.99359457 16.6190195,1.90740287 16.6410711,1.80397283 C16.6914747,1.73031811 16.7135263,1.61591822 16.7686552,1.51718955 L16.8033077,1.49368272 C16.8363851,1.4701759 16.8363851,1.41219239 16.8363851,1.35577601 C16.848986,1.34323903 16.8993896,1.29309114 16.9198661,1.26958431 L16.9545186,1.20063095 C16.932467,1.1316776 16.9655444,1.06899273 16.9434928,0.987502393 L16.9198661,0.965562688 C16.8647372,0.965562688 16.8143335,0.953025714 16.7466037,0.953025714 L16.6694231,0.854297043 L16.6694231,0.788477929 C16.7025005,0.752434128 16.7245521,0.702286231 16.7576295,0.6568397 L16.8474109,0.644302726 C16.8867887,0.644302726 16.9104154,0.622363021 16.9419177,0.587886342 C16.9529435,0.564379516 16.9529435,0.518932984 16.987596,0.489157671 L17.0537507,0.478187818 L17.0695019,0.443711139 L17.0931286,0.420204313 C17.158705,0.396406402 17.228098,0.384722542 17.2978933,0.385727634 C17.3545974,0.385727634 17.3656232,0.327744129 17.4317779,0.316774276 C17.4837566,0.316774276 17.5058082,0.277596232 17.571963,0.265059258 C17.6286671,0.265059258 17.7121481,0.277596232 17.7767277,0.243119553 C17.8444576,0.277596232 17.9074621,0.254089405 17.9846426,0.265059258 C18.0650267,0.283383126 18.1396639,0.321050504 18.2020083,0.374757782 C18.2366608,0.374757782 18.2650128,0.351250955 18.2965151,0.316774276 C18.3532191,0.286998963 18.3973223,0.316774276 18.4697775,0.299535937 C18.4918291,0.351250955 18.5705848,0.340281103 18.6036621,0.385727634 C18.6272888,0.396697486 18.6272888,0.467217966 18.6666667,0.489157671 C18.7217956,0.540872689 18.7438472,0.609826047 18.8320536,0.666242431 C18.8430793,0.713256084 18.8320536,0.775940954 18.8824572,0.810417633 L18.9171097,0.83392446 C18.950187,0.855864165 18.9391613,0.943622984 18.9832644,0.978099662 C19.0445792,1.01393939 19.0871404,1.07459616 19.0998228,1.14421457 C19.1234495,1.19122822 19.1565269,1.23667475 19.1896043,1.28212129 C19.2242567,1.28212129 19.2463083,1.30562811 19.296712,1.31503084 C19.3077377,1.34323903 19.3077377,1.40278966 19.3518409,1.41375951 C19.3628667,1.5062197 19.3959441,1.59084427 19.4195708,1.69584143 C19.4416224,1.69584143 19.4699744,1.74128796 19.4810002,1.78046601 L19.5361292,1.83844951 C19.6763142,1.88546317 19.8606025,1.86195634 20.0165387,1.87449331 C20.076393,1.91837272 20.1346722,1.94187955 20.1898011,1.99516169 C20.2339043,1.99516169 20.3063595,1.98262472 20.3630636,2.01710139 C20.396141,2.06411505 20.4418193,2.12053143 20.5142745,2.15970948 C20.5253003,2.19418615 20.536326,2.21769298 20.5804292,2.24119981 C20.6024808,2.27567649 20.6150817,2.31015317 20.6355582,2.37283804 L20.646584,2.44179139 L20.6859618,2.45276125 C20.7316401,2.46529822 20.7757433,2.5217146 20.8198464,2.55619128 C20.9364048,2.55619128 21.0261863,2.4997749 21.1553455,2.46529822 C21.2104745,2.41828457 21.2104745,2.34462984 21.2939555,2.32112302 C21.2939555,2.27567649 21.3506596,2.25373678 21.3396338,2.1832163 C21.383737,2.12053143 21.4388659,2.10956158 21.523922,2.08605475 C21.579051,2.00613154 21.6845836,1.94187955 21.7633392,1.87449331 L21.829494,1.87449331 L21.8924985,1.82747966 L21.9240008,1.82747966 L21.9917307,1.88703029 C22.0027564,1.91993985 22.0027564,1.94344667 21.9917307,1.99516169 C21.9601775,2.02291795 21.9367718,2.05866069 21.9240008,2.09859173 C21.9240008,2.1612766 21.9460524,2.20829025 21.9240008,2.27567649 C21.9734486,2.36224577 21.9781355,2.46716601 21.9366017,2.55775841 L21.9019492,2.5859666 C21.8184682,2.92603202 21.9019492,3.31624534 21.857846,3.68295183 C21.8420949,3.71742851 21.829494,3.78638187 21.7948415,3.82712704 C21.7633392,3.83966401 21.7507383,3.86160372 21.7286867,3.91958722 C21.5900768,3.90705025 21.4498917,3.8960804 21.3160071,3.96660087 L21.3049813,4.0402556 C21.2703288,4.08570213 21.1868478,4.09667198 21.1537704,4.16562534 C21.1537704,4.20010202 21.1868478,4.26435401 21.1868478,4.30823342 C21.2104745,4.40226073 21.3049813,4.4649456 21.3049813,4.59031534 C21.3963379,4.71255084 21.3632605,4.8896356 21.4073637,5.05731763 C21.3632605,5.10276416 21.328608,5.17171751 21.273479,5.22970102 C21.245127,5.32842969 21.273479,5.41775563 21.2120496,5.5164843 L21.189998,5.53999113 C21.1569207,5.5525281 21.133294,5.5525281 21.0891908,5.53999113 L21.0671392,5.47103777 C21.0364264,5.44800639 20.9998948,5.43390186 20.9616066,5.43029261 C20.9049025,5.49297748 20.882851,5.58700478 20.8214215,5.68416633 C20.7426659,5.76252242 20.6481591,5.84401275 20.5694034,5.95371128 C20.5694034,6.00072493 20.6040559,6.01169478 20.6261075,6.05714131 C20.6261075,6.11982618 20.591455,6.13236316 20.5709785,6.19034666 L20.5032487,6.2357932 C20.341012,6.27497124 20.1898011,6.2357932 20.0181138,6.20131652 C19.9834613,6.21228637 19.9393581,6.21228637 19.9173066,6.24676305 C19.8936799,6.28750821 19.8716283,6.32198489 19.8432762,6.39093825 L19.8432762,6.42541493 L19.7881473,6.4880998 C19.7771215,6.52257648 19.7440441,6.53511345 19.7330183,6.59152984 L19.7330183,6.62600652 C19.7330183,6.70122836 19.6385115,6.72316807 19.6259106,6.8046584 L19.603859,6.87361176 C19.5030518,6.92532677 19.5361292,6.99428013 19.5030518,7.03972666 C19.4354826,7.07235904 19.3818556,7.1279371 19.3518409,7.19643884 L19.3518409,7.23091552 C19.2231137,7.34502558 19.0546972,7.40462818 18.8824572,7.39703043 C18.8320536,7.42053725 18.7879504,7.42993998 18.7438472,7.48949061 C18.7438472,7.52866865 18.7217956,7.55217548 18.7091947,7.59762201 C18.6871431,7.63209869 18.6776925,7.65560552 18.6257137,7.70105205 C18.6257137,7.74023009 18.6036621,7.76373692 18.5926363,7.81075057 L18.5249065,7.87813681 C18.5138807,7.90164364 18.5138807,7.95335865 18.4808033,7.97686548 L18.4430006,7.97686548 C18.4193739,8.00037231 18.4083481,8.03484899 18.3752707,8.06932566 C18.2854893,8.09126537 18.2366608,8.15395024 18.1358535,8.15395024 C18.1232526,8.10223522 18.0901752,8.09126537 18.0681236,8.02231201 C18.0906395,7.99019781 18.102231,7.9517556 18.101201,7.91261349 L18.1468793,7.86716696 C18.2366608,7.70105205 18.1248277,7.48949061 18.1909825,7.30300312 L18.2461114,7.26382508 C18.2854893,7.24031825 18.2744635,7.16196216 18.3185666,7.12591836 C18.3182264,7.06554063 18.307574,7.00565964 18.2870644,6.9488336 C18.2240599,6.93786375 18.2130341,6.99428013 18.1453042,7.00681711 C18.1138019,7.00681711 18.0901752,7.01778696 18.0397716,7.02875681 C17.9830675,7.07577046 17.9736169,7.13845533 17.9405395,7.20584157 C17.9295137,7.24188537 17.8948612,7.25285522 17.8617838,7.30457024 C17.8617838,7.33904692 17.8334318,7.36255375 17.822406,7.4095674 C17.7562512,7.44247696 17.6885214,7.48792349 17.5829888,7.53023578 C17.5107287,7.61680252 17.4488801,7.71147141 17.3987005,7.81231769 C17.4097263,7.8561971 17.364048,7.8561971 17.3766489,7.91418061 C17.3325458,7.95492578 17.2868675,7.98940245 17.2364639,8.04738596 C17.1923607,8.04738596 17.1703091,8.08029552 17.1025792,8.09126537 C17.0695019,8.09126537 17.0411498,8.08029552 16.9954715,8.06932566 C16.9639693,8.06932566 16.9167159,8.08029552 16.8962394,8.10380234 C16.83481,8.13201054 16.8962394,8.18999404 16.8741878,8.24641042 C16.8962394,8.31536378 16.9419177,8.35610895 16.9844458,8.41409245 C17.0521756,8.43603216 17.1482575,8.41409245 17.2254381,8.42506231 C17.3258022,8.44685434 17.4138311,8.50636539 17.4711557,8.59117721 L17.4711557,8.75885924 L17.4097263,8.79333592 L17.4443788,8.86228928 C17.4837566,8.86228928 17.5042331,8.88579611 17.5499114,8.88579611 C17.6160662,8.8278126 17.6995472,8.76042636 17.7452254,8.66169769 L17.8113802,8.64916072 C17.905887,8.5472978 18.0523725,8.42662943 18.225635,8.43759928 L18.2980902,8.52849234 C18.3532191,8.52849234 18.3988974,8.55826766 18.4713526,8.59117721 L18.5060051,8.56923751 C18.559559,8.56923751 18.5942115,8.62722101 18.6792676,8.62722101 C18.7107698,8.61468404 18.7343965,8.62722101 18.7784997,8.61468404 C18.8226029,8.61468404 18.8352038,8.64916072 18.8840323,8.67266755 L18.907659,8.74632227 C18.8054437,8.87490856 18.6757841,8.97928759 18.5280567,9.05191101 L18.5154558,9.08638769 C18.4823784,9.12086437 18.3988974,9.09892467 18.3421933,9.13340135 L18.3201418,9.16160954 C18.2980902,9.20705607 18.309116,9.28697928 18.2650128,9.33399293 L18.225635,9.35906688 C18.1991023,9.40277203 18.1769445,9.44896229 18.1594802,9.4969736 C18.0681236,9.57219544 17.9641662,9.63017895 17.9074621,9.77278703 C17.8728096,9.80726371 17.822406,9.81980068 17.8129553,9.88875404 C17.7783028,9.89972389 17.767277,9.94517042 17.7341996,9.99688544 C17.7341996,10.0658388 17.8003544,10.0548689 17.822406,10.1128525 C17.8728096,10.158299 17.9641662,10.1347922 18.0287458,10.1473291 C18.0791494,10.210014 18.1468793,10.1692688 18.1799567,10.2444907 L18.2461114,10.2789674 C18.2854893,10.313444 18.2744635,10.3996357 18.2854893,10.4560521 L18.3642449,10.5485123 C18.3752707,10.7146272 18.4540264,10.8697723 18.4319748,11.0484241 L18.4430006,11.0829008 C18.4918291,11.1408843 18.5816106,11.1408843 18.6383146,11.239613 C18.6836316,11.3046605 18.7191824,11.3759293 18.7438472,11.4511744 L18.8115771,11.5201278 C18.8336287,11.5765442 18.8840323,11.651766 18.8840323,11.7316892 C18.9244956,11.7903523 18.9778135,11.8391131 19.0399685,11.8742973 L19.0793463,11.9557877 C19.0399685,12.0310095 18.950187,12.0654862 18.8840323,12.1328724 C18.8446545,12.1454094 18.8336287,12.1798861 18.7784997,12.192423 L18.6776925,12.192423 L18.6383146,12.2551079 L18.6650916,12.2786147 C18.7328214,12.3005544 18.8226029,12.2660778 18.9060839,12.2786147 C18.9644324,12.3558182 19.0385018,12.4198997 19.1234495,12.4666693 C19.1455011,12.6045761 19.1911794,12.7362143 19.1801536,12.8929265 L19.1455011,12.9947894 C19.0903721,13.0825482 19.1455011,13.2079179 19.1455011,13.3176165 L19.1234495,13.3520931 C19.0903721,13.3756 19.0399685,13.3959726 18.9848395,13.4210465 C18.9391613,13.4743286 18.9281355,13.5526847 18.8604056,13.6091011 C18.8446545,13.7313366 18.7784997,13.8222297 18.7343965,13.9319282 C18.7343965,14.0008816 18.6871431,14.0228213 18.6776925,14.1105801 C18.6776925,14.1560266 18.6383146,14.1795334 18.6272888,14.2469197 C18.6272888,14.2829635 18.6272888,14.3456483 18.6036621,14.3910949 C18.5816106,14.4036319 18.5375074,14.4036319 18.5138807,14.4381085 C18.5138807,14.4600482 18.5138807,14.5227331 18.4713526,14.533703 C18.4430006,14.6261631 18.4823784,14.7123548 18.4823784,14.8157849 C18.4540264,14.8847382 18.4099232,14.9364533 18.3878716,15.0289134 L18.3642449,15.0524203 L18.3311676,15.0633901 L18.309116,15.0853298 C18.2870644,15.126075 18.309116,15.1480147 18.2870644,15.1950283 L18.225635,15.242042 C18.1689309,15.2765187 18.1689309,15.3956199 18.1138019,15.4426336 L18.0523725,15.4896472 C17.9972436,15.5115869 17.9531404,15.4896472 17.8854105,15.5006171 L17.8350069,15.563302 C17.8129553,15.5977786 17.8350069,15.654195 17.8350069,15.6996416 L17.7783028,15.7403867 C17.6995472,15.7874004 17.6790707,15.8908304 17.5829888,15.9644851 C17.5499114,15.9644851 17.5278598,15.987992 17.4837566,15.9989618 L17.4554046,16.0224686 C17.4443788,16.0694823 17.5152589,16.0459755 17.5278598,16.103959 L17.5058082,16.1258987 L17.3987005,16.1258987 C17.3766489,16.1995534 17.2774168,16.1995534 17.2364639,16.2685068 C17.2364639,16.3672354 17.1577082,16.4252189 17.0915535,16.4706655 L17.0537507,16.4706655 C16.9749951,16.567827 16.8363851,16.6023037 16.7009254,16.592901 L16.6064186,16.6712571 C16.5402638,16.683794 16.4835598,16.6493173 16.4016539,16.696331 L16.3670014,16.7292406 C16.2772199,16.7527474 16.2047647,16.8624459 16.0929317,16.8953555 L16.055129,16.8734158 C16.0094507,16.8859527 15.9873991,16.9204294 15.9196692,16.9313993 L15.888167,16.9188623 C15.8755661,16.8843856 15.888167,16.8608788 15.8755661,16.8154323 L15.8141366,16.7919254 C15.7920851,16.8044624 15.7920851,16.8499089 15.7700335,16.8859527 L15.7133294,16.9298321 L15.6077968,16.9298321 C15.5522569,16.9366479 15.502919,16.9684104 15.4739122,17.0160238 C15.4739122,17.0630375 15.4345344,17.0630375 15.4235086,17.121021 C15.3447529,17.1837059 15.2187438,17.1554977 15.1163615,17.1837059 L15.0848592,17.2401223 C15.0528871,17.2621187 15.0150451,17.274123 14.9761764,17.2745989 C14.9100217,17.2871359 14.8753692,17.3560893 14.802914,17.3952673 C14.7375644,17.388462 14.6715288,17.3927008 14.6075999,17.4078043 L14.5760977,17.442281 C14.5398701,17.4548179 14.5288443,17.4892946 14.4737153,17.4986973 C14.4343375,17.4986973 14.4122859,17.5112343 14.3681827,17.5237713 L14.3319551,17.5864562 L14.3681827,17.6083959 C14.3886592,17.6428725 14.4122859,17.6789163 14.4343375,17.7463026 C14.4343375,17.8089875 14.3776334,17.8560011 14.3776334,17.9249545 C14.3666076,17.9594311 14.2894271,17.9468942 14.2673755,18.0001763 L14.2673755,18.0315187 C14.399685,18.0926365 14.5304194,18.0315187 14.6800551,18.0816666 L14.7241583,18.138083 C14.7241583,18.1725597 14.7241583,18.2352446 14.7021067,18.2806911 L14.6296515,18.3041979 C14.5855483,18.3386746 14.5508958,18.3966581 14.4957669,18.459343 C14.4847411,18.5408333 14.5304194,18.6599346 14.4737153,18.7414249 L14.4012601,18.7759016 L14.3681827,18.8495563 C14.3104374,18.8926778 14.2427413,18.9206965 14.1712936,18.9310466 C14.1602678,18.9764932 14.0925379,18.9655233 14.0720614,19 L13.8373696,19 L13.8357944,18.9984329 Z" id="Shape-Copy-3" fill="#84859D" fill-rule="nonzero"></path>
    </g>
</svg>