<?xml version="1.0" encoding="UTF-8"?>
<svg width="22px" height="19px" viewBox="0 0 22 19" version="1.1" xmlns="http://www.w3.org/2000/svg" xmlns:xlink="http://www.w3.org/1999/xlink">
    <!-- Generator: Sketch 51.2 (57519) - http://www.bohemiancoding.com/sketch -->
    <title>中国地图选中--已选组件列表</title>
    <desc>Created with Sketch.</desc>
    <defs></defs>
    <g id="中国地图选中--已选组件列表" stroke="none" stroke-width="1" fill="none" fill-rule="evenodd">
        <path d="M19.1124237,16.6744089 C19.0399685,16.6648843 19.1013979,16.5601136 19.005316,16.5236026 L19.005316,16.4823294 L18.9848395,16.4601053 C18.950187,16.4362938 18.9060839,16.4474058 18.8604056,16.4251817 C18.8604056,16.3902582 18.8336287,16.3680341 18.8226029,16.3204111 C18.7784997,16.3204111 18.7879504,16.2680257 18.7674739,16.2331022 L18.6776925,16.141031 C18.6887183,16.0648342 18.7438472,15.9711755 18.7328214,15.8838667 C18.7217956,15.8489431 18.7217956,15.8029075 18.6887183,15.779096 C18.7066726,15.6265718 18.7560293,15.4795062 18.8336287,15.3473139 C18.8336287,15.3012783 18.8226029,15.2266689 18.8619807,15.1695213 L18.9297106,15.1330103 C18.9517622,15.1091988 18.9517622,15.044114 18.9612128,14.9885538 C18.9848395,14.9298187 19.0809214,14.9187067 19.1013979,14.8298103 C19.1470762,14.8186983 19.1911794,14.8075863 19.2258319,14.7599632 C19.2636346,14.7599632 19.3203386,14.7250397 19.3644418,14.7250397 C19.3975192,14.7599632 19.408545,14.8075863 19.4825753,14.8186983 C19.5581807,15.1091988 19.4825753,15.464784 19.4699744,15.790208 C19.3864934,15.9346646 19.4416224,16.1394436 19.3203386,16.2791378 C19.2856862,16.3553346 19.3077377,16.4474058 19.296712,16.5347147 C19.2856862,16.5934497 19.2746604,16.6394853 19.213231,16.6648843 C19.1801536,16.6521848 19.1565269,16.6871084 19.1124237,16.6744089 Z M13.8357944,18.9984126 C13.815318,18.9746011 13.760189,18.9619016 13.7050601,18.9396775 L13.6814334,18.9047539 C13.6420555,18.8936419 13.5869266,18.9047539 13.5428234,18.8698304 L13.5081709,18.8333194 C13.4971451,18.7936336 13.5081709,18.747598 13.4750935,18.7015624 L13.4467415,18.6777509 C13.4467415,18.6063163 13.4136641,18.5444064 13.4246899,18.4618598 C13.4357157,18.4269363 13.4971451,18.4047122 13.4861193,18.3396274 C13.5853514,18.2570808 13.690884,18.1602473 13.8263438,18.0777007 C13.9098248,18.0777007 13.9555031,18.0554766 14.0326836,18.0189657 C14.0830872,18.0189657 14.0830872,18.0554766 14.1382162,18.0665887 L14.2059461,18.0554766 L14.2390234,17.9951541 L14.2169718,17.9665803 C14.1838945,17.9554683 14.1287655,17.9443563 14.0830872,17.9205447 C14.0563103,17.8856212 14.010632,17.8618097 13.9885804,17.8157741 C13.9885804,17.7395772 13.9318764,17.6935416 13.9224257,17.6014705 L13.8877732,17.5649595 C13.8767474,17.5236862 13.8767474,17.4665386 13.8657216,17.4220904 L13.8499705,17.3966915 C13.7932664,17.3855794 13.7491632,17.3855794 13.6814334,17.3728799 C13.6546564,17.3443061 13.6089781,17.3331941 13.5869266,17.2855711 C13.5088018,17.2617535 13.4275525,17.2499792 13.3459342,17.2506475 C13.2687537,17.2506475 13.2908053,17.3204946 13.2199252,17.3443061 C13.1506202,17.3617679 13.0939161,17.3617679 13.0120102,17.3617679 C12.9238039,17.3316067 12.8670998,17.2982705 12.7710179,17.2506475 C12.7284899,17.2506475 12.6544595,17.2617595 12.5977555,17.226836 C12.5536523,17.1569889 12.4764717,17.1046036 12.4150423,17.0236444 C12.3929907,17.0109449 12.3929907,16.9649093 12.3709392,16.912524 C12.3599134,16.8315649 12.4024414,16.7379063 12.381965,16.6394853 L12.3473125,16.6172613 C12.3158102,16.6172613 12.2528057,16.6283733 12.2087025,16.6283733 C12.0768489,16.5813249 11.950168,16.5206808 11.8306753,16.4474058 C11.8180744,16.5061409 11.7298681,16.5347147 11.7062414,16.6061492 C11.6747391,16.6505974 11.589683,16.6744089 11.5550305,16.7490183 C11.4983264,16.7966413 11.394369,16.7728298 11.3156133,16.7728298 C11.2809608,16.7855293 11.269935,16.8204528 11.2085056,16.8315649 C11.0478441,16.7728298 10.8682812,16.8315649 10.6950187,16.7617178 C10.657216,16.7617178 10.6131128,16.7744172 10.5894861,16.7982288 L10.5564087,16.8664884 C10.5107305,16.8664884 10.4382753,16.8664884 10.3831463,16.8553764 C10.3390431,16.8664884 10.282339,16.8553764 10.2429612,16.9029994 C10.2209096,17.06968 10.3154164,17.2728716 10.2098838,17.431615 C10.1547549,17.4189155 10.1437291,17.4760632 10.0759992,17.4887626 C10.0366214,17.4887626 10.0145698,17.4760632 9.97046663,17.4665386 C9.91376255,17.431615 9.93581414,17.3617679 9.85233314,17.3443061 C9.84130734,17.2855711 9.82083087,17.2395355 9.79720417,17.1696884 L9.77357748,17.1458768 C9.70584761,17.1458768 9.72947431,17.226836 9.6570191,17.2506475 C9.61291593,17.2506475 9.54518606,17.263347 9.48848198,17.226836 C9.46117705,17.1906538 9.4294204,17.1581153 9.39397519,17.1300025 C9.37192361,17.117303 9.37192361,17.0474559 9.33884623,17.0252318 C9.31679464,17.0125324 9.28371727,16.9998329 9.27269147,16.9426853 C9.24227848,16.9179677 9.20464057,16.904022 9.16558378,16.9029994 C9.14195708,16.8776005 9.11045481,16.8664884 9.07737744,16.8331523 C9.06005119,16.7982288 9.02697381,16.7855293 9.01437291,16.7220319 C9.01437291,16.6521848 9.02697381,16.5950372 9.02697381,16.5077283 C9.08682812,16.4823294 9.03799961,16.4251817 9.07737744,16.3680341 C9.0490254,16.3315231 9.00334712,16.3204111 8.94821815,16.2902498 C8.92459146,16.2331022 8.86946249,16.2108781 8.84111045,16.1283315 C8.84111045,16.0521347 8.83008466,15.9933996 8.83008466,15.9140279 L8.7985824,15.8378311 C8.69620004,15.779096 8.54656428,15.8505305 8.417405,15.8140196 L8.37172672,15.779096 C8.3431351,15.6258098 8.33624107,15.4692136 8.35125025,15.3139778 C8.36070093,15.2504804 8.43945659,15.260005 8.46150817,15.1917453 L8.46150817,15.1234857 C8.51191179,15.0647506 8.55601496,14.9552176 8.65682221,14.9202941 C8.69620004,14.8726711 8.74187832,14.8091737 8.80803308,14.7742501 C8.84111045,14.7520261 8.84111045,14.693291 8.84111045,14.6282062 C8.8746607,14.587241 8.89934059,14.539658 8.91356566,14.488512 C8.90411498,14.4139026 8.92459146,14.3551675 8.93561725,14.2742084 C8.97026974,14.1519759 8.93561725,14.1059403 8.93561725,14.0360932 L8.89151408,13.9725959 L8.81905887,13.9503718 C8.76020068,13.8238849 8.70608355,13.6952118 8.65682221,13.5646253 C8.62374483,13.5535132 8.60011813,13.5646253 8.55759008,13.5535132 C8.53396338,13.5884368 8.46308328,13.6646336 8.43945659,13.7217813 C8.37172672,13.7805163 8.25516834,13.7440053 8.16538689,13.7567048 C8.0362276,13.7090818 7.96062217,13.5995488 7.85351447,13.5297017 L7.71805474,13.5297017 L7.63457373,13.5884368 C7.58732034,13.5884368 7.56684387,13.6281227 7.50068911,13.6392347 L7.46131128,13.6392347 L7.39358141,13.6646336 C7.34947824,13.6979698 7.29434928,13.7440053 7.22031896,13.7805163 C7.16519,13.8678252 7.03603071,13.8551257 6.92577279,13.9011613 L6.9037212,13.9360849 C6.86434337,13.9487844 6.85331758,13.9837079 6.79661351,13.99482 L6.73045875,13.99482 C6.69580626,14.0075194 6.68478047,14.0487927 6.62335105,14.0583173 C6.48701765,14.0892883 6.34516937,14.0854688 6.21067139,14.0472053 L6.13191573,13.9598964 C6.10986415,13.9011613 6.13191573,13.8551257 6.12088994,13.7789289 C6.06616499,13.7133657 5.99996328,13.6584835 5.9255759,13.6170106 C5.90072743,13.5638043 5.85922111,13.5203001 5.80744241,13.4931907 L5.77594015,13.4249311 L5.70821028,13.3836578 L5.67355779,13.3153981 C5.61370348,13.2788871 5.51289624,13.2677751 5.42941524,13.245551 L5.36168537,13.1804662 L5.15692065,13.1804662 C5.10966726,13.2328515 5.03721205,13.2677751 5.00413467,13.3233353 C5.00413467,13.3836578 4.96948218,13.4249311 4.9474306,13.4947782 C4.9364048,13.5170023 4.89230163,13.5170023 4.84189801,13.5424012 C4.80882063,13.5424012 4.75211656,13.5170023 4.70801339,13.5058902 C4.62453239,13.413819 4.71903918,13.2328515 4.62453239,13.1217311 C4.56940343,13.1344306 4.52372514,13.1788788 4.45126994,13.1677667 C4.40716677,13.1566547 4.39614097,13.0868076 4.34101201,13.0645835 L4.16774956,13.0645835 L4.06064186,13.0058484 C3.95983461,12.9820369 3.83225044,12.9169521 3.72041741,12.894728 C3.67473912,12.894728 3.65741288,12.8582171 3.61488482,12.835993 C3.54715495,12.835993 3.45264816,12.835993 3.3738925,12.8010694 C3.35184091,12.7597961 3.32978933,12.7248726 3.30773774,12.6550255 C3.24473322,12.642326 3.20063005,12.6074025 3.13447529,12.5851784 C3.11084859,12.5550171 3.10139791,12.5454925 3.07934633,12.4978695 C3.07934633,12.4629459 3.07934633,12.4407219 3.0635952,12.3930988 C3.01791691,12.3708748 2.96278795,12.3597627 2.90608387,12.3296015 L2.86828116,12.2613418 L2.80055129,12.2232434 C2.76904903,12.1914947 2.7784997,12.1041858 2.76904903,12.0438633 L2.71076984,11.9867157 L2.63831463,11.9390927 C2.59421146,11.9105188 2.51703091,11.9105188 2.46505218,11.8644832 C2.33452247,11.609768 2.15642596,11.3828456 1.94053948,11.1961734 C1.90903721,11.1961734 1.8838354,11.1961734 1.83500689,11.2072855 C1.78932861,11.242209 1.76885214,11.2993567 1.70112227,11.3184059 C1.67907068,11.2882446 1.61764127,11.2882446 1.57196298,11.2549085 C1.51686723,11.145997 1.45201833,11.0423836 1.37822406,10.9453588 C1.34357157,10.8993233 1.33097066,10.8120144 1.28686749,10.7643913 C1.2125138,10.6866028 1.14406612,10.6032925 1.08210278,10.5151642 L1.00807246,10.5024647 C0.976570191,10.4627788 0.952943493,10.3929317 0.886788738,10.3691202 C0.836385115,10.1532292 0.886788738,9.9500376 0.8584367,9.72303451 C0.886788738,9.68811095 0.8584367,9.62302615 0.886788738,9.57857799 C0.930891908,9.55317905 0.952943493,9.51984293 1.02067336,9.49603141 L1.05217563,9.49603141 C1.09155346,9.53095497 1.10415436,9.57857799 1.17030912,9.59127747 L1.20496161,9.54206701 C1.20496161,9.33887543 1.15928332,9.1706074 1.13723174,9.01345142 C1.17030912,8.95471635 1.20496161,8.90868076 1.23803898,8.82772161 C1.14541116,8.65028076 1.09932428,8.45192308 1.10415436,8.251483 C1.10415436,8.16417412 1.00964757,8.251483 0.978145304,8.17528616 L0.908840323,8.17528616 C0.801732625,8.11813852 0.724552077,7.98796892 0.628470171,7.87843596 C0.573341209,7.86732392 0.562315416,7.83081293 0.494585548,7.80858885 L0.467808624,7.78477734 C0.412679661,7.61650932 0.467808624,7.42442978 0.412679661,7.24504971 C0.355975586,7.21965076 0.344949793,7.13392932 0.288245718,7.08630629 C0.217365623,7.05138274 0.182713133,7.00534715 0.103957472,6.94819952 C0.0929234241,6.90015326 0.0929234241,6.85020182 0.103957472,6.80215557 C0.149635755,6.75453254 0.217365623,6.7434205 0.300846623,6.70214721 L0.322898208,6.67992313 L0.322898208,6.53705406 C0.344949793,6.47355669 0.379602284,6.43863314 0.401653869,6.35608656 C0.401653869,6.321163 0.390628076,6.25766564 0.390628076,6.21163004 C0.378027171,6.17670649 0.378027171,6.12908347 0.344949793,6.10527195 C0.25989368,6.0655861 0.195314038,6.10527195 0.103957472,6.05288662 C0.0834810002,6.03066254 0.0661547549,5.98303952 0.0204764717,5.96081544 L0,5.88620603 L0.022051585,5.81794636 C0.0567040756,5.78143537 0.0945067927,5.7592113 0.129159283,5.70047623 C0.0988740293,5.60534201 0.102777329,5.50250039 0.140185076,5.40997577 C0.185863359,5.40997577 0.196889151,5.37505222 0.240992321,5.35124071 L0.252018114,5.31631715 C0.315022642,5.2813936 0.381177397,5.25281978 0.448907265,5.17186064 C0.543414058,5.13534965 0.622169718,5.15916117 0.727702304,5.14804913 L0.793857058,5.11153814 C0.888363851,5.11153814 0.967119512,5.15916117 1.06792676,5.14804913 C1.11675527,5.14804913 1.16243355,5.19408472 1.18448513,5.24012031 C1.24118921,5.26234439 1.29001772,5.24012031 1.35774759,5.25123235 C1.42547746,5.2163088 1.44752904,5.17186064 1.53101004,5.14804913 L1.56408742,5.07661459 C1.57511321,5.04804077 1.62079149,5.04804077 1.66489466,5.02422926 C1.73734987,5.02422926 1.83815712,5.03692873 1.89958653,4.96549419 C2.10592636,4.89723452 2.3012404,4.96549419 2.52018114,4.98930571 C2.60838748,4.95438215 2.71549518,4.89723452 2.8257531,4.90834656 L2.88875763,4.87342301 C2.9328608,4.77341465 3.02106714,4.65911939 2.99901555,4.51307544 L3.06674542,4.45275295 C3.10612325,4.45275295 3.10612325,4.40036762 3.15022642,4.3670315 L3.1833038,4.3670315 L3.20535538,4.34639485 C3.21638118,4.09558025 3.21638118,3.82254157 3.22740697,3.55267775 C3.28883639,3.53045367 3.23843276,3.47330604 3.27781059,3.41457098 C3.33451467,3.41457098 3.33451467,3.33837413 3.39909431,3.32567466 C3.56133097,3.34948617 3.76924591,3.25741499 3.90785588,3.4018715 L4.18192558,3.4018715 L4.21342784,3.34948617 C4.22602875,3.27011446 4.21342784,3.19867992 4.24808033,3.100259 L4.31108486,3.05263598 L4.33156133,2.98437631 C4.34984003,2.94887122 4.37698378,2.91877954 4.41031699,2.89706742 C4.43236858,2.8494444 4.45442016,2.77959729 4.49379799,2.71609992 C4.55050207,2.70340045 4.52687537,2.63355335 4.57255365,2.58910519 C4.62768261,2.57640571 4.63870841,2.52402039 4.70171294,2.50020887 C4.78991928,2.50020887 4.84662335,2.58751775 4.96318173,2.61132927 C5.0072849,2.62244131 5.02933648,2.69070098 5.10179169,2.70340045 L5.13486907,2.70340045 L5.2577279,2.738324 C5.32931086,2.73944023 5.40010089,2.72310196 5.46406773,2.69070098 C5.50344556,2.68117637 5.49241977,2.58751775 5.53652294,2.55894394 C5.52549715,2.46687275 5.51447135,2.33194085 5.58062611,2.23828223 C5.59322701,2.21447072 5.6751329,2.22717019 5.6751329,2.17002256 C5.70978539,2.15732308 5.76491435,2.17002256 5.80901752,2.15732308 C5.8657216,2.14144874 5.90509943,2.12874927 5.93975192,2.08271368 L5.95077771,2.04620269 C5.98227998,2.01286657 5.98227998,1.97635559 6.02795826,1.94143203 C6.19019492,1.90174618 6.38550896,1.8191996 6.54774562,1.89063414 C6.60287458,2.01286657 6.53514471,2.19224664 6.59184879,2.34305289 C6.63595196,2.37321414 6.67532979,2.40655025 6.70998228,2.46687275 C6.75251034,2.47798479 6.78716283,2.51132091 6.80921441,2.57640571 C6.84229179,2.60021723 6.88166962,2.62402874 6.9509746,2.64625282 C6.98247687,2.65895229 7.00610356,2.62244131 7.04863162,2.63355335 C7.10061036,2.65895229 7.11163615,2.7287994 7.1777909,2.738324 C7.1888167,2.76372295 7.1888167,2.81452085 7.22346919,2.83833236 C7.23449498,2.93040354 7.22346919,3.05263598 7.25654656,3.1558192 L7.29592439,3.18121815 C7.37310494,3.29233854 7.31640087,3.44949453 7.38413073,3.5780767 C7.35262847,3.67491018 7.34002756,3.79238032 7.24552077,3.8796892 C7.23247788,3.97484677 7.23621045,4.071578 7.25654656,4.16542735 C7.33907331,4.2210497 7.43606123,4.25087069 7.5353416,4.2511488 L7.59047057,4.29877183 C7.73223075,4.33369538 7.8928923,4.34639485 8.00472534,4.44322834 L8.07718055,4.44322834 C8.17798779,4.46703985 8.23469187,4.57181051 8.35125025,4.6178461 C8.35125025,4.65911939 8.37330183,4.71626702 8.38275251,4.76389005 C8.45205749,4.77500209 8.45205749,4.87501044 8.5245127,4.90834656 L8.55759008,4.90834656 C8.58909234,4.92104604 8.63634574,4.92104604 8.65682221,4.95596959 C8.69620004,5.01311722 8.68517425,5.12423761 8.69620004,5.20678419 L8.76392991,5.30520511 C8.75290411,5.35124071 8.80803308,5.37505222 8.7985824,5.44489932 C8.81905887,5.46871084 8.83008466,5.50839669 8.86946249,5.54332024 L8.86946249,5.61316735 C8.86946249,5.6480909 8.91514078,5.6480909 8.92616657,5.7131757 C8.95924395,5.72428774 8.99232132,5.76079873 9.0490254,5.78143537 C9.11045481,5.77032334 9.11045481,5.8290584 9.17660957,5.84017044 C9.33884623,5.84017044 9.4900571,5.87509399 9.6570191,5.91636728 L9.71844851,5.96399031 C9.9909431,5.95129083 10.2319354,6.00843847 10.5107305,6.00843847 C10.5564087,6.02113794 10.5674345,6.06717353 10.6335893,6.07828557 L10.7721993,6.07828557 C10.8194526,6.11955886 10.8682812,6.14178294 10.9139594,6.17829393 C10.9139594,6.21321748 10.936011,6.23544156 10.9454617,6.28306458 C11.0352432,6.32275044 11.1187242,6.28306458 11.2195314,6.34656195 C11.241583,6.41640906 11.325064,6.45133261 11.3707423,6.52594202 C11.5093522,6.54975353 11.6322111,6.52594202 11.7834219,6.53864149 C11.8275251,6.54975353 11.8385509,6.59578912 11.9125812,6.60690116 C12.0330049,6.57078472 12.1446021,6.5096832 12.2402048,6.4275211 C12.2795826,6.4275211 12.3032093,6.41482162 12.3473125,6.40370958 L12.3914156,6.34497452 C12.4481197,6.33386248 12.4985233,6.32275044 12.5646781,6.30528866 L12.6213822,6.2465536 C12.7946446,6.18940597 12.9789329,6.17670649 13.1411695,6.1306709 C13.2293759,6.1306709 13.3459342,6.1306709 13.4467415,6.10685939 C13.6420555,6.11955886 13.7475881,6.10685939 13.8877732,6.07828557 C13.9224257,6.05447406 13.9318764,6.00685103 13.9555031,5.95129083 C14.0072687,5.88878163 14.0653341,5.83185798 14.1287655,5.78143537 C14.1618429,5.78143537 14.1838945,5.78143537 14.2295728,5.7687359 C14.2673755,5.73539978 14.2673755,5.67031498 14.302028,5.62586682 C14.3373996,5.61548669 14.3659413,5.58906993 14.3792085,5.55443228 L14.3792085,5.5179213 L14.3240795,5.45442393 C14.2894271,5.38616426 14.2169718,5.31631715 14.1823194,5.20678419 C14.1949203,5.11153814 14.1823194,5.02422926 14.1949203,4.92104604 C14.2295728,4.90834656 14.2673755,4.90834656 14.2784013,4.84484919 C14.3130538,4.82262511 14.3461311,4.79722617 14.4122859,4.77500209 C14.6186257,4.74007854 14.8155149,4.87501044 15.0328805,4.80992564 C15.0832841,4.80992564 15.0943099,4.77500209 15.1384131,4.75277801 L15.1604647,4.71626702 L15.2281945,4.68134347 C15.3006497,4.6178461 15.3573538,4.57022308 15.4329592,4.47815189 C15.4959638,4.45434038 15.5416421,4.45434038 15.6077968,4.42576656 L15.6519,4.37814354 C15.7133294,4.37814354 15.7700335,4.34639485 15.8251624,4.30988387 C15.8361882,4.22098755 15.8865918,4.16383992 15.8865918,4.05906926 L15.8976176,4.03684518 C15.9188227,4.0053161 15.9507681,3.9827229 15.9873991,3.97334782 L16.0929317,3.97334782 C16.1827131,3.92572479 16.2268163,3.82095413 16.333924,3.74475729 L16.5071865,3.74475729 L16.5859421,3.68760966 C16.6914747,3.68760966 16.8017326,3.65268611 16.932467,3.66379815 L16.9765702,3.61617512 C16.9765702,3.56537722 16.9419177,3.55267775 16.918291,3.50505472 C16.8741878,3.50505472 16.8741878,3.46060657 16.8363851,3.42568301 C16.779681,3.41298354 16.7466037,3.34948617 16.7009254,3.29075111 L16.6300453,3.25741499 L16.5953928,3.18121815 C16.5512896,3.15740663 16.472534,3.17010611 16.4221303,3.20979196 L16.3780272,3.2812265 C16.3118724,3.2812265 16.2882457,3.33837413 16.2268163,3.37329769 C16.1921638,3.36059821 16.1496358,3.37329769 16.1039575,3.33837413 L16.0425281,3.29075111 L15.9086434,3.29075111 L15.8141366,3.36059821 C15.7601372,3.38714385 15.7009518,3.40124256 15.6408742,3.4018715 L15.5731443,3.34948617 L15.5510927,3.32567466 C15.5400669,3.29075111 15.5069896,3.2812265 15.4959638,3.22249144 C15.4959638,3.100259 15.5290411,2.95421506 15.5510927,2.82563288 L15.5857452,2.79229677 C15.596771,2.68117637 15.6408742,2.61132927 15.6692262,2.50179631 L15.7038787,2.47798479 C15.7149045,2.36051466 15.7920851,2.28431782 15.8361882,2.1811346 L15.8661154,2.15732308 C15.9984249,2.14144874 16.1275842,2.15732308 16.2772199,2.15732308 C16.3118724,2.14144874 16.3559756,2.14144874 16.3796023,2.10493776 C16.4347312,2.02239118 16.5182122,1.95413151 16.5969679,1.86682263 C16.6410711,1.77316401 16.6190195,1.68585513 16.6410711,1.58108447 C16.6914747,1.50647506 16.7135263,1.39059236 16.7686552,1.29058401 L16.8033077,1.2667725 C16.8363851,1.24296098 16.8363851,1.18422592 16.8363851,1.12707829 C16.848986,1.11437881 16.8993896,1.06358092 16.9198661,1.0397694 L16.9545186,0.969922299 C16.932467,0.900075194 16.9655444,0.836577826 16.9434928,0.754031247 L16.9198661,0.731807169 C16.8647372,0.731807169 16.8143335,0.719107695 16.7466037,0.719107695 L16.6694231,0.61909934 L16.6694231,0.552427103 C16.7025005,0.515916117 16.7245521,0.465118222 16.7576295,0.41908263 L16.8474109,0.406383156 C16.8867887,0.406383156 16.9104154,0.384159078 16.9419177,0.349235525 C16.9529435,0.325424012 16.9529435,0.27938842 16.987596,0.24922717 L17.0537507,0.238115131 L17.0695019,0.203191578 L17.0931286,0.179380065 C17.158705,0.155273695 17.228098,0.143438393 17.2978933,0.144456513 C17.3545974,0.144456513 17.3656232,0.0857214471 17.4317779,0.0746094076 C17.4837566,0.0746094076 17.5058082,0.0349235525 17.571963,0.0222240789 C17.6286671,0.0222240789 17.7121481,0.0349235525 17.7767277,0 C17.8444576,0.0349235525 17.9074621,0.0111120394 17.9846426,0.0222240789 C18.0650267,0.040785454 18.1396639,0.0789410628 18.2020083,0.133344473 C18.2366608,0.133344473 18.2650128,0.10953296 18.2965151,0.0746094076 C18.3532191,0.0444481577 18.3973223,0.0746094076 18.4697775,0.0571476314 C18.4918291,0.10953296 18.5705848,0.0984209207 18.6036621,0.144456513 C18.6272888,0.155568552 18.6272888,0.227003091 18.6666667,0.24922717 C18.7217956,0.301612499 18.7438472,0.371459604 18.8320536,0.428607235 C18.8430793,0.476230262 18.8320536,0.53972763 18.8824572,0.574651182 L18.9171097,0.598462695 C18.950187,0.620686774 18.9391613,0.70958309 18.9832644,0.744506642 C19.0445792,0.780810908 19.0871404,0.842253892 19.0998228,0.912774668 C19.1234495,0.960397694 19.1565269,1.00643329 19.1896043,1.05246888 C19.2242567,1.05246888 19.2463083,1.07628039 19.296712,1.085805 C19.3077377,1.11437881 19.3077377,1.17470131 19.3518409,1.18581335 C19.3628667,1.27947197 19.3959441,1.36519342 19.4195708,1.47155151 C19.4416224,1.47155151 19.4699744,1.5175871 19.4810002,1.55727296 L19.5361292,1.61600802 C19.6763142,1.66363105 19.8606025,1.63981953 20.0165387,1.65251901 C20.076393,1.69696717 20.1346722,1.72077868 20.1898011,1.77475144 C20.2339043,1.77475144 20.3063595,1.76205197 20.3630636,1.79697552 C20.396141,1.84459855 20.4418193,1.90174618 20.5142745,1.94143203 C20.5253003,1.97635559 20.536326,2.0001671 20.5804292,2.02397861 C20.6024808,2.05890216 20.6150817,2.09382572 20.6355582,2.15732308 L20.646584,2.22717019 L20.6859618,2.23828223 C20.7316401,2.2509817 20.7757433,2.30812933 20.8198464,2.34305289 C20.9364048,2.34305289 21.0261863,2.28590526 21.1553455,2.2509817 C21.2104745,2.20335868 21.2104745,2.12874927 21.2939555,2.10493776 C21.2939555,2.05890216 21.3506596,2.03667809 21.3396338,1.96524355 C21.383737,1.90174618 21.4388659,1.89063414 21.523922,1.86682263 C21.579051,1.78586348 21.6845836,1.72077868 21.7633392,1.65251901 L21.829494,1.65251901 L21.8924985,1.60489598 L21.9240008,1.60489598 L21.9917307,1.66521848 C22.0027564,1.6985546 22.0027564,1.72236611 21.9917307,1.77475144 C21.9601775,1.80286746 21.9367718,1.8390735 21.9240008,1.8795221 C21.9240008,1.94301947 21.9460524,1.99064249 21.9240008,2.05890216 C21.9734486,2.14659353 21.9781355,2.2528737 21.9366017,2.34464032 L21.9019492,2.37321414 C21.8184682,2.71768736 21.9019492,3.11295848 21.857846,3.48441808 C21.8420949,3.51934163 21.829494,3.58918874 21.7948415,3.63046203 C21.7633392,3.6431615 21.7507383,3.66538558 21.7286867,3.72412064 C21.5900768,3.71142117 21.4498917,3.70030913 21.3160071,3.77174367 L21.3049813,3.84635308 C21.2703288,3.89238867 21.1868478,3.90350071 21.1537704,3.97334782 C21.1537704,4.00827137 21.1868478,4.07335617 21.1868478,4.11780433 C21.2104745,4.21305038 21.3049813,4.27654775 21.3049813,4.40354248 C21.3963379,4.52736235 21.3632605,4.70674242 21.4073637,4.87659788 C21.3632605,4.92263347 21.328608,4.99248057 21.273479,5.05121564 C21.245127,5.151224 21.273479,5.24170775 21.2120496,5.3417161 L21.189998,5.36552761 C21.1569207,5.37822709 21.133294,5.37822709 21.0891908,5.36552761 L21.0671392,5.29568051 C21.0364264,5.2723506 20.9998948,5.25806325 20.9616066,5.25440722 C20.9049025,5.31790459 20.882851,5.41315064 20.8214215,5.51157156 C20.7426659,5.59094327 20.6481591,5.67348985 20.5694034,5.78461024 C20.5694034,5.83223327 20.6040559,5.84334531 20.6261075,5.8893809 C20.6261075,5.95287827 20.591455,5.96557774 20.5709785,6.02431281 L20.5032487,6.0703484 C20.341012,6.11003426 20.1898011,6.0703484 20.0181138,6.03542485 C19.9834613,6.04653689 19.9393581,6.04653689 19.9173066,6.08146044 C19.8936799,6.12273373 19.8716283,6.15765728 19.8432762,6.22750439 L19.8432762,6.26242794 L19.7881473,6.32592531 C19.7771215,6.36084886 19.7440441,6.37354833 19.7330183,6.43069596 L19.7330183,6.46561952 C19.7330183,6.54181636 19.6385115,6.56404044 19.6259106,6.64658702 L19.603859,6.71643412 C19.5030518,6.76881945 19.5361292,6.83866656 19.5030518,6.88470215 C19.4354826,6.91775749 19.3818556,6.97405593 19.3518409,7.04344557 L19.3518409,7.07836912 C19.2231137,7.19395824 19.0546972,7.25433338 18.8824572,7.24663715 C18.8320536,7.27044866 18.7879504,7.27997326 18.7438472,7.34029576 C18.7438472,7.37998162 18.7217956,7.40379313 18.7091947,7.44982872 C18.6871431,7.48475228 18.6776925,7.50856379 18.6257137,7.55459938 C18.6257137,7.59428524 18.6036621,7.61809675 18.5926363,7.66571978 L18.5249065,7.73397945 C18.5138807,7.75779096 18.5138807,7.81017629 18.4808033,7.8339878 L18.4430006,7.8339878 C18.4193739,7.85779931 18.4083481,7.89272287 18.3752707,7.92764642 C18.2854893,7.9498705 18.2366608,8.01336787 18.1358535,8.01336787 C18.1232526,7.96098254 18.0901752,7.9498705 18.0681236,7.88002339 C18.0906395,7.84749294 18.102231,7.80855246 18.101201,7.768903 L18.1468793,7.72286741 C18.2366608,7.55459938 18.1248277,7.34029576 18.1909825,7.15139109 L18.2461114,7.11170524 C18.2854893,7.08789373 18.2744635,7.00852202 18.3185666,6.97201103 C18.3182264,6.91085071 18.307574,6.85019356 18.2870644,6.79263096 C18.2240599,6.78151892 18.2130341,6.83866656 18.1453042,6.85136603 C18.1138019,6.85136603 18.0901752,6.86247807 18.0397716,6.87359011 C17.9830675,6.92121313 17.9736169,6.9847105 17.9405395,7.05297017 C17.9295137,7.08948116 17.8948612,7.1005932 17.8617838,7.15297853 C17.8617838,7.18790208 17.8334318,7.21171359 17.822406,7.25933662 C17.7562512,7.29267274 17.6885214,7.33870833 17.5829888,7.38156905 C17.5107287,7.46925784 17.4488801,7.5651538 17.3987005,7.66730721 C17.4097263,7.71175537 17.364048,7.71175537 17.3766489,7.77049043 C17.3325458,7.81176372 17.2868675,7.84668728 17.2364639,7.90542234 C17.1923607,7.90542234 17.1703091,7.93875846 17.1025792,7.9498705 C17.0695019,7.9498705 17.0411498,7.93875846 16.9954715,7.92764642 C16.9639693,7.92764642 16.9167159,7.93875846 16.8962394,7.96256997 C16.83481,7.99114379 16.8962394,8.04987885 16.8741878,8.10702649 C16.8962394,8.17687359 16.9419177,8.21814688 16.9844458,8.27688195 C17.0521756,8.29910602 17.1482575,8.27688195 17.2254381,8.28799398 C17.3258022,8.31006848 17.4138311,8.37035089 17.4711557,8.45626201 L17.4711557,8.62611747 L17.4097263,8.66104102 L17.4443788,8.73088813 C17.4837566,8.73088813 17.5042331,8.75469964 17.5499114,8.75469964 C17.6160662,8.69596458 17.6995472,8.6277049 17.7452254,8.52769655 L17.8113802,8.51499708 C17.905887,8.41181385 18.0523725,8.28958142 18.225635,8.30069346 L18.2980902,8.39276464 C18.3532191,8.39276464 18.3988974,8.42292589 18.4713526,8.45626201 L18.5060051,8.43403793 C18.559559,8.43403793 18.5942115,8.492773 18.6792676,8.492773 C18.7107698,8.48007352 18.7343965,8.492773 18.7784997,8.48007352 C18.8226029,8.48007352 18.8352038,8.51499708 18.8840323,8.53880859 L18.907659,8.613418 C18.8054437,8.74367098 18.6757841,8.84940292 18.5280567,8.92296767 L18.5154558,8.95789122 C18.4823784,8.99281477 18.3988974,8.97059069 18.3421933,9.00551425 L18.3201418,9.03408806 C18.2980902,9.08012365 18.309116,9.1610828 18.2650128,9.20870582 L18.225635,9.23410477 C18.1991023,9.27837641 18.1769445,9.32516537 18.1594802,9.37379898 C18.0681236,9.44999582 17.9641662,9.50873089 17.9074621,9.6531874 C17.8728096,9.68811095 17.822406,9.70081043 17.8129553,9.77065753 C17.7783028,9.78176957 17.767277,9.82780516 17.7341996,9.88019049 C17.7341996,9.9500376 17.8003544,9.93892556 17.822406,9.99766062 C17.8728096,10.0436962 17.9641662,10.0198847 18.0287458,10.0325842 C18.0791494,10.0960815 18.1468793,10.0548083 18.1799567,10.1310051 L18.2461114,10.1659286 C18.2854893,10.2008522 18.2744635,10.2881611 18.2854893,10.3453087 L18.3642449,10.4389673 C18.3752707,10.6072354 18.4540264,10.7643913 18.4319748,10.9453588 L18.4430006,10.9802824 C18.4918291,11.0390175 18.5816106,11.0390175 18.6383146,11.1390258 C18.6836316,11.2049164 18.7191824,11.277109 18.7438472,11.3533294 L18.8115771,11.4231765 C18.8336287,11.4803242 18.8840323,11.556521 18.8840323,11.6374802 C18.9244956,11.6969036 18.9778135,11.7462964 19.0399685,11.7819367 L19.0793463,11.8644832 C19.0399685,11.9406801 18.950187,11.9756036 18.8840323,12.0438633 C18.8446545,12.0565628 18.8336287,12.0914863 18.7784997,12.1041858 L18.6776925,12.1041858 L18.6383146,12.1676832 L18.6650916,12.1914947 C18.7328214,12.2137188 18.8226029,12.1787952 18.9060839,12.1914947 C18.9644324,12.2696989 19.0385018,12.3346109 19.1234495,12.3819868 C19.1455011,12.521681 19.1911794,12.6550255 19.1801536,12.8137689 L19.1455011,12.9169521 C19.0903721,13.0058484 19.1455011,13.1328432 19.1455011,13.2439636 L19.1234495,13.2788871 C19.0903721,13.3026986 19.0399685,13.3233353 18.9848395,13.3487342 C18.9391613,13.402707 18.9281355,13.4820787 18.8604056,13.5392263 C18.8446545,13.6630462 18.7784997,13.7551174 18.7343965,13.8662378 C18.7343965,13.9360849 18.6871431,13.958309 18.6776925,14.0472053 C18.6776925,14.0932409 18.6383146,14.1170524 18.6272888,14.1853121 C18.6272888,14.221823 18.6272888,14.2853204 18.6036621,14.331356 C18.5816106,14.3440555 18.5375074,14.3440555 18.5138807,14.378979 C18.5138807,14.4012031 18.5138807,14.4647005 18.4713526,14.4758125 C18.4430006,14.5694711 18.4823784,14.65678 18.4823784,14.7615507 C18.4540264,14.8313978 18.4099232,14.8837831 18.3878716,14.9774417 L18.3642449,15.0012532 L18.3311676,15.0123653 L18.309116,15.0345894 C18.2870644,15.0758626 18.309116,15.0980867 18.2870644,15.1457098 L18.225635,15.1933328 C18.1689309,15.2282563 18.1689309,15.3489013 18.1138019,15.3965244 L18.0523725,15.4441474 C17.9972436,15.4663715 17.9531404,15.4441474 17.8854105,15.4552594 L17.8350069,15.5187568 C17.8129553,15.5536803 17.8350069,15.610828 17.8350069,15.6568636 L17.7783028,15.6981369 C17.6995472,15.7457599 17.6790707,15.8505305 17.5829888,15.9251399 C17.5499114,15.9251399 17.5278598,15.9489515 17.4837566,15.9600635 L17.4554046,15.983875 C17.4443788,16.031498 17.5152589,16.0076865 17.5278598,16.0664216 L17.5058082,16.0886457 L17.3987005,16.0886457 C17.3766489,16.1632551 17.2774168,16.1632551 17.2364639,16.2331022 C17.2364639,16.3331105 17.1577082,16.3918456 17.0915535,16.4378812 L17.0537507,16.4378812 C16.9749951,16.5363021 16.8363851,16.5712257 16.7009254,16.5617011 L16.6064186,16.6410728 C16.5402638,16.6537722 16.4835598,16.6188487 16.4016539,16.6664717 L16.3670014,16.6998078 C16.2772199,16.7236193 16.2047647,16.8347397 16.0929317,16.8680759 L16.055129,16.8458518 C16.0094507,16.8585513 15.9873991,16.8934748 15.9196692,16.9045868 L15.888167,16.8918874 C15.8755661,16.8569638 15.888167,16.8331523 15.8755661,16.7871167 L15.8141366,16.7633052 C15.7920851,16.7760047 15.7920851,16.8220403 15.7700335,16.8585513 L15.7133294,16.9029994 L15.6077968,16.9029994 C15.5522569,16.9099035 15.502919,16.9420777 15.4739122,16.9903083 C15.4739122,17.0379313 15.4345344,17.0379313 15.4235086,17.0966664 C15.3447529,17.1601638 15.2187438,17.1315899 15.1163615,17.1601638 L15.0848592,17.2173114 C15.0528871,17.2395929 15.0150451,17.2517528 14.9761764,17.2522349 C14.9100217,17.2649344 14.8753692,17.3347815 14.802914,17.3744674 C14.7375644,17.3675739 14.6715288,17.3718676 14.6075999,17.3871668 L14.5760977,17.4220904 C14.5398701,17.4347899 14.5288443,17.4697134 14.4737153,17.479238 C14.4343375,17.479238 14.4122859,17.4919375 14.3681827,17.504637 L14.3319551,17.5681343 L14.3681827,17.5903584 C14.3886592,17.625282 14.4122859,17.661793 14.4343375,17.7300526 C14.4343375,17.79355 14.3776334,17.841173 14.3776334,17.9110201 C14.3666076,17.9459437 14.2894271,17.9332442 14.2673755,17.987217 L14.2673755,18.0189657 C14.399685,18.0808756 14.5304194,18.0189657 14.6800551,18.0697636 L14.7241583,18.1269112 C14.7241583,18.1618347 14.7241583,18.2253321 14.7021067,18.2713677 L14.6296515,18.2951792 C14.5855483,18.3301028 14.5508958,18.3888378 14.4957669,18.4523352 C14.4847411,18.5348818 14.5304194,18.6555268 14.4737153,18.7380734 L14.4012601,18.7729969 L14.3681827,18.8476063 C14.3104374,18.8912867 14.2427413,18.9196686 14.1712936,18.9301529 C14.1602678,18.9761885 14.0925379,18.9650764 14.0720614,19 L13.8373696,19 L13.8357944,18.9984126 Z" id="Shape-Copy-5" fill="#3FAFE2" fill-rule="nonzero"></path>
    </g>
</svg>