<?xml version="1.0" encoding="UTF-8"?>
<svg width="30px" height="30px" viewBox="0 0 30 30" version="1.1" xmlns="http://www.w3.org/2000/svg" xmlns:xlink="http://www.w3.org/1999/xlink">
    <!-- Generator: Sketch 50.2 (55047) - http://www.bohemiancoding.com/sketch -->
    <title>曲线面积堆叠</title>
    <desc>Created with Sketch.</desc>
    <defs></defs>
    <g id="曲线面积堆叠" stroke="none" stroke-width="1" fill="none" fill-rule="evenodd">
        <polygon id="Shape" fill="#787993" fill-rule="nonzero" points="4.91050048 23.9657287 4.91050048 5 4 5 4 25 26 25 26 23.9657287"></polygon>
        <path d="M10.4478238,21.2879433 L14.7145092,18.8966735 C14.8188746,18.9765724 14.9493313,18.9632559 15.040651,18.883357 L17.1018673,17.058999 C15.7277231,17.1211426 14.5928123,16.710125 13.6971349,15.8259463 C12.3536189,14.4996782 11.3450024,11 9.80933636,11 C8.27367029,11 6,17.0190496 6,17.1522144 L6,20.3614864 C6,20.2549546 10.0825449,21.3545257 10.0825449,21.3545257 C10.1869103,21.2213609 10.3304127,21.1947279 10.4478238,21.2879433 Z M23.7621339,13.6228283 C22.5350285,13.6228283 18.2016286,17.5172646 19.4404593,18.3502695 C19.9819696,18.7143875 22.2333835,18.5591714 26.194701,17.8846209 L26.194701,15.1387679 C25.693504,14.1281415 24.8826483,13.6228283 23.7621339,13.6228283 Z" id="Shape" fill="#787993" fill-rule="nonzero"></path>
        <path d="M20.4674993,14.062146 C17.8455205,14.5130932 15.1035597,17.2051948 13.164207,17.3580362 C11.2248543,17.5108776 11.114546,16.7191416 9.07410347,16.7191416 C7.03366099,16.7191416 5.90264951,18.8754699 5.90264951,18.9858895 L5.90264951,23.0300066 L26.0973505,23.0300066 L26.0973505,16.4324368 C24.0921023,14.5516115 22.2154852,13.7615146 20.4674993,14.062146 Z" id="Shape" fill="#BAC0D6" fill-rule="nonzero"></path>
    </g>
</svg>