<?xml version="1.0" encoding="UTF-8"?>
<svg width="30px" height="30px" viewBox="0 0 30 30" version="1.1" xmlns="http://www.w3.org/2000/svg" xmlns:xlink="http://www.w3.org/1999/xlink">
    <!-- Generator: Sketch 50.2 (55047) - http://www.bohemiancoding.com/sketch -->
    <title>曲线图</title>
    <desc>Created with Sketch.</desc>
    <defs></defs>
    <g id="曲线图" stroke="none" stroke-width="1" fill="none" fill-rule="evenodd">
        <g id="Group" transform="translate(4.000000, 5.000000)" fill-rule="nonzero">
            <g id="折线图-copy" fill="#819292">
                <polygon id="Shape" points="21.9054545 20.0799999 0 20.0799999 0 0 0.906592768 0 0.906592768 19.0415703 21.9054545 19.0415703"></polygon>
            </g>
            <g id="曲线图-2" transform="translate(0.912727, 1.825455)" fill="#02B0F0">
                <path d="M16.2394914,8.56315294 C15.4310318,10.935725 13.4222508,12.9625186 10.7182726,12.1432897 C8.41396767,11.4477431 6.89989612,6.90075659 4.09176859,8.62565904 C2.16760888,9.80795532 1.20292529,12.3919842 0.735554964,14.54512 C0.730347495,14.5663986 0.721234425,14.5850175 0.717328823,14.6036363 L0,14.6036363 L0,10.3651906 C0.263845084,10.3651906 0.503388648,10.3651906 0.71863069,10.3651906 C1.23547197,9.40499045 1.87729249,8.52458534 2.67924268,7.84100796 C5.11633807,5.7650074 7.65237536,7.23456577 9.34480271,9.35046385 C10.4149375,10.6910203 12.5096419,11.5727553 13.8831117,10.0021232 C14.9467372,8.78923884 15.1901864,7.00847987 15.5013327,5.46976581 C15.9726086,3.13044167 16.5506376,0.144777828 19.3861044,0.00114678374 C20.3130338,-0.0467302311 20.3091282,1.42016831 19.3874062,1.4667154 C16.8031999,1.5983772 16.8643876,6.72653745 16.2394914,8.56315294 Z" id="Shape"></path>
            </g>
        </g>
    </g>
</svg>