<?xml version="1.0" encoding="UTF-8"?>
<svg width="30px" height="30px" viewBox="0 0 30 30" version="1.1" xmlns="http://www.w3.org/2000/svg" xmlns:xlink="http://www.w3.org/1999/xlink">
    <!-- Generator: Sketch 50.2 (55047) - http://www.bohemiancoding.com/sketch -->
    <title>曲线堆叠</title>
    <desc>Created with Sketch.</desc>
    <defs></defs>
    <g id="曲线堆叠" stroke="none" stroke-width="1" fill="none" fill-rule="evenodd">
        <path d="M22.3587896,13.7581744 C21.4768338,14.9954415 19.2854362,16.0523893 16.3356419,15.6251716 C13.8218547,15.2624526 12.1701403,12.8912553 9.1067284,13.7907706 C7.00764508,14.4073235 5.95526298,15.7548627 5.44540445,16.8776964 C5.43972358,16.888793 5.42978204,16.8985024 5.42552139,16.9082119 L4.64298085,16.9082119 L4.64298085,14.6979148 C4.93081185,14.6979148 5.19213211,14.6979148 5.42694161,14.6979148 C5.99076845,14.1971823 6.6909363,13.7380619 7.56579105,13.3815847 C10.2244406,12.2989761 12.9910267,13.0653326 14.8373111,14.1687474 C16.0047309,14.867831 18.2898629,15.3276449 19.7881937,14.5085797 C20.9485124,13.8760754 21.2140933,12.9474316 21.5535256,12.1450112 C22.0676448,10.9250826 22.6982219,9.36809573 25.7914583,9.29319391 C26.8026541,9.26822664 26.7983934,10.0331961 25.7928786,10.0574699 C22.9737443,10.1261299 23.0404946,12.8004021 22.3587896,13.7581744 Z" id="Shape" fill="#BAC0D6" fill-rule="nonzero" transform="translate(15.595708, 13.100404) rotate(19.000000) translate(-15.595708, -13.100404) "></path>
        <path d="M21.7158088,16.09494 C20.8338529,18.3377855 18.6424554,20.2537589 15.692661,19.4793234 C13.1788738,18.8218076 11.5271594,14.5234396 8.46374755,16.1540285 C6.36466423,17.2716796 5.31228213,19.7144199 4.8024236,21.7498273 C4.79674272,21.7699425 4.78680119,21.7875433 4.78254053,21.8051441 L4,21.8051441 L4,17.7984465 C4.287831,17.7984465 4.54915125,17.7984465 4.78396075,17.7984465 C5.3477876,16.8907479 6.04795545,16.0584812 6.9228102,15.4122802 C9.58145971,13.4497905 12.3480458,14.8389969 14.1943302,16.8392027 C15.36175,18.1064606 17.646882,18.9399845 19.1452128,17.4552308 C20.3055315,16.3086641 20.5711124,14.6252728 20.9105447,13.170692 C21.4246639,10.9592765 22.055241,8.13686172 25.1484775,8.00108408 C26.1596732,7.95582487 26.1554126,9.34251687 25.1498977,9.38651889 C22.3307635,9.51098172 22.3975138,14.3587463 21.7158088,16.09494 Z" id="Shape-Copy" fill="#787993" fill-rule="nonzero"></path>
        <polygon id="Shape" fill="#898AA1" fill-rule="nonzero" points="25.9054545 25.0799999 4 25.0799999 4 5 4.90659277 5 4.90659277 24.0415703 25.9054545 24.0415703"></polygon>
    </g>
</svg>