<svg id="图层_1" data-name="图层 1" xmlns="http://www.w3.org/2000/svg" viewBox="0 0 16 12.87"><defs><style>.cls-1{fill:#acb1cc;}</style></defs><title>仪表盘1</title><path class="cls-1" d="M4.74,10a4,4,0,1,1,6.52,0l1,.51a5.25,5.25,0,0,0,.85-2.8,5.14,5.14,0,0,0-10.28,0,4.78,4.78,0,0,0,.85,2.8l1-.51Z" transform="translate(0 -0.11)"/><path class="cls-1" d="M2.69,12.13a6.77,6.77,0,0,1-1-3.56A6.46,6.46,0,0,1,8,1.92a6.46,6.46,0,0,1,6.29,6.65,6.77,6.77,0,0,1-1,3.56L14.8,13A8.69,8.69,0,0,0,16,8.57,8.26,8.26,0,0,0,8,.11,8.26,8.26,0,0,0,0,8.57,8.69,8.69,0,0,0,1.2,13l1.49-.84Z" transform="translate(0 -0.11)"/><path class="cls-1" d="M9.09,11.43c.17-.63.51-6.35.51-6.35S7,10.23,6.86,10.86a1.07,1.07,0,0,0,.8,1.37,1.15,1.15,0,0,0,1.43-.8Z" transform="translate(0 -0.11)"/></svg>