<svg id="图层_1" data-name="图层 1" xmlns="http://www.w3.org/2000/svg" viewBox="0 0 19.9 16"><defs><style>.cls-1{fill:#00a0e0;}.cls-2{fill:#159a8d;}.cls-3{fill:#e96000;}</style></defs><title>仪表盘</title><path class="cls-1" d="M6,12.79A4.84,4.84,0,0,1,5.08,10a5,5,0,1,1,10,0,4.85,4.85,0,0,1-.93,2.84l1.28.64A6.47,6.47,0,0,0,16.45,10,6.4,6.4,0,1,0,3.66,10a5.92,5.92,0,0,0,1.06,3.48L6,12.79Z" transform="translate(-0.1)"/><path class="cls-2" d="M3.44,15a8.42,8.42,0,0,1-1.2-4.43,8,8,0,0,1,7.81-8.27,8,8,0,0,1,7.82,8.27A8.43,8.43,0,0,1,16.66,15L18.51,16A10.9,10.9,0,0,0,20,10.52C20,4.73,15.52,0,10.05,0S.1,4.73.1,10.52A10.8,10.8,0,0,0,1.6,16L3.44,15Z" transform="translate(-0.1)"/><path class="cls-3" d="M11.4,14.57c.22-.78.64-7.89.64-7.89s-3.2,6.39-3.41,7.18a1.32,1.32,0,0,0,1,1.7,1.41,1.41,0,0,0,1.77-1Z" transform="translate(-0.1)"/></svg>