<?xml version="1.0" encoding="UTF-8"?>
<svg width="18px" height="16px" viewBox="0 0 18 16" version="1.1" xmlns="http://www.w3.org/2000/svg" xmlns:xlink="http://www.w3.org/1999/xlink">
    <!-- Generator: Sketch 51.2 (57519) - http://www.bohemiancoding.com/sketch -->
    <title>视频片段选中--已选组件列表</title>
    <desc>Created with Sketch.</desc>
    <defs></defs>
    <g id="视频片段选中--已选组件列表" stroke="none" stroke-width="1" fill="none" fill-rule="evenodd">
        <g id="Group-23" fill-rule="nonzero">
            <path d="M16.7142857,1.27894737 L16.7142857,14.0684211 L1.28571429,14.0684211 L1.28571429,1.27894737 L16.7142857,1.27894737 Z M16.7142857,0 L1.28571429,0 C0.575633893,0 0,0.572604241 0,1.27894737 L0,14.0684211 C0,14.7747642 0.575633893,15.3473684 1.28571429,15.3473684 L16.7142857,15.3473684 C17.4243661,15.3473684 18,14.7747642 18,14.0684211 L18,1.27894737 C18,0.572604241 17.4243661,0 16.7142857,0 Z" id="Shape" fill="#3FAFE2"></path>
            <path d="M12.1468013,6.56663629 L7.89679048,3.94793024 C7.16600845,3.49772912 6.25263158,4.06043118 6.25263158,4.96083343 L6.25263158,10.1970613 C6.25263158,11.0974636 7.16600845,11.6601656 7.89679048,11.2099645 L12.1468013,8.59244266 C12.877382,8.14224154 12.877382,7.01683742 12.1468013,6.56663629 Z" id="Shape" fill="#2CA7E0"></path>
        </g>
    </g>
</svg>