<?xml version="1.0" encoding="UTF-8"?>
<svg width="19px" height="14px" viewBox="0 0 19 14" version="1.1" xmlns="http://www.w3.org/2000/svg" xmlns:xlink="http://www.w3.org/1999/xlink">
    <!-- Generator: Sketch 51.2 (57519) - http://www.bohemiancoding.com/sketch -->
    <title>图片选中--已选组件列表</title>
    <desc>Created with Sketch.</desc>
    <defs></defs>
    <g id="图片选中--已选组件列表" stroke="none" stroke-width="1" fill="none" fill-rule="evenodd">
        <path d="M17.6428473,0.0263400643 L1.3571527,0.0263400643 C0.607635061,0.0263400643 0,0.473204256 0,1.02446768 L0,13.0018217 C0,13.5531105 0.607635061,14 1.3571527,14 L17.6428473,14 C18.3923305,14 19,13.5530851 19,13.0018217 L19,1.02446768 C19,0.473204256 18.3923305,0.0263400643 17.6428473,0.0263400643 Z M1.3571527,13.0644204 L1.3571527,12.9644204 C1.40113516,12.998499 1.44554135,13.0319679 1.490456,13.0644204 L1.3571527,13.0644204 Z M17.6428473,13.0018217 L12.3677302,8.90934644 L9.76288589,10.5732219 L5.85398291,7.91137086 L1.94532111,10.5732219 L1.35718716,11.0672938 L1.35718716,1.02444234 L17.6428473,1.02444234 L17.6428473,13.0018217 Z M13.8680902,6.98442223 C14.899345,6.98442223 15.7361297,6.14709984 15.7361297,5.11559995 C15.7361297,4.08326384 14.899345,3.24637223 13.8680902,3.24637223 C12.8363281,3.24637223 12,4.0832385 12,5.11559995 C12,6.1472012 12.8363281,6.98442223 13.8680902,6.98442223 Z" id="Shape-Copy-4" fill="#2CA7E0" fill-rule="nonzero"></path>
    </g>
</svg>