<?xml version="1.0" encoding="UTF-8"?>
<svg width="30px" height="30px" viewBox="0 0 30 30" version="1.1" xmlns="http://www.w3.org/2000/svg" xmlns:xlink="http://www.w3.org/1999/xlink">
    <!-- Generator: Sketch 50.2 (55047) - http://www.bohemiancoding.com/sketch -->
    <title>折线面积堆叠图--灰态</title>
    <desc>Created with Sketch.</desc>
    <defs></defs>
    <g id="折线面积堆叠图--灰态" stroke="none" stroke-width="1" fill="none" fill-rule="evenodd">
        <g id="折线图-2-copy" transform="translate(4.000000, 4.000000)" fill-rule="nonzero">
            <polygon id="Shape" fill="#BAC0D6" points="22 12.2228475 12.9867058 19 7.49566316 14.780269 2 18.220296 2 14.0908267 7.78375076 5.78005147 13.0138127 12.5200562 22 2"></polygon>
            <polygon id="Shape" fill="#787993" points="22 20 2 20 2 17.3361807 7.78375818 14.4919432 13.0138268 18.3217902 22 11"></polygon>
            <polygon id="Shape" fill="#787993" points="23 22 0 22 0 0 0.951892311 0 0.951892311 20.8622782 23 20.8622782"></polygon>
            <polygon id="Shape" fill="#787993" points="13.0640959 19 7.75514169 14.8351025 2.44437566 18.1213066 2 17.1861896 7.81271751 13.5893948 13.059667 17.7056495 21.4658886 11 22 11.8718293"></polygon>
            <polygon id="Shape" fill="#83849C" points="2.711306 14 2 13.2908427 7.87293714 4.5304134 13.0508132 11.2115787 21.3473247 1 22 1.78858193 13.0352131 12.8226735 7.92291209 6.22607465"></polygon>
        </g>
    </g>
</svg>