<svg id="图层_1" data-name="图层 1" xmlns="http://www.w3.org/2000/svg" viewBox="0 0 16 13.14"><defs><style>.cls-1{fill:#acb1cc;}</style></defs><title>地图</title><path class="cls-1" d="M15.85,2.63,15.07,3A.11.11,0,0,1,15,3l-.78-.61h0l-.8-.84-.07,0-.53,0a.07.07,0,0,0-.06,0l-.45.29a.07.07,0,0,0,0,.06l-.31,1a.11.11,0,0,1-.06.07l-.35.14a.12.12,0,0,0-.07.1v.36a.11.11,0,0,0,.08.11l.72.15a.11.11,0,0,1,0,.2l-.7.45h0L10,5.69a.07.07,0,0,1-.06,0l-.68,0h0L8.59,6H8.5l-.87-.42,0,0L6.45,5.47a.13.13,0,0,1-.09-.07L6.2,5a.1.1,0,0,0,0-.06l-1-.48a.08.08,0,0,1-.06-.08l0-.21V3.71a.14.14,0,0,0,0-.06L4.65,3a.1.1,0,0,0-.14,0l-.69.41h0l-.15.16a.16.16,0,0,1-.09,0l-.35,0a.1.1,0,0,0-.11.06l-.17.37a.1.1,0,0,1-.1.06H2.38a.1.1,0,0,0-.1.08L2,4.88A.08.08,0,0,1,1.94,5L.75,5.21h0l-.66.25S0,5.52,0,5.58l0,.27v0L.5,7h0c0,.06.4.88.4,1s-.2.55-.26.72a.09.09,0,0,0,0,.1L.82,9l0,0,1.43,1.2h0l2.21,1h.06l1.33-.29a.11.11,0,0,1,.08,0l.51.29a.09.09,0,0,1,0,.12l-.31,1a.11.11,0,0,0,0,.11l1.14,1a.14.14,0,0,0,.11,0l1.4-.56a.09.09,0,0,1,.09,0l.92.56h0l.4.31h0l.18.06a.1.1,0,0,0,.14-.09l0-.18a.15.15,0,0,1,.06-.09L13,12.23a.1.1,0,0,0,.05,0l.81-1.57a.13.13,0,0,0,0-.06l0-1.25a.07.07,0,0,0,0-.06l-.48-.59L13,8.22a.11.11,0,0,1,0-.13l.53-.65,0,0h0a.11.11,0,0,0,0-.2l-.24-.06h-.68a.1.1,0,0,1-.09,0l-.16-.22a.12.12,0,0,1,0-.15l.79-.62a.11.11,0,0,1,.17.09v.14a.11.11,0,0,0,.15.11l.33-.15,0,0,1.57-1.4a.09.09,0,0,0,0-.07L15.56,4a.13.13,0,0,1,.11-.1h.15a.11.11,0,0,0,.11-.1l.07-1a.11.11,0,0,0-.15-.11Zm-1.92,9.25-.23.7L14,13l.23-.44.18-.47-.12-.33-.35.13Zm-3.7,2.23-.32.19.23.27.29-.06.34-.32L10.66,14l-.43.11Z" transform="translate(0 -1.43)"/></svg>