<?xml version="1.0" encoding="UTF-8"?>
<svg width="30px" height="30px" viewBox="0 0 30 30" version="1.1" xmlns="http://www.w3.org/2000/svg" xmlns:xlink="http://www.w3.org/1999/xlink">
    <!-- Generator: Sketch 50.2 (55047) - http://www.bohemiancoding.com/sketch -->
    <title>南丁格尔</title>
    <desc>Created with Sketch.</desc>
    <defs></defs>
    <g id="南丁格尔" stroke="none" stroke-width="1" fill="none" fill-rule="evenodd">
        <g id="南丁格尔玫瑰图" transform="translate(2.000000, 2.000000)" fill="#787993" fill-rule="nonzero">
            <path d="M14.637928,12.0736529 L21.5488974,12.0736529 L21.5488974,11.7776758 C21.5540856,9.81949447 20.8290301,7.93273679 19.5210374,6.50072757 L22.3058891,3.6579507 L22.1009655,3.44870044 C19.9203392,1.2252345 17.0214828,0 13.9390787,0 L13.6489365,0 L13.6489365,1.95426358 C11.2943885,2.01941917 9.04621944,2.96961271 7.33535217,4.62271374 L4.49178809,1.72143992 C4.37863288,1.60609701 4.19538116,1.60609701 4.08222594,1.72143992 C1.44985571,4.40764288 0,7.97915781 0,11.7776758 C0,11.9409787 0.129645857,12.0733618 0.289572126,12.0733618 L2.39866044,12.0733618 C2.47133849,15.1088003 3.66439845,17.9521592 5.77605187,20.1057781 L5.98069044,20.3147373 L7.33506716,18.9329289 C9.04599233,20.5859003 11.2941473,21.5359842 13.6486515,21.601088 L13.6486515,26 L13.9390787,26 C17.6621896,26 21.1621362,24.5206967 23.7950764,21.8344937 L24,21.6255345 L14.637928,12.0736529 Z M20.9626278,11.4822808 L14.638213,11.4822808 L15.8637643,10.2325998 L19.1103352,6.9192281 C20.2418953,8.16540521 20.8990825,9.78411199 20.9629128,11.4822808 L20.9626278,11.4822808 Z M14.2280808,0.595155477 C16.9359289,0.660090057 19.5228431,1.75335304 21.4836296,3.66144306 L14.2280808,11.0643623 L14.2280808,0.595155477 Z M13.6489365,2.54505362 L13.6489365,11.0643623 L8.96733051,6.28769393 L7.74491432,5.04034118 C9.34723164,3.49840046 11.4481101,2.61068818 13.6489365,2.54563568 L13.6489365,2.54505362 Z M4.28942962,2.35035483 L6.92236987,5.03684882 L12.4450461,10.6717634 L13.2388044,11.4816987 L0.582279383,11.4816987 C0.64549938,8.06942632 1.96973555,4.80771053 4.28942962,2.35064586 L4.28942962,2.35035483 Z M2.97837472,12.0733618 L13.2388044,12.0733618 L11.940575,13.3978374 L6.92208486,18.5185028 L5.98354056,19.4762811 C4.11389075,17.4770081 3.04216217,14.8372683 2.97808971,12.0736529 L2.97837472,12.0733618 Z M7.74491432,18.5155925 L13.6489365,12.4912803 L13.6489365,21.010298 C11.4481101,20.9452455 9.34723164,20.0575332 7.74491432,18.5155925 Z M14.2280808,25.4054266 L14.2280808,12.4915713 L23.1774556,21.6232063 C20.7677378,23.9905611 17.571404,25.3414084 14.2280808,25.4054266 Z" id="Shape"></path>
            <path d="M14,12 L19.5395331,17.1882544 L21.0594826,18.6337597 L22.4949401,20 C24.6587256,17.9419924 26,15.1406233 26,12.0002882 L14,12 Z" id="Shape"></path>
            <path d="M22.3735471,21 C22.2958476,20.9998725 22.221405,20.9672503 22.1667163,20.9093625 L19.3551998,17.9639464 L14.0873513,12.5256974 C14.0027307,12.43832 13.9768372,12.3059769 14.0218095,12.1907087 C14.0667817,12.0754405 14.1737044,12.0000977 14.2924537,12 L25.7073257,12 C25.8689653,12 26,12.1374302 26,12.3069589 C26,15.5433214 24.7855171,18.5984088 22.5803779,20.9093625 C22.5256891,20.9672503 22.4512465,20.9998725 22.3735471,21 Z M15.0074316,12.6148243 L19.7674211,17.5279801 L22.3709545,20.2564705 C24.2678639,18.1642553 25.3380261,15.4720199 25.4109066,12.6148243 L15.0074316,12.6148243 Z" id="Shape"></path>
        </g>
    </g>
</svg>