<?xml version="1.0" encoding="UTF-8"?>
<svg width="20px" height="14px" viewBox="0 0 20 14" version="1.1" xmlns="http://www.w3.org/2000/svg" xmlns:xlink="http://www.w3.org/1999/xlink">
    <!-- Generator: Sketch 51.2 (57519) - http://www.bohemiancoding.com/sketch -->
    <title>轮播图选中--已选组件列表</title>
    <desc>Created with Sketch.</desc>
    <defs></defs>
    <g id="轮播图选中--已选组件列表" stroke="none" stroke-width="1" fill="none" fill-rule="evenodd">
        <g id="lunboxiaoguo-copy-2" fill="#2CA7E0" fill-rule="nonzero">
            <path d="M16.1239288,0 L3.90690606,0 C3.34464118,0 2.88881221,0.446864192 2.88881221,0.998127617 L2.88881221,12.9754816 C2.88881221,13.5267704 3.34464118,13.9736599 3.90690606,13.9736599 L16.1239288,13.9736599 C16.6861679,13.9736599 17.1420227,13.5267451 17.1420227,12.9754816 L17.1420227,0.998127617 C17.1420227,0.446864192 16.6861679,0 16.1239288,0 Z M3.90690606,13.0380804 L3.90690606,12.9380804 C3.93990034,12.972159 3.97321248,13.0056278 4.00690606,13.0380804 L3.90690606,13.0380804 Z M16.1239288,12.9754816 L12.1666996,8.88300637 L10.2126263,10.5468818 L7.28028855,7.88503079 L4.34813175,10.5468818 L3.9069319,11.0409537 L3.9069319,0.998102277 L16.1239288,0.998102277 L16.1239288,12.9754816 Z M12.8999133,6.95808217 C13.9506254,6.95808217 14.8031982,6.12075978 14.8031982,5.08925988 C14.8031982,4.05692378 13.9506254,3.22003216 12.8999133,3.22003216 C11.8486842,3.22003216 10.9965766,4.05689844 10.9965766,5.08925988 C10.9965766,6.12086114 11.8486842,6.95808217 12.8999133,6.95808217 Z M2.28863051,2.36030955 L2.28863051,1.36218193 L1.01809385,1.36218193 C0.455803122,1.36218193 0,1.80904612 0,2.36030955 L0,11.5558295 C0,12.1071182 0.455803122,12.5540077 1.01809385,12.5540077 L2.28863051,12.5540077 L2.28863051,11.5558295 L1.01809385,11.5558295 L1.01809385,2.36033489 L2.28863051,2.36033489 L2.28863051,2.36030955 Z M17.7113436,11.562215 L17.7113436,12.5603427 L18.9819062,12.5603427 C19.544171,12.5603427 20,12.1134531 20,11.562215 L20,2.36664445 C20,1.81540637 19.544171,1.3684915 18.9819062,1.3684915 L17.7113436,1.3684915 L17.7113436,2.36664445 L18.9819062,2.36664445 L18.9819062,11.562215 L17.7113436,11.562215 Z" id="Shape"></path>
        </g>
    </g>
</svg>