<?xml version="1.0" encoding="UTF-8"?>
<svg width="30px" height="30px" viewBox="0 0 30 30" version="1.1" xmlns="http://www.w3.org/2000/svg" xmlns:xlink="http://www.w3.org/1999/xlink">
    <!-- Generator: Sketch 50.2 (55047) - http://www.bohemiancoding.com/sketch -->
    <title>雷达图--灰态</title>
    <desc>Created with Sketch.</desc>
    <defs></defs>
    <g id="雷达图--灰态" stroke="none" stroke-width="1" fill="none" fill-rule="evenodd">
        <g id="雷达图-copy" transform="translate(4.000000, 2.000000)" fill-rule="nonzero">
            <path d="M18.3933382,16.7142915 L20.9058498,18.2091689 L21,7.07726586 L18.5362674,8.48445447 L20.8198952,11.8086288 L18.3933382,16.7142915 Z M10.7053265,4.53242089 L10.7053265,1.1941517 L6.73448691,3.45752492 L9.72101636,4.96300886 L10.7053265,4.53242089 Z M6.31992193,3.69384776 L1.30943107,6.54980056 L3.3366031,7.75594602 L4.57925598,7.21231558 L6.31992193,3.69384776 Z M20.7629488,6.70061837 L14.9386207,3.24754841 L18.2836137,8.11671198 L20.7629488,6.70061837 Z M1.07364724,9.27785032 L1.03047278,14.385719 L2.31942626,11.7802122 L1.07364724,9.27785032 Z M11.1476606,1 L11.1476606,4.33892146 L14.3882519,2.92126806 L11.1476606,1 Z M11.1476606,23.9766315 L15.621977,21.4262563 L11.1476606,21.4262563 L11.1476606,23.9766315 Z M1.21871682,18.3756981 L5.74105179,21.0568406 L2.88046898,17.4265498 L1.21871682,18.3756981 Z M1,17.9885858 L2.60221477,17.073441 L1.02467112,15.0714324 L1,17.9885858 Z M1.0934461,6.93861444 L1.07818155,8.74391896 L2.83554838,7.97513949 L1.0934461,6.93861444 Z M6.36413844,21.4262563 L7.43882491,22.0633893 L7.12162075,21.4262563 L6.36413844,21.4262563 Z M10.7053265,24 L10.7053265,21.4844508 L7.9086746,22.3419399 L10.7053265,24 Z M16.9864084,19.5585884 L16.2879002,19.7727622 L16.1072321,21.1496625 L20.6379879,18.5670988 L18.1956313,17.1139672 L16.9864084,19.5585884 Z" id="Shape" fill="#FFFFFF"></path>
            <path d="M21.1892259,19.0585872 L16.6343834,21.6375277 L16.5978878,21.9137335 L16.1465486,21.9137335 L11.6484456,24.4605306 L11.6484456,24.9716233 L21.6309104,19.3196134 L21.1892259,19.0585872 Z M21.5531626,7.58487353 L21.4585119,18.7011594 L21.9009891,18.962667 L22,7.33135211 L21.5531626,7.58487353 Z M11.6484456,1.5161336 L14.9062647,3.43470627 L15.1584213,3.32513585 L15.4595594,3.76052888 L21.3148512,7.20875445 L21.7612356,6.9554879 L11.6484456,1 L11.6484456,1.5161336 Z M1.44683743,18.4808857 L1.47163971,15.5678248 L1.26569018,15.3082429 L1.47747221,14.8830734 L1.5208762,9.78237075 L1.30227071,9.34615643 L1.52543461,9.24918845 L1.54078031,7.44641662 L1.0983031,7.18490893 L1,18.7344071 L1.44683743,18.4808857 Z M1.75791351,7.05814822 L6.79504143,4.2062021 L6.97228147,3.85027524 L7.21181034,3.97021081 L11.20376,1.71001292 L11.20376,1.19889198 L1.31625739,6.79715029 L1.75791351,7.05814822 Z M11.20376,24.4838664 L8.39224032,22.8281325 L8.10339002,22.916123 L7.91989279,22.5499726 L6.83949301,21.9137335 L6.50573812,21.9137335 L6.21309387,21.544836 L1.666717,18.8674549 L1.22033258,19.1207215 L11.20376,25 L11.20376,24.4838664 Z" id="Shape" fill="#819292"></path>
            <path d="M11.2036008,23.8273181 L11.2036008,21.3224939 L10.9506867,21.3224939 L10.7605145,21.379649 L10.7605145,25 L11.2036008,25 L11.2036008,24.3299876 L11.2036008,23.8273181 Z M10.7605145,1.45174462 L10.7605145,4.73039068 L11.2036008,4.54034725 L11.2036008,0 L10.7605145,0 L10.7605145,0.949047304 L10.7605145,1.45174462 Z M20.978385,18.1628652 L18.4616006,16.6946871 L18.2635574,17.0872244 L20.7100676,18.5144024 L21.1501635,18.7711268 L21.7705013,19.1330254 L22,18.7588434 L21.4192709,18.4200631 L20.978385,18.1628652 Z M1.13228781,7.09360844 L2.87735276,8.11162064 L3.37925958,7.89634207 L1.34864009,6.71173896 L0.908572381,6.45504246 L0.23796212,6.06381426 L0.00843517177,6.43799621 L0.691401972,6.83641057 L1.13228781,7.09360844 Z M20.835241,6.8598631 L18.3516895,8.25066458 L18.6047728,8.61183901 L21.0726953,7.22978348 L21.5179257,6.98044026 L21.965413,6.72984364 L21.7501327,6.34750066 L21.28002,6.61077056 L20.835241,6.8598631 Z M1.25777157,18.3264201 L2.92234974,17.3942241 L2.64362233,17.047422 L1.03868279,17.9462219 L0.593452419,18.1955651 L0,18.5278834 L0.215280253,18.9102264 L0.812992575,18.5755127 L1.25777157,18.3264201 Z" id="Shape" fill="#809091"></path>
            <path d="M7.27681621,21.0278489 L7.59459719,21.644895 L7.77745597,22 L8.06530127,21.9146638 L10.8670387,21.0842086 L11.0572333,21.0278489 L7.27681621,21.0278489 Z M17.8775755,8.98045304 L16.4597639,19.4264842 L17.1595422,19.2190627 L18.3709641,16.8515128 L18.5690305,16.4644376 L21,11.7134351 L18.7122196,8.49406161 L18.4591065,8.13791289 L15.1080309,3.42225884 L14.8079404,3 L14.5566613,3.10626509 L11.3101771,4.47922431 L10.8670387,4.6666233 L9.88093864,5.08363618 L17.8775755,8.98045304 Z M4.72982833,7.26202929 L3.48491577,7.78852075 L2.98294992,8.00080374 L1.22238743,8.745346 L1,8.83938881 L1.21784488,9.26244416 L2.46588926,11.6859144 L4.72982833,7.26202929 Z" id="Shape" fill="#787993"></path>
            <polygon id="Shape" fill="#BAC0D6" points="18 8.62151476 9.96271756 4.61760464 6.95554966 3.11951423 6.71564094 3 6.53811983 3.35467647 4.78542499 6.85586487 2.50997868 11.4013282 1.21211788 13.9940392 1 14.417715 1.20627613 14.676385 2.79472141 16.6685616 3.0748985 17.0199363 5.9552494 20.6323985 6.24835774 21 16.3565118 21 16.3930653 20.7247645 16.5749819 19.3546263"></polygon>
        </g>
    </g>
</svg>