<?xml version="1.0" encoding="UTF-8"?>
<svg width="21px" height="13px" viewBox="0 0 21 13" version="1.1" xmlns="http://www.w3.org/2000/svg" xmlns:xlink="http://www.w3.org/1999/xlink">
    <!-- Generator: Sketch 51.2 (57519) - http://www.bohemiancoding.com/sketch -->
    <title>实时视频选中--已选组件列表</title>
    <desc>Created with Sketch.</desc>
    <defs></defs>
    <g id="实时视频选中--已选组件列表" stroke="none" stroke-width="1" fill="none" fill-rule="evenodd">
        <g id="shipin-5-copy-2" fill="#2CA7E0" fill-rule="nonzero">
            <path d="M20.3029065,1.06861688 C19.8596335,0.793558681 19.2757549,0.793558681 18.70055,1.06861688 L14.4650334,3.09248515 L14.4650334,2.25827746 C14.4650334,1.01306328 13.4410774,0 12.1824743,0 L2.28255908,0 C1.02395601,0 0,0.870340138 0,1.940312 L0,10.7417225 C0,12.0293923 0.589813255,13 1.37273103,13 L2.28895024,13 L2.28895024,12.096689 L1.37273103,12.096689 C1.28188518,12.096689 0.913023627,11.6608415 0.913023627,10.7417225 L0.913023627,1.94031198 C0.913023627,1.37800088 1.54027087,0.903310959 2.28255908,0.903310959 L12.1824743,0.903310959 C12.9375448,0.903310959 13.5520097,1.51123924 13.5520097,2.25827744 L13.5520097,10.7417225 C13.5520097,11.4887607 12.9375448,12.096689 12.1824743,12.096689 L5.14534467,12.096689 L5.14534467,13 L12.1824743,13 C13.4410774,13 14.4650334,11.9869367 14.4650334,10.7417225 L14.4650334,9.91067642 L18.7019195,11.9530625 C18.991348,12.0926241 19.2826025,12.162179 19.5574227,12.162179 C19.8285907,12.162179 20.0833243,12.0944307 20.303363,11.9580308 C20.7461794,11.6843275 21,11.1644721 21,10.5317027 L21,2.4962999 C20.9995435,1.8639822 20.7457229,1.34367509 20.3029065,1.06861688 Z M20.0865199,10.5317027 C20.0865199,10.8460549 19.9888263,11.0867873 19.8190039,11.192023 C19.6482685,11.2968071 19.3871437,11.2782892 19.1018239,11.140986 L14.4650334,8.90574297 L14.4650334,4.09516033 L19.0972587,1.88204842 C19.3834916,1.74564845 19.6464425,1.72758225 19.8171779,1.83372128 C19.9883698,1.93986032 20.0865198,2.18149602 20.0865198,2.4962999 L20.0865199,10.5317027 Z" id="Shape"></path>
            <path d="M3,2.5 C3,2.77614237 3.22385763,3 3.5,3 C3.77614237,3 4,2.77614237 4,2.5 C4,2.22385763 3.77614237,2 3.5,2 C3.22385763,2 3,2.22385763 3,2.5 Z" id="Shape"></path>
        </g>
    </g>
</svg>