<?xml version="1.0" encoding="UTF-8"?>
<svg width="30px" height="30px" viewBox="0 0 30 30" version="1.1" xmlns="http://www.w3.org/2000/svg" xmlns:xlink="http://www.w3.org/1999/xlink">
    <!-- Generator: Sketch 50.2 (55047) - http://www.bohemiancoding.com/sketch -->
    <title>散点图</title>
    <desc>Created with Sketch.</desc>
    <defs></defs>
    <g id="散点图" stroke="none" stroke-width="1" fill="none" fill-rule="evenodd">
        <polygon id="Shape" fill="#819292" fill-rule="nonzero" points="26 25.1666667 4 25.1666667 4 5 4.91050569 5 4.91050569 24.1237551 26 24.1237551"></polygon>
        <g transform="translate(5.000000, 10.000000)" fill-rule="nonzero" id="Shape">
            <path d="M0.769230769,7.94230769 C0.769230769,9.16370666 1.75937026,10.1538462 2.98076923,10.1538462 C4.2021682,10.1538462 5.19230769,9.16370666 5.19230769,7.94230769 C5.19230769,6.72090873 4.2021682,5.73076923 2.98076923,5.73076923 C1.75937026,5.73076923 0.769230769,6.72090873 0.769230769,7.94230769 Z" fill="#D73949"></path>
            <path d="M11.3846154,4.84615385 C12.3617346,4.84615385 13.1538462,4.05404225 13.1538462,3.07692308 C13.1538462,2.0998039 12.3617346,1.30769231 11.3846154,1.30769231 C10.4074962,1.30769231 9.61538462,2.0998039 9.61538462,3.07692308 C9.61538462,4.05404225 10.4074962,4.84615385 11.3846154,4.84615385 Z" fill="#F5A623"></path>
            <path d="M16.6923077,9.26923077 C16.6923077,9.90131603 17.0295211,10.4853869 17.5769231,10.8014296 C18.124325,11.1174722 18.798752,11.1174722 19.3461539,10.8014296 C19.8935558,10.4853869 20.2307693,9.90131603 20.2307692,9.26923077 C20.2307693,8.6371455 19.8935558,8.05307462 19.3461539,7.73703198 C18.798752,7.42098934 18.124325,7.42098934 17.5769231,7.73703198 C17.0295211,8.05307462 16.6923077,8.6371455 16.6923077,9.26923077 Z" fill="#159A8D"></path>
            <path d="M0.769230769,11.9230769 C0.769230763,12.2391196 0.937837501,12.531155 1.21153846,12.6891763 C1.48523941,12.8471976 1.8224529,12.8471976 2.09615385,12.6891763 C2.36985481,12.531155 2.53846155,12.2391196 2.53846154,11.9230769 C2.53846154,11.4345173 2.14240574,11.0384615 1.65384615,11.0384615 C1.16528657,11.0384615 0.769230769,11.4345173 0.769230769,11.9230769 Z" fill="#D97B24"></path>
            <path d="M20.2307692,5.28846154 C20.2307692,5.53274133 20.4287971,5.73076923 20.6730769,5.73076923 C20.9173567,5.73076923 21.1153846,5.53274133 21.1153846,5.28846154 C21.1153846,5.04418175 20.9173567,4.84615385 20.6730769,4.84615385 C20.4287971,4.84615385 20.2307692,5.04418175 20.2307692,5.28846154 Z" fill="#D97B24"></path>
            <path d="M16.6923077,4.40384615 C16.6923077,4.64812595 16.8903356,4.84615385 17.1346154,4.84615385 C17.3788952,4.84615385 17.5769231,4.64812595 17.5769231,4.40384615 C17.5769231,4.15956636 17.3788952,3.96153846 17.1346154,3.96153846 C16.8903356,3.96153846 16.6923077,4.15956636 16.6923077,4.40384615 Z" fill="#D73949"></path>
            <path d="M6.07692308,0.865384615 C6.07692308,1.10966441 6.27495098,1.30769231 6.51923077,1.30769231 C6.76351056,1.30769231 6.96153846,1.10966441 6.96153846,0.865384615 C6.96153846,0.621104822 6.76351056,0.423076923 6.51923077,0.423076923 C6.27495098,0.423076923 6.07692308,0.621104822 6.07692308,0.865384615 Z" fill="#D73949"></path>
            <path d="M13.1538462,6.17307692 C13.1538462,6.41735672 13.3518741,6.61538462 13.5961538,6.61538462 C13.8404336,6.61538462 14.0384615,6.41735672 14.0384615,6.17307692 C14.0384615,5.92879713 13.8404336,5.73076923 13.5961538,5.73076923 C13.3518741,5.73076923 13.1538462,5.92879713 13.1538462,6.17307692 Z" fill="#D73949"></path>
            <path d="M6.96153846,6.17307692 C6.96153846,6.41735672 7.15956636,6.61538462 7.40384615,6.61538462 C7.64812595,6.61538462 7.84615385,6.41735672 7.84615385,6.17307692 C7.84615385,5.92879713 7.64812595,5.73076923 7.40384615,5.73076923 C7.15956636,5.73076923 6.96153846,5.92879713 6.96153846,6.17307692 Z" fill="#159A8D"></path>
            <path d="M5.19230769,3.51923077 C5.19230769,3.76351056 5.39033559,3.96153846 5.63461538,3.96153846 C5.87889518,3.96153846 6.07692308,3.76351056 6.07692308,3.51923077 C6.07692308,3.27495098 5.87889518,3.07692308 5.63461538,3.07692308 C5.39033559,3.07692308 5.19230769,3.27495098 5.19230769,3.51923077 Z" fill="#159A8D"></path>
            <path d="M10.5,8.82692308 C10.5,9.07120287 10.6980279,9.26923077 10.9423077,9.26923077 C11.1865875,9.26923077 11.3846154,9.07120287 11.3846154,8.82692308 C11.3846154,8.58264328 11.1865875,8.38461538 10.9423077,8.38461538 C10.6980279,8.38461538 10.5,8.58264328 10.5,8.82692308 Z" fill="#D73949"></path>
        </g>
    </g>
</svg>