<?xml version="1.0" encoding="UTF-8"?>
<svg width="20px" height="20px" viewBox="0 0 20 20" version="1.1" xmlns="http://www.w3.org/2000/svg" xmlns:xlink="http://www.w3.org/1999/xlink">
    <!-- Generator: Sketch 51.2 (57519) - http://www.bohemiancoding.com/sketch -->
    <title>3D球形地图选中--已选组件列表</title>
    <desc>Created with Sketch.</desc>
    <defs></defs>
    <g id="3D球形地图选中--已选组件列表" stroke="none" stroke-width="1" fill="none" fill-rule="evenodd">
        <g id="diqiu-copy-2" fill="#36ABE1" fill-rule="nonzero">
            <path d="M10.0042861,0 C12.7670662,0 15.2681208,1.12768783 17.0784973,2.93064458 C18.8931826,4.74221412 20,7.2376428 20,9.99677584 C20,12.7537895 18.8932051,15.2663536 17.0870922,17.0586458 C15.2681208,18.8680509 12.7670662,20 10.0042861,20 C7.24793532,20 4.74473763,18.8680509 2.93650418,17.0586684 C1.13041379,15.2663761 0,12.7537895 0,9.99677584 C0,7.2376428 1.13041379,4.74219157 2.93650418,2.93064458 C4.74476019,1.12768783 7.24795788,0 10.0042861,0 Z M9.54311973,18.4478735 L9.54311973,15.2063798 C8.62719355,15.2577859 7.76276876,15.4378877 6.94122796,15.7423111 C6.82969801,15.7937623 6.71385936,15.832362 6.60875862,15.8795068 C6.66238052,16.0167476 6.74388491,16.175385 6.82112572,16.3040131 C7.32519869,17.2173058 7.93865853,17.9204648 8.6079059,18.3364034 C8.91249275,18.3964223 9.22350882,18.4264318 9.54311973,18.4478735 Z M15.9845609,4.01544889 C15.9287733,3.94469784 15.8472915,3.88682087 15.7829317,3.8139279 C15.413985,4.09264825 15.0107266,4.34345598 14.5988734,4.56427681 C15.1437099,5.99422358 15.4912033,7.70072622 15.5426821,9.53371497 L18.4513263,9.53371497 C18.3354877,7.3791449 17.4131097,5.45182142 15.9845609,4.01544889 Z M15.0407748,3.20934239 C14.5131054,2.81915193 13.9510793,2.4761514 13.3204523,2.21458897 C13.5650106,2.5276026 13.7923567,2.87919337 13.9982946,3.25220336 C14.0841077,3.40227314 14.1570172,3.55876869 14.238499,3.71312231 C14.513128,3.56309762 14.7876442,3.39158608 15.0407748,3.20934239 Z M11.4028546,1.65507399 C11.0961021,1.6057647 10.782943,1.57147141 10.4633546,1.55002965 L10.4633546,4.79580725 C11.3771152,4.74649796 12.2565414,4.55999297 13.0588172,4.26199532 C13.1875142,4.21266349 13.2990216,4.16551867 13.4148603,4.12263515 C13.337642,3.97256537 13.2604238,3.83534712 13.1917778,3.70457717 C12.6812531,2.77629096 12.0721019,2.07099004 11.4028546,1.65507399 Z M9.54311973,1.55002965 C9.22350882,1.57147141 8.91247019,1.6057647 8.60788334,1.65507399 C7.93434983,2.07099004 7.31872435,2.77629096 6.82110316,3.69817396 C6.74388491,3.8289439 6.67095281,3.96402023 6.60873606,4.11620939 C6.7138368,4.16554122 6.82967545,4.21268604 6.9412054,4.25771148 C7.76272364,4.55999297 8.62717099,4.7465205 9.54311973,4.7915234 L9.54311973,1.55002965 Z M6.67954765,2.21461151 C6.07037395,2.47617394 5.48477404,2.81917448 4.95710473,3.20936493 C5.21452145,3.39160863 5.4804879,3.55881378 5.76790762,3.71316741 C5.84941201,3.55881378 5.92665282,3.40231824 6.00815721,3.25224845 C6.22050175,2.87919337 6.43715499,2.52762515 6.67954765,2.21461151 Z M4.23637853,3.81390535 C4.16130335,3.88679832 4.09480046,3.94469784 4.02401142,4.01542634 C2.59115385,5.45182142 1.66236924,7.37912235 1.55295981,9.53369242 L4.47443993,9.53369242 C4.52379824,7.70070368 4.84981581,5.99420103 5.41181938,4.56425426 C4.99355951,4.34345598 4.59887342,4.0926257 4.23637853,3.81390535 Z M1.55298237,10.4577173 C1.6623918,12.6080036 2.59117641,14.5546043 4.02403398,15.9781479 L4.23640108,16.1839527 C4.59889598,15.9052549 4.99358206,15.660873 5.40329221,15.4378877 C4.84988348,14.0015151 4.51741415,12.2949899 4.4745076,10.4577173 L1.55298237,10.4577173 Z M4.95710473,16.7842319 C5.48477404,17.1787287 6.07037395,17.5174454 6.67526151,17.7789853 C6.43715499,17.4617103 6.22052431,17.1186873 6.00817977,16.7456322 C5.92667537,16.5998688 5.84943457,16.4412088 5.77223888,16.2697198 C5.48477404,16.4326185 5.21449889,16.5998688 4.95710473,16.7842319 Z M10.4633095,18.4478735 C10.7829204,18.4264318 11.0961021,18.3964223 11.402832,18.3449937 C12.0720794,17.9247712 12.6812531,17.2173058 13.1917553,16.3082969 C13.2604012,16.175385 13.3376195,16.0167476 13.4019567,15.8795068 C13.2989991,15.8280781 13.1874691,15.7937623 13.058772,15.7423111 C12.2479692,15.4378877 11.3727839,15.2578084 10.4633095,15.2063798 L10.4633095,18.4478735 Z M13.3290472,17.7789853 C13.9510793,17.5174228 14.5131054,17.1787287 15.049347,16.7842319 C14.7876442,16.6084365 14.5216777,16.4326185 14.2428303,16.2697198 C14.1570172,16.4412088 14.0841077,16.5998913 13.9982946,16.7456322 C13.7923567,17.1186873 13.5650106,17.4531201 13.3290472,17.7789853 Z M15.7829542,16.1839527 L15.9845834,15.9781479 C17.4131323,14.5546043 18.3355102,12.6080036 18.4513489,10.4577173 L15.5426821,10.4577173 C15.4912033,12.2949899 15.1480186,14.0015151 14.5988734,15.4378877 C15.0107266,15.660873 15.413985,15.9095613 15.7829542,16.1839527 Z M13.7623311,4.96303494 C13.6379202,5.01236678 13.504937,5.06807928 13.380526,5.11953049 C12.4538845,5.46041165 11.4800503,5.66193264 10.463332,5.72195154 L10.463332,9.53371497 L14.6074457,9.53371497 C14.5688479,7.84222832 14.2599974,6.27077946 13.7623311,4.96303494 Z M9.54311973,5.72195154 C8.51994974,5.66193264 7.54182937,5.46041165 6.62376012,5.11953049 C6.49291997,5.06807928 6.36207982,5.01236678 6.23981195,4.96303494 C5.74859742,6.27077946 5.44615364,7.84222832 5.38824559,9.53371497 L9.54311973,9.53371497 L9.54311973,5.72195154 Z M9.54311973,14.2887806 L9.54311973,10.4577173 L5.38824559,10.4577173 C5.44615364,12.1577942 5.74859742,13.7227948 6.23981195,15.0305393 C6.36207982,14.9705204 6.49291997,14.9276594 6.62376012,14.8890372 C7.54182937,14.5417754 8.51994974,14.335948 9.54311973,14.2887806 Z M10.463332,14.2887806 C11.4800503,14.3402544 12.4624793,14.5417754 13.380526,14.8890372 C13.504937,14.9276594 13.6379202,14.9748268 13.7623311,15.0305393 C14.2599974,13.7227948 14.5688479,12.1577942 14.6074457,10.4577173 L10.463332,10.4577173 L10.463332,14.2887806 Z" id="Shape"></path>
        </g>
    </g>
</svg>