<?xml version="1.0" encoding="UTF-8"?>
<svg width="20px" height="20px" viewBox="0 0 20 20" version="1.1" xmlns="http://www.w3.org/2000/svg" xmlns:xlink="http://www.w3.org/1999/xlink">
    <!-- Generator: Sketch 51.2 (57519) - http://www.bohemiancoding.com/sketch -->
    <title>时间器--已选组件列表</title>
    <desc>Created with Sketch.</desc>
    <defs></defs>
    <g id="时间器--已选组件列表" stroke="none" stroke-width="1" fill="none" fill-rule="evenodd">
        <g id="shijian-2-copy" fill="#787993" fill-rule="nonzero">
            <path d="M10,0 C4.5,0 0,4.5 0,10 C0,15.5 4.5,20 10,20 C15.5,20 20,15.5 20,10 C20,4.5 15.5,0 10,0 Z M10,18.5714286 C5.28571429,18.5714286 1.42857143,14.7142857 1.42857143,10 C1.42857143,5.28571429 5.28571429,1.42857143 10,1.42857143 C14.7142857,1.42857143 18.5714286,5.28571429 18.5714286,10 C18.5714286,14.7142857 14.7142857,18.5714286 10,18.5714286 Z M13.5714286,10 L10,10 L10,5.00000001 C10,4.57142858 9.71428572,4.2857143 9.28571429,4.28571428 C8.85714286,4.28571426 8.57142859,4.64285715 8.57142857,5.00000001 L8.57142857,10.7142857 C8.57142857,11.1428571 8.85714284,11.4285714 9.28571429,11.4285714 L13.5714286,11.4285714 C14,11.4285714 14.2857143,11.1428572 14.2857143,10.7142857 C14.2857143,10.2857143 14,10 13.5714286,10 Z" id="Shape"></path>
        </g>
    </g>
</svg>