<?xml version="1.0" encoding="UTF-8"?>
<svg width="18px" height="17px" viewBox="0 0 18 17" version="1.1" xmlns="http://www.w3.org/2000/svg" xmlns:xlink="http://www.w3.org/1999/xlink">
    <!-- Generator: Sketch 51.2 (57519) - http://www.bohemiancoding.com/sketch -->
    <title>标题--已选组件列表</title>
    <desc>Created with Sketch.</desc>
    <defs></defs>
    <g id="标题--已选组件列表" stroke="none" stroke-width="1" fill="none" fill-rule="evenodd">
        <g id="标题-copy-2" fill="#787993" fill-rule="nonzero">
            <path d="M2.04225124,1.234663 L2.04225124,6.6784044 L3.54053835,6.6784044 L3.54053835,1.234663 L5.5827896,1.234663 L5.5827896,0 L0,0 L0,1.234663 L2.04225124,1.234663 Z M7.24845027,1.09436037 L7.24845027,0 L5.89331159,0 L5.89331159,1.09436037 L7.24845027,1.09436037 Z M5.89331159,1.842641 L5.89331159,6.6784044 L7.24845027,6.6784044 L7.24845027,1.842641 L5.89331159,1.842641 Z M9.66802611,1.842641 L9.66802611,0.392847316 L8.31288744,0.392847316 L8.31288744,1.842641 L7.49216964,1.842641 L7.49216964,2.7312242 L8.31288744,2.7312242 L8.31288744,5.58404401 C8.31288744,5.82723643 8.35424102,6.02365811 8.43694942,6.17331499 C8.51965784,6.32297185 8.63258491,6.43833063 8.7757341,6.51939478 C8.91888326,6.60045891 9.08429759,6.65502049 9.27198206,6.68308115 C9.45966651,6.71114181 9.65848184,6.72517193 9.86843394,6.72517193 C10.0020398,6.72517193 10.1388248,6.72205413 10.2787928,6.71581844 C10.4187609,6.70958274 10.5460027,6.69711152 10.660522,6.6784044 L10.660522,5.64951857 C10.5969002,5.66198998 10.5300982,5.67134338 10.4601142,5.67757909 C10.3901302,5.6838148 10.3169661,5.6869326 10.2406199,5.6869326 C10.0115812,5.6869326 9.85889109,5.64951894 9.78254487,5.5746905 C9.70619864,5.49986208 9.66802611,5.35020745 9.66802611,5.12572215 L9.66802611,2.7312242 L10.660522,2.7312242 L10.660522,1.842641 L9.66802611,1.842641 Z M10.9805873,0 L10.9805873,6.6784044 L12.3357259,6.6784044 L12.3357259,0 L10.9805873,0 Z M16.3585645,3.74140301 L14.1540783,3.74140301 C14.1604405,3.64786747 14.1811173,3.54186211 14.2161093,3.42338377 C14.2511013,3.30490542 14.3115411,3.19266444 14.3974306,3.08665749 C14.4833202,2.98065055 14.5978378,2.89179311 14.7409869,2.82008254 C14.8841361,2.74837194 15.0638651,2.71251718 15.2801794,2.71251718 C15.6110131,2.71251718 15.857544,2.79981573 16.0197797,2.97441541 C16.1820155,3.14901508 16.2949426,3.40467507 16.3585645,3.74140301 Z M14.1540783,4.58321872 L17.7137031,4.58321872 C17.7391519,4.20907654 17.7073414,3.85052899 17.6182709,3.50756534 C17.5292002,3.16460167 17.3844627,2.85905681 17.1840538,2.5909216 C16.983645,2.32278638 16.7275709,2.10921674 16.4158238,1.95020634 C16.1040768,1.7911959 15.7382566,1.71169189 15.3183524,1.71169189 C14.9429834,1.71169189 14.6010211,1.77716578 14.2924551,1.90811554 C13.9838892,2.0390653 13.7182719,2.21833908 13.4955954,2.44594222 C13.272919,2.67354538 13.1011425,2.94323548 12.980261,3.25502064 C12.8593794,3.56680577 12.7989396,3.90352868 12.7989396,4.26519945 C12.7989396,4.63934163 12.8577889,4.98230015 12.9754893,5.29408528 C13.0931898,5.60587043 13.2601947,5.87400162 13.476509,6.09848693 C13.6928232,6.32297224 13.95685,6.49601039 14.2685971,6.61760661 C14.5803441,6.73920281 14.9302591,6.8 15.3183524,6.8 C15.8782247,6.8 16.3553814,6.67528781 16.7498369,6.4258597 C17.1442924,6.17643157 17.4369485,5.76176355 17.627814,5.18184319 L16.4349102,5.18184319 C16.390375,5.33150007 16.2694953,5.47336018 16.0722675,5.60742779 C15.8750398,5.74149539 15.6396425,5.8085282 15.3660685,5.8085282 C14.9843374,5.8085282 14.6916812,5.71187625 14.4880913,5.51856947 C14.2845014,5.32526268 14.1731648,5.0134822 14.1540783,4.58321872 Z M0,9.06666667 L18,9.06666667 L18,10.2 L0,10.2 L0,9.06666667 Z M0,12.4666667 L18,12.4666667 L18,13.6 L0,13.6 L0,12.4666667 Z M0,15.8666667 L13.5,15.8666667 L13.5,17 L0,17 L0,15.8666667 Z" id="Shape"></path>
        </g>
    </g>
</svg>