<?xml version="1.0" encoding="UTF-8"?>
<svg width="19px" height="13px" viewBox="0 0 19 13" version="1.1" xmlns="http://www.w3.org/2000/svg" xmlns:xlink="http://www.w3.org/1999/xlink">
    <!-- Generator: Sketch 51.2 (57519) - http://www.bohemiancoding.com/sketch -->
    <title>世界地图--已选组件列表</title>
    <desc>Created with Sketch.</desc>
    <defs></defs>
    <g id="世界地图--已选组件列表" stroke="none" stroke-width="1" fill="none" fill-rule="evenodd">
        <g id="世界地图-copy-2" fill="#BAC0D6" fill-rule="nonzero">
            <path d="M16.161878,8.0415632 C16.161878,7.98063419 15.7639852,7.39172938 15.6568532,6.96529435 C15.5497212,6.53883665 15.3507849,6.2545542 15.4732041,6.19362519 C15.5956234,6.13269618 15.5650287,6.74191823 15.8098874,6.57944843 C16.054746,6.41700131 16.5138485,6.49822487 15.8557895,5.64533215 L15.8864044,5.36102702 C15.8864044,5.36102702 16.4985411,5.36102702 16.5903656,4.85334576 C16.6821901,4.3456645 16.1618579,3.63492434 16.2230877,3.55370078 C16.2842973,3.47247722 16.5509489,3.63492434 16.6012621,3.7161479 C16.6515753,3.79737146 16.8811265,4.42688806 17.080083,4.38627628 C17.1407891,4.37387279 17.1555124,4.30618649 17.1415343,4.20432825 C17.1715853,4.25555215 17.2745883,4.2979553 17.6157026,4.14308179 C18.1513221,3.89988729 17.523878,3.59453932 17.523878,3.59453932 L17.6769122,3.26939565 L17.4481263,3.04601953 L17.2894526,3.31000743 C17.2894526,3.31000743 17.2484045,4.10197115 17.1307788,4.14308179 C17.1307788,4.14308179 17.1306983,4.14367135 17.130658,4.14378473 C17.0800226,3.90528406 16.9162531,3.53238584 16.789302,3.20846664 C16.7274277,3.05059997 16.8821739,3.25429378 16.972951,3.12724308 C17.1740828,2.84570436 17.5085706,2.70078539 16.8046094,2.15251502 C16.4832336,2.21344403 16.2995846,1.66515099 16.5597507,1.70576277 C16.8199169,1.74637455 17.2701572,1.54202315 17.3772891,1.56234038 C17.4844211,1.58265761 17.447361,1.9900679 17.447361,1.9900679 C17.447361,1.9900679 17.7637014,2.47743194 17.7993516,2.55865549 C17.8350019,2.63987905 17.8146591,2.05097424 17.8146591,2.05097424 C17.8146591,2.05097424 17.4626684,1.78698633 17.5698004,1.66515099 C17.6769324,1.54331565 17.845274,1.64483376 17.9523858,1.58392743 C18.0595178,1.52299842 17.9523858,1.17778696 17.9523858,1.17778696 C17.9523858,1.17778696 17.4626684,0.934093607 17.3708439,0.771646489 C17.2790194,0.60919937 16.5750582,0.60919937 16.2230877,0.64981115 C15.871097,0.467046804 14.6621311,0.446752251 14.6621311,0.446752251 L12.7185892,0 C12.7185892,0 12.8614117,0.351991432 12.7185892,0.433214992 C12.5757667,0.514438551 12.249275,0.270767873 12.1880654,0.433214992 C12.1268557,0.59566211 11.698348,0.731057384 11.6371384,0.785206424 C11.5759287,0.839355463 11.4126829,1.08304882 11.4126829,1.08304882 L11.2902636,0.866429983 L11.2188423,1.08304882 L11.0045985,1.27935042 L10.9127135,1.13302557 L10.8515643,1.03565707 L11.096423,1.03565707 C11.096423,1.03565707 11.203555,0.731057384 10.7444324,0.791963716 C10.3312321,0.588882142 10.0251637,0.710740157 9.88743702,0.832575496 C9.7497103,0.954410835 9.65788577,1.21839874 9.53544636,1.27932775 C9.41300694,1.34025675 9.42831439,1.86823257 9.53544636,1.86823257 L9.90274446,1.86823257 L10.0404712,1.68546822 C10.0404712,1.68546822 10.2241202,0.913799055 10.3006373,1.13717518 C10.3771544,1.36055131 9.93335935,1.60424466 10.5761109,1.60424466 C10.382089,1.92918425 10.1476032,2.03070236 10.1476032,2.03070236 L9.7497103,2.03070236 C9.7497103,2.03070236 9.32120256,2.31500749 9.24468547,2.37591382 C9.16816839,2.43684283 8.87740751,2.03070236 8.87740751,2.03070236 C8.87740751,2.03070236 8.96923204,2.55867817 8.96923204,2.82266608 C8.96923204,3.08665398 8.58664663,3.16787754 8.58664663,3.16787754 C8.58664663,3.16787754 8.64785626,3.73646513 8.66316371,4.02077026 C8.47951466,4.22385184 8.47951466,4.58935785 8.47951466,4.58935785 L8.20404108,4.7721222 L8.0816218,5.88900283 C8.0816218,5.88900283 7.89797275,6.23421429 8.0816218,6.35607231 C8.26527085,6.47790765 8.57133918,7.06681246 8.57133918,7.06681246 C8.57133918,7.06681246 8.89271495,7.14803602 9.03044167,7.06681246 C9.16816839,6.9855889 9.22937803,6.51851943 9.41302708,6.94497712 C9.59667614,7.37143482 9.61196344,7.00590613 9.61196344,7.00590613 C9.61196344,7.00590613 9.85682213,7.18867048 9.68848052,7.67603451 C9.79561249,7.81818708 9.87212957,8.00095142 9.87212957,8.42738645 L9.87212957,9.3005964 C9.87212957,9.3005964 10.361847,10.5799468 10.2700224,10.8845465 C10.1781979,11.1891462 10.6067056,10.7830057 10.7597398,10.8845465 C10.912774,10.9860873 11.3871839,9.93011299 11.3259743,9.5645843 C11.2647646,9.19905561 11.7085597,9.05690304 11.7391746,8.8741387 C11.7697895,8.69137435 11.7085597,8.14308131 11.5402382,7.98063419 C11.3718966,7.81818708 12.5808826,6.66067199 12.3819261,6.33577775 C12.1829696,6.01086084 11.9840333,6.55915388 11.8309991,6.45761309 C11.6779649,6.35607231 11.7238671,6.15301341 11.7238671,6.15301341 C11.7238671,6.15301341 12.6313166,6.07178985 12.7820748,5.64533215 C12.932833,5.21887445 13.0858672,4.5690633 13.590892,5.58440314 C14.0959168,6.59974298 14.2948532,7.00588346 14.4172724,6.86375357 C14.5396917,6.72162367 14.1112041,5.8890255 14.4172724,5.78748472 C14.7233408,5.68594393 14.5244044,5.32041524 14.7539557,5.32041524 C14.9835069,5.32041524 15.8711171,7.59481095 15.5803361,7.26989404 C15.2895752,6.94497712 15.1671358,7.08712969 15.1671358,7.08712969 C15.1671358,7.08712969 15.5650287,7.53388194 15.871097,8.2446221 C16.0700333,8.22430487 16.4985411,8.26493933 16.4985411,8.26493933 C16.4985411,8.26493933 16.161878,8.10249221 16.161878,8.0415632 Z M16.8788707,7.79396967 L16.9882585,8.04158588 C16.9882585,8.0415632 17.0030422,7.85648596 16.8788707,7.79396967 Z" id="Shape"></path>
            <path d="M16.7912716,7.01514629 C16.7912716,7.01514629 16.5015076,7.33328314 16.4049125,7.4128118 C16.3083174,7.49234047 16.5176103,8.0490855 16.9039693,7.92977031 C17.0148873,7.89553435 17.0904853,7.90128475 17.1430734,7.92592931 L16.9844617,7.59176239 C16.9844617,7.59174019 17.0810356,7.01514629 16.7912716,7.01514629 Z M18.4977138,8.78473672 L18.626493,8.32741361 L18.9645652,8.54612853 C18.9645652,8.54612853 19.209623,8.34730688 18.3224061,7.71103318 C18.3224061,7.71103318 17.9342461,7.79056184 17.8698564,7.59174019 C17.8054668,7.39289634 17.8698564,8.10869869 17.8698564,8.10869869 L18.1457636,8.16835629 L18.3224061,8.54612853 C18.3224061,8.54612853 18.6139711,9.46075254 18.3224061,9.26193089 C18.0308411,9.06308703 17.9986357,9.30169522 18.0308411,9.06308703 C18.0630466,8.82447885 17.8918705,8.62565719 17.7762276,8.74495019 C17.6605848,8.86424318 17.0649329,9.18238003 16.9039482,9.56017447 C16.7429634,9.93796892 16.6946553,9.56017447 16.6946553,9.56017447 L16.4853837,9.85841805 L16.6624711,10.0970262 L16.4853837,10.3157412 C16.4853837,10.3157412 16.1970816,10.8326997 16.3814788,10.9321216 C16.565876,11.0315435 17.5157028,10.753171 17.5157028,10.753171 L17.7762488,11.2900228 C17.7762488,11.2900228 17.8215907,11.8069813 17.9342673,11.8268745 C18.0469438,11.8467678 18.227612,11.309916 18.3224273,11.2104941 C18.4172214,11.1110722 18.7713962,10.9917792 18.9645864,10.1566838 C19.1577553,9.32158849 18.4977138,8.78473672 18.4977138,8.78473672 Z M6.34328323,1.50746456 C6.53647336,1.76594381 6.68135536,1.9448944 6.7296423,1.9448944 C6.77792924,1.9448944 7.90484341,1.14274727 7.90484341,1.14274727 C7.90484341,1.14274727 8.43996185,0.691796227 8.3234079,0.340600145 C7.90484341,-0.34167673 6.40767287,0.195175038 6.10180616,0.294596966 C5.79593944,0.394018894 6.29499629,0.0758820461 6.29499629,0.0758820461 C6.29499629,0.0758820461 5.50719245,0.0361177153 5.29741229,0.195175038 C5.08761095,0.354232361 4.65294375,0.71213354 4.5885541,0.71213354 C4.52416445,0.71213354 4.21827655,0.53318295 4.21827655,0.53318295 L3.12356779,0.771791137 C3.12356779,0.771791137 2.72110601,0.986087798 2.43132082,1.00817909 C2.14153562,1.03027039 1.28832512,0.791662201 1.28832512,0.791662201 C1.28832512,0.791662201 0.467298853,1.66652188 0.370703788,1.66652188 C0.274108723,1.66652188 -0.0800661194,2.02442306 0.0165289456,2.08408066 C0.11312401,2.14373825 0.5316885,1.50746456 0.998539928,1.90513007 C1.46539136,2.30279558 1.65858149,2.44198184 1.48149406,3.05836227 C1.30440664,3.67474269 1.40100171,4.98703222 1.72297113,5.36482666 C2.04494056,5.7425989 2.57620282,5.64319918 2.80157718,6.04086469 C3.02695154,6.4385302 3.22014167,6.71690271 3.52600839,6.81630244 C3.8318751,6.91570216 3.42941332,7.61163346 3.50990568,7.87011271 C3.59039803,8.12859196 3.73528004,8.60578613 3.73528004,8.60578613 C3.73528004,8.60578613 3.94455169,9.12274463 4.28262382,9.36135282 C4.62069595,9.599961 3.89626475,12.8210494 5.23245057,13 C4.94266538,12.0654827 4.82998879,11.5087599 5.05536315,11.4292312 C5.28073751,11.3497026 5.39343529,11.3497026 5.39343529,11.3497026 L5.97298449,9.81869813 C5.97298449,9.81869813 6.37544627,9.72416071 6.34326204,9.69190076 C6.31105662,9.6596408 6.4398571,8.84441652 6.47204133,8.78478112 C6.50422556,8.72514573 6.7135184,8.42687995 6.61692334,8.26782262 C6.52032827,8.1087653 6.2788512,7.85026385 5.89249213,7.71109979 C5.71540471,7.55690477 5.57052271,7.07482609 5.36122987,7.0151907 C5.15195822,6.9555331 4.84607031,6.5357763 4.84607031,6.5357763 C4.84607031,6.5357763 4.57238783,6.67496256 4.28262382,6.5357763 C3.99283863,6.39659004 3.38110519,6.63739625 3.38110519,6.63739625 C3.38110519,6.63739625 3.46159755,6.27949508 3.36500249,6.08067342 C3.26840742,5.88182957 3.12352542,6.12043775 3.12352542,6.12043775 C3.12352542,6.12043775 3.23622319,5.72277224 3.17181236,5.50405732 C3.10742271,5.2853424 2.78384301,5.67994399 2.78384301,5.67994399 C2.78384301,5.67994399 2.46346267,5.58358598 2.49566809,5.02686315 C2.52787351,4.47014032 3.65476649,4.78825497 3.65476649,4.78825497 L3.71915614,5.24557807 L3.86403814,4.45712977 L4.39985578,3.86712568 L5.47390645,2.83969175 C5.47390645,2.83969175 5.77977317,3.41630785 5.90857365,3.17769966 C5.82144952,2.99537432 5.699302,2.78003415 5.8280813,2.56131923 C5.15193703,1.46774463 5.94077907,1.44785137 5.94077907,1.44785137 L5.49000916,0.851364203 C5.49000916,0.851364203 5.23242939,0.69230688 5.31292174,0.652520347 C5.3934141,0.612756016 5.50611187,0.19519724 5.79587588,0.394041096 C6.08563989,0.592884952 6.34321966,0.990528259 6.34321966,0.990528259 C6.34321966,0.990528259 6.1500931,1.24898531 6.34328323,1.50746456 Z" id="Shape"></path>
        </g>
    </g>
</svg>