<?xml version="1.0" encoding="UTF-8"?>
<svg width="18px" height="16px" viewBox="0 0 18 16" version="1.1" xmlns="http://www.w3.org/2000/svg" xmlns:xlink="http://www.w3.org/1999/xlink">
    <!-- Generator: Sketch 51.2 (57519) - http://www.bohemiancoding.com/sketch -->
    <title>图表组件</title>
    <desc>Created with Sketch.</desc>
    <defs></defs>
    <g id="图表组件" stroke="none" stroke-width="1" fill="none" fill-rule="evenodd">
        <g id="图表-表格" fill="#2CA7E0" fill-rule="nonzero">
            <path d="M16.7142857,0 L1.28571429,0 C0.578571429,0 0,0.5765625 0,1.28125 L0,14.09375 C0,14.7984375 0.578571429,15.375 1.28571429,15.375 L16.7142857,15.375 C17.4214286,15.375 18,14.7984375 18,14.09375 L18,1.28125 C18,0.5765625 17.4214286,0 16.7142857,0 Z M5.78571429,14.09375 L1.28571429,14.09375 L1.28571429,10.890625 L5.78571429,10.890625 L5.78571429,14.09375 Z M5.78571429,9.609375 L1.28571429,9.609375 L1.28571429,6.40625 L5.78571429,6.40625 L5.78571429,9.609375 Z M5.78571429,5.125 L1.28571429,5.125 L1.28571429,1.921875 L5.78571429,1.921875 L5.78571429,5.125 Z M10.9285714,14.09375 L7.07142857,14.09375 L7.07142857,10.890625 L10.9285714,10.890625 L10.9285714,14.09375 Z M10.9285714,9.609375 L7.07142857,9.609375 L7.07142857,6.40625 L10.9285714,6.40625 L10.9285714,9.609375 Z M10.9285714,5.125 L7.07142857,5.125 L7.07142857,1.921875 L10.9285714,1.921875 L10.9285714,5.125 Z M16.7142857,14.09375 L12.2142857,14.09375 L12.2142857,10.890625 L16.7142857,10.890625 L16.7142857,14.09375 Z M16.7142857,9.609375 L12.2142857,9.609375 L12.2142857,6.40625 L16.7142857,6.40625 L16.7142857,9.609375 Z M16.7142857,5.125 L12.2142857,5.125 L12.2142857,1.921875 L16.7142857,1.921875 L16.7142857,5.125 Z" id="Shape"></path>
        </g>
    </g>
</svg>