<?xml version="1.0" encoding="UTF-8"?>
<svg width="71px" height="58px" viewBox="0 0 71 58" version="1.1" xmlns="http://www.w3.org/2000/svg" xmlns:xlink="http://www.w3.org/1999/xlink">
    <!-- Generator: Sketch 51.2 (57519) - http://www.bohemiancoding.com/sketch -->
    <title>基础地图组件</title>
    <desc>Created with Sketch.</desc>
    <defs>
        <path d="M46.5,25 C50.6421356,25 54,21.6421356 54,17.5 C54,13.3578644 50.6421356,10 46.5,10 C42.3578644,10 39,13.3578644 39,17.5 C39,21.6421356 42.3578644,25 46.5,25 Z" id="path-1"></path>
        <mask id="mask-2" maskContentUnits="userSpaceOnUse" maskUnits="objectBoundingBox" x="-1" y="-1" width="17" height="17">
            <rect x="38" y="9" width="17" height="17" fill="white"></rect>
            <use xlink:href="#path-1" fill="black"></use>
        </mask>
        <linearGradient x1="100%" y1="100%" x2="0%" y2="14.3784383%" id="linearGradient-3">
            <stop stop-color="#79EFFF" stop-opacity="0" offset="0%"></stop>
            <stop stop-color="#13F2F2" offset="100%"></stop>
        </linearGradient>
        <linearGradient x1="0%" y1="100%" x2="122.181622%" y2="50%" id="linearGradient-4">
            <stop stop-color="#13F2F2" offset="0%"></stop>
            <stop stop-color="#79EFFF" stop-opacity="0.507784194" offset="100%"></stop>
        </linearGradient>
        <radialGradient cx="50%" cy="47.4281973%" fx="50%" fy="47.4281973%" r="47.6427023%" id="radialGradient-5">
            <stop stop-color="#CDFFF5" offset="0%"></stop>
            <stop stop-color="#61F7FF" offset="100%"></stop>
        </radialGradient>
    </defs>
    <g id="基础地图组件" stroke="none" stroke-width="1" fill="none" fill-rule="evenodd">
        <g id="Group-11-Copy" transform="translate(2.000000, 2.000000)">
            <g id="Group-9-Copy-3">
                <g id="map" transform="translate(19.089385, 20.204082)"></g>
                <path d="M1.68272047,13.2289145 L0.690084343,14.8525685 C0.690084343,15.6453015 0.855523698,16.0416679 1.18640241,16.0416679 C1.68272047,16.0416679 2.17903854,17.5303466 1.68272047,17.5303466 C1.18640241,17.5303466 1.58589399,18.4534459 0.690084343,18.4534459 C-0.205725305,18.4534459 0.314927852,19.3285559 0.690084343,19.3285559 C1.06524083,19.3285559 1.68272047,19.2424394 1.68272047,19.6830391 C1.68272047,20.1236389 1.68272047,20.5251388 1.68272047,20.7493972 C1.68272047,20.9736555 1.96044962,22.1831641 2.59147284,22.1831641 C3.22249607,22.1831641 3.76526656,22.6370125 3.76526656,22.6370125 C3.76526656,22.6370125 3.07120567,23.4539074 3.41823611,23.8224472 C3.76526656,24.190987 4.12829888,24.1085866 4.12829888,24.3347838 C4.12829888,24.560981 3.76526656,24.4603232 3.76526656,24.8642467 C3.76526656,25.2681702 4.11229701,27.2806787 3.76526656,27.2806787 C3.41823611,27.2806787 3.46009959,26.833293 3.02578622,26.833293 C2.59147284,26.833293 2.59147284,27.0712848 2.59147284,27.2806787 C2.59147284,27.4900727 1.76470957,28.9092983 2.59147284,29.2791307 C3.41823611,29.648963 3.76526656,30.0341445 3.76526656,30.5687776 C3.76526656,31.1034108 4.65975492,32.0145006 4.92968545,32.0145006 C5.10963913,32.0145006 5.41146565,31.7885728 5.83516499,31.336717 C6.23041656,31.7327775 6.42804234,32.0471377 6.42804234,32.2797976 C6.42804234,32.6287875 6.45018634,33.4217701 7.13842838,33.4217701 C7.5972564,33.4217701 7.85608799,33.7661823 7.91492315,34.4550065 C8.42924587,35.2405569 8.97255515,35.7548862 9.54485097,35.9979943 C10.4032947,36.3626564 12.0301515,36.3558705 12.0301515,36.8163433 C12.0301515,37.2768161 13.7224704,36.9931002 13.7224704,37.5018823 C13.7224704,37.8410703 14.0440164,37.6125573 14.6871084,36.8163433 C15.5674806,36.9706959 16.296778,37.1992089 16.8750004,37.5018823 C17.7423341,37.9558923 17.3624917,38.3407506 17.3624917,38.7275478 C17.3624917,38.9854125 17.588242,39.4652737 18.0397426,40.1671311 C18.7733502,40.5251689 19.3407431,40.5251689 19.7419213,40.1671311 C20.1430994,39.8090933 21.0796668,39.194968 22.5516233,38.3247552 C23.1151908,38.0562269 23.3969746,38.0562269 23.3969746,38.3247552 C23.3969746,38.7275478 23.5744499,39.9976448 24.4272364,39.1612 C24.9957607,38.6035702 25.3624029,38.2350842 25.5271629,38.0557422 C26.1630352,39.1371801 26.4809713,39.8409764 26.4809713,40.1671311 C26.4809713,40.6563633 26.9105973,41.776524 26.6957843,42.0835058 C26.4809713,42.3904877 25.0482382,43.5232508 24.4272364,44.1212191 C23.8062345,44.7191875 23.8707269,45.5166941 24.4272364,45.5166941 C24.7982427,45.5166941 25.2700015,45.4462498 25.8425129,45.3053613 C26.2681518,45.4407565 26.4809713,45.8019718 26.4809713,46.3890073 C26.4809713,47.2695605 26.0170787,47.2092951 26.249025,47.6130571 C26.4809713,48.016819 27.5155973,49.273829 28.7204249,49.7729168 C29.5236433,50.1056421 29.8754151,49.8451922 29.7757401,48.9915672 L29.7757401,48.1231317 L30.618182,48.1231317 L30.8265296,47.2296529 L31.1476984,47.6130571 C32.2787127,47.6130571 32.8442199,47.6130571 32.8442199,47.6130571 C32.8442199,47.6130571 33.3965268,48.1231317 33.3965268,48.1231317 C33.3965268,48.1231317 34.3186548,47.9084059 34.3186548,47.9084059 C34.3186548,47.9084059 34.7421386,46.5508998 35.5858736,47.2296529 C36.4296085,47.9084059 36.6376328,46.8462487 36.6376328,47.2296529 C36.6376328,47.6130571 36.4546619,48.9159527 37.4388578,49.3444348 C38.4230536,49.7729168 40.4615948,49.3444348 40.4615948,49.3444348 C40.4615948,49.3444348 40.6505462,50.0052536 40.8939685,50.5870651 C41.1373909,51.1688765 40.8939685,51.8151541 40.8939685,51.8151541 C40.8939685,51.8151541 40.186007,52.132638 39.7579974,52.6596774 C39.3299878,53.1867168 38.870621,54.3189951 39.3143092,54.5594104 C39.7579974,54.7998257 40.663477,55.1950244 40.8939685,54.8772174 C41.1244601,54.5594104 42.7884929,53.6118059 43.0243185,53.0062437 C43.1815355,52.6025357 43.1815355,52.2055058 43.0243185,51.8151541 C42.4232516,50.4536626 42.1227182,49.7729168 42.1227182,49.7729168 C42.1227182,49.7729168 44.7069393,50.0259345 45.063183,49.3444348 C45.4194266,48.6629351 46.6704819,47.6130571 46.9088936,47.6130571 C47.1473053,47.6130571 46.6331442,47.9084059 48.3012179,47.9084059 C49.9692916,47.9084059 51.4451812,46.7134763 52.2552961,45.9695287 C53.0654109,45.225581 54.0835501,44.1568059 54.301919,43.4886288 C54.520288,42.8204517 54.1334953,41.591884 54.6119351,41.591884 C55.0903748,41.591884 55.8612124,40.3335476 56.1214448,39.7473738 C56.3816772,39.1612 57.6005671,37.6346923 57.3154429,36.8163433 C57.0303187,35.9979943 56.4376029,35.9979943 56.1214448,35.9979943 C55.8052866,35.9979943 56.3962244,35.3164945 56.3962244,35.3164945 C56.3962244,35.3164945 56.8908276,34.7976497 56.643526,34.4550065 C56.4786582,34.2265776 56.3046312,34.1123632 56.1214448,34.1123632 L56.643526,33.4217701 C56.4438528,32.681136 56.0036667,31.8055376 55.3229676,30.7949748 C54.301919,29.2791307 53.7298926,29.0885518 53.7298926,28.6384195 C53.7298926,28.1882871 56.6710039,25.3937097 56.3962244,24.8642467 C56.1214448,24.3347838 54.3943743,24.0357188 53.7298926,24.0357188 C53.0654109,24.0357188 51.5985729,24.1544723 51.0760068,23.8224472 C50.5534406,23.4904221 49.9062539,23.0065217 50.2298473,23.0065217 C50.5534406,23.0065217 50.5460054,22.1831641 51.0760068,22.1831641 C51.6060081,22.1831641 52.773498,21.0925706 53.0654109,20.7493972 C53.3573238,20.4062238 53.5551651,19.6830391 54.0835501,19.6830391 C54.6119351,19.6830391 54.6119351,21.3598064 54.6119351,22.1831641 C54.6119351,23.0065217 54.2497109,23.7080561 55.3229676,22.6370125 C56.3962244,21.5659689 58.9267827,19.6654281 59.4865248,18.8848863 C60.046267,18.1043445 60.2633429,17.2845413 60.2633429,17.2845413 C60.2633429,17.2845413 60.9341283,17.7761519 61.6011962,17.5303466 C62.268264,17.2845413 61.9813618,16.0416679 61.9813618,16.0416679 C61.9813618,16.0416679 61.7020565,16.4548825 63.1063418,15.2902902 C64.510627,14.1256979 64.7708595,13.1118499 64.6407433,12.0433915 C64.5539991,11.3310858 64.5539991,10.9334021 64.6407433,10.8503401 C64.9450482,10.9117518 65.2532862,10.7437272 65.5654574,10.3462665 C66.0337141,9.75007538 67.3814271,5.89389844 66.8391416,5.89389844 C66.4776178,5.89389844 65.7448184,6.2241463 64.6407433,6.88464202 C63.7791207,7.4740472 63.2676535,7.76874979 63.1063418,7.76874979 C62.8643741,7.76874979 62.3503746,7.4582134 62.3503746,6.88464202 C62.3503746,6.31107064 62.0749485,5.39400271 61.6011962,5.39400271 C61.1274439,5.39400271 59.6562417,5.64459685 59.2065729,5.1807311 C58.7569042,4.71686534 58.7342753,3.79074952 58.7342753,3.32817632 C58.7342753,2.86560312 57.9873598,1.40436944 57.3154429,1.12953989 C56.643526,0.854710336 55.1880024,0.115368749 54.301919,0.115368749 C53.4158357,0.115368749 52.2552961,1.12953989 52.2552961,1.12953989 C52.2552961,1.12953989 50.6749902,1.70230342 51.0760068,1.98698871 C51.4770233,2.271674 51.900992,2.23855227 51.900992,2.7833643 C51.900992,3.32817632 50.7520901,4.41650782 50.7520901,4.79861946 C50.7520901,5.1807311 50.9439509,4.90315486 50.2298473,5.89389844 C49.7537782,6.55439416 49.1109017,6.88464202 48.3012179,6.88464202 L47.9837667,6.13431371 C47.5005856,6.83746375 47.2589951,7.18903877 47.2589951,7.18903877 C47.2589951,7.18903877 46.9088936,8.01514313 46.9088936,8.30612962 C46.9088936,8.59711612 46.5342235,9.66266633 47.2589951,9.66266633 C47.9837667,9.66266633 49.525765,9.23305329 49.8778061,9.23305329 C50.1125002,9.23305329 50.4039282,9.37625763 50.7520901,9.66266633 L49.8778061,10.8503401 C49.0383815,11.6457077 48.512852,12.0433915 48.3012179,12.0433915 C47.9837667,12.0433915 47.6090966,12.744999 47.2589951,12.9869568 C46.9088936,13.2289145 46.9116414,12.8969778 46.3729118,13.2289145 C45.8341822,13.5608513 45.4814945,14.0248786 45.4814945,14.0248786 C45.4814945,14.0248786 44.7303764,14.3557728 44.4625471,14.0248786 C44.2839943,13.8042825 43.939119,13.5389612 43.4279212,13.2289145 C42.5790139,14.2795953 42.3667871,14.9667205 42.7912407,15.2902902 C43.4279212,15.7756447 43.8315239,15.7085918 43.4279212,16.0416679 C43.0243185,16.374744 42.8610671,17.0387361 42.4918926,17.2845413 C42.1227182,17.5303466 42.6055221,18.1587352 41.3913196,17.8445409 C40.1771171,17.5303466 39.6736239,17.5303466 38.5562408,17.5303466 C37.4388578,17.5303466 38.2400827,18.4534459 37.4388578,18.4534459 C36.6376328,18.4534459 36.3659243,19.0623509 35.2149211,18.4534459 C34.063918,17.8445409 32.1750508,17.5099307 31.8575995,17.0441261 C31.5401483,16.5783215 31.272319,16.4251537 30.1434599,16.5017376 C29.0146007,16.5783215 27.8214108,16.7930456 27.2585975,16.0416679 C26.6957843,15.2902902 26.0049561,14.0843362 25.5271629,13.5356465 C25.2086341,13.1698534 23.8356521,12.5858338 21.408217,11.7835879 C21.8197398,10.8092167 22.0255012,10.1022428 22.0255012,9.66266633 C22.0255012,9.0033016 21.7334267,7.18903877 21.1639864,7.18903877 C20.5945461,7.18903877 19.9588355,6.81516717 19.9588355,6.47474044 C19.9588355,6.13431371 19.7419213,5.56284273 19.7419213,5.1807311 C19.7419213,4.92599 19.5054492,4.79861946 19.032505,4.79861946 C17.2772562,5.98636999 16.3996317,6.68171085 16.3996317,6.88464202 C16.3996317,7.18903877 16.394621,7.76874979 16.0666635,7.76874979 C15.738706,7.76874979 14.6871084,7.81528178 14.6871084,7.50216027 C14.6871084,7.29341261 14.5039759,7.08757319 14.1377109,6.88464202 C13.632763,7.08757319 13.380289,7.18903877 13.380289,7.18903877 C13.380289,7.18903877 11.8166316,9.23305329 11.8166316,9.23305329 C11.8166316,9.23305329 10.362401,9.23305329 10.362401,9.23305329 C10.362401,9.23305329 9.52610131,8.47499252 9.94425118,9.66266633 C10.362401,10.8503401 9.94425118,11.5237843 9.94425118,11.7835879 C9.94425118,12.0433915 9.48035859,12.9221826 9.0597842,13.2289145 C8.6392098,13.5356465 7.59165305,13.0464143 7.36504072,13.5356465 C7.21396583,13.8618013 6.79560044,13.8618013 6.10994457,13.5356465 C5.89216828,13.6275457 5.56782062,13.8700075 5.13690158,14.2630319 C4.49052302,14.8525685 3.41823611,14.5011852 3.41823611,14.2630319 C3.41823611,14.0248786 3.06571007,13.5356465 2.59147284,13.5356465 C2.27531469,13.5356465 1.97239723,13.4334025 1.68272047,13.2289145 Z" id="Path-3" fill="#0F6BCF" fill-rule="nonzero"></path>
                <path d="M1.68272047,13.2289145 L0.690084343,14.8525685 C0.690084343,15.6453015 0.855523698,16.0416679 1.18640241,16.0416679 C1.68272047,16.0416679 2.17903854,17.5303466 1.68272047,17.5303466 C1.18640241,17.5303466 1.58589399,18.4534459 0.690084343,18.4534459 C-0.205725305,18.4534459 0.314927852,19.3285559 0.690084343,19.3285559 C1.06524083,19.3285559 1.68272047,19.2424394 1.68272047,19.6830391 C1.68272047,20.1236389 1.68272047,20.5251388 1.68272047,20.7493972 C1.68272047,20.9736555 1.96044962,22.1831641 2.59147284,22.1831641 C3.22249607,22.1831641 3.76526656,22.6370125 3.76526656,22.6370125 C3.76526656,22.6370125 3.07120567,23.4539074 3.41823611,23.8224472 C3.76526656,24.190987 4.12829888,24.1085866 4.12829888,24.3347838 C4.12829888,24.560981 3.76526656,24.4603232 3.76526656,24.8642467 C3.76526656,25.2681702 4.11229701,27.2806787 3.76526656,27.2806787 C3.41823611,27.2806787 3.46009959,26.833293 3.02578622,26.833293 C2.59147284,26.833293 2.59147284,27.0712848 2.59147284,27.2806787 C2.59147284,27.4900727 1.76470957,28.9092983 2.59147284,29.2791307 C3.41823611,29.648963 3.76526656,30.0341445 3.76526656,30.5687776 C3.76526656,31.1034108 4.65975492,32.0145006 4.92968545,32.0145006 C5.10963913,32.0145006 5.41146565,31.7885728 5.83516499,31.336717 C6.23041656,31.7327775 6.42804234,32.0471377 6.42804234,32.2797976 C6.42804234,32.6287875 6.45018634,33.4217701 7.13842838,33.4217701 C7.5972564,33.4217701 7.85608799,33.7661823 7.91492315,34.4550065 C8.42924587,35.2405569 8.97255515,35.7548862 9.54485097,35.9979943 C10.4032947,36.3626564 12.0301515,36.3558705 12.0301515,36.8163433 C12.0301515,37.2768161 13.7224704,36.9931002 13.7224704,37.5018823 C13.7224704,37.8410703 14.0440164,37.6125573 14.6871084,36.8163433 C15.5674806,36.9706959 16.296778,37.1992089 16.8750004,37.5018823 C17.7423341,37.9558923 17.3624917,38.3407506 17.3624917,38.7275478 C17.3624917,38.9854125 17.588242,39.4652737 18.0397426,40.1671311 C18.7733502,40.5251689 19.3407431,40.5251689 19.7419213,40.1671311 C20.1430994,39.8090933 21.0796668,39.194968 22.5516233,38.3247552 C23.1151908,38.0562269 23.3969746,38.0562269 23.3969746,38.3247552 C23.3969746,38.7275478 23.5744499,39.9976448 24.4272364,39.1612 C24.9957607,38.6035702 25.3624029,38.2350842 25.5271629,38.0557422 C26.1630352,39.1371801 26.4809713,39.8409764 26.4809713,40.1671311 C26.4809713,40.6563633 26.9105973,41.776524 26.6957843,42.0835058 C26.4809713,42.3904877 25.0482382,43.5232508 24.4272364,44.1212191 C23.8062345,44.7191875 23.8707269,45.5166941 24.4272364,45.5166941 C24.7982427,45.5166941 25.2700015,45.4462498 25.8425129,45.3053613 C26.2681518,45.4407565 26.4809713,45.8019718 26.4809713,46.3890073 C26.4809713,47.2695605 26.0170787,47.2092951 26.249025,47.6130571 C26.4809713,48.016819 27.5155973,49.273829 28.7204249,49.7729168 C29.5236433,50.1056421 29.8754151,49.8451922 29.7757401,48.9915672 L29.7757401,48.1231317 L30.618182,48.1231317 L30.8265296,47.2296529 L31.1476984,47.6130571 C32.2787127,47.6130571 32.8442199,47.6130571 32.8442199,47.6130571 C32.8442199,47.6130571 33.3965268,48.1231317 33.3965268,48.1231317 C33.3965268,48.1231317 34.3186548,47.9084059 34.3186548,47.9084059 C34.3186548,47.9084059 34.7421386,46.5508998 35.5858736,47.2296529 C36.4296085,47.9084059 36.6376328,46.8462487 36.6376328,47.2296529 C36.6376328,47.6130571 36.4546619,48.9159527 37.4388578,49.3444348 C38.4230536,49.7729168 40.4615948,49.3444348 40.4615948,49.3444348 C40.4615948,49.3444348 40.6505462,50.0052536 40.8939685,50.5870651 C41.1373909,51.1688765 40.8939685,51.8151541 40.8939685,51.8151541 C40.8939685,51.8151541 40.186007,52.132638 39.7579974,52.6596774 C39.3299878,53.1867168 38.870621,54.3189951 39.3143092,54.5594104 C39.7579974,54.7998257 40.663477,55.1950244 40.8939685,54.8772174 C41.1244601,54.5594104 42.7884929,53.6118059 43.0243185,53.0062437 C43.1815355,52.6025357 43.1815355,52.2055058 43.0243185,51.8151541 C42.4232516,50.4536626 42.1227182,49.7729168 42.1227182,49.7729168 C42.1227182,49.7729168 44.7069393,50.0259345 45.063183,49.3444348 C45.4194266,48.6629351 46.6704819,47.6130571 46.9088936,47.6130571 C47.1473053,47.6130571 46.6331442,47.9084059 48.3012179,47.9084059 C49.9692916,47.9084059 49.5622881,47.9736005 50.372403,47.2296529 C50.8358053,46.8040996 51.0313281,46.2568774 50.1184525,45.5166941 C49.4354491,44.962897 49.6935422,45.3053613 48.3012179,45.3053613 C46.9088936,45.3053613 47.3518261,43.5345513 47.2819708,42.9329 C47.188766,42.1301432 46.6354184,41.2536022 46.9088936,41.2536022 C47.3873333,41.2536022 45.6808982,40.7533049 45.9411306,40.1671311 C46.2013631,39.5809574 47.5670951,39.9795491 47.2819708,39.1612 C46.9968466,38.342851 48.0500675,37.5018823 47.7339094,37.5018823 C47.4177512,37.5018823 49.207149,36.8163433 49.207149,34.4550065 C49.207149,32.0936697 48.5485195,33.2902331 48.3012179,32.9475898 C48.0539163,32.6049465 49.3222665,31.3982014 48.3012179,29.8823573 C48.1229906,29.6177618 49.704386,28.7573244 47.7339094,27.4984691 C46.6375776,26.7980685 48.8145971,27.3612906 48.3012179,25.7862415 C48.134294,25.2741185 50.5787285,23.8479152 51.244382,22.1831641 C51.6708386,21.1166272 50.4381312,19.6198778 50.372403,19.2942716 C50.2515101,18.6953895 50.163939,18.1044154 50.1184525,17.5303466 C50.0928965,17.2078134 50.6657921,17.6011787 51.244382,17.8445409 C51.7422162,18.0539362 52.2565101,18.1255786 52.2552961,17.8445409 C52.2543607,17.6280075 53.5296952,17.389776 54.301919,17.0441261 C54.6347783,16.8951372 55.3138233,16.4577419 55.3229676,16.0416679 C55.3348043,15.5030919 54.613847,14.9717875 54.6119351,14.8525685 C54.6072344,14.5594662 54.869799,14.6070788 54.301919,14.0248786 C53.904778,13.6177228 53.4646719,13.7369832 53.0114468,13.5356465 C51.9101462,13.0464143 52.2552961,13.0357278 52.2552961,12.3845282 C52.2552961,11.7333287 53.0076197,11.9760649 53.0114468,11.7835879 C53.0171325,11.4976368 54.3593935,11.3513917 54.6119351,10.8503401 C54.8143175,10.4488062 53.1401818,10.6255728 53.4137141,10.3756345 C53.9532534,9.88263395 54.5824039,10.0960328 54.6119351,9.66266633 C54.6820788,8.6333153 54.1678609,9.3189562 54.301919,8.38323307 C54.3367899,8.13983534 54.2300842,7.97107337 54.1127474,7.81036167 C53.9782286,7.62611645 55.2881275,6.73815344 55.3229676,6.47474044 C55.3598105,6.19618562 55.6725051,5.47483477 56.0697267,5.1807311 C56.6113072,4.77974383 57.2774699,5.5222618 57.3154429,5.1807311 C57.3765535,4.63109981 58.7297496,5.27761452 58.7686357,4.79861946 C58.8131376,4.25044792 57.2881103,5.23388041 57.3154429,4.79861946 C57.3917393,3.58362787 55.1029775,2.95597964 54.6119351,2.75551301 C54.0013228,2.50623233 55.103063,0.591785023 54.6119351,0.591785023 C54.1626849,0.591785023 53.4147765,-0.141676519 53.0114468,0.115368749 C52.6192648,0.365309474 52.2552961,1.12953989 52.2552961,1.12953989 C52.2552961,1.12953989 51.7472549,1.04341602 51.244382,1.82883101 C50.6893796,2.69566481 50.0965493,4.50698331 49.207149,6.03221617 C48.9266452,6.51325243 47.5662398,5.54885958 47.2819708,6.03221617 C46.9740791,6.55573983 48.0314218,7.88379649 47.7339094,8.38323307 C47.5600092,8.6751607 47.44816,10.5627428 47.2819708,10.8503401 C46.0468015,12.9878527 44.5561384,14.1405075 44.4625471,14.0248786 C44.2839943,13.8042825 43.939119,13.5389612 43.4279212,13.2289145 C42.5790139,14.2795953 42.3667871,14.9667205 42.7912407,15.2902902 C43.4279212,15.7756447 43.8315239,15.7085918 43.4279212,16.0416679 C43.0243185,16.374744 42.8610671,17.0387361 42.4918926,17.2845413 C42.1227182,17.5303466 42.6055221,18.1587352 41.3913196,17.8445409 C40.1771171,17.5303466 39.6736239,17.5303466 38.5562408,17.5303466 C37.4388578,17.5303466 38.2400827,18.4534459 37.4388578,18.4534459 C36.6376328,18.4534459 36.3659243,19.0623509 35.2149211,18.4534459 C34.063918,17.8445409 32.1750508,17.5099307 31.8575995,17.0441261 C31.5401483,16.5783215 31.272319,16.4251537 30.1434599,16.5017376 C29.0146007,16.5783215 27.8214108,16.7930456 27.2585975,16.0416679 C26.6957843,15.2902902 26.0049561,14.0843362 25.5271629,13.5356465 C25.2086341,13.1698534 23.8356521,12.5858338 21.408217,11.7835879 C21.8197398,10.8092167 22.0255012,10.1022428 22.0255012,9.66266633 C22.0255012,9.0033016 21.7334267,7.18903877 21.1639864,7.18903877 C20.5945461,7.18903877 19.9588355,6.81516717 19.9588355,6.47474044 C19.9588355,6.13431371 19.7419213,5.56284273 19.7419213,5.1807311 C19.7419213,4.92599 19.5054492,4.79861946 19.032505,4.79861946 C17.2772562,5.98636999 16.3996317,6.68171085 16.3996317,6.88464202 C16.3996317,7.18903877 16.394621,7.76874979 16.0666635,7.76874979 C15.738706,7.76874979 14.6871084,7.81528178 14.6871084,7.50216027 C14.6871084,7.29341261 14.5039759,7.08757319 14.1377109,6.88464202 C13.632763,7.08757319 13.380289,7.18903877 13.380289,7.18903877 C13.380289,7.18903877 11.8166316,9.23305329 11.8166316,9.23305329 C11.8166316,9.23305329 10.362401,9.23305329 10.362401,9.23305329 C10.362401,9.23305329 9.52610131,8.47499252 9.94425118,9.66266633 C10.362401,10.8503401 9.94425118,11.5237843 9.94425118,11.7835879 C9.94425118,12.0433915 9.48035859,12.9221826 9.0597842,13.2289145 C8.6392098,13.5356465 7.59165305,13.0464143 7.36504072,13.5356465 C7.21396583,13.8618013 6.79560044,13.8618013 6.10994457,13.5356465 C5.89216828,13.6275457 5.56782062,13.8700075 5.13690158,14.2630319 C4.49052302,14.8525685 3.41823611,14.5011852 3.41823611,14.2630319 C3.41823611,14.0248786 3.06571007,13.5356465 2.59147284,13.5356465 C2.27531469,13.5356465 1.97239723,13.4334025 1.68272047,13.2289145 Z" id="Path-3" fill="#008FD0" fill-rule="nonzero"></path>
                <path d="M30.8265296,47.2296529 L31.1476984,47.6130571 C32.2787127,47.6130571 32.8442199,47.6130571 32.8442199,47.6130571 C32.8442199,47.6130571 33.3965268,48.1231317 33.3965268,48.1231317 C33.3965268,48.1231317 34.3186548,47.9084059 34.3186548,47.9084059 C34.3186548,47.9084059 34.7421386,46.5508998 35.5858736,47.2296529 C36.4296085,47.9084059 36.6376328,46.8462487 36.6376328,47.2296529 C36.6376328,47.6130571 36.4546619,48.9159527 37.4388578,49.3444348 C38.4230536,49.7729168 40.4615948,49.3444348 40.4615948,49.3444348 C40.4615948,49.3444348 40.6505462,50.0052536 40.8939685,50.5870651 C41.1373909,51.1688765 40.8939685,51.8151541 40.8939685,51.8151541 C40.8939685,51.8151541 40.186007,52.132638 39.7579974,52.6596774 C39.3299878,53.1867168 38.870621,54.3189951 39.3143092,54.5594104 C39.7579974,54.7998257 40.663477,55.1950244 40.8939685,54.8772174 C41.1244601,54.5594104 42.7884929,53.6118059 43.0243185,53.0062437 C43.1815355,52.6025357 43.1815355,52.2055058 43.0243185,51.8151541 C42.4232516,50.4536626 42.1227182,49.7729168 42.1227182,49.7729168 C42.1227182,49.7729168 44.7069393,50.0259345 45.063183,49.3444348 C45.4194266,48.6629351 46.6704819,47.6130571 46.9088936,47.6130571 C47.1473053,47.6130571 46.6331442,47.9084059 48.3012179,47.9084059 C49.9692916,47.9084059 49.5622881,47.9736005 50.372403,47.2296529 C50.8358053,46.8040996 51.0313281,46.2568774 50.1184525,45.5166941 C49.4354491,44.962897 49.6935422,45.3053613 48.3012179,45.3053613 C46.9088936,45.3053613 47.3518261,43.5345513 47.2819708,42.9329 C47.188766,42.1301432 46.6354184,41.2536022 46.9088936,41.2536022 C47.3873333,41.2536022 45.6808982,40.7533049 45.9411306,40.1671311 C46.2013631,39.5809574 47.5670951,39.9795491 47.2819708,39.1612 C46.9968466,38.342851 48.0500675,37.5018823 47.7339094,37.5018823 C47.4177512,37.5018823 49.207149,36.8163433 49.207149,34.4550065 C49.207149,32.0936697 48.5485195,33.2902331 48.3012179,32.9475898 C48.0539163,32.6049465 49.0665085,28.1212464 48.3012179,29.8823573 C47.2819708,32.2278806 48.8793702,32.2278806 46.9088936,30.9690253 C45.8125618,30.2686247 47.4222728,31.4574063 46.9088936,29.8823573 C46.8845307,29.8076119 45.9539302,28.0813742 45.063183,28.1107062 C44.6200637,28.125298 44.4710933,29.9955251 43.8841757,30.9690253 C43.464398,31.6652962 44.3483719,32.4875657 43.8841757,33.2082054 C43.3163654,34.0897003 42.7229746,34.9682571 42.1227182,35.7920878 C41.5756845,36.5428722 40.2268607,35.2402179 40.8939685,34.4550065 C42.0299397,33.1179251 39.3605975,36.4367364 39.1603632,36.8640495 C38.6163134,38.0250876 38.0587308,39.5674059 37.4388578,40.3870371 C36.7994117,41.2325488 37.5495249,42.6462482 36.6376328,42.9329 C35.0544223,43.4305797 36.5826009,43.1455731 35.5858736,44.4035463 C34.8335971,45.3529971 34.2133021,43.3695525 33.3965268,44.4035463 C33.1146354,44.7604057 31.6346776,47.1489763 31.6346776,46.2051268 C31.6346776,45.7461717 31.3652949,46.0876803 30.8265296,47.2296529 Z" id="Path-3" fill="#0653A8" fill-rule="nonzero"></path>
                <path d="M57.7913213,43.2356574 C56.8235802,43.7233317 56.3397097,43.9671688 56.3397097,43.9671688 C56.3397097,43.9671688 55.5306489,45.2867067 55.5306489,46.1935303 C55.5306489,47.1003539 56.0184342,47.9956987 56.3397097,47.9956987 C56.6609851,47.9956987 57.1667995,48.7640844 57.4790604,47.4788073 C57.7913213,46.1935303 57.6144546,45.2563355 58.1574868,44.780063 C58.5195082,44.462548 58.3974531,43.9477461 57.7913213,43.2356574 Z" id="Path-4" fill="#3BBAFF" fill-rule="nonzero"></path>
                <path d="M20.0305916,23.3506578 C20.0305916,23.3506578 19.2150476,23.1387772 19.2150476,23.9588914 C19.2150476,24.7790056 19.2150476,25.1542772 19.2150476,25.710159 C19.2150476,26.2660409 19.2150476,26.5734552 19.2150476,27.3137171 C19.2150476,28.053979 19.2150476,28.6873141 19.6228196,29.1455225 C20.0305916,29.6037309 20.2610923,29.6308053 20.733201,30.2566008 C21.2053097,30.8823962 20.2610923,31.3227835 20.733201,31.7830482 C21.2053097,32.2433129 21.1542246,32.9050933 21.734332,32.9050933 C22.3144394,32.9050933 23.5819672,32.9050933 23.5819672,32.9050933 C23.5819672,32.9050933 24.880009,33.4376706 24.880009,33.4376706 C24.880009,33.4376706 25.7319989,33.6210225 25.7319989,34.0607243 C25.7319989,34.5004262 27.5854626,33.6210225 28.3150539,34.0607243 C29.0446453,34.5004262 29.4234979,33.9702479 29.4234979,33.4376706 C29.4234979,32.9050933 28.9644177,31.7830482 29.4234979,31.7830482 C29.8825782,31.7830482 30.1661177,32.9050933 30.7585678,32.9050933 C31.3510179,32.9050933 32.3535203,32.372516 32.3535203,32.9050933 C32.3535203,33.4376706 32.2019793,33.4376706 32.9140851,33.4376706 C33.626191,33.4376706 33.5589918,34.0271384 34.0095007,32.9050933 C34.4600096,31.7830482 34.2522407,30.7309167 34.9790892,31.2569824 C35.7059377,31.7830482 35.8886784,32.372516 36.8263816,32.9050933 C37.7640847,33.4376706 38.0236245,32.8146168 39.2157247,33.4376706 C40.4078248,34.0607243 41.0242747,33.3646725 41.0242747,34.0607243 C41.0242747,34.7567761 41.0743312,36.3428557 41.5142117,36.3428557 C41.9540922,36.3428557 43.4033322,34.6837781 43.4033322,34.0607243 C43.4033322,33.4376706 43.5627588,31.2569824 44.1192094,31.2569824 C44.6756599,31.2569824 44.1192094,32.0006715 44.1192094,30.2566008 C44.1192094,28.5125301 44.1192094,26.4233465 44.1192094,25.710159 C44.1192094,24.9969716 45.5585066,24.5671249 44.838858,23.9588914 C44.1192094,23.3506578 42.8684814,23.3506578 42.8684814,23.3506578 C42.8684814,23.3506578 41.5142117,23.4180889 41.5142117,23.9588914 C41.5142117,24.4996938 42.1886037,25.710159 41.0242747,25.710159 C40.2480553,25.710159 39.6452053,25.3532797 39.2157247,24.639521 L38.7185877,23.3506578 C38.3373351,23.4961413 38.1467088,23.9257624 38.1467088,24.639521 C38.1467088,25.710159 36.8263816,26.293458 36.8263816,25.710159 C36.8263816,25.1268601 35.4810261,24.639521 35.4810261,24.639521 C35.4810261,24.639521 36.8263816,23.3506578 36.8263816,23.3506578 C36.8263816,23.3506578 35.982963,23.3506578 35.4810261,23.3506578 C34.9790892,23.3506578 34.0095007,23.9588914 34.0095007,23.9588914 C34.0095007,23.9588914 33.4746499,25.5110423 32.9140851,23.9588914 C32.3535203,22.4067404 30.7585678,21.6880695 30.7585678,21.6880695 C30.7585678,21.6880695 30.6714831,20.4991952 30.0474905,20.4991952 C29.6314955,20.4991952 29.260757,20.4991952 28.9352752,20.4991952 C28.1743699,21.2917781 27.4502642,21.6880695 26.7629581,21.6880695 C26.0756519,21.6880695 25.4480022,21.6880695 24.880009,21.6880695 C24.3453867,22.2112793 23.9127061,22.4728842 23.5819672,22.4728842 C23.0858588,22.4728842 21.734332,23.3506578 21.734332,23.3506578 C21.734332,23.3506578 20.0305916,23.3506578 20.0305916,23.3506578 Z" id="Path-5" fill="#31ACE7" fill-rule="nonzero"></path>
                <path d="M49.3634538,23.1251917 C49.7344601,23.1251917 49.3803815,23.3576102 48.3012179,23.8224472 C47.901189,23.9299447 47.7011745,24.2772112 47.7011745,24.8642467 C47.7011745,25.7448 47.4692282,26.3959047 47.7011745,26.7996667 C47.9331208,27.2034286 46.4963468,27.4847038 47.7011745,27.9837917 C48.5043929,28.316517 48.7044074,28.8348739 48.3012179,29.5388626 L48.3012179,30.7949748 L48.3012179,33.4217701 L49.3634538,34.4550065 L48.3012179,35.3164945 C47.901189,35.4226614 47.7011745,35.922611 47.7011745,36.8163433 C47.7011745,38.1569417 46.9088936,37.6704016 46.9088936,37.6704016 C46.9088936,37.6704016 46.9088936,38.5313595 46.9088936,38.5313595 C46.9088936,38.5313595 45.0217154,39.7007955 45.8654504,40.3795486 C46.7091853,41.0583016 46.4511525,41.2084799 46.4511525,41.591884 C46.4511525,41.9752882 45.9246978,43.0601467 46.9088936,43.4886288 C47.8930894,43.9171108 46.4511525,45.0429861 46.4511525,45.0429861 C46.4511525,45.0429861 43.3257428,45.3877173 43.5691651,45.9695287 C43.8125875,46.5513401 42.1227182,46.6927472 42.1227182,47.6130571 C42.1227182,48.226597 42.6048672,48.226597 43.5691651,47.6130571 C43.5691651,49.7729168 44.7069393,50.0259345 45.063183,49.3444348 C45.4194266,48.6629351 46.6704819,47.6130571 46.9088936,47.6130571 C47.1473053,47.6130571 46.6331442,47.9084059 48.3012179,47.9084059 C49.9692916,47.9084059 51.4451812,46.7134763 52.2552961,45.9695287 C53.0654109,45.225581 54.0835501,44.1568059 54.301919,43.4886288 C54.520288,42.8204517 54.1334953,41.591884 54.6119351,41.591884 C55.0903748,41.591884 55.8612124,40.3335476 56.1214448,39.7473738 C56.3816772,39.1612 57.6005671,37.6346923 57.3154429,36.8163433 C57.0303187,35.9979943 56.4376029,35.9979943 56.1214448,35.9979943 C55.8052866,35.9979943 56.3962244,35.3164945 56.3962244,35.3164945 C56.3962244,35.3164945 56.8908276,34.7976497 56.643526,34.4550065 C56.4786582,34.2265776 56.3046312,34.1123632 56.1214448,34.1123632 L56.643526,33.4217701 C56.4438528,32.681136 56.0036667,31.8055376 55.3229676,30.7949748 C54.301919,29.2791307 53.7298926,29.0885518 53.7298926,28.6384195 C53.7298926,28.1882871 56.6710039,25.3937097 56.3962244,24.8642467 C56.1214448,24.3347838 54.3943743,24.0357188 53.7298926,24.0357188 C53.0654109,24.0357188 51.5985729,24.1544723 51.0760068,23.8224472 C50.5534406,23.4904221 48.8069444,23.1251917 49.3634538,23.1251917 Z" id="Path-3" fill="#0F6BCF" fill-rule="nonzero"></path>
            </g>
            <use id="Oval" stroke="#5CF7E7" mask="url(#mask-2)" stroke-width="2" fill-opacity="0.207201087" fill="#47D9E1" fill-rule="nonzero" stroke-dasharray="1,1" xlink:href="#path-1"></use>
            <circle id="Oval-2-Copy" fill="#5AF4F4" fill-rule="nonzero" cx="47" cy="19" r="3"></circle>
            <path d="M23,22 C28.409479,16.5880889 36.7428123,15.5694951 48,18.9442185" id="Path-6" stroke="url(#linearGradient-3)" fill-rule="nonzero"></path>
            <path d="M48.8707675,18 C47.2085985,20.9165602 46.6540521,23.7889989 47.2071283,26.6173162 C47.7602045,29.4456334 49.6911618,32.906528 53,37" id="Path-6-Copy" stroke="url(#linearGradient-3)" fill-rule="nonzero" transform="translate(50.000000, 27.500000) rotate(180.000000) translate(-50.000000, -27.500000) "></path>
            <path d="M35.0776437,44 C34.6619129,38.6110296 35.9156553,33.5594522 38.8388707,28.8452681 C41.7620862,24.1310839 44.1491293,20.8493278 46,19" id="Path-6-Copy-2" stroke="url(#linearGradient-4)" stroke-width="2" fill-rule="nonzero"></path>
            <circle id="Oval-2-Copy-12" fill="url(#radialGradient-5)" fill-rule="nonzero" cx="23.5" cy="22.5" r="1.5"></circle>
            <circle id="Oval-2-Copy-13" fill="url(#radialGradient-5)" fill-rule="nonzero" cx="51.5" cy="36.5" r="1.5"></circle>
            <circle id="Oval-2-Copy-14" fill="url(#radialGradient-5)" fill-rule="nonzero" cx="35.5" cy="44.5" r="1.5"></circle>
        </g>
    </g>
</svg>