<?xml version="1.0" encoding="UTF-8"?>
<svg width="76px" height="76px" viewBox="0 0 76 76" version="1.1" xmlns="http://www.w3.org/2000/svg" xmlns:xlink="http://www.w3.org/1999/xlink">
    <!-- Generator: Sketch 51.2 (57519) - http://www.bohemiancoding.com/sketch -->
    <title>拖拽--图片组件默认</title>
    <desc>Created with Sketch.</desc>
    <defs>
        <linearGradient x1="50%" y1="0%" x2="50%" y2="97.701409%" id="linearGradient-1">
            <stop stop-color="#48DBF1" offset="0%"></stop>
            <stop stop-color="#3BC8F2" offset="100%"></stop>
        </linearGradient>
        <linearGradient x1="50%" y1="0%" x2="50%" y2="99.3226156%" id="linearGradient-2">
            <stop stop-color="#45E1F0" offset="0%"></stop>
            <stop stop-color="#279BF4" offset="100%"></stop>
        </linearGradient>
        <linearGradient x1="50%" y1="0%" x2="50%" y2="97.5320629%" id="linearGradient-3">
            <stop stop-color="#46D2F6" offset="0%"></stop>
            <stop stop-color="#05ABF8" offset="100%"></stop>
        </linearGradient>
    </defs>
    <g id="拖拽--图片组件默认" stroke="none" stroke-width="1" fill="none" fill-rule="evenodd">
        <g id="Group-16">
            <g id="PSD-Copy" fill="#3E8ED7" opacity="0.135303442">
                <rect id="Rectangle-4" x="0" y="0" width="76" height="76" rx="8"></rect>
            </g>
            <g id="Group-15-Copy" transform="translate(24.000000, 21.000000)">
                <g id="PSD">
                    <g id="Group-4" transform="translate(17.888889, 0.795455)" stroke="url(#linearGradient-1)" stroke-linejoin="round" stroke-width="2">
                        <path d="M0.4557,0 L0.4557,7.95454545 C0.4557,8.39443182 0.803366667,8.75 1.23347778,8.75 L9.01125556,8.75" id="Stroke-3"></path>
                    </g>
                    <path d="M17.4012222,0 L2.33333333,0 C1.04455556,0 0,1.06829545 0,2.38636364 L0,32.6136364 C0,33.9317045 1.04455556,35 2.33333333,35 L25.6666667,35 C26.9554444,35 28,33.9317045 28,32.6136364 L28,10.5572727 C28,9.91056818 27.7433333,9.29170455 27.2883333,8.84147727 L19.0228889,0.670568182 C18.5873333,0.241022727 18.0055556,0 17.4012222,0 M17.4012222,1.59090909 C17.6042222,1.59090909 17.7963333,1.67045455 17.9417778,1.81443182 L26.2072222,9.98613636 C26.3581111,10.1348864 26.4444444,10.3432955 26.4444444,10.5572727 L26.4444444,32.6136364 C26.4444444,33.0527273 26.096,33.4090909 25.6666667,33.4090909 L2.33333333,33.4090909 C1.904,33.4090909 1.55555556,33.0527273 1.55555556,32.6136364 L1.55555556,2.38636364 C1.55555556,1.94727273 1.904,1.59090909 2.33333333,1.59090909 L17.4012222,1.59090909" id="Fill-5" fill="url(#linearGradient-2)"></path>
                </g>
                <path d="M18.2777778,13.5227273 C19.3554217,13.5227273 20.2222222,14.4092278 20.2222222,15.5113636 C20.2222222,16.6134995 19.3554217,17.5 18.2777778,17.5 C17.2001339,17.5 16.3333333,16.6134995 16.3333333,15.5113636 C16.3333333,14.4092278 17.2118474,13.5227273 18.2777778,13.5227273 Z M5.44444444,25.4545455 C5.44444444,25.4545455 6.85247172,17.5 10.1100263,17.5 C13.3079188,17.5 14.1312568,23.0658627 16.3745545,23.0658627 C17.7945142,23.0658627 17.651325,20.5496289 19.9065551,20.5496289 C21.5174338,20.5496289 22.5555556,25.4545455 22.5555556,25.4545455 L5.44444444,25.4545455 Z" id="Shape" fill="url(#linearGradient-3)" fill-rule="nonzero"></path>
            </g>
        </g>
    </g>
</svg>