<?xml version="1.0" encoding="UTF-8"?>
<svg width="57px" height="55px" viewBox="0 0 57 55" version="1.1" xmlns="http://www.w3.org/2000/svg" xmlns:xlink="http://www.w3.org/1999/xlink">
    <!-- Generator: Sketch 51.2 (57519) - http://www.bohemiancoding.com/sketch -->
    <title>3D球形地图组件</title>
    <desc>Created with Sketch.</desc>
    <defs>
        <radialGradient cx="50%" cy="47.4281973%" fx="50%" fy="47.4281973%" r="47.6427023%" id="radialGradient-1">
            <stop stop-color="#CDFFF5" offset="0%"></stop>
            <stop stop-color="#61F7FF" offset="100%"></stop>
        </radialGradient>
        <linearGradient x1="21.399262%" y1="11.7157382%" x2="74.5635897%" y2="92.3823637%" id="linearGradient-2">
            <stop stop-color="#43CFE9" offset="0%"></stop>
            <stop stop-color="#3287F1" offset="100%"></stop>
        </linearGradient>
        <linearGradient x1="100%" y1="100%" x2="0%" y2="14.3784383%" id="linearGradient-3">
            <stop stop-color="#79EFFF" stop-opacity="0" offset="0%"></stop>
            <stop stop-color="#13F2F2" offset="100%"></stop>
        </linearGradient>
        <path d="M45,33 C49.418278,33 53,29.418278 53,25 C53,20.581722 49.418278,17 45,17 C40.581722,17 37,20.581722 37,25 C37,29.418278 40.581722,33 45,33 Z" id="path-4"></path>
        <mask id="mask-5" maskContentUnits="userSpaceOnUse" maskUnits="objectBoundingBox" x="-1" y="-1" width="18" height="18">
            <rect x="36" y="16" width="18" height="18" fill="white"></rect>
            <use xlink:href="#path-4" fill="black"></use>
        </mask>
        <linearGradient x1="0%" y1="100%" x2="122.181622%" y2="50%" id="linearGradient-6">
            <stop stop-color="#13F2F2" offset="0%"></stop>
            <stop stop-color="#79EFFF" stop-opacity="0.507784194" offset="100%"></stop>
        </linearGradient>
    </defs>
    <g id="3D球形地图组件" stroke="none" stroke-width="1" fill="none" fill-rule="evenodd">
        <g id="Group-8-Copy" fill-rule="nonzero">
            <circle id="Oval-2-Copy-14" fill="url(#radialGradient-1)" cx="5.5" cy="29.5" r="1.5"></circle>
            <g id="globe" transform="translate(5.000000, 3.000000)" fill="url(#linearGradient-2)">
                <path d="M25.5077489,21.5842512 C25.5153489,21.5799347 25.5257489,21.5758214 25.5328156,21.5715557 C25.5046823,21.5203671 25.4820156,21.475374 25.4714823,21.4435335 C25.4842823,21.4900501 25.4969489,21.5370745 25.5077489,21.584302 L25.5077489,21.5842512 Z M35.4813997,32.4924287 C35.482333,32.4924287 35.482333,32.490962 35.482333,32.4900287 C35.4789997,32.488562 35.467133,32.488562 35.4649997,32.4852287 C35.468333,32.488562 35.477533,32.488562 35.4813997,32.4924287 Z M35.7271384,32.5266178 C35.6652347,32.514533 35.5261925,32.5363715 35.4712459,32.4879709 C35.4375772,32.629308 35.4884104,32.6823708 35.7271384,32.5266178 Z M26.0002285,0 C11.6402888,0 0,11.6403168 0,25.9998223 C0,40.3594292 11.6402888,52 26.0002285,52 C40.3595081,52 52,40.3595308 52,25.9998223 C52.0000508,11.6403676 40.3595081,2.88663906e-15 26.0002285,2.88663906e-15 Z M5.00828996,20.345371 C5.33752695,20.5210643 5.68006836,20.577315 5.95937546,20.8742827 C6.21026038,21.1405057 6.31425428,21.516305 6.58051874,21.7710925 C7.54104954,22.6901156 9.76910993,21.2789769 10.1993025,22.934377 C10.4017167,23.7118061 9.86734572,24.619802 9.53430166,25.2422397 C9.24144315,25.790507 9.16064445,26.5479421 8.39055395,26.4745543 C8.52460638,26.6234653 8.57303214,26.8324734 8.69407929,26.9849185 C8.06660648,27.0168537 7.69085852,26.204159 7.36434215,26.2095256 C6.5468282,26.2249141 7.13228365,27.4878858 7.22781899,27.8826281 C6.57083568,27.6946987 7.03827062,27.1740285 6.72002971,26.8130556 C6.41372241,26.4662073 6.22755385,27.3439668 6.29705508,27.6123987 C6.32196572,27.70894 7.46241904,28.8974324 6.32715504,28.4622701 C6.23906676,29.7913856 6.1508256,31.1202136 6.06220359,32.4496745 C6.84138089,32.2514479 6.43598409,30.5441987 6.41882387,29.925523 C6.74397293,29.8501306 7.40070228,30.0849128 7.46463495,30.4982413 C7.52476713,30.8878958 6.92485243,31.0357417 7.24165755,31.5035149 C8.23035748,31.4317747 7.41005816,30.4534955 7.84625,30.0901439 C8.34322639,29.6765231 8.38995485,30.3359686 8.48942925,30.5459872 C8.51276332,30.5962804 8.33125383,31.1830807 8.63363669,31.0487948 C8.99287908,30.8896855 8.52058084,30.3270007 8.84617615,30.0964035 C9.2681986,30.8200724 9.20934683,31.3351386 9.14043385,32.143483 C9.06063121,33.086829 9.29310744,33.4252328 9.75061426,34.285678 C9.5110047,34.0830446 9.24621545,33.7691985 8.96398794,33.6371726 C8.80936541,33.565034 8.11312226,33.3303616 7.99706071,33.3519938 C7.49681908,33.4472729 7.60421757,33.5703387 7.54718624,34.1423423 C7.49707679,34.650916 7.29077184,35.3447661 7.44451557,35.8466216 C8.0011287,37.6658095 9.162223,35.5855042 10.0714519,36.7074267 C10.2154083,37.002228 10.4353079,37.5813992 10.6833038,37.6888427 C10.8580434,37.7649764 11.283849,37.5525254 11.5140096,37.6192306 C11.9250854,37.736472 12.1868581,38.0982709 12.5490548,38.3067222 C12.9024467,38.5100812 13.7509294,38.9217987 14.179341,38.9240315 C15.7576124,38.9320999 14.9960802,36.5809148 14.9215122,35.5756849 C14.8880662,35.1214352 14.5379583,33.9280661 14.702103,33.5835955 C14.9230609,33.1216899 15.5300604,33.4405734 15.4872491,32.743638 C15.4734874,32.5212393 15.2936167,32.1428165 15.0429003,32.0783736 C14.6348168,31.973618 14.7602518,32.3591627 14.4746815,32.5880259 C13.9255199,33.0296399 14.0662434,32.7086873 13.671294,32.5132865 C12.8662764,32.1148489 12.9152722,32.2752379 12.3012744,32.898794 C12.0156763,33.1886509 11.273909,34.1038965 10.8306485,33.88138 C10.2530018,33.591394 10.2341094,32.3275212 10.0869774,31.9474888 C9.91540621,31.5056412 10.3498719,30.9723189 10.4585397,30.6239059 C10.5306171,30.3926252 10.7102684,29.952191 10.5355297,29.7078731 C10.258357,29.3201463 9.99650189,29.6834377 9.70427315,29.5283301 C8.92162693,29.1121576 9.425159,28.6249746 9.88246831,28.0501846 C10.3114591,27.5099381 10.3965037,27.1695984 10.524504,26.5459061 C10.5841538,26.2559514 10.7108068,25.0581632 11.121907,24.946106 C11.3991033,24.8712535 12.3092927,25.6787346 12.5354499,25.9040727 C13.3619389,26.7270439 13.5441319,28.9983277 15.1674364,28.389567 C14.825952,28.0813392 13.3856464,27.4539306 13.6216213,26.9107672 C13.7279872,26.6635909 14.1397042,26.7860853 14.2908126,26.6256432 C14.7445762,26.1459281 14.3190175,25.8099909 13.9853005,25.3979892 C14.0211014,25.4193397 14.0547849,25.4425538 14.0876235,25.4686759 C13.440073,25.0075344 13.54005,25.0382831 12.8780322,25.0205382 C12.6617006,25.0151427 12.1849032,25.0888586 11.995458,25.0198064 C11.344709,24.7803076 11.5884392,24.5607824 11.7529652,24.110564 C11.7964765,23.992395 12.4036626,22.7729987 12.4870778,23.0479247 C12.7607686,23.9451277 13.1969773,24.7143642 13.9879177,25.158952 C14.4440846,25.4146235 14.9758889,25.6032152 15.3885168,25.9789146 C15.4870914,26.0694209 16.0010023,26.8523587 15.8125847,26.8275107 C15.5379517,26.7912752 15.1460589,26.3722786 14.8285972,26.293718 C14.8987298,26.9423176 15.6090439,27.1372361 16.1089429,27.4102871 C16.5513262,27.7471752 16.9888804,27.647546 17.5258774,27.8490518 C17.7601671,27.9373507 17.9520271,28.237478 18.2307832,28.2977693 C18.5013989,28.3562418 18.8054034,28.2201715 19.0622062,28.2756 C19.2421008,28.3143232 19.3101507,28.6234212 19.5553149,28.6334641 C19.8756059,28.6464064 19.9570445,28.2522916 20.164868,28.2187512 C20.5431143,28.1583404 21.1471485,28.6396079 21.5051812,28.7578213 C21.4580423,28.7414542 21.4102727,28.7260373 21.3620291,28.7113026 C21.7361911,28.8217391 22.0794536,29.0306683 22.4641555,29.0673911 C22.8199207,28.7673958 23.6335926,27.9853594 23.8943971,27.9438724 C24.7529541,27.8090456 23.8922492,28.8917242 23.7077822,29.2429433 C23.074316,30.4501264 24.4609027,31.4527311 25.0359947,32.3356691 C25.7714826,33.4642811 27.8843178,33.8299323 28.7095885,32.4535159 C29.1050742,31.7931442 29.0165981,31.0831764 28.5217786,30.4775731 C28.0814942,29.9385599 27.1655121,30.1936059 26.8487466,29.6342818 C26.2674261,28.605958 27.8303867,29.0827057 28.2528672,28.974064 C28.6441325,28.873045 28.5628175,28.642429 28.453632,28.2294343 C28.3723444,27.9246702 27.9921735,27.6341847 28.0176799,27.3188017 C28.0340672,27.1203899 28.5585618,26.8504859 28.2861118,26.7340383 C28.8227129,26.9633549 29.5392381,26.4621351 29.5976606,25.9036529 C29.6626429,25.2842078 29.0924244,24.8988039 28.9566274,24.3586377 C28.7013367,23.3384222 28.639541,23.9231632 27.7541071,23.3787686 C27.1573166,23.0111816 27.482683,22.7256284 27.2899687,22.3598128 C27.158821,22.110574 26.7266668,22.1381774 26.6072349,21.6690371 C26.5099781,21.2864592 26.6930272,21.0175656 26.5367177,20.5820488 C26.4724909,20.4036947 26.296866,20.2774414 26.229768,20.1103263 C25.9127999,19.3193656 26.0731281,18.5000348 26.1800247,17.6873535 C26.2676597,17.0178748 26.0265949,16.7335831 25.882531,16.082309 C25.777314,15.6069629 25.9537899,14.5319956 26.4864091,14.298957 C26.5817781,14.2574076 27.2348377,14.3748879 27.4752764,14.3264645 C27.490226,14.1822351 26.9378692,13.5301407 26.8078863,13.3223285 C26.925969,13.3507038 27.5363266,13.6705065 27.3543468,13.7672668 C27.4474571,13.7177592 27.4501561,13.2602118 27.4640087,13.1421375 C26.4974737,13.3198702 26.8009714,12.6066754 26.7304535,11.979611 C26.6706269,11.4466289 26.3921925,10.8998106 26.2511819,10.3724362 C26.1314957,9.92451554 25.9258265,8.90656122 26.0854642,8.4426522 C26.2779043,7.88427906 27.02786,7.80074212 27.5473037,7.86220741 C28.2274494,7.94192694 28.6947526,8.35918477 29.3938215,8.26268744 C29.9477871,8.18592931 30.3485042,7.80959811 30.9143231,7.6330406 C31.6796792,7.39409284 31.4917594,7.62875532 32.1613073,7.86403676 C32.7250129,8.06136099 32.4602954,7.7133605 32.9687253,8.11993856 C33.4801243,8.5285032 33.6598532,9.03178692 34.4210647,9.09803183 C34.5860724,9.16182091 35.05901,9.00956919 35.2397158,9.00765928 C35.6997817,9.00062202 36.0635909,9.13475844 36.5202702,9.26727768 C36.695099,9.31828387 38.6140017,9.62083402 38.5356097,9.73916972 C38.4331929,9.8919173 39.1523671,10.5527443 38.9688866,10.699971 C39.1232958,10.576316 39.0870657,10.6469079 39.0784942,10.3926739 C40.3040423,9.98065107 40.7325356,10.3813547 41.3485645,11.5125053 C41.8378841,11.1268679 42.0012138,11.6941948 42.4181675,11.7762846 C42.6617255,11.8246787 43.1745014,11.6366145 43.4456946,11.6157902 C43.6159571,11.6022213 44.4059357,11.7514621 44.515543,11.6931829 C44.6170423,11.6398909 44.6854941,11.41146 44.7527589,11.1955242 C45.3332359,11.9153449 45.8754687,12.6756627 46.3825845,13.4710038 C46.1094593,13.4166933 45.9221698,13.4683913 46.1625343,13.9757636 C45.74205,14.0292497 45.377004,13.8240962 44.9677011,13.8728664 C44.7744395,13.8953447 44.7386692,13.9806295 44.5523554,14.0120151 C43.9086797,14.1219659 44.1570958,14.0905697 43.7860358,14.4187983 C42.9171236,15.1876687 42.472215,15.0082588 41.4118359,15.2138827 C40.3222492,15.4255087 39.1211576,16.0982567 38.0141218,16.4513225 C37.4847242,16.6210545 36.4035076,17.0130108 36.038304,17.4283645 C35.6276877,17.896141 35.677325,18.9665696 35.5394426,19.5422213 C35.343149,20.3579925 34.9689176,20.9348965 34.5806997,21.6695331 C34.3832799,22.0428226 34.2075416,22.441712 33.9589065,22.7830983 C33.4271758,23.5131466 33.668518,22.9371318 33.2141815,23.1033438 C32.775481,23.2645613 32.466462,23.5654575 31.9484597,23.626659 C31.3758046,23.6942371 30.834852,23.3905189 30.2760548,23.4932663 C29.7775334,23.5835737 29.2972198,23.9719835 29.3945817,24.4974249 C29.4482547,24.790501 29.7789746,24.9697702 29.8725144,25.2429396 C30.0039764,25.623743 29.960483,26.1570139 29.9033055,26.540995 C29.8225779,27.0776511 29.4360282,27.4681485 29.3834121,28.0216992 C29.3405603,28.4846753 29.6054533,28.6568379 29.6947735,29.0800264 C29.7887829,29.5212529 29.4552149,30.001726 29.4757397,30.3869297 C29.506508,30.9648684 29.9549235,31.0612724 30.1523517,31.5837906 C30.3206403,32.0281212 30.2097899,32.9009331 30.2468296,33.3797044 C30.3232093,34.3529283 30.1992363,35.0361345 29.5873253,35.7667079 C29.0622304,36.3932151 28.9602056,36.9536737 28.6501599,37.7143631 C28.3356865,38.485275 27.9331397,38.8885196 28.1687085,39.6942388 C28.1956602,39.7887729 28.6666737,39.2015328 28.7013443,39.1482442 C29.0303329,38.6409459 29.2497034,38.0247325 29.5179809,37.480376 C29.9131428,36.6789783 30.1377997,36.8115558 29.7679484,37.6095154 C29.3446595,38.5223774 28.9709379,39.5187936 28.4681227,40.3825951 C28.2781288,40.7090295 28.0767827,40.7726274 27.9619138,41.2057248 C27.8505482,41.6240506 27.9187702,42.0581499 27.8216973,42.4717652 C27.4735357,43.9585275 26.3867961,44.7732651 25.0602815,45.3301952 C24.627612,45.5117493 24.2162564,45.5339493 23.8558409,45.8123822 C23.556348,46.0430543 23.3903598,46.3877674 23.2805015,46.7663194 C23.1986662,46.9129183 22.999225,47.2782463 22.985823,47.3003712 C22.7361686,47.7285428 22.4653168,48.1024576 22.3547017,48.6309086 C22.2904113,48.9343954 22.1684544,49.6963799 22.095977,50.3909933 C18.0861324,49.5748706 14.2775724,47.7420186 11.0713974,45.0208224 C11.2252834,44.9037156 11.3542236,44.7396929 11.4560067,44.5424702 C11.7141797,44.0411679 11.538292,43.7880559 11.3568711,43.1742255 C12.0135575,42.9012213 12.4179378,43.6499457 12.6206185,44.1942593 C12.8622029,44.8444556 13.0057947,45.5871417 13.8024878,45.8380501 C13.8180098,45.4573461 14.0554417,44.3085982 13.4208623,44.7819217 C13.0834637,44.2154961 12.7677091,43.6624578 12.5327698,43.0574744 C12.4388032,42.8152058 12.2820569,41.9188298 12.058183,41.7724353 C11.964173,41.710975 11.4984856,41.8397625 11.3212046,41.8161852 C11.4084779,41.9777365 11.4211144,42.1939717 11.5222363,42.3477292 C10.8528857,42.2204083 11.0214698,41.6492093 10.9820978,41.0553141 C11.5746438,41.4171668 12.1555724,40.7065708 11.2740938,40.5134066 C10.5492901,40.3552064 10.4676401,41.0752896 10.4627865,41.7682474 C9.51419668,41.5764662 9.27635155,41.2734966 9.74999045,40.3666269 C9.24568107,40.526769 9.22705422,40.0475509 9.04896806,39.6311124 C9.03155283,39.8654778 9.03281869,40.1048477 9.14303923,40.2691965 C8.297132,40.1981324 8.29102572,40.5338125 7.77663076,40.062727 C7.36734346,39.6874643 6.81851772,38.2874228 6.30955781,38.349779 C6.97458202,39.180043 7.60919337,40.2727293 8.46003824,40.8884414 C8.82684043,41.154009 9.61003712,41.2864475 9.43965607,41.8368413 C9.26449092,42.4013969 8.33367491,42.0876738 7.98077328,41.8617403 C6.94317793,40.6391501 5.97714095,39.2129711 5.15207434,37.6612465 C4.61894066,36.6585679 4.1673445,35.6350948 3.78138663,34.5997111 C4.13011405,34.8435392 4.11398509,34.5346191 4.41844664,34.6851894 C4.99874962,34.9737629 5.7161743,35.6525476 6.22118954,36.0947501 C5.84485604,35.3913543 5.58235106,33.344296 4.4474357,33.5272203 C4.53447915,33.7724324 4.62101366,34.0173619 4.70765009,34.262483 C4.20847024,33.9837018 3.73548526,33.6280466 3.30870305,33.2175198 C1.78821086,28.2735546 1.87941637,23.1086714 3.36943039,18.4237867 C3.8766311,19.3206937 4.19128879,19.9084315 5.00828996,20.345371 Z M46.8153718,19.2852353 C46.8582829,19.1936241 46.9581719,19.1637133 46.999458,19.0884032 C47.0862959,18.9297085 47.0669478,18.8220501 47.1737939,18.686309 C47.2882575,18.5392943 47.4428898,18.5031881 47.5706583,18.3884709 C47.6221517,18.3421066 47.6509453,18.2991956 47.6745083,18.2554213 C48.0579661,19.3257596 48.3635746,20.4325089 48.5860522,21.5687626 C48.5791966,21.576837 48.5752864,21.5891771 48.5669073,21.5957788 C48.511199,21.6401625 48.146683,21.6942457 48.0719821,21.6968356 C47.8081168,21.7069413 47.6120968,21.5318439 47.4227292,21.3670046 C47.2297054,21.1998293 47.0031143,20.9755239 46.8660527,20.7588867 C46.7195962,20.527421 46.8099889,20.2895059 46.820704,20.024981 C46.8292862,19.8027069 46.7210689,19.4854699 46.8154734,19.2852861 L46.8153718,19.2852353 Z M10.9224998,8.91866375 C11.2431398,9.51275013 11.5948393,10.2762191 11.7263379,10.9252919 C11.8672413,11.6178713 11.4060437,12.073222 11.1184884,12.6757917 C10.8768745,13.1825572 10.8387222,14.0336997 10.4032254,14.3976661 C10.2037984,14.5634118 9.92323477,14.5272458 9.74595131,14.6572403 C9.37044329,14.9325045 9.31322641,15.2018468 8.90955989,15.404298 C8.47641765,15.6218795 8.05260653,15.5405584 7.61766094,15.6704908 C7.16186644,15.8070433 7.07762816,16.0315774 6.7119298,16.2990733 C6.44473132,16.4949935 5.89221469,16.7759496 5.44777304,16.8567604 C5.7420403,15.6397403 6.13830188,14.4332755 6.6411178,13.2487154 C7.51133546,11.1986111 8.65078916,9.3376221 10.0029109,7.67735364 C10.4236834,7.9872158 10.6764628,8.46087654 10.9225119,8.91878878 L10.9224998,8.91866375 Z" id="Shape"></path>
            </g>
            <path d="M49.9184047,25.7263338 C46.6394682,28.8252093 45,31.8566161 45,34.8205543 C45,37.7844925 45.6585967,40.8158993 46.97579,43.9147748" id="Path-6-Copy" stroke="url(#linearGradient-3)" transform="translate(47.459202, 34.820554) rotate(180.000000) translate(-47.459202, -34.820554) "></path>
            <circle id="Oval-2-Copy-13" fill="url(#radialGradient-1)" cx="45.5" cy="43.5" r="1.5"></circle>
            <use id="Oval" stroke="#5CF7E7" mask="url(#mask-5)" stroke-width="2" fill-opacity="0.207201087" fill="#47D9E1" stroke-dasharray="1,1" xlink:href="#path-4"></use>
            <circle id="Oval-2-Copy" fill="#5AF4F4" cx="48" cy="26" r="3"></circle>
            <path d="M7.33114118,29.8429403 C2.74527373,31.7335244 0.452340011,34.1960474 0.452340011,37.2305093 C0.452340011,42.1253784 5.84325999,47.8967466 14.2703478,47.8967466 C22.6974356,47.8967466 38.7970731,42.4401225 45.4649852,34.857651 C46.7516179,33.3945458 47.9349472,30.6240816 49.0149731,26.5462583" id="Path-6-Copy-2" stroke="url(#linearGradient-6)"></path>
            <path d="M23.9656738,9.76818684 C23.1300596,3.97507469 37.8129748,-2.91244308 48.126029,3.58781548 C54.1726018,7.39893551 56.8245095,12.989912 56.8245095,17.5693684 C56.8245095,20.9472797 55.5120451,23.2435933 52.8871161,24.4583091" id="Path-6" stroke="url(#linearGradient-3)"></path>
            <circle id="Oval-2-Copy-12" fill="url(#radialGradient-1)" cx="23.5" cy="9.5" r="1.5"></circle>
        </g>
    </g>
</svg>