<?xml version="1.0" encoding="UTF-8"?>
<svg width="20px" height="20px" viewBox="0 0 20 20" version="1.1" xmlns="http://www.w3.org/2000/svg" xmlns:xlink="http://www.w3.org/1999/xlink">
    <!-- Generator: Sketch 51.2 (57519) - http://www.bohemiancoding.com/sketch -->
    <title>地理图表组件</title>
    <desc>Created with Sketch.</desc>
    <defs></defs>
    <g id="地理图表组件" stroke="none" stroke-width="1" fill="none" fill-rule="evenodd">
        <g id="icon_diliyousex" fill="#2CA7E0" fill-rule="nonzero">
            <path d="M3.07472632,6.36363636 L3.55069015,5.2466646 L4.97858163,5.2466646 L5.45454545,4.50201675 L4.97858163,3.75736891 L3.55069015,4.12969283 L2.59876249,3.63636364 C1.87291766,4.34377909 1.30176107,5.14427552 0.909090909,5.99131244 L2.59876249,5.99131244 L3.07472632,6.36363636 Z" id="Shape"></path>
            <polygon id="Shape" points="14.6313009 8.18181818 17.0526084 8.18181818 17.2727273 7.27272727 16.3922518 6.81818182 16.3922518 6.36363636 15.5117764 6.81818182 14.1910632 7.27272727 13.3105877 6.81818182 12.7272727 7.125 13.3105877 7.27272727"></polygon>
            <path d="M6.97860963,0.861244019 L8.18181818,0 C7.23930481,0.14354067 6.31684492,0.466507177 5.45454545,0.956937799 L6.17647059,1.81818182 L6.97860963,0.861244019 Z" id="Shape"></path>
            <polygon id="Shape" points="14.2133122 8.48053489 12.8582771 7.55311118 11.7678973 7.27272727 10 9.08443869 10.7622072 10.6373342 12.5406908 10.6373342 14.3509329 16.1479564 14.6685193 16.3636364 15.6847956 14.8107409 15.2613471 13.1284374 17.2727273 9.42952658 16.5846235 8.48053489"></polygon>
            <path d="M12.5959596,5.7710614 L12.959596,5.57829605 L13.3232323,5.7710614 L13.8282828,6.03879105 L14.6666667,5.73893384 L15.4242424,5.33198477 L16.5959596,4.71085198 L16.5959596,5.99595431 L16.959596,6.21013803 L17.5353535,6.52070443 L17.3737374,7.18467396 L17.0606061,8.50190386 L17.2020202,8.69466921 L17.4848485,9.09090909 L18.030303,8.51261304 L19.0909091,7.33460257 C18.3333333,4.45383151 16.3939394,2.09781057 13.8080808,0.909090909 L12.5555556,2.19419324 L12.5555556,4.60376011 L12.4747475,4.78581628 L11.8181818,6.17801047 L12.5959596,5.7710614 Z" id="Shape"></path>
            <path d="M4.24311927,12.696514 L4.54545455,10.6049214 L4.12844037,10 L0,10 C0.0938281902,11.9890636 0.823603003,13.8961039 2.08507089,15.4545455 L2.08507089,13.5475051 L2.60633862,13.342447 L4.24311927,12.696514 Z" id="Shape"></path>
            <path d="M19.8674049,8.39130435 L19.1283548,9.13043478 L17.8241488,10.4347826 L17.802412,10.3913043 L16.0852075,13.4782609 L16.5199428,15.2173913 L14.7810015,17.826087 L13.4767954,16.9565217 L11.7378541,11.7391304 L9.99891275,11.7391304 L8.69470674,9.13043478 L11.0857511,6.73913043 L10.8683834,6.08695652 L11.7378541,4.34782609 L11.7378541,1.73913043 L13.237691,0.543478261 C12.1943262,0.184782609 11.0966195,0 9.99891275,0 L9.82501862,0 L7.39050073,1.73913043 L6.52103005,2.60869565 L5.16248213,1.25 C4.24953792,1.75 3.43440916,2.40217391 2.71709586,3.15217391 L3.04314736,3.47826087 L4.78208871,3.04347826 L5.65155938,4.7826087 L4.78208871,6.52173913 L3.4778827,6.52173913 L3.04314736,8.26086957 L1.73894135,7.39130435 L0.336919886,7.39130435 C0.141288985,8.09782609 0.0326051503,8.82608696 0,9.56521739 L4.78208871,9.56521739 L5.65155938,10.8695652 L5.21682404,13.9130435 L3.04314736,14.7826087 L3.04314736,17.173913 C4.90164092,18.9891304 7.40136911,20 9.99891275,20 C10.5423319,20 11.0748827,19.9565217 11.6074335,19.8695652 C17.063362,18.9782609 20.7586123,13.8369565 19.8674049,8.39130435 Z" id="Shape"></path>
        </g>
    </g>
</svg>