<?xml version="1.0" encoding="UTF-8"?>
<svg width="41px" height="28px" viewBox="0 0 41 28" version="1.1" xmlns="http://www.w3.org/2000/svg" xmlns:xlink="http://www.w3.org/1999/xlink">
    <!-- Generator: Sketch 51.2 (57519) - http://www.bohemiancoding.com/sketch -->
    <title>边框组件</title>
    <desc>Created with Sketch.</desc>
    <defs>
        <linearGradient x1="24.4515315%" y1="4.17970477%" x2="50%" y2="100%" id="linearGradient-1">
            <stop stop-color="#43CFE9" offset="0%"></stop>
            <stop stop-color="#338CF0" offset="100%"></stop>
        </linearGradient>
    </defs>
    <g id="边框组件" stroke="none" stroke-width="1" fill="none" fill-rule="evenodd">
        <g id="ziyuan-2-copy-3" fill-rule="nonzero">
            <path d="M38.0714286,28 L31.2380953,28 L29.6761905,25.7105882 L15.2090476,25.7105882 L13.6666667,28 L2.92857142,28 C1.31116609,28 1.98075027e-16,26.89388 0,25.5294118 L0,2.47058823 C2.3528918e-15,1.10612003 1.31116609,-8.35495809e-17 2.92857142,0 L5.85714285,0 L7.41904763,2.28941177 L23.8580952,2.28941177 L25.3809524,0 L38.0714286,0 C39.6888339,8.35495809e-17 41,1.10612003 41,2.47058823 L41,25.5294118 C41,26.1846525 40.691455,26.8130563 40.1422413,27.2763815 C39.5930276,27.7397066 38.848134,28 38.0714286,28 Z M32.39,26.3529412 L38.0714286,26.3529412 C38.6105637,26.3529412 39.0476191,25.9842345 39.0476191,25.5294118 L39.0476191,2.47058823 C39.0476191,2.0157655 38.6105637,1.64705882 38.0714286,1.64705882 L26.5328572,1.64705882 L24.9709524,3.93647059 L6.26714286,3.93647059 L4.7052381,1.64705882 L2.92857142,1.64705882 C2.38943631,1.64705882 1.95238095,2.0157655 1.95238095,2.47058823 L1.95238095,25.5294118 C1.95238095,25.9842345 2.38943631,26.3529412 2.92857142,26.3529412 L12.5147619,26.3529412 L14.0766667,24.0635294 L30.8280952,24.0635294 L32.39,26.3529412 Z" id="Shape" fill="url(#linearGradient-1)"></path>
            <polygon id="Shape" fill="#38A4ED" points="8 0 8.90640393 1 23.0935961 1 24 0"></polygon>
        </g>
    </g>
</svg>