<?xml version="1.0" encoding="UTF-8"?>
<svg width="17px" height="17px" viewBox="0 0 17 17" version="1.1" xmlns="http://www.w3.org/2000/svg" xmlns:xlink="http://www.w3.org/1999/xlink">
    <!-- Generator: Sketch 51.2 (57519) - http://www.bohemiancoding.com/sketch -->
    <title>素材组件</title>
    <desc>Created with Sketch.</desc>
    <defs></defs>
    <g id="素材组件" stroke="none" stroke-width="1" fill="none" fill-rule="evenodd">
        <g id="zujian-biankuang" fill="#2CA7E0" fill-rule="nonzero">
            <path d="M5,0 L5,8.99999999 C5.00025473,9.55874887 5.00025473,10.5587489 5,12 C6.45438798,11.9997513 7.45438798,11.9997513 7.99999999,12 L17,12 L17,0 L5,0 Z" id="Shape"></path>
            <path d="M2.72594939,5.96984756 C3.54253016,6.23395569 4.08811537,6.93784097 4.08811537,7.72724232 C4.08811537,8.51664367 3.54253016,9.22052895 2.72594939,9.48463707 L2.72594939,10.9885793 C2.72594939,11.5757902 2.72594939,12.7664371 2.72594939,14.5605199 C4.59935349,14.5605199 5.94768068,14.5605199 6.77093095,14.5605199 L7.59874748,14.5605199 C7.87321019,13.7928347 8.65861725,13.2731247 9.54486639,13.2727577 C10.4531461,13.2727577 11.2243656,13.8132078 11.4909853,14.5605199 L15,14.5605199 L15,15.802934 L11.4555269,15.802934 C11.1518875,16.5236843 10.3922916,16.9995859 9.54486639,17 C8.69744113,16.9995859 7.93784532,16.5236843 7.63420584,15.802934 L5.96493496,15.802934 C5.15957019,15.8024996 3.62531386,15.8024996 1.36216598,15.802934 C1.36269227,13.8173062 1.36269227,12.4195903 1.36216598,11.6097864 L1.36216598,9.48463707 C0.545585207,9.22052895 0,8.51664367 0,7.72724232 C0,6.93784097 0.545585207,6.23395569 1.36216598,5.96984756 L1.36216598,4 L2.72594939,4 L2.72594939,5.96984756 Z" id="Shape"></path>
        </g>
    </g>
</svg>