<?xml version="1.0" encoding="UTF-8"?>
<svg width="43px" height="31px" viewBox="0 0 43 31" version="1.1" xmlns="http://www.w3.org/2000/svg" xmlns:xlink="http://www.w3.org/1999/xlink">
    <!-- Generator: Sketch 51.2 (57519) - http://www.bohemiancoding.com/sketch -->
    <title>装饰组件</title>
    <desc>Created with Sketch.</desc>
    <defs>
        <linearGradient x1="100%" y1="0%" x2="3.89947616%" y2="48.0502619%" id="linearGradient-1">
            <stop stop-color="#1BD3D2" offset="0%"></stop>
            <stop stop-color="#0174D0" offset="100%"></stop>
        </linearGradient>
        <linearGradient x1="0%" y1="0%" x2="76.5390815%" y2="106.635581%" id="linearGradient-2">
            <stop stop-color="#43CDE9" offset="0%"></stop>
            <stop stop-color="#3288F1" offset="100%"></stop>
        </linearGradient>
    </defs>
    <g id="装饰组件" stroke="none" stroke-width="1" fill="none" fill-rule="evenodd">
        <g id="Group-Copy" fill-rule="nonzero">
            <rect id="Rectangle-15" fill="url(#linearGradient-1)" x="0" y="14" width="43" height="2" rx="1"></rect>
            <g id="mingcheng-keji" transform="translate(20.500000, 15.500000) rotate(90.000000) translate(-20.500000, -15.500000) translate(5.000000, 0.000000)">
                <path d="M25.1620029,6.45672503 C25.0012475,6.45672503 24.8404922,6.39617667 24.7161343,6.27205254 C24.4704516,6.02683171 24.4704516,5.62721259 24.7161343,5.38199177 L29.9240008,0.18391562 C30.1696835,-0.0613052067 30.5700553,-0.0613052067 30.815738,0.18391562 C31.0614207,0.429136447 31.0614207,0.828755568 30.815738,1.07397642 L25.6048383,6.27507997 C25.4835135,6.39617667 25.3227582,6.45672503 25.1620029,6.45672503 Z M0.630130608,31 C0.469375254,31 0.30861993,30.9394516 0.18426202,30.8153275 C-0.0614206732,30.5701067 -0.0614206732,30.1704876 0.18426202,29.9252667 L5.39212856,24.7241632 C5.63781125,24.4789424 6.03818304,24.4789424 6.28386577,24.7241632 C6.52954846,24.969384 6.52954846,25.3690031 6.28386577,25.614224 L1.07599923,30.8153275 C0.951641317,30.9364242 0.790885963,31 0.630130608,31 Z" id="Shape" fill="url(#linearGradient-2)"></path>
                <path d="M15,24 C12.6926058,24 10.3881176,23.123049 8.63287052,21.3662432 C5.12237649,17.8555354 5.12237649,12.1437386 8.63287052,8.63303085 C12.1433646,5.12232305 17.8566354,5.12232305 21.3671295,8.63303085 C24.8776235,12.1437386 24.8776235,17.8555354 21.3671295,21.3662432 C19.6118825,23.1201452 17.3073942,24 15,24 Z M15,7.20725953 C13.0035519,7.20725953 11.0071037,7.96805807 9.48724573,9.48675137 C6.4475299,12.5270417 6.4475299,17.4722323 9.48724573,20.5125227 C12.5269616,23.5528131 17.4759444,23.5528131 20.5156603,20.5125227 C23.5553761,17.4722323 23.5553761,12.5270417 20.5156603,9.48675137 C18.9958024,7.96805807 16.9993542,7.20725953 15,7.20725953 Z" id="Shape" fill="#1EEBF1"></path>
                <path d="M11,15 C11,17.209139 12.790861,19 15,19 C17.209139,19 19,17.209139 19,15 C19,12.790861 17.209139,11 15,11 C12.790861,11 11,12.790861 11,15 Z" id="Shape" fill="#39A7ED"></path>
            </g>
        </g>
    </g>
</svg>