<?xml version="1.0" encoding="UTF-8"?>
<svg width="18px" height="16px" viewBox="0 0 18 16" version="1.1" xmlns="http://www.w3.org/2000/svg" xmlns:xlink="http://www.w3.org/1999/xlink">
    <!-- Generator: Sketch 51.2 (57519) - http://www.bohemiancoding.com/sketch -->
    <title>媒体组件</title>
    <desc>Created with Sketch.</desc>
    <defs></defs>
    <g id="媒体组件" stroke="none" stroke-width="1" fill="none" fill-rule="evenodd">
        <g id="media" fill="#2CA7E0" fill-rule="nonzero">
            <path d="M15.9593138,0 L2.04066859,0 C0.915104985,0 0,0.955043848 0,2.13080516 L0,13.8691948 C0,15.043636 0.915757926,15.9999457 2.04066859,15.9999457 L9.91246675,15.9999457 C10.2704193,15.9999457 10.4723015,15.8835198 10.4723015,15.5166821 C10.4723015,15.1498444 10.2704546,15.0333823 9.91246675,15.0333823 L2.04128623,15.0333823 C1.52646909,15.0333823 0.944416721,14.3565274 0.944416721,13.8691406 L0.944416721,2.13080516 C0.944416721,1.59818977 1.5088044,0.966563474 2.04128623,0.966563474 L15.9611667,0.966563474 C16.5205603,0.966563474 17.0580362,1.58314373 17.0580362,2.13080516 L17.0580362,13.8691948 C17.0580362,14.4108342 16.4558486,15.0334365 15.9611667,15.0334365 L13.9592863,15.0334365 C13.6013514,15.0334365 13.3994516,15.1498625 13.3994516,15.5167363 C13.3994516,15.883574 13.6013161,16 13.9592863,16 L15.9593314,16 C17.0848421,16 18,15.0436903 18,13.8692129 L18,2.13080516 C17.9999824,0.956291657 17.0842244,0 15.9593138,0 Z" id="Shape"></path>
            <path d="M11.5070813,7.77860564 L7.19330625,5.16946079 C6.5374125,4.77238005 6,5.09740065 6,5.89086213 L6,11.1091518 C6,11.9026333 6.5374125,12.2275939 7.19330625,11.8305532 L11.5070813,9.22140832 C12.1643063,8.82500759 12.1643063,8.17568638 11.5070813,7.77860564 Z" id="Shape"></path>
        </g>
    </g>
</svg>