<?xml version="1.0" encoding="UTF-8"?>
<svg width="29px" height="20px" viewBox="0 0 29 20" version="1.1" xmlns="http://www.w3.org/2000/svg" xmlns:xlink="http://www.w3.org/1999/xlink">
    <!-- Generator: Sketch 51.2 (57519) - http://www.bohemiancoding.com/sketch -->
    <title>图片组件</title>
    <desc>Created with Sketch.</desc>
    <defs>
        <linearGradient x1="50%" y1="0%" x2="50%" y2="97.5320629%" id="linearGradient-1">
            <stop stop-color="#46F6ED" offset="0%"></stop>
            <stop stop-color="#05ABF8" offset="100%"></stop>
        </linearGradient>
    </defs>
    <g id="图片组件" stroke="none" stroke-width="1" fill="none" fill-rule="evenodd">
        <path d="M21,0 C22.6626506,0 24,1.3373494 24,3 C24,4.6626506 22.6626506,6 21,6 C19.3373494,6 18,4.6626506 18,3 C18,1.3373494 19.3554217,0 21,0 Z M0,20 C0,20 2.38633194,6 7.90725244,6 C13.3270572,6 14.7224547,15.7959184 18.5244073,15.7959184 C20.9309623,15.7959184 20.6882845,11.3673469 24.5104603,11.3673469 C27.2405858,11.3673469 29,20 29,20 L0,20 Z" id="Shape-Copy-2" fill="url(#linearGradient-1)" fill-rule="nonzero"></path>
    </g>
</svg>