<?xml version="1.0" encoding="UTF-8"?>
<svg width="33px" height="21px" viewBox="0 0 33 21" version="1.1" xmlns="http://www.w3.org/2000/svg" xmlns:xlink="http://www.w3.org/1999/xlink">
    <!-- Generator: Sketch 51.2 (57519) - http://www.bohemiancoding.com/sketch -->
    <title>实时视频组件</title>
    <desc>Created with Sketch.</desc>
    <defs>
        <linearGradient x1="50%" y1="0%" x2="50%" y2="99.6861452%" id="linearGradient-1">
            <stop stop-color="#40F0EE" offset="0%"></stop>
            <stop stop-color="#05ABF8" offset="100%"></stop>
        </linearGradient>
        <linearGradient x1="50%" y1="0%" x2="50%" y2="99.4761561%" id="linearGradient-2">
            <stop stop-color="#41F0EE" offset="0%"></stop>
            <stop stop-color="#05ABF8" offset="100%"></stop>
        </linearGradient>
    </defs>
    <g id="实时视频组件" stroke="none" stroke-width="1" fill="none" fill-rule="evenodd">
        <g id="shipin" fill-rule="nonzero">
            <path d="M21.9941691,7.9631636 C21.7259475,8.34994583 21.4800777,8.73672806 21.2789116,9.12351029 C21.0777454,9.51029252 20.9659864,9.96533044 20.9659864,10.3976165 C20.9659864,10.8299025 21.0553936,11.2621885 21.2789116,11.6489707 C21.4800777,12.035753 21.7259475,12.3997833 21.9718173,12.7410618 C22.1729835,13.0368364 22.4188533,13.3098592 22.664723,13.56013 C22.8658892,13.7648971 22.9776482,13.9014085 22.9776482,13.9696641 L22.9776482,19.8396533 C22.9776482,20.1581798 22.8658892,20.4539545 22.6423712,20.6587216 C22.4412051,20.8862405 22.1506317,21 21.8377065,21 L1.13994169,21 C0.849368319,21 0.558794947,20.8862405 0.335276968,20.6587216 C0.111758989,20.4312026 0,20.1581798 0,19.8396533 L0,1.1603467 C0,0.841820152 0.111758989,0.546045504 0.335276968,0.34127844 C0.536443149,0.11375948 0.827016521,0 1.13994169,0 L21.8600583,0 C22.1506317,0 22.4412051,0.11375948 22.664723,0.34127844 C22.888241,0.5687974 23,0.841820152 23,1.1603467 L23,6.50704225 C23,6.62080173 22.9105928,6.8028169 22.6870748,7.05308776 C22.4635569,7.30335861 22.2400389,7.62188516 21.9941691,7.9631636 Z M4.202138,5.86998917 C4.202138,7.50812568 5.52089407,8.82773564 7.13022352,8.82773564 C8.73955296,8.82773564 10.058309,7.50812568 10.058309,5.86998917 C10.058309,4.23185265 8.73955296,2.91224269 7.13022352,2.91224269 C5.52089407,2.91224269 4.202138,4.23185265 4.202138,5.86998917 Z" id="Combined-Shape" fill="url(#linearGradient-1)"></path>
            <path d="M32.7306733,2.46511628 C32.5735661,2.13953488 32.2144638,2 31.6533666,2 C31.4064838,2 31.1371571,2.09302326 30.8229426,2.27906977 C30.5087282,2.46511628 30.2618454,2.60465116 30.0822943,2.74418605 C29.6109726,3.06976744 29.0274314,3.58139535 28.3092269,4.25581395 C28.0623441,4.48837209 27.8154613,4.74418605 27.5685786,5 C27.2094763,5.39534884 26.8279302,5.79069767 26.4912718,6.20930233 C26.4239401,6.27906977 26.3790524,6.34883721 26.3117207,6.41860465 C25.7057357,7.1627907 25.1670823,7.95348837 24.6733167,8.81395349 C24.2244389,9.62790698 24,10.3488372 24,10.9767442 C24,11.255814 24.0448878,11.5116279 24.1122195,11.7906977 C24.201995,12.1860465 24.3815461,12.627907 24.6284289,13.0697674 L24.6284289,13.0930233 C25.0548628,13.8604651 25.5486284,14.6046512 26.0872818,15.3023256 C26.6259352,16.0232558 27.1870324,16.6511628 27.7481297,17.2325581 C28.286783,17.8139535 28.6907731,18.2093023 28.9825436,18.4418605 C29.0947631,18.5581395 29.2518703,18.6744186 29.4763092,18.8604651 C29.7007481,19.0232558 29.9476309,19.2093023 30.1945137,19.372093 C30.4413965,19.5348837 30.6882793,19.6744186 30.957606,19.8139535 C31.2044888,19.9302326 31.4289277,20 31.5860349,20 C32.0573566,20 32.394015,19.8139535 32.6408978,19.4651163 C32.8877805,19.0930233 33,18.6744186 33,18.2325581 L33,3.62790698 C32.9775561,3.1627907 32.8877805,2.79069767 32.7306733,2.46511628 Z" id="Shape" fill="url(#linearGradient-2)"></path>
        </g>
    </g>
</svg>