<?xml version="1.0" encoding="UTF-8"?>
<svg width="27px" height="27px" viewBox="0 0 27 27" version="1.1" xmlns="http://www.w3.org/2000/svg" xmlns:xlink="http://www.w3.org/1999/xlink">
    <!-- Generator: Sketch 51.2 (57519) - http://www.bohemiancoding.com/sketch -->
    <title>视频片段组件</title>
    <desc>Created with Sketch.</desc>
    <defs>
        <linearGradient x1="50%" y1="0%" x2="50%" y2="157.532876%" id="linearGradient-1">
            <stop stop-color="#41F0EE" offset="0%"></stop>
            <stop stop-color="#05ABF8" offset="100%"></stop>
        </linearGradient>
        <linearGradient x1="50%" y1="-28.4259842%" x2="50%" y2="100%" id="linearGradient-2">
            <stop stop-color="#41F0EE" offset="0%"></stop>
            <stop stop-color="#05ABF8" offset="100%"></stop>
        </linearGradient>
        <linearGradient x1="50%" y1="-60.7531019%" x2="50%" y2="151.698826%" id="linearGradient-3">
            <stop stop-color="#41F0EE" offset="0%"></stop>
            <stop stop-color="#05ABF8" offset="100%"></stop>
        </linearGradient>
    </defs>
    <g id="视频片段组件" stroke="none" stroke-width="1" fill="none" fill-rule="evenodd">
        <g id="Group-10" fill-rule="nonzero">
            <path d="M1.23030961,16.136413 C1.60673547,16.136413 1.9293862,15.8315217 1.9293862,15.4369565 L1.9293862,7.27663043 C1.9293862,4.3173913 4.33134166,1.91413043 7.28897338,1.91413043 L19.7289517,1.91413043 C20.9837045,1.91413043 22.2026073,2.3625 23.1705595,3.16956522 C23.4573601,3.42065217 23.9054861,3.38478261 24.1385117,3.0798913 C24.3894622,2.79293478 24.3536122,2.34456522 24.0488865,2.11141304 C22.8299837,1.08913043 21.3063552,0.533152174 19.7110266,0.533152174 L7.27104834,0.533152174 C3.56056491,0.533152174 0.531233026,3.56413043 0.531233026,7.27663043 L0.531233026,15.4548913 C0.531233026,15.8315217 0.853883759,16.136413 1.23030961,16.136413 Z" id="Path" fill="url(#linearGradient-1)"></path>
            <path d="M25.0706138,6.72065217 L25.0706138,19.7233696 C25.0706138,22.6826087 22.6686583,25.0858696 19.7110266,25.0858696 L7.27104834,25.0858696 C4.31341662,25.0858696 1.91146116,22.6826087 1.91146116,19.7233696 C1.91146116,19.3467391 1.60673547,19.023913 1.21238457,19.023913 C0.818033677,19.023913 0.513307985,19.3288043 0.513307985,19.7233696 C0.513307985,23.4358696 3.54263987,26.4668478 7.2531233,26.4668478 L19.6931016,26.4668478 C23.403585,26.4668478 26.4329169,23.4358696 26.4329169,19.7233696 L26.4329169,6.72065217 C26.4329169,6.34402174 26.1281912,6.02119565 25.7338403,6.02119565 C25.3753395,6.02119565 25.0706138,6.34402174 25.0706138,6.72065217 Z" id="Path" fill="url(#linearGradient-2)"></path>
            <path d="M9.40412819,7.67119565 C9.1890277,7.56358696 8.93807713,7.58152174 8.72297664,7.70706522 C8.5258012,7.8326087 8.40032591,8.04782609 8.40032591,8.29891304 L8.40032591,18.7369565 C8.40032591,18.9701087 8.5258012,19.2032609 8.72297664,19.3288043 C8.83052689,19.4005435 8.95600217,19.436413 9.08147746,19.436413 C9.1890277,19.436413 9.29657795,19.4184783 9.38620315,19.3646739 L19.8185769,14.1456522 C20.0516024,14.0201087 20.1950027,13.7869565 20.1950027,13.5179348 C20.1950027,13.248913 20.0516024,13.0157609 19.8185769,12.9081522 L9.40412819,7.67119565 Z" id="Path" fill="url(#linearGradient-3)"></path>
        </g>
    </g>
</svg>