<?xml version="1.0" encoding="UTF-8"?>
<svg width="17px" height="14px" viewBox="0 0 17 14" version="1.1" xmlns="http://www.w3.org/2000/svg" xmlns:xlink="http://www.w3.org/1999/xlink">
    <!-- Generator: Sketch 51.2 (57519) - http://www.bohemiancoding.com/sketch -->
    <title>其他组件</title>
    <desc>Created with Sketch.</desc>
    <defs></defs>
    <g id="其他组件" stroke="none" stroke-width="1" fill="none" fill-rule="evenodd">
        <g id="qita" fill="#2CA7E0" fill-rule="nonzero">
            <path d="M13.7618689,10.1111137 C11.9735929,10.1111137 10.523835,8.71824907 10.523835,6.99993001 C10.523835,5.28175096 11.9735929,3.88888632 13.7618689,3.88888632 C15.5502421,3.88888632 17,5.28175096 17,6.99993001 C17,8.71824907 15.5502421,10.1111137 13.7618689,10.1111137 Z M10.1041541,3.68306228 L7.05615563,1.55545185 L2.42854369,1.55545185 C1.98144433,1.55545185 1.61902912,1.2073407 1.61902912,0.777725927 C1.61902912,0.348111156 1.9814443,0 2.42854369,0 C2.42854369,0 7.19081975,0 7.28570389,0 C7.28866674,0 7.59724059,0.00186666158 7.78125318,0.138810472 L11.0558856,2.42455142 C11.4175723,2.67711225 11.4976907,3.16361389 11.2349682,3.51102505 C10.9721243,3.85843621 10.4658408,3.93562313 10.1041541,3.68306228 Z M9.71432041,6.99993001 C9.71432041,7.42954478 9.35180806,7.77779594 8.90480584,7.77779594 L0.80951457,7.77779592 C0.362415211,7.77779592 0,7.42954476 0,6.99992999 C0,6.57045522 0.362415187,6.22220406 0.80951457,6.22220406 L8.90480587,6.22220406 C9.35180809,6.22220408 9.71432041,6.57045524 9.71432041,6.99993001 Z M2.42854369,12.4444081 L7.05613135,12.4444081 L10.1041541,10.3166577 C10.4658408,10.0640969 10.9721243,10.1411438 11.2349439,10.488695 C11.4976664,10.8362461 11.417548,11.3227477 11.0558613,11.5750286 L7.78122888,13.8609095 C7.63821052,13.9607766 7.47272788,13.9951 7.30848385,13.9955667 C6.78469032,13.9955667 2.42851938,14 2.42851938,14 C1.98142002,14 1.61900481,13.6517488 1.61900481,13.2222741 C1.61902912,12.7926593 1.98144433,12.4444081 2.42854369,12.4444081 Z" id="Shape" transform="translate(8.500000, 7.000000) scale(-1, 1) translate(-8.500000, -7.000000) "></path>
        </g>
    </g>
</svg>