<?xml version="1.0" encoding="UTF-8"?>
<svg width="32px" height="32px" viewBox="0 0 32 32" version="1.1" xmlns="http://www.w3.org/2000/svg" xmlns:xlink="http://www.w3.org/1999/xlink">
    <!-- Generator: Sketch 51.2 (57519) - http://www.bohemiancoding.com/sketch -->
    <title>时间器组件</title>
    <desc>Created with Sketch.</desc>
    <defs>
        <linearGradient x1="50%" y1="0%" x2="50%" y2="100%" id="linearGradient-1">
            <stop stop-color="#68F8F5" offset="0%"></stop>
            <stop stop-color="#379CEF" offset="100%"></stop>
        </linearGradient>
        <linearGradient x1="50%" y1="0%" x2="50%" y2="100%" id="linearGradient-2">
            <stop stop-color="#53EAED" offset="0%"></stop>
            <stop stop-color="#3AA9ED" offset="100%"></stop>
        </linearGradient>
    </defs>
    <g id="时间器组件" stroke="none" stroke-width="1" fill="none" fill-rule="evenodd">
        <g id="Group-12-Copy-2" fill-rule="nonzero">
            <path d="M17.1952144,14.3160647 C16.9759481,14.2463267 16.7423686,14.2086957 16.5,14.2086957 C15.2345476,14.2086957 14.2086957,15.2345475 14.2086957,16.5 C14.2086956,17.3186042 14.6454158,18.0750257 15.3543478,18.4843278 C16.0632798,18.8936299 16.9367202,18.8936299 17.6456522,18.4843278 C18.3545842,18.0750257 18.7913044,17.3186042 18.7913043,16.5 C18.7913043,16.1366393 18.7067241,15.7930333 18.5561775,15.4877961 L24.2772009,8.04414085 C24.5722942,7.65819272 24.4855021,7.11454536 24.0819186,6.82819675 C23.6783351,6.54599812 23.1098465,6.62899772 22.8104136,7.01494585 L17.1952144,14.3160647 Z M1.59255718,12.2494916 C2.93311111,13.4663361 4.7118401,14.2086957 6.66086957,14.2086957 C10.8231159,14.2086957 14.2086957,10.8231159 14.2086957,6.66086957 C14.2086957,4.7118401 13.4663361,2.93311111 12.2494916,1.59255718 C13.6006946,1.20667673 15.0266884,1 16.5,1 C25.0460397,1 32,7.95396026 32,16.5 C32,25.0460397 25.0460397,32 16.5,32 C7.95396026,32 1,25.0460397 1,16.5 C1,15.0266884 1.20667673,13.6006946 1.59255718,12.2494916 Z M16.3778973,5.87471595 C16.8681866,5.87471595 17.2654901,5.47741251 17.2654901,4.98712316 L17.2654901,2.69628844 C17.2654901,2.20599909 16.8681866,1.80869565 16.3778973,1.80869565 C15.8876079,1.80869565 15.4903045,2.20599909 15.4903045,2.69628844 L15.4903045,4.98712316 C15.4903045,5.47741251 15.8876079,5.87471595 16.3778973,5.87471595 Z M16.3778973,30.9217391 C16.8681866,30.9217391 17.2654901,30.5244357 17.2654901,30.0341463 L17.2654901,27.7433116 C17.2654901,27.2530223 16.8681866,26.8557188 16.3778973,26.8557188 C15.8876079,26.8557188 15.4903045,27.2530223 15.4903045,27.7433116 L15.4903045,30.0341463 C15.4903045,30.5244357 15.8876079,30.9217391 16.3778973,30.9217391 Z M4.98712316,17.231677 C5.47741251,17.231677 5.87471595,16.8343736 5.87471595,16.3440842 C5.87471595,15.8537949 5.47741251,15.4564914 4.98712316,15.4564914 L2.69628844,15.4564914 C2.20599909,15.4564914 1.80869565,15.8537949 1.80869565,16.3440842 C1.80869565,16.8343736 2.20599909,17.231677 2.69628844,17.231677 L4.98712316,17.231677 Z M30.0341463,17.231677 C30.5244357,17.231677 30.9217391,16.8343736 30.9217391,16.3440842 C30.9217391,15.8537949 30.5244357,15.4564914 30.0341463,15.4564914 L27.7433116,15.4564914 C27.2530223,15.4564914 26.8557188,15.8537949 26.8557188,16.3440842 C26.8557188,16.8343736 27.2530223,17.231677 27.7433116,17.231677 L30.0341463,17.231677 Z" id="Combined-Shape" fill="url(#linearGradient-1)"></path>
            <path d="M6.5,13 C2.91870968,13 0,10.0854839 0,6.5 C0,2.91451613 2.91451613,0 6.5,0 C10.0854839,0 13,2.91451613 13,6.5 C13,10.0854839 10.0812903,13 6.5,13 Z M11.1380995,7.89396522 L11.1428571,7.89396522 L11.1428571,6.88339584 L10.4767932,6.88339584 L10.4767932,3.71428571 L8.71648153,3.71428571 L6.63265306,6.97204228 L6.63265306,7.89396522 L9.13990786,7.89396522 L9.13990786,9.28571429 L10.4720356,9.28571429 L10.4720356,7.89396522 L11.1380995,7.89396522 Z M5.18890811,5.50323661 C5.18890811,6.29542411 4.29915831,7.28783482 2.97292748,8.53270089 L2.97292748,9.28571429 L6.63265306,9.28571429 L6.63265306,8.18448661 L5.66316154,8.18448661 C5.43233022,8.18448661 5.07139398,8.22366071 4.8069872,8.25848214 C5.61699527,7.4140625 6.39762481,6.37377232 6.39762481,5.43359375 C6.39762481,4.38895089 5.68834313,3.71428571 4.66848841,3.71428571 C3.9172374,3.71428571 3.43459011,3.99285714 2.91836735,4.55870536 L3.60666436,5.26383929 C3.85428341,4.98091518 4.13967485,4.7328125 4.50061109,4.7328125 C4.92030439,4.7328125 5.18890811,5.00267857 5.18890811,5.50323661 Z M9.49795918,6.71848739 L9.49795918,5.80678621 C9.49795918,5.41534929 9.53333333,4.82076157 9.55102041,4.42436975 L9.52006803,4.42436975 C9.37857143,4.77616749 9.22823129,5.13787502 9.07346939,5.48967276 L8.43673469,6.71848739 L9.49795918,6.71848739 Z" id="Combined-Shape" fill="url(#linearGradient-2)"></path>
        </g>
    </g>
</svg>