<?xml version="1.0" encoding="UTF-8"?>
<svg width="31px" height="29px" viewBox="0 0 31 29" version="1.1" xmlns="http://www.w3.org/2000/svg" xmlns:xlink="http://www.w3.org/1999/xlink">
    <!-- Generator: Sketch 51.2 (57519) - http://www.bohemiancoding.com/sketch -->
    <title>标题组件</title>
    <desc>Created with Sketch.</desc>
    <defs>
        <linearGradient x1="50%" y1="0%" x2="50%" y2="100%" id="linearGradient-1">
            <stop stop-color="#43CEE9" offset="0%"></stop>
            <stop stop-color="#348EF1" offset="100%"></stop>
        </linearGradient>
    </defs>
    <g id="标题组件" stroke="none" stroke-width="1" fill="none" fill-rule="evenodd">
        <g id="标题-copy-2" fill="url(#linearGradient-1)" fill-rule="nonzero">
            <path d="M3.51721047,2.10618983 L3.51721047,11.3925722 L6.09759383,11.3925722 L6.09759383,2.10618983 L9.6148043,2.10618983 L9.6148043,0 L0,0 L0,2.10618983 L3.51721047,2.10618983 Z M12.4834421,1.86685005 L12.4834421,0 L10.1495922,0 L10.1495922,1.86685005 L12.4834421,1.86685005 Z M10.1495922,3.14332876 L10.1495922,11.3925722 L12.4834421,11.3925722 L12.4834421,3.14332876 L10.1495922,3.14332876 Z M16.6504894,3.14332876 L16.6504894,0.670151303 L14.3166395,0.670151303 L14.3166395,3.14332876 L12.903181,3.14332876 L12.903181,4.65914716 L14.3166395,4.65914716 L14.3166395,9.52572214 C14.3166395,9.94057979 14.3878595,10.2756521 14.5303018,10.5309491 C14.6727441,10.7862461 14.8672296,10.9830346 15.1137643,11.1213205 C15.360299,11.2596064 15.6451792,11.352682 15.9684135,11.4005502 C16.2916479,11.4484184 16.6340521,11.4723521 16.9956362,11.4723521 C17.2257352,11.4723521 17.4613093,11.4670335 17.7023654,11.4563962 C17.9434215,11.4457588 18.1625602,11.4244844 18.3597879,11.3925722 L18.3597879,9.63741403 C18.250217,9.6586888 18.1351692,9.6746446 18.0146411,9.68528198 C17.8941131,9.69591936 17.7681083,9.70123796 17.6366232,9.70123796 C17.2421677,9.70123796 16.9792013,9.63741467 16.8477162,9.50976615 C16.716231,9.38211767 16.6504894,9.12682448 16.6504894,8.74387896 L16.6504894,4.65914716 L18.3597879,4.65914716 L18.3597879,3.14332876 L16.6504894,3.14332876 Z M18.9110114,0 L18.9110114,11.3925722 L21.2448613,11.3925722 L21.2448613,0 L18.9110114,0 Z M28.1730833,6.38239338 L24.3764681,6.38239338 C24.3874253,6.22283275 24.4230353,6.04200008 24.4832993,5.83988995 C24.5435633,5.63777983 24.6476542,5.44630993 24.7955749,5.26547454 C24.9434959,5.08463918 25.1407206,4.93305884 25.3872553,4.81072904 C25.63379,4.68839919 25.9433232,4.6272352 26.3158645,4.6272352 C26.8856337,4.6272352 27.3102147,4.77615624 27.5896206,5.07400276 C27.8690267,5.37184926 28.0635122,5.80797512 28.1730833,6.38239338 Z M24.3764681,7.81843193 L30.5069332,7.81843193 C30.5507616,7.18018939 30.4959768,6.56854945 30.3425776,5.98349381 C30.1891781,5.39843815 29.9399079,4.87721456 29.5947593,4.41980744 C29.2496108,3.96240029 28.8085943,3.59807561 28.2716966,3.32682257 C27.7347989,3.05556947 27.1047752,2.91994499 26.3816068,2.91994499 C25.7351381,2.91994499 25.146203,3.03163574 24.6147837,3.25502063 C24.0833647,3.47840551 23.6259128,3.7842255 23.2424143,4.17248967 C22.858916,4.56075388 22.5630787,5.02081347 22.354894,5.55268226 C22.146709,6.08455102 22.0426182,6.6589607 22.0426182,7.27592848 C22.0426182,7.91417102 22.1439698,8.4992179 22.3466761,9.03108666 C22.5493824,9.56295545 22.8370019,10.0203557 23.2095432,10.4033012 C23.5820844,10.7862468 24.0367973,11.0814295 24.573695,11.2888583 C25.1105927,11.4962871 25.713224,11.6 26.3816068,11.6 C27.3458314,11.6 28.1676013,11.3872557 28.8469413,10.9617607 C29.5262813,10.5362656 30.0303002,9.82889076 30.359013,8.83961485 L28.3045676,8.83961485 C28.227868,9.09491188 28.0196863,9.33690854 27.6800162,9.56561212 C27.3403463,9.79431566 26.9349398,9.90866575 26.4637847,9.90866575 C25.8063588,9.90866575 25.3023399,9.7437889 24.9517128,9.41403027 C24.6010858,9.08427163 24.4093394,8.55241081 24.3764681,7.81843193 Z M0,15.4666667 L31,15.4666667 L31,17.4 L0,17.4 L0,15.4666667 Z M0,21.2666667 L31,21.2666667 L31,23.2 L0,23.2 L0,21.2666667 Z M0,27.0666667 L23.25,27.0666667 L23.25,29 L0,29 L0,27.0666667 Z" id="Shape"></path>
        </g>
    </g>
</svg>