<?xml version="1.0" encoding="UTF-8"?>
<svg width="62px" height="44px" viewBox="0 0 62 44" version="1.1" xmlns="http://www.w3.org/2000/svg" xmlns:xlink="http://www.w3.org/1999/xlink">
    <!-- Generator: Sketch 51.2 (57519) - http://www.bohemiancoding.com/sketch -->
    <title>轮播列表组件</title>
    <desc>Created with Sketch.</desc>
    <defs></defs>
    <g id="轮播列表组件" stroke="none" stroke-width="1" fill="none" fill-rule="evenodd">
        <g id="Group-2-Copy">
            <path d="M12.7109375,0.953125 L10.8164062,0.953125 L10.8164062,6 L10.0546875,6 L10.0546875,0.953125 L8.17578125,0.953125 L8.17578125,0.2734375 L12.7109375,0.2734375 L12.7109375,0.953125 Z M16.5842187,1.85546875 L14.9982812,6.0703125 C14.9956771,6.07552086 14.9930729,6.08463535 14.9904687,6.09765625 C14.8394263,6.56640859 14.6629958,6.94726416 14.4611719,7.24023438 C14.2593479,7.53320459 13.9722414,7.6796875 13.5998437,7.6796875 C13.4748431,7.6796875 13.3225009,7.65364609 13.1428125,7.6015625 L13.0725,6.9375 C13.2079173,6.97916688 13.3407285,7 13.4709375,7 C13.7313555,7 13.9116922,6.92838613 14.0119531,6.78515625 C14.112214,6.64192637 14.2248431,6.38281438 14.3498437,6.0078125 L12.775625,1.85546875 L13.5334375,1.85546875 L14.51,4.5703125 C14.5672919,4.73698 14.6284892,4.9518216 14.6935937,5.21484375 L14.7092187,5.21484375 C14.7743232,4.91275891 14.8576557,4.62500137 14.9592187,4.3515625 L15.869375,1.85546875 L16.5842187,1.85546875 Z M17.6059375,2.390625 C17.8689596,1.97135207 18.2634869,1.76171875 18.7895312,1.76171875 C19.3338048,1.76171875 19.763488,1.9589824 20.0785937,2.35351562 C20.3936995,2.74804885 20.55125,3.26171559 20.55125,3.89453125 C20.55125,4.56901379 20.3767726,5.10481572 20.0278125,5.50195312 C19.6788524,5.89909053 19.2504713,6.09765625 18.7426562,6.09765625 C18.2973415,6.09765625 17.9405742,5.92057469 17.6723437,5.56640625 L17.6528125,5.56640625 L17.6528125,7.59375 L16.9496875,7.59375 L16.9496875,1.85546875 L17.5903125,1.85546875 L17.5903125,2.390625 L17.6059375,2.390625 Z M18.6957812,5.51953125 C19.0239079,5.51953125 19.2953895,5.3834649 19.5102344,5.11132812 C19.7250792,4.83919135 19.8325,4.43359645 19.8325,3.89453125 C19.8325,3.38671621 19.7289854,2.99609512 19.5219531,2.72265625 C19.3149208,2.44921738 19.0499495,2.3125 18.7270312,2.3125 C18.3936962,2.3125 18.1196104,2.46484223 17.9047656,2.76953125 C17.6899208,3.07422027 17.5825,3.46874758 17.5825,3.953125 C17.5825,4.4661484 17.6853635,4.85546742 17.8910937,5.12109375 C18.0968239,5.38672008 18.3650504,5.51953125 18.6957812,5.51953125 Z M24.7526562,4.10546875 L21.6471875,4.10546875 C21.6758334,4.56380438 21.8066915,4.91406129 22.0397656,5.15625 C22.2728397,5.39843871 22.5638524,5.51953125 22.9128125,5.51953125 C23.181043,5.51953125 23.4063011,5.44856842 23.5885937,5.30664062 C23.7708863,5.16471283 23.9102078,4.95052227 24.0065625,4.6640625 L24.7292187,4.75390625 C24.6120306,5.18620008 24.397189,5.51822801 24.0846875,5.75 C23.7721859,5.98177199 23.3815648,6.09765625 22.9128125,6.09765625 C22.2904135,6.09765625 21.8040903,5.90690295 21.4538281,5.52539062 C21.1035659,5.1438783 20.9284375,4.62239914 20.9284375,3.9609375 C20.9284375,3.3072884 21.0983576,2.77734578 21.4382031,2.37109375 C21.7780485,1.96484172 22.2565594,1.76171875 22.87375,1.76171875 C23.1758348,1.76171875 23.4668475,1.82812434 23.7467968,1.9609375 C24.0267462,2.09375066 24.264374,2.31965986 24.4596875,2.63867188 C24.6550009,2.95768389 24.7526562,3.44661129 24.7526562,4.10546875 Z M24.03,3.52734375 C24.001354,3.10546664 23.8704959,2.80143322 23.6374218,2.61523438 C23.4043478,2.42903553 23.149793,2.3359375 22.87375,2.3359375 C22.5430192,2.3359375 22.2708865,2.44661348 22.0573437,2.66796875 C21.843801,2.88932402 21.7201043,3.17577949 21.68625,3.52734375 L24.03,3.52734375 Z M29.6554687,3.015625 C29.6242185,2.78906137 29.5324226,2.61914119 29.3800781,2.50585938 C29.2277336,2.39257756 29.0161471,2.3359375 28.7453125,2.3359375 C28.4770819,2.3359375 28.2602872,2.38150996 28.0949218,2.47265625 C27.9295564,2.56380254 27.846875,2.69661371 27.846875,2.87109375 C27.846875,3.03515707 27.9126295,3.1523434 28.0441406,3.22265625 C28.1756517,3.2929691 28.4354147,3.37890574 28.8234375,3.48046875 C29.2609396,3.59244848 29.5884103,3.69140582 29.8058593,3.77734375 C30.0233083,3.86328168 30.1925775,3.98372318 30.3136718,4.13867188 C30.4347662,4.29362057 30.4953125,4.5091132 30.4953125,4.78515625 C30.4953125,5.15494977 30.3442723,5.46614457 30.0421875,5.71875 C29.7401026,5.97135543 29.3364608,6.09765625 28.83125,6.09765625 C28.3052057,6.09765625 27.8944025,5.98632924 27.5988281,5.76367188 C27.3032537,5.54101451 27.1216149,5.20703348 27.0539062,4.76171875 L27.753125,4.65625 C27.7895835,4.94531395 27.8970043,5.16145762 28.0753906,5.3046875 C28.2537769,5.44791738 28.5031234,5.51953125 28.8234375,5.51953125 C29.1307307,5.51953125 29.3664054,5.45507877 29.5304687,5.32617188 C29.694532,5.19726498 29.7765625,5.04036551 29.7765625,4.85546875 C29.7765625,4.73046812 29.7388024,4.63020871 29.6632812,4.5546875 C29.58776,4.47916629 29.4933599,4.42252623 29.3800781,4.38476562 C29.2667963,4.34700502 29.0122415,4.2799484 28.6164062,4.18359375 C28.0278616,4.04296805 27.6391936,3.87239684 27.4503906,3.671875 C27.2615875,3.47135316 27.1671875,3.23177223 27.1671875,2.953125 C27.1671875,2.6067691 27.3052069,2.3216157 27.58125,2.09765625 C27.857293,1.8736968 28.228383,1.76171875 28.6945312,1.76171875 C29.1893253,1.76171875 29.5740871,1.85872299 29.8488281,2.05273438 C30.123569,2.24674576 30.2882809,2.53645641 30.3429687,2.921875 L29.6554687,3.015625 Z M32.7904687,1.76171875 C33.3503673,1.76171875 33.8145554,1.94400859 34.1830468,2.30859375 C34.5515382,2.67317891 34.7357812,3.19140289 34.7357812,3.86328125 C34.7357812,4.67838949 34.5365644,5.25455561 34.1381249,5.59179688 C33.7396855,5.92903814 33.2904712,6.09765625 32.7904687,6.09765625 C32.2670286,6.09765625 31.812606,5.9244809 31.4271874,5.578125 C31.0417688,5.2317691 30.8490624,4.68229543 30.8490624,3.9296875 C30.8490624,3.20051719 31.0352585,2.65690283 31.4076562,2.29882812 C31.7800539,1.94075342 32.2409868,1.76171875 32.7904687,1.76171875 Z M32.7904687,5.51953125 C33.1915124,5.51953125 33.4961968,5.37109523 33.7045312,5.07421875 C33.9128656,4.77734227 34.0170312,4.38672117 34.0170312,3.90234375 C34.0170312,3.38411199 33.8991938,2.9934909 33.6635156,2.73046875 C33.4278373,2.4674466 33.1368246,2.3359375 32.7904687,2.3359375 C32.4336961,2.3359375 32.1407303,2.46939971 31.9115624,2.73632812 C31.6823946,3.00325654 31.5678124,3.40103902 31.5678124,3.9296875 C31.5678124,4.4557318 31.6843477,4.85221221 31.9174218,5.11914062 C32.1504959,5.38606904 32.4415086,5.51953125 32.7904687,5.51953125 Z M40.9293749,6 L40.2262499,6 L40.2262499,3.3828125 C40.2262499,3.1901032 40.2132292,3.02539131 40.1871874,2.88867188 C40.1611456,2.75195244 40.094089,2.6308599 39.9860156,2.52539062 C39.8779421,2.41992135 39.709324,2.3671875 39.4801562,2.3671875 C39.2041131,2.3671875 38.9658343,2.4635407 38.7653124,2.65625 C38.5647906,2.8489593 38.4645312,3.16145617 38.4645312,3.59375 L38.4645312,6 L37.7614062,6 L37.7614062,3.3046875 C37.7614062,2.9453107 37.6982558,2.69921941 37.5719531,2.56640625 C37.4456503,2.43359309 37.2666157,2.3671875 37.0348437,2.3671875 C36.7327588,2.3671875 36.4847144,2.47135313 36.2907031,2.6796875 C36.0966917,2.88802187 35.9996874,3.2773409 35.9996874,3.84765625 L35.9996874,6 L35.2965624,6 L35.2965624,1.85546875 L35.9293749,1.85546875 L35.9293749,2.43359375 L35.9449999,2.43359375 C36.2262513,1.98567484 36.6390076,1.76171875 37.1832812,1.76171875 C37.4879702,1.76171875 37.7386187,1.82226502 37.9352343,1.94335938 C38.1318499,2.06445373 38.2744266,2.24609254 38.3629687,2.48828125 C38.6702619,2.00390383 39.0960389,1.76171875 39.6403124,1.76171875 C40.0700021,1.76171875 40.3922645,1.87760301 40.6071093,2.109375 C40.8219541,2.34114699 40.9293749,2.68879977 40.9293749,3.15234375 L40.9293749,6 Z M45.3378124,4.10546875 L42.2323437,4.10546875 C42.2609897,4.56380438 42.3918477,4.91406129 42.6249218,5.15625 C42.8579959,5.39843871 43.1490086,5.51953125 43.4979687,5.51953125 C43.7661992,5.51953125 43.9914573,5.44856842 44.1737499,5.30664062 C44.3560425,5.16471283 44.495364,4.95052227 44.5917187,4.6640625 L45.3143749,4.75390625 C45.1971868,5.18620008 44.9823452,5.51822801 44.6698437,5.75 C44.3573421,5.98177199 43.966721,6.09765625 43.4979687,6.09765625 C42.8755697,6.09765625 42.3892465,5.90690295 42.0389843,5.52539062 C41.6887221,5.1438783 41.5135937,4.62239914 41.5135937,3.9609375 C41.5135937,3.3072884 41.6835138,2.77734578 42.0233593,2.37109375 C42.3632047,1.96484172 42.8417156,1.76171875 43.4589062,1.76171875 C43.760991,1.76171875 44.0520037,1.82812434 44.331953,1.9609375 C44.6119024,2.09375066 44.8495302,2.31965986 45.0448437,2.63867188 C45.2401572,2.95768389 45.3378124,3.44661129 45.3378124,4.10546875 Z M44.6151562,3.52734375 C44.5865102,3.10546664 44.4556521,2.80143322 44.222578,2.61523438 C43.989504,2.42903553 43.7349492,2.3359375 43.4589062,2.3359375 C43.1281754,2.3359375 42.8560427,2.44661348 42.6424999,2.66796875 C42.4289572,2.88932402 42.3052605,3.17577949 42.2714062,3.52734375 L44.6151562,3.52734375 Z M47.5626562,5.9921875 C47.3543218,6.03385438 47.1785423,6.0546875 47.0353124,6.0546875 C46.7280192,6.0546875 46.5040631,6.00065158 46.3634374,5.89257812 C46.2228117,5.78450467 46.1368751,5.64713625 46.1056249,5.48046875 C46.0743748,5.31380125 46.0587499,5.08203273 46.0587499,4.78515625 L46.0587499,2.3984375 L45.5470312,2.3984375 L45.5470312,1.85546875 L46.0587499,1.85546875 L46.0587499,0.82421875 L46.7618749,0.3984375 L46.7618749,1.85546875 L47.4649999,1.85546875 L47.4649999,2.3984375 L46.7618749,2.3984375 L46.7618749,4.82421875 C46.7618749,5.03255312 46.7833591,5.18033811 46.826328,5.26757812 C46.869297,5.35481814 46.9780199,5.3984375 47.1524999,5.3984375 C47.2540629,5.3984375 47.3582285,5.38802094 47.4649999,5.3671875 L47.5626562,5.9921875 Z M51.3148437,6 L50.6078124,6 L50.6078124,3.3828125 C50.6078124,3.04426914 50.5348965,2.79036543 50.3890624,2.62109375 C50.2432283,2.45182207 50.0257826,2.3671875 49.7367187,2.3671875 C49.4502589,2.3671875 49.1944021,2.46679588 48.9691405,2.66601562 C48.743879,2.86523537 48.6312499,3.2213516 48.6312499,3.734375 L48.6312499,6 L47.9281249,6 L47.9281249,0.2734375 L48.6312499,0.2734375 L48.6312499,2.328125 C48.9645849,1.95051895 49.3812474,1.76171875 49.8812499,1.76171875 C50.1494804,1.76171875 50.4059883,1.8164057 50.6507812,1.92578125 C50.895574,2.0351568 51.0674473,2.20312387 51.1664062,2.4296875 C51.265365,2.65625113 51.3148437,2.97135215 51.3148437,3.375 L51.3148437,6 Z M52.8404686,6 L52.1373436,6 L52.1373436,1.85546875 L52.8404686,1.85546875 L52.8404686,6 Z M52.8404686,1.0703125 L52.1373436,1.0703125 L52.1373436,0.2734375 L52.8404686,0.2734375 L52.8404686,1.0703125 Z M57.0614061,6 L56.3543749,6 L56.3543749,3.48046875 C56.3543749,3.05598746 56.2782038,2.76432371 56.1258593,2.60546875 C55.9735147,2.44661379 55.7619283,2.3671875 55.4910936,2.3671875 C55.2827593,2.3671875 55.0854956,2.41796824 54.8992968,2.51953125 C54.7130979,2.62109426 54.5809378,2.76432199 54.5028124,2.94921875 C54.424687,3.13411551 54.3856249,3.39583164 54.3856249,3.734375 L54.3856249,6 L53.6824999,6 L53.6824999,1.85546875 L54.3153124,1.85546875 L54.3153124,2.44140625 L54.3309374,2.44140625 C54.4793756,2.21484262 54.6623165,2.04492244 54.8797655,1.93164062 C55.0972145,1.81835881 55.3491651,1.76171875 55.6356249,1.76171875 C55.854376,1.76171875 56.0705197,1.80078086 56.2840624,1.87890625 C56.4976051,1.95703164 56.6649212,2.07421797 56.7860155,2.23046875 C56.9071099,2.38671953 56.983281,2.55338453 57.0145311,2.73046875 C57.0457813,2.90755297 57.0614061,3.14713391 57.0614061,3.44921875 L57.0614061,6 Z M61.2784374,5.44140625 C61.2784374,6.02995086 61.2198442,6.46939959 61.1026561,6.75976562 C60.985468,7.05013166 60.7771368,7.27604086 60.4776561,7.4375 C60.1781755,7.59895914 59.8201061,7.6796875 59.4034374,7.6796875 C58.934685,7.6796875 58.5440639,7.57552187 58.2315624,7.3671875 C57.9190608,7.15885313 57.7628124,6.8177107 57.7628124,6.34375 L58.4464061,6.44921875 C58.4724479,6.66796984 58.5642439,6.8320307 58.7217968,6.94140625 C58.8793496,7.0507818 59.1039568,7.10546875 59.3956249,7.10546875 C59.76021,7.10546875 60.0271344,7.03125074 60.1964061,6.8828125 C60.3656778,6.73437426 60.4691924,6.55338648 60.506953,6.33984375 C60.5447136,6.12630102 60.5635936,5.83203312 60.5635936,5.45703125 C60.2589046,5.81901223 59.8747939,6 59.4112499,6 C58.8721847,6 58.4392463,5.80078324 58.1124218,5.40234375 C57.7855972,5.00390426 57.6221874,4.50130512 57.6221874,3.89453125 C57.6221874,3.2851532 57.78104,2.77734578 58.0987499,2.37109375 C58.4164598,1.96484172 58.8565596,1.76171875 59.4190624,1.76171875 C59.9086482,1.76171875 60.3070817,1.95833137 60.6143749,2.3515625 L60.6299999,2.3515625 L60.6299999,1.85546875 L61.2784374,1.85546875 L61.2784374,5.44140625 Z M59.4776561,5.42578125 C59.7771368,5.42578125 60.0427591,5.30664182 60.2745311,5.06835938 C60.5063031,4.83007693 60.6221874,4.43099238 60.6221874,3.87109375 C60.6221874,3.37629961 60.5115114,2.99674611 60.2901561,2.73242188 C60.0688009,2.46809764 59.7953661,2.3359375 59.4698436,2.3359375 C59.1365086,2.3359375 58.865027,2.47135281 58.6553905,2.7421875 C58.445754,3.01302219 58.3409374,3.38411223 58.3409374,3.85546875 C58.3409374,4.3997423 58.4509623,4.79752479 58.6710155,5.04882812 C58.8910687,5.30013146 59.1599462,5.42578125 59.4776561,5.42578125 Z" id="Type-something" fill="#59F8F8"></path>
            <path d="M12.7109375,12.953125 L10.8164062,12.953125 L10.8164062,18 L10.0546875,18 L10.0546875,12.953125 L8.17578125,12.953125 L8.17578125,12.2734375 L12.7109375,12.2734375 L12.7109375,12.953125 Z M16.5842187,13.8554688 L14.9982812,18.0703125 C14.9956771,18.0755209 14.9930729,18.0846354 14.9904687,18.0976562 C14.8394263,18.5664086 14.6629958,18.9472642 14.4611719,19.2402344 C14.2593479,19.5332046 13.9722414,19.6796875 13.5998437,19.6796875 C13.4748431,19.6796875 13.3225009,19.6536461 13.1428125,19.6015625 L13.0725,18.9375 C13.2079173,18.9791669 13.3407285,19 13.4709375,19 C13.7313555,19 13.9116922,18.9283861 14.0119531,18.7851562 C14.112214,18.6419264 14.2248431,18.3828144 14.3498437,18.0078125 L12.775625,13.8554688 L13.5334375,13.8554688 L14.51,16.5703125 C14.5672919,16.73698 14.6284892,16.9518216 14.6935937,17.2148438 L14.7092187,17.2148438 C14.7743232,16.9127589 14.8576557,16.6250014 14.9592187,16.3515625 L15.869375,13.8554688 L16.5842187,13.8554688 Z M17.6059375,14.390625 C17.8689596,13.9713521 18.2634869,13.7617188 18.7895312,13.7617188 C19.3338048,13.7617188 19.763488,13.9589824 20.0785937,14.3535156 C20.3936995,14.7480488 20.55125,15.2617156 20.55125,15.8945312 C20.55125,16.5690138 20.3767726,17.1048157 20.0278125,17.5019531 C19.6788524,17.8990905 19.2504713,18.0976562 18.7426562,18.0976562 C18.2973415,18.0976562 17.9405742,17.9205747 17.6723437,17.5664062 L17.6528125,17.5664062 L17.6528125,19.59375 L16.9496875,19.59375 L16.9496875,13.8554688 L17.5903125,13.8554688 L17.5903125,14.390625 L17.6059375,14.390625 Z M18.6957812,17.5195312 C19.0239079,17.5195312 19.2953895,17.3834649 19.5102344,17.1113281 C19.7250792,16.8391913 19.8325,16.4335964 19.8325,15.8945312 C19.8325,15.3867162 19.7289854,14.9960951 19.5219531,14.7226562 C19.3149208,14.4492174 19.0499495,14.3125 18.7270312,14.3125 C18.3936962,14.3125 18.1196104,14.4648422 17.9047656,14.7695312 C17.6899208,15.0742203 17.5825,15.4687476 17.5825,15.953125 C17.5825,16.4661484 17.6853635,16.8554674 17.8910937,17.1210938 C18.0968239,17.3867201 18.3650504,17.5195312 18.6957812,17.5195312 Z M24.7526562,16.1054688 L21.6471875,16.1054688 C21.6758334,16.5638044 21.8066915,16.9140613 22.0397656,17.15625 C22.2728397,17.3984387 22.5638524,17.5195312 22.9128125,17.5195312 C23.181043,17.5195312 23.4063011,17.4485684 23.5885937,17.3066406 C23.7708863,17.1647128 23.9102078,16.9505223 24.0065625,16.6640625 L24.7292187,16.7539062 C24.6120306,17.1862001 24.397189,17.518228 24.0846875,17.75 C23.7721859,17.981772 23.3815648,18.0976562 22.9128125,18.0976562 C22.2904135,18.0976562 21.8040903,17.9069029 21.4538281,17.5253906 C21.1035659,17.1438783 20.9284375,16.6223991 20.9284375,15.9609375 C20.9284375,15.3072884 21.0983576,14.7773458 21.4382031,14.3710938 C21.7780485,13.9648417 22.2565594,13.7617188 22.87375,13.7617188 C23.1758348,13.7617188 23.4668475,13.8281243 23.7467968,13.9609375 C24.0267462,14.0937507 24.264374,14.3196599 24.4596875,14.6386719 C24.6550009,14.9576839 24.7526562,15.4466113 24.7526562,16.1054688 Z M24.03,15.5273438 C24.001354,15.1054666 23.8704959,14.8014332 23.6374218,14.6152344 C23.4043478,14.4290355 23.149793,14.3359375 22.87375,14.3359375 C22.5430192,14.3359375 22.2708865,14.4466135 22.0573437,14.6679688 C21.843801,14.889324 21.7201043,15.1757795 21.68625,15.5273438 L24.03,15.5273438 Z M29.6554687,15.015625 C29.6242185,14.7890614 29.5324226,14.6191412 29.3800781,14.5058594 C29.2277336,14.3925776 29.0161471,14.3359375 28.7453125,14.3359375 C28.4770819,14.3359375 28.2602872,14.38151 28.0949218,14.4726562 C27.9295564,14.5638025 27.846875,14.6966137 27.846875,14.8710938 C27.846875,15.0351571 27.9126295,15.1523434 28.0441406,15.2226562 C28.1756517,15.2929691 28.4354147,15.3789057 28.8234375,15.4804688 C29.2609396,15.5924485 29.5884103,15.6914058 29.8058593,15.7773438 C30.0233083,15.8632817 30.1925775,15.9837232 30.3136718,16.1386719 C30.4347662,16.2936206 30.4953125,16.5091132 30.4953125,16.7851562 C30.4953125,17.1549498 30.3442723,17.4661446 30.0421875,17.71875 C29.7401026,17.9713554 29.3364608,18.0976562 28.83125,18.0976562 C28.3052057,18.0976562 27.8944025,17.9863292 27.5988281,17.7636719 C27.3032537,17.5410145 27.1216149,17.2070335 27.0539062,16.7617188 L27.753125,16.65625 C27.7895835,16.9453139 27.8970043,17.1614576 28.0753906,17.3046875 C28.2537769,17.4479174 28.5031234,17.5195312 28.8234375,17.5195312 C29.1307307,17.5195312 29.3664054,17.4550788 29.5304687,17.3261719 C29.694532,17.197265 29.7765625,17.0403655 29.7765625,16.8554688 C29.7765625,16.7304681 29.7388024,16.6302087 29.6632812,16.5546875 C29.58776,16.4791663 29.4933599,16.4225262 29.3800781,16.3847656 C29.2667963,16.347005 29.0122415,16.2799484 28.6164062,16.1835938 C28.0278616,16.042968 27.6391936,15.8723968 27.4503906,15.671875 C27.2615875,15.4713532 27.1671875,15.2317722 27.1671875,14.953125 C27.1671875,14.6067691 27.3052069,14.3216157 27.58125,14.0976562 C27.857293,13.8736968 28.228383,13.7617188 28.6945312,13.7617188 C29.1893253,13.7617188 29.5740871,13.858723 29.8488281,14.0527344 C30.123569,14.2467458 30.2882809,14.5364564 30.3429687,14.921875 L29.6554687,15.015625 Z M32.7904687,13.7617188 C33.3503673,13.7617188 33.8145554,13.9440086 34.1830468,14.3085938 C34.5515382,14.6731789 34.7357812,15.1914029 34.7357812,15.8632812 C34.7357812,16.6783895 34.5365644,17.2545556 34.1381249,17.5917969 C33.7396855,17.9290381 33.2904712,18.0976562 32.7904687,18.0976562 C32.2670286,18.0976562 31.812606,17.9244809 31.4271874,17.578125 C31.0417688,17.2317691 30.8490624,16.6822954 30.8490624,15.9296875 C30.8490624,15.2005172 31.0352585,14.6569028 31.4076562,14.2988281 C31.7800539,13.9407534 32.2409868,13.7617188 32.7904687,13.7617188 Z M32.7904687,17.5195312 C33.1915124,17.5195312 33.4961968,17.3710952 33.7045312,17.0742188 C33.9128656,16.7773423 34.0170312,16.3867212 34.0170312,15.9023438 C34.0170312,15.384112 33.8991938,14.9934909 33.6635156,14.7304688 C33.4278373,14.4674466 33.1368246,14.3359375 32.7904687,14.3359375 C32.4336961,14.3359375 32.1407303,14.4693997 31.9115624,14.7363281 C31.6823946,15.0032565 31.5678124,15.401039 31.5678124,15.9296875 C31.5678124,16.4557318 31.6843477,16.8522122 31.9174218,17.1191406 C32.1504959,17.386069 32.4415086,17.5195312 32.7904687,17.5195312 Z M40.9293749,18 L40.2262499,18 L40.2262499,15.3828125 C40.2262499,15.1901032 40.2132292,15.0253913 40.1871874,14.8886719 C40.1611456,14.7519524 40.094089,14.6308599 39.9860156,14.5253906 C39.8779421,14.4199213 39.709324,14.3671875 39.4801562,14.3671875 C39.2041131,14.3671875 38.9658343,14.4635407 38.7653124,14.65625 C38.5647906,14.8489593 38.4645312,15.1614562 38.4645312,15.59375 L38.4645312,18 L37.7614062,18 L37.7614062,15.3046875 C37.7614062,14.9453107 37.6982558,14.6992194 37.5719531,14.5664062 C37.4456503,14.4335931 37.2666157,14.3671875 37.0348437,14.3671875 C36.7327588,14.3671875 36.4847144,14.4713531 36.2907031,14.6796875 C36.0966917,14.8880219 35.9996874,15.2773409 35.9996874,15.8476562 L35.9996874,18 L35.2965624,18 L35.2965624,13.8554688 L35.9293749,13.8554688 L35.9293749,14.4335938 L35.9449999,14.4335938 C36.2262513,13.9856748 36.6390076,13.7617188 37.1832812,13.7617188 C37.4879702,13.7617188 37.7386187,13.822265 37.9352343,13.9433594 C38.1318499,14.0644537 38.2744266,14.2460925 38.3629687,14.4882812 C38.6702619,14.0039038 39.0960389,13.7617188 39.6403124,13.7617188 C40.0700021,13.7617188 40.3922645,13.877603 40.6071093,14.109375 C40.8219541,14.341147 40.9293749,14.6887998 40.9293749,15.1523438 L40.9293749,18 Z M45.3378124,16.1054688 L42.2323437,16.1054688 C42.2609897,16.5638044 42.3918477,16.9140613 42.6249218,17.15625 C42.8579959,17.3984387 43.1490086,17.5195312 43.4979687,17.5195312 C43.7661992,17.5195312 43.9914573,17.4485684 44.1737499,17.3066406 C44.3560425,17.1647128 44.495364,16.9505223 44.5917187,16.6640625 L45.3143749,16.7539062 C45.1971868,17.1862001 44.9823452,17.518228 44.6698437,17.75 C44.3573421,17.981772 43.966721,18.0976562 43.4979687,18.0976562 C42.8755697,18.0976562 42.3892465,17.9069029 42.0389843,17.5253906 C41.6887221,17.1438783 41.5135937,16.6223991 41.5135937,15.9609375 C41.5135937,15.3072884 41.6835138,14.7773458 42.0233593,14.3710938 C42.3632047,13.9648417 42.8417156,13.7617188 43.4589062,13.7617188 C43.760991,13.7617188 44.0520037,13.8281243 44.331953,13.9609375 C44.6119024,14.0937507 44.8495302,14.3196599 45.0448437,14.6386719 C45.2401572,14.9576839 45.3378124,15.4466113 45.3378124,16.1054688 Z M44.6151562,15.5273438 C44.5865102,15.1054666 44.4556521,14.8014332 44.222578,14.6152344 C43.989504,14.4290355 43.7349492,14.3359375 43.4589062,14.3359375 C43.1281754,14.3359375 42.8560427,14.4466135 42.6424999,14.6679688 C42.4289572,14.889324 42.3052605,15.1757795 42.2714062,15.5273438 L44.6151562,15.5273438 Z M47.5626562,17.9921875 C47.3543218,18.0338544 47.1785423,18.0546875 47.0353124,18.0546875 C46.7280192,18.0546875 46.5040631,18.0006516 46.3634374,17.8925781 C46.2228117,17.7845047 46.1368751,17.6471362 46.1056249,17.4804688 C46.0743748,17.3138013 46.0587499,17.0820327 46.0587499,16.7851562 L46.0587499,14.3984375 L45.5470312,14.3984375 L45.5470312,13.8554688 L46.0587499,13.8554688 L46.0587499,12.8242188 L46.7618749,12.3984375 L46.7618749,13.8554688 L47.4649999,13.8554688 L47.4649999,14.3984375 L46.7618749,14.3984375 L46.7618749,16.8242188 C46.7618749,17.0325531 46.7833591,17.1803381 46.826328,17.2675781 C46.869297,17.3548181 46.9780199,17.3984375 47.1524999,17.3984375 C47.2540629,17.3984375 47.3582285,17.3880209 47.4649999,17.3671875 L47.5626562,17.9921875 Z M51.3148437,18 L50.6078124,18 L50.6078124,15.3828125 C50.6078124,15.0442691 50.5348965,14.7903654 50.3890624,14.6210938 C50.2432283,14.4518221 50.0257826,14.3671875 49.7367187,14.3671875 C49.4502589,14.3671875 49.1944021,14.4667959 48.9691405,14.6660156 C48.743879,14.8652354 48.6312499,15.2213516 48.6312499,15.734375 L48.6312499,18 L47.9281249,18 L47.9281249,12.2734375 L48.6312499,12.2734375 L48.6312499,14.328125 C48.9645849,13.9505189 49.3812474,13.7617188 49.8812499,13.7617188 C50.1494804,13.7617188 50.4059883,13.8164057 50.6507812,13.9257812 C50.895574,14.0351568 51.0674473,14.2031239 51.1664062,14.4296875 C51.265365,14.6562511 51.3148437,14.9713521 51.3148437,15.375 L51.3148437,18 Z M52.8404686,18 L52.1373436,18 L52.1373436,13.8554688 L52.8404686,13.8554688 L52.8404686,18 Z M52.8404686,13.0703125 L52.1373436,13.0703125 L52.1373436,12.2734375 L52.8404686,12.2734375 L52.8404686,13.0703125 Z M57.0614061,18 L56.3543749,18 L56.3543749,15.4804688 C56.3543749,15.0559875 56.2782038,14.7643237 56.1258593,14.6054688 C55.9735147,14.4466138 55.7619283,14.3671875 55.4910936,14.3671875 C55.2827593,14.3671875 55.0854956,14.4179682 54.8992968,14.5195312 C54.7130979,14.6210943 54.5809378,14.764322 54.5028124,14.9492188 C54.424687,15.1341155 54.3856249,15.3958316 54.3856249,15.734375 L54.3856249,18 L53.6824999,18 L53.6824999,13.8554688 L54.3153124,13.8554688 L54.3153124,14.4414062 L54.3309374,14.4414062 C54.4793756,14.2148426 54.6623165,14.0449224 54.8797655,13.9316406 C55.0972145,13.8183588 55.3491651,13.7617188 55.6356249,13.7617188 C55.854376,13.7617188 56.0705197,13.8007809 56.2840624,13.8789062 C56.4976051,13.9570316 56.6649212,14.074218 56.7860155,14.2304688 C56.9071099,14.3867195 56.983281,14.5533845 57.0145311,14.7304688 C57.0457813,14.907553 57.0614061,15.1471339 57.0614061,15.4492188 L57.0614061,18 Z M61.2784374,17.4414062 C61.2784374,18.0299509 61.2198442,18.4693996 61.1026561,18.7597656 C60.985468,19.0501317 60.7771368,19.2760409 60.4776561,19.4375 C60.1781755,19.5989591 59.8201061,19.6796875 59.4034374,19.6796875 C58.934685,19.6796875 58.5440639,19.5755219 58.2315624,19.3671875 C57.9190608,19.1588531 57.7628124,18.8177107 57.7628124,18.34375 L58.4464061,18.4492188 C58.4724479,18.6679698 58.5642439,18.8320307 58.7217968,18.9414062 C58.8793496,19.0507818 59.1039568,19.1054688 59.3956249,19.1054688 C59.76021,19.1054688 60.0271344,19.0312507 60.1964061,18.8828125 C60.3656778,18.7343743 60.4691924,18.5533865 60.506953,18.3398438 C60.5447136,18.126301 60.5635936,17.8320331 60.5635936,17.4570312 C60.2589046,17.8190122 59.8747939,18 59.4112499,18 C58.8721847,18 58.4392463,17.8007832 58.1124218,17.4023438 C57.7855972,17.0039043 57.6221874,16.5013051 57.6221874,15.8945312 C57.6221874,15.2851532 57.78104,14.7773458 58.0987499,14.3710938 C58.4164598,13.9648417 58.8565596,13.7617188 59.4190624,13.7617188 C59.9086482,13.7617188 60.3070817,13.9583314 60.6143749,14.3515625 L60.6299999,14.3515625 L60.6299999,13.8554688 L61.2784374,13.8554688 L61.2784374,17.4414062 Z M59.4776561,17.4257812 C59.7771368,17.4257812 60.0427591,17.3066418 60.2745311,17.0683594 C60.5063031,16.8300769 60.6221874,16.4309924 60.6221874,15.8710938 C60.6221874,15.3762996 60.5115114,14.9967461 60.2901561,14.7324219 C60.0688009,14.4680976 59.7953661,14.3359375 59.4698436,14.3359375 C59.1365086,14.3359375 58.865027,14.4713528 58.6553905,14.7421875 C58.445754,15.0130222 58.3409374,15.3841122 58.3409374,15.8554688 C58.3409374,16.3997423 58.4509623,16.7975248 58.6710155,17.0488281 C58.8910687,17.3001315 59.1599462,17.4257812 59.4776561,17.4257812 Z" id="Type-something-Copy" fill="#008EFF"></path>
            <path d="M12.7109375,24.953125 L10.8164062,24.953125 L10.8164062,30 L10.0546875,30 L10.0546875,24.953125 L8.17578125,24.953125 L8.17578125,24.2734375 L12.7109375,24.2734375 L12.7109375,24.953125 Z M16.5842187,25.8554688 L14.9982812,30.0703125 C14.9956771,30.0755209 14.9930729,30.0846354 14.9904687,30.0976562 C14.8394263,30.5664086 14.6629958,30.9472642 14.4611719,31.2402344 C14.2593479,31.5332046 13.9722414,31.6796875 13.5998437,31.6796875 C13.4748431,31.6796875 13.3225009,31.6536461 13.1428125,31.6015625 L13.0725,30.9375 C13.2079173,30.9791669 13.3407285,31 13.4709375,31 C13.7313555,31 13.9116922,30.9283861 14.0119531,30.7851562 C14.112214,30.6419264 14.2248431,30.3828144 14.3498437,30.0078125 L12.775625,25.8554688 L13.5334375,25.8554688 L14.51,28.5703125 C14.5672919,28.73698 14.6284892,28.9518216 14.6935937,29.2148438 L14.7092187,29.2148438 C14.7743232,28.9127589 14.8576557,28.6250014 14.9592187,28.3515625 L15.869375,25.8554688 L16.5842187,25.8554688 Z M17.6059375,26.390625 C17.8689596,25.9713521 18.2634869,25.7617188 18.7895312,25.7617188 C19.3338048,25.7617188 19.763488,25.9589824 20.0785937,26.3535156 C20.3936995,26.7480488 20.55125,27.2617156 20.55125,27.8945312 C20.55125,28.5690138 20.3767726,29.1048157 20.0278125,29.5019531 C19.6788524,29.8990905 19.2504713,30.0976562 18.7426562,30.0976562 C18.2973415,30.0976562 17.9405742,29.9205747 17.6723437,29.5664062 L17.6528125,29.5664062 L17.6528125,31.59375 L16.9496875,31.59375 L16.9496875,25.8554688 L17.5903125,25.8554688 L17.5903125,26.390625 L17.6059375,26.390625 Z M18.6957812,29.5195312 C19.0239079,29.5195312 19.2953895,29.3834649 19.5102344,29.1113281 C19.7250792,28.8391913 19.8325,28.4335964 19.8325,27.8945312 C19.8325,27.3867162 19.7289854,26.9960951 19.5219531,26.7226562 C19.3149208,26.4492174 19.0499495,26.3125 18.7270312,26.3125 C18.3936962,26.3125 18.1196104,26.4648422 17.9047656,26.7695312 C17.6899208,27.0742203 17.5825,27.4687476 17.5825,27.953125 C17.5825,28.4661484 17.6853635,28.8554674 17.8910937,29.1210938 C18.0968239,29.3867201 18.3650504,29.5195312 18.6957812,29.5195312 Z M24.7526562,28.1054688 L21.6471875,28.1054688 C21.6758334,28.5638044 21.8066915,28.9140613 22.0397656,29.15625 C22.2728397,29.3984387 22.5638524,29.5195312 22.9128125,29.5195312 C23.181043,29.5195312 23.4063011,29.4485684 23.5885937,29.3066406 C23.7708863,29.1647128 23.9102078,28.9505223 24.0065625,28.6640625 L24.7292187,28.7539062 C24.6120306,29.1862001 24.397189,29.518228 24.0846875,29.75 C23.7721859,29.981772 23.3815648,30.0976562 22.9128125,30.0976562 C22.2904135,30.0976562 21.8040903,29.9069029 21.4538281,29.5253906 C21.1035659,29.1438783 20.9284375,28.6223991 20.9284375,27.9609375 C20.9284375,27.3072884 21.0983576,26.7773458 21.4382031,26.3710938 C21.7780485,25.9648417 22.2565594,25.7617188 22.87375,25.7617188 C23.1758348,25.7617188 23.4668475,25.8281243 23.7467968,25.9609375 C24.0267462,26.0937507 24.264374,26.3196599 24.4596875,26.6386719 C24.6550009,26.9576839 24.7526562,27.4466113 24.7526562,28.1054688 Z M24.03,27.5273438 C24.001354,27.1054666 23.8704959,26.8014332 23.6374218,26.6152344 C23.4043478,26.4290355 23.149793,26.3359375 22.87375,26.3359375 C22.5430192,26.3359375 22.2708865,26.4466135 22.0573437,26.6679688 C21.843801,26.889324 21.7201043,27.1757795 21.68625,27.5273438 L24.03,27.5273438 Z M29.6554687,27.015625 C29.6242185,26.7890614 29.5324226,26.6191412 29.3800781,26.5058594 C29.2277336,26.3925776 29.0161471,26.3359375 28.7453125,26.3359375 C28.4770819,26.3359375 28.2602872,26.38151 28.0949218,26.4726562 C27.9295564,26.5638025 27.846875,26.6966137 27.846875,26.8710938 C27.846875,27.0351571 27.9126295,27.1523434 28.0441406,27.2226562 C28.1756517,27.2929691 28.4354147,27.3789057 28.8234375,27.4804688 C29.2609396,27.5924485 29.5884103,27.6914058 29.8058593,27.7773438 C30.0233083,27.8632817 30.1925775,27.9837232 30.3136718,28.1386719 C30.4347662,28.2936206 30.4953125,28.5091132 30.4953125,28.7851562 C30.4953125,29.1549498 30.3442723,29.4661446 30.0421875,29.71875 C29.7401026,29.9713554 29.3364608,30.0976562 28.83125,30.0976562 C28.3052057,30.0976562 27.8944025,29.9863292 27.5988281,29.7636719 C27.3032537,29.5410145 27.1216149,29.2070335 27.0539062,28.7617188 L27.753125,28.65625 C27.7895835,28.9453139 27.8970043,29.1614576 28.0753906,29.3046875 C28.2537769,29.4479174 28.5031234,29.5195312 28.8234375,29.5195312 C29.1307307,29.5195312 29.3664054,29.4550788 29.5304687,29.3261719 C29.694532,29.197265 29.7765625,29.0403655 29.7765625,28.8554688 C29.7765625,28.7304681 29.7388024,28.6302087 29.6632812,28.5546875 C29.58776,28.4791663 29.4933599,28.4225262 29.3800781,28.3847656 C29.2667963,28.347005 29.0122415,28.2799484 28.6164062,28.1835938 C28.0278616,28.042968 27.6391936,27.8723968 27.4503906,27.671875 C27.2615875,27.4713532 27.1671875,27.2317722 27.1671875,26.953125 C27.1671875,26.6067691 27.3052069,26.3216157 27.58125,26.0976562 C27.857293,25.8736968 28.228383,25.7617188 28.6945312,25.7617188 C29.1893253,25.7617188 29.5740871,25.858723 29.8488281,26.0527344 C30.123569,26.2467458 30.2882809,26.5364564 30.3429687,26.921875 L29.6554687,27.015625 Z M32.7904687,25.7617188 C33.3503673,25.7617188 33.8145554,25.9440086 34.1830468,26.3085938 C34.5515382,26.6731789 34.7357812,27.1914029 34.7357812,27.8632812 C34.7357812,28.6783895 34.5365644,29.2545556 34.1381249,29.5917969 C33.7396855,29.9290381 33.2904712,30.0976562 32.7904687,30.0976562 C32.2670286,30.0976562 31.812606,29.9244809 31.4271874,29.578125 C31.0417688,29.2317691 30.8490624,28.6822954 30.8490624,27.9296875 C30.8490624,27.2005172 31.0352585,26.6569028 31.4076562,26.2988281 C31.7800539,25.9407534 32.2409868,25.7617188 32.7904687,25.7617188 Z M32.7904687,29.5195312 C33.1915124,29.5195312 33.4961968,29.3710952 33.7045312,29.0742188 C33.9128656,28.7773423 34.0170312,28.3867212 34.0170312,27.9023438 C34.0170312,27.384112 33.8991938,26.9934909 33.6635156,26.7304688 C33.4278373,26.4674466 33.1368246,26.3359375 32.7904687,26.3359375 C32.4336961,26.3359375 32.1407303,26.4693997 31.9115624,26.7363281 C31.6823946,27.0032565 31.5678124,27.401039 31.5678124,27.9296875 C31.5678124,28.4557318 31.6843477,28.8522122 31.9174218,29.1191406 C32.1504959,29.386069 32.4415086,29.5195312 32.7904687,29.5195312 Z M40.9293749,30 L40.2262499,30 L40.2262499,27.3828125 C40.2262499,27.1901032 40.2132292,27.0253913 40.1871874,26.8886719 C40.1611456,26.7519524 40.094089,26.6308599 39.9860156,26.5253906 C39.8779421,26.4199213 39.709324,26.3671875 39.4801562,26.3671875 C39.2041131,26.3671875 38.9658343,26.4635407 38.7653124,26.65625 C38.5647906,26.8489593 38.4645312,27.1614562 38.4645312,27.59375 L38.4645312,30 L37.7614062,30 L37.7614062,27.3046875 C37.7614062,26.9453107 37.6982558,26.6992194 37.5719531,26.5664062 C37.4456503,26.4335931 37.2666157,26.3671875 37.0348437,26.3671875 C36.7327588,26.3671875 36.4847144,26.4713531 36.2907031,26.6796875 C36.0966917,26.8880219 35.9996874,27.2773409 35.9996874,27.8476562 L35.9996874,30 L35.2965624,30 L35.2965624,25.8554688 L35.9293749,25.8554688 L35.9293749,26.4335938 L35.9449999,26.4335938 C36.2262513,25.9856748 36.6390076,25.7617188 37.1832812,25.7617188 C37.4879702,25.7617188 37.7386187,25.822265 37.9352343,25.9433594 C38.1318499,26.0644537 38.2744266,26.2460925 38.3629687,26.4882812 C38.6702619,26.0039038 39.0960389,25.7617188 39.6403124,25.7617188 C40.0700021,25.7617188 40.3922645,25.877603 40.6071093,26.109375 C40.8219541,26.341147 40.9293749,26.6887998 40.9293749,27.1523438 L40.9293749,30 Z M45.3378124,28.1054688 L42.2323437,28.1054688 C42.2609897,28.5638044 42.3918477,28.9140613 42.6249218,29.15625 C42.8579959,29.3984387 43.1490086,29.5195312 43.4979687,29.5195312 C43.7661992,29.5195312 43.9914573,29.4485684 44.1737499,29.3066406 C44.3560425,29.1647128 44.495364,28.9505223 44.5917187,28.6640625 L45.3143749,28.7539062 C45.1971868,29.1862001 44.9823452,29.518228 44.6698437,29.75 C44.3573421,29.981772 43.966721,30.0976562 43.4979687,30.0976562 C42.8755697,30.0976562 42.3892465,29.9069029 42.0389843,29.5253906 C41.6887221,29.1438783 41.5135937,28.6223991 41.5135937,27.9609375 C41.5135937,27.3072884 41.6835138,26.7773458 42.0233593,26.3710938 C42.3632047,25.9648417 42.8417156,25.7617188 43.4589062,25.7617188 C43.760991,25.7617188 44.0520037,25.8281243 44.331953,25.9609375 C44.6119024,26.0937507 44.8495302,26.3196599 45.0448437,26.6386719 C45.2401572,26.9576839 45.3378124,27.4466113 45.3378124,28.1054688 Z M44.6151562,27.5273438 C44.5865102,27.1054666 44.4556521,26.8014332 44.222578,26.6152344 C43.989504,26.4290355 43.7349492,26.3359375 43.4589062,26.3359375 C43.1281754,26.3359375 42.8560427,26.4466135 42.6424999,26.6679688 C42.4289572,26.889324 42.3052605,27.1757795 42.2714062,27.5273438 L44.6151562,27.5273438 Z M47.5626562,29.9921875 C47.3543218,30.0338544 47.1785423,30.0546875 47.0353124,30.0546875 C46.7280192,30.0546875 46.5040631,30.0006516 46.3634374,29.8925781 C46.2228117,29.7845047 46.1368751,29.6471363 46.1056249,29.4804688 C46.0743748,29.3138012 46.0587499,29.0820327 46.0587499,28.7851562 L46.0587499,26.3984375 L45.5470312,26.3984375 L45.5470312,25.8554688 L46.0587499,25.8554688 L46.0587499,24.8242188 L46.7618749,24.3984375 L46.7618749,25.8554688 L47.4649999,25.8554688 L47.4649999,26.3984375 L46.7618749,26.3984375 L46.7618749,28.8242188 C46.7618749,29.0325531 46.7833591,29.1803381 46.826328,29.2675781 C46.869297,29.3548181 46.9780199,29.3984375 47.1524999,29.3984375 C47.2540629,29.3984375 47.3582285,29.3880209 47.4649999,29.3671875 L47.5626562,29.9921875 Z M51.3148437,30 L50.6078124,30 L50.6078124,27.3828125 C50.6078124,27.0442691 50.5348965,26.7903654 50.3890624,26.6210938 C50.2432283,26.4518221 50.0257826,26.3671875 49.7367187,26.3671875 C49.4502589,26.3671875 49.1944021,26.4667959 48.9691405,26.6660156 C48.743879,26.8652354 48.6312499,27.2213516 48.6312499,27.734375 L48.6312499,30 L47.9281249,30 L47.9281249,24.2734375 L48.6312499,24.2734375 L48.6312499,26.328125 C48.9645849,25.9505189 49.3812474,25.7617188 49.8812499,25.7617188 C50.1494804,25.7617188 50.4059883,25.8164057 50.6507812,25.9257812 C50.895574,26.0351568 51.0674473,26.2031239 51.1664062,26.4296875 C51.265365,26.6562511 51.3148437,26.9713521 51.3148437,27.375 L51.3148437,30 Z M52.8404686,30 L52.1373436,30 L52.1373436,25.8554688 L52.8404686,25.8554688 L52.8404686,30 Z M52.8404686,25.0703125 L52.1373436,25.0703125 L52.1373436,24.2734375 L52.8404686,24.2734375 L52.8404686,25.0703125 Z M57.0614061,30 L56.3543749,30 L56.3543749,27.4804688 C56.3543749,27.0559875 56.2782038,26.7643237 56.1258593,26.6054688 C55.9735147,26.4466138 55.7619283,26.3671875 55.4910936,26.3671875 C55.2827593,26.3671875 55.0854956,26.4179682 54.8992968,26.5195312 C54.7130979,26.6210943 54.5809378,26.764322 54.5028124,26.9492188 C54.424687,27.1341155 54.3856249,27.3958316 54.3856249,27.734375 L54.3856249,30 L53.6824999,30 L53.6824999,25.8554688 L54.3153124,25.8554688 L54.3153124,26.4414062 L54.3309374,26.4414062 C54.4793756,26.2148426 54.6623165,26.0449224 54.8797655,25.9316406 C55.0972145,25.8183588 55.3491651,25.7617188 55.6356249,25.7617188 C55.854376,25.7617188 56.0705197,25.8007809 56.2840624,25.8789062 C56.4976051,25.9570316 56.6649212,26.074218 56.7860155,26.2304688 C56.9071099,26.3867195 56.983281,26.5533845 57.0145311,26.7304688 C57.0457813,26.907553 57.0614061,27.1471339 57.0614061,27.4492188 L57.0614061,30 Z M61.2784374,29.4414062 C61.2784374,30.0299509 61.2198442,30.4693996 61.1026561,30.7597656 C60.985468,31.0501317 60.7771368,31.2760409 60.4776561,31.4375 C60.1781755,31.5989591 59.8201061,31.6796875 59.4034374,31.6796875 C58.934685,31.6796875 58.5440639,31.5755219 58.2315624,31.3671875 C57.9190608,31.1588531 57.7628124,30.8177107 57.7628124,30.34375 L58.4464061,30.4492188 C58.4724479,30.6679698 58.5642439,30.8320307 58.7217968,30.9414062 C58.8793496,31.0507818 59.1039568,31.1054688 59.3956249,31.1054688 C59.76021,31.1054688 60.0271344,31.0312507 60.1964061,30.8828125 C60.3656778,30.7343743 60.4691924,30.5533865 60.506953,30.3398438 C60.5447136,30.126301 60.5635936,29.8320331 60.5635936,29.4570312 C60.2589046,29.8190122 59.8747939,30 59.4112499,30 C58.8721847,30 58.4392463,29.8007832 58.1124218,29.4023438 C57.7855972,29.0039043 57.6221874,28.5013051 57.6221874,27.8945312 C57.6221874,27.2851532 57.78104,26.7773458 58.0987499,26.3710938 C58.4164598,25.9648417 58.8565596,25.7617188 59.4190624,25.7617188 C59.9086482,25.7617188 60.3070817,25.9583314 60.6143749,26.3515625 L60.6299999,26.3515625 L60.6299999,25.8554688 L61.2784374,25.8554688 L61.2784374,29.4414062 Z M59.4776561,29.4257812 C59.7771368,29.4257812 60.0427591,29.3066418 60.2745311,29.0683594 C60.5063031,28.8300769 60.6221874,28.4309924 60.6221874,27.8710938 C60.6221874,27.3762996 60.5115114,26.9967461 60.2901561,26.7324219 C60.0688009,26.4680976 59.7953661,26.3359375 59.4698436,26.3359375 C59.1365086,26.3359375 58.865027,26.4713528 58.6553905,26.7421875 C58.445754,27.0130222 58.3409374,27.3841122 58.3409374,27.8554688 C58.3409374,28.3997423 58.4509623,28.7975248 58.6710155,29.0488281 C58.8910687,29.3001315 59.1599462,29.4257812 59.4776561,29.4257812 Z" id="Type-something-Copy-2" fill="#43CDE9"></path>
            <path d="M12.7109375,36.953125 L10.8164062,36.953125 L10.8164062,42 L10.0546875,42 L10.0546875,36.953125 L8.17578125,36.953125 L8.17578125,36.2734375 L12.7109375,36.2734375 L12.7109375,36.953125 Z M16.5842187,37.8554688 L14.9982812,42.0703125 C14.9956771,42.0755209 14.9930729,42.0846354 14.9904687,42.0976562 C14.8394263,42.5664086 14.6629958,42.9472642 14.4611719,43.2402344 C14.2593479,43.5332046 13.9722414,43.6796875 13.5998437,43.6796875 C13.4748431,43.6796875 13.3225009,43.6536461 13.1428125,43.6015625 L13.0725,42.9375 C13.2079173,42.9791669 13.3407285,43 13.4709375,43 C13.7313555,43 13.9116922,42.9283861 14.0119531,42.7851562 C14.112214,42.6419264 14.2248431,42.3828144 14.3498437,42.0078125 L12.775625,37.8554688 L13.5334375,37.8554688 L14.51,40.5703125 C14.5672919,40.73698 14.6284892,40.9518216 14.6935937,41.2148438 L14.7092187,41.2148438 C14.7743232,40.9127589 14.8576557,40.6250014 14.9592187,40.3515625 L15.869375,37.8554688 L16.5842187,37.8554688 Z M17.6059375,38.390625 C17.8689596,37.9713521 18.2634869,37.7617188 18.7895312,37.7617188 C19.3338048,37.7617188 19.763488,37.9589824 20.0785937,38.3535156 C20.3936995,38.7480488 20.55125,39.2617156 20.55125,39.8945312 C20.55125,40.5690138 20.3767726,41.1048157 20.0278125,41.5019531 C19.6788524,41.8990905 19.2504713,42.0976562 18.7426562,42.0976562 C18.2973415,42.0976562 17.9405742,41.9205747 17.6723437,41.5664062 L17.6528125,41.5664062 L17.6528125,43.59375 L16.9496875,43.59375 L16.9496875,37.8554688 L17.5903125,37.8554688 L17.5903125,38.390625 L17.6059375,38.390625 Z M18.6957812,41.5195312 C19.0239079,41.5195312 19.2953895,41.3834649 19.5102344,41.1113281 C19.7250792,40.8391913 19.8325,40.4335964 19.8325,39.8945312 C19.8325,39.3867162 19.7289854,38.9960951 19.5219531,38.7226562 C19.3149208,38.4492174 19.0499495,38.3125 18.7270312,38.3125 C18.3936962,38.3125 18.1196104,38.4648422 17.9047656,38.7695312 C17.6899208,39.0742203 17.5825,39.4687476 17.5825,39.953125 C17.5825,40.4661484 17.6853635,40.8554674 17.8910937,41.1210938 C18.0968239,41.3867201 18.3650504,41.5195312 18.6957812,41.5195312 Z M24.7526562,40.1054688 L21.6471875,40.1054688 C21.6758334,40.5638044 21.8066915,40.9140613 22.0397656,41.15625 C22.2728397,41.3984387 22.5638524,41.5195312 22.9128125,41.5195312 C23.181043,41.5195312 23.4063011,41.4485684 23.5885937,41.3066406 C23.7708863,41.1647128 23.9102078,40.9505223 24.0065625,40.6640625 L24.7292187,40.7539062 C24.6120306,41.1862001 24.397189,41.518228 24.0846875,41.75 C23.7721859,41.981772 23.3815648,42.0976562 22.9128125,42.0976562 C22.2904135,42.0976562 21.8040903,41.9069029 21.4538281,41.5253906 C21.1035659,41.1438783 20.9284375,40.6223991 20.9284375,39.9609375 C20.9284375,39.3072884 21.0983576,38.7773458 21.4382031,38.3710938 C21.7780485,37.9648417 22.2565594,37.7617188 22.87375,37.7617188 C23.1758348,37.7617188 23.4668475,37.8281243 23.7467968,37.9609375 C24.0267462,38.0937507 24.264374,38.3196599 24.4596875,38.6386719 C24.6550009,38.9576839 24.7526562,39.4466113 24.7526562,40.1054688 Z M24.03,39.5273438 C24.001354,39.1054666 23.8704959,38.8014332 23.6374218,38.6152344 C23.4043478,38.4290355 23.149793,38.3359375 22.87375,38.3359375 C22.5430192,38.3359375 22.2708865,38.4466135 22.0573437,38.6679688 C21.843801,38.889324 21.7201043,39.1757795 21.68625,39.5273438 L24.03,39.5273438 Z M29.6554687,39.015625 C29.6242185,38.7890614 29.5324226,38.6191412 29.3800781,38.5058594 C29.2277336,38.3925776 29.0161471,38.3359375 28.7453125,38.3359375 C28.4770819,38.3359375 28.2602872,38.38151 28.0949218,38.4726562 C27.9295564,38.5638025 27.846875,38.6966137 27.846875,38.8710938 C27.846875,39.0351571 27.9126295,39.1523434 28.0441406,39.2226562 C28.1756517,39.2929691 28.4354147,39.3789057 28.8234375,39.4804688 C29.2609396,39.5924485 29.5884103,39.6914058 29.8058593,39.7773438 C30.0233083,39.8632817 30.1925775,39.9837232 30.3136718,40.1386719 C30.4347662,40.2936206 30.4953125,40.5091132 30.4953125,40.7851562 C30.4953125,41.1549498 30.3442723,41.4661446 30.0421875,41.71875 C29.7401026,41.9713554 29.3364608,42.0976562 28.83125,42.0976562 C28.3052057,42.0976562 27.8944025,41.9863292 27.5988281,41.7636719 C27.3032537,41.5410145 27.1216149,41.2070335 27.0539062,40.7617188 L27.753125,40.65625 C27.7895835,40.9453139 27.8970043,41.1614576 28.0753906,41.3046875 C28.2537769,41.4479174 28.5031234,41.5195312 28.8234375,41.5195312 C29.1307307,41.5195312 29.3664054,41.4550788 29.5304687,41.3261719 C29.694532,41.197265 29.7765625,41.0403655 29.7765625,40.8554688 C29.7765625,40.7304681 29.7388024,40.6302087 29.6632812,40.5546875 C29.58776,40.4791663 29.4933599,40.4225262 29.3800781,40.3847656 C29.2667963,40.347005 29.0122415,40.2799484 28.6164062,40.1835938 C28.0278616,40.042968 27.6391936,39.8723968 27.4503906,39.671875 C27.2615875,39.4713532 27.1671875,39.2317722 27.1671875,38.953125 C27.1671875,38.6067691 27.3052069,38.3216157 27.58125,38.0976562 C27.857293,37.8736968 28.228383,37.7617188 28.6945312,37.7617188 C29.1893253,37.7617188 29.5740871,37.858723 29.8488281,38.0527344 C30.123569,38.2467458 30.2882809,38.5364564 30.3429687,38.921875 L29.6554687,39.015625 Z M32.7904687,37.7617188 C33.3503673,37.7617188 33.8145554,37.9440086 34.1830468,38.3085938 C34.5515382,38.6731789 34.7357812,39.1914029 34.7357812,39.8632812 C34.7357812,40.6783895 34.5365644,41.2545556 34.1381249,41.5917969 C33.7396855,41.9290381 33.2904712,42.0976562 32.7904687,42.0976562 C32.2670286,42.0976562 31.812606,41.9244809 31.4271874,41.578125 C31.0417688,41.2317691 30.8490624,40.6822954 30.8490624,39.9296875 C30.8490624,39.2005172 31.0352585,38.6569028 31.4076562,38.2988281 C31.7800539,37.9407534 32.2409868,37.7617188 32.7904687,37.7617188 Z M32.7904687,41.5195312 C33.1915124,41.5195312 33.4961968,41.3710952 33.7045312,41.0742188 C33.9128656,40.7773423 34.0170312,40.3867212 34.0170312,39.9023438 C34.0170312,39.384112 33.8991938,38.9934909 33.6635156,38.7304688 C33.4278373,38.4674466 33.1368246,38.3359375 32.7904687,38.3359375 C32.4336961,38.3359375 32.1407303,38.4693997 31.9115624,38.7363281 C31.6823946,39.0032565 31.5678124,39.401039 31.5678124,39.9296875 C31.5678124,40.4557318 31.6843477,40.8522122 31.9174218,41.1191406 C32.1504959,41.386069 32.4415086,41.5195312 32.7904687,41.5195312 Z M40.9293749,42 L40.2262499,42 L40.2262499,39.3828125 C40.2262499,39.1901032 40.2132292,39.0253913 40.1871874,38.8886719 C40.1611456,38.7519524 40.094089,38.6308599 39.9860156,38.5253906 C39.8779421,38.4199213 39.709324,38.3671875 39.4801562,38.3671875 C39.2041131,38.3671875 38.9658343,38.4635407 38.7653124,38.65625 C38.5647906,38.8489593 38.4645312,39.1614562 38.4645312,39.59375 L38.4645312,42 L37.7614062,42 L37.7614062,39.3046875 C37.7614062,38.9453107 37.6982558,38.6992194 37.5719531,38.5664062 C37.4456503,38.4335931 37.2666157,38.3671875 37.0348437,38.3671875 C36.7327588,38.3671875 36.4847144,38.4713531 36.2907031,38.6796875 C36.0966917,38.8880219 35.9996874,39.2773409 35.9996874,39.8476562 L35.9996874,42 L35.2965624,42 L35.2965624,37.8554688 L35.9293749,37.8554688 L35.9293749,38.4335938 L35.9449999,38.4335938 C36.2262513,37.9856748 36.6390076,37.7617188 37.1832812,37.7617188 C37.4879702,37.7617188 37.7386187,37.822265 37.9352343,37.9433594 C38.1318499,38.0644537 38.2744266,38.2460925 38.3629687,38.4882812 C38.6702619,38.0039038 39.0960389,37.7617188 39.6403124,37.7617188 C40.0700021,37.7617188 40.3922645,37.877603 40.6071093,38.109375 C40.8219541,38.341147 40.9293749,38.6887998 40.9293749,39.1523438 L40.9293749,42 Z M45.3378124,40.1054688 L42.2323437,40.1054688 C42.2609897,40.5638044 42.3918477,40.9140613 42.6249218,41.15625 C42.8579959,41.3984387 43.1490086,41.5195312 43.4979687,41.5195312 C43.7661992,41.5195312 43.9914573,41.4485684 44.1737499,41.3066406 C44.3560425,41.1647128 44.495364,40.9505223 44.5917187,40.6640625 L45.3143749,40.7539062 C45.1971868,41.1862001 44.9823452,41.518228 44.6698437,41.75 C44.3573421,41.981772 43.966721,42.0976562 43.4979687,42.0976562 C42.8755697,42.0976562 42.3892465,41.9069029 42.0389843,41.5253906 C41.6887221,41.1438783 41.5135937,40.6223991 41.5135937,39.9609375 C41.5135937,39.3072884 41.6835138,38.7773458 42.0233593,38.3710938 C42.3632047,37.9648417 42.8417156,37.7617188 43.4589062,37.7617188 C43.760991,37.7617188 44.0520037,37.8281243 44.331953,37.9609375 C44.6119024,38.0937507 44.8495302,38.3196599 45.0448437,38.6386719 C45.2401572,38.9576839 45.3378124,39.4466113 45.3378124,40.1054688 Z M44.6151562,39.5273438 C44.5865102,39.1054666 44.4556521,38.8014332 44.222578,38.6152344 C43.989504,38.4290355 43.7349492,38.3359375 43.4589062,38.3359375 C43.1281754,38.3359375 42.8560427,38.4466135 42.6424999,38.6679688 C42.4289572,38.889324 42.3052605,39.1757795 42.2714062,39.5273438 L44.6151562,39.5273438 Z M47.5626562,41.9921875 C47.3543218,42.0338544 47.1785423,42.0546875 47.0353124,42.0546875 C46.7280192,42.0546875 46.5040631,42.0006516 46.3634374,41.8925781 C46.2228117,41.7845047 46.1368751,41.6471363 46.1056249,41.4804688 C46.0743748,41.3138012 46.0587499,41.0820327 46.0587499,40.7851562 L46.0587499,38.3984375 L45.5470312,38.3984375 L45.5470312,37.8554688 L46.0587499,37.8554688 L46.0587499,36.8242188 L46.7618749,36.3984375 L46.7618749,37.8554688 L47.4649999,37.8554688 L47.4649999,38.3984375 L46.7618749,38.3984375 L46.7618749,40.8242188 C46.7618749,41.0325531 46.7833591,41.1803381 46.826328,41.2675781 C46.869297,41.3548181 46.9780199,41.3984375 47.1524999,41.3984375 C47.2540629,41.3984375 47.3582285,41.3880209 47.4649999,41.3671875 L47.5626562,41.9921875 Z M51.3148437,42 L50.6078124,42 L50.6078124,39.3828125 C50.6078124,39.0442691 50.5348965,38.7903654 50.3890624,38.6210938 C50.2432283,38.4518221 50.0257826,38.3671875 49.7367187,38.3671875 C49.4502589,38.3671875 49.1944021,38.4667959 48.9691405,38.6660156 C48.743879,38.8652354 48.6312499,39.2213516 48.6312499,39.734375 L48.6312499,42 L47.9281249,42 L47.9281249,36.2734375 L48.6312499,36.2734375 L48.6312499,38.328125 C48.9645849,37.9505189 49.3812474,37.7617188 49.8812499,37.7617188 C50.1494804,37.7617188 50.4059883,37.8164057 50.6507812,37.9257812 C50.895574,38.0351568 51.0674473,38.2031239 51.1664062,38.4296875 C51.265365,38.6562511 51.3148437,38.9713521 51.3148437,39.375 L51.3148437,42 Z M52.8404686,42 L52.1373436,42 L52.1373436,37.8554688 L52.8404686,37.8554688 L52.8404686,42 Z M52.8404686,37.0703125 L52.1373436,37.0703125 L52.1373436,36.2734375 L52.8404686,36.2734375 L52.8404686,37.0703125 Z M57.0614061,42 L56.3543749,42 L56.3543749,39.4804688 C56.3543749,39.0559875 56.2782038,38.7643237 56.1258593,38.6054688 C55.9735147,38.4466138 55.7619283,38.3671875 55.4910936,38.3671875 C55.2827593,38.3671875 55.0854956,38.4179682 54.8992968,38.5195312 C54.7130979,38.6210943 54.5809378,38.764322 54.5028124,38.9492188 C54.424687,39.1341155 54.3856249,39.3958316 54.3856249,39.734375 L54.3856249,42 L53.6824999,42 L53.6824999,37.8554688 L54.3153124,37.8554688 L54.3153124,38.4414062 L54.3309374,38.4414062 C54.4793756,38.2148426 54.6623165,38.0449224 54.8797655,37.9316406 C55.0972145,37.8183588 55.3491651,37.7617188 55.6356249,37.7617188 C55.854376,37.7617188 56.0705197,37.8007809 56.2840624,37.8789062 C56.4976051,37.9570316 56.6649212,38.074218 56.7860155,38.2304688 C56.9071099,38.3867195 56.983281,38.5533845 57.0145311,38.7304688 C57.0457813,38.907553 57.0614061,39.1471339 57.0614061,39.4492188 L57.0614061,42 Z M61.2784374,41.4414062 C61.2784374,42.0299509 61.2198442,42.4693996 61.1026561,42.7597656 C60.985468,43.0501317 60.7771368,43.2760409 60.4776561,43.4375 C60.1781755,43.5989591 59.8201061,43.6796875 59.4034374,43.6796875 C58.934685,43.6796875 58.5440639,43.5755219 58.2315624,43.3671875 C57.9190608,43.1588531 57.7628124,42.8177107 57.7628124,42.34375 L58.4464061,42.4492188 C58.4724479,42.6679698 58.5642439,42.8320307 58.7217968,42.9414062 C58.8793496,43.0507818 59.1039568,43.1054688 59.3956249,43.1054688 C59.76021,43.1054688 60.0271344,43.0312507 60.1964061,42.8828125 C60.3656778,42.7343743 60.4691924,42.5533865 60.506953,42.3398438 C60.5447136,42.126301 60.5635936,41.8320331 60.5635936,41.4570312 C60.2589046,41.8190122 59.8747939,42 59.4112499,42 C58.8721847,42 58.4392463,41.8007832 58.1124218,41.4023438 C57.7855972,41.0039043 57.6221874,40.5013051 57.6221874,39.8945312 C57.6221874,39.2851532 57.78104,38.7773458 58.0987499,38.3710938 C58.4164598,37.9648417 58.8565596,37.7617188 59.4190624,37.7617188 C59.9086482,37.7617188 60.3070817,37.9583314 60.6143749,38.3515625 L60.6299999,38.3515625 L60.6299999,37.8554688 L61.2784374,37.8554688 L61.2784374,41.4414062 Z M59.4776561,41.4257812 C59.7771368,41.4257812 60.0427591,41.3066418 60.2745311,41.0683594 C60.5063031,40.8300769 60.6221874,40.4309924 60.6221874,39.8710938 C60.6221874,39.3762996 60.5115114,38.9967461 60.2901561,38.7324219 C60.0688009,38.4680976 59.7953661,38.3359375 59.4698436,38.3359375 C59.1365086,38.3359375 58.865027,38.4713528 58.6553905,38.7421875 C58.445754,39.0130222 58.3409374,39.3841122 58.3409374,39.8554688 C58.3409374,40.3997423 58.4509623,40.7975248 58.6710155,41.0488281 C58.8910687,41.3001315 59.1599462,41.4257812 59.4776561,41.4257812 Z" id="Type-something-Copy-3" fill="#097DE9" opacity="0.422321429"></path>
            <circle id="Oval-3" fill="#00BAFF" fill-rule="nonzero" cx="1.5" cy="3.5" r="1.5"></circle>
            <circle id="Oval-3-Copy" fill="#00BAFF" fill-rule="nonzero" cx="1.5" cy="15.5" r="1.5"></circle>
            <circle id="Oval-3-Copy-2" fill="#00BAFF" fill-rule="nonzero" cx="1.5" cy="27.5" r="1.5"></circle>
            <circle id="Oval-3-Copy-3" fill="#00BAFF" fill-rule="nonzero" opacity="0.413113839" cx="1.5" cy="40.5" r="1.5"></circle>
        </g>
    </g>
</svg>