<?xml version="1.0" encoding="UTF-8"?>
<svg width="18px" height="18px" viewBox="0 0 18 18" version="1.1" xmlns="http://www.w3.org/2000/svg" xmlns:xlink="http://www.w3.org/1999/xlink">
    <!-- Generator: Sketch 51.2 (57519) - http://www.bohemiancoding.com/sketch -->
    <title>文本组件</title>
    <desc>Created with Sketch.</desc>
    <defs></defs>
    <g id="文本组件" stroke="none" stroke-width="1" fill="none" fill-rule="evenodd">
        <g id="wenben-copy-2" fill="#2CA7E0" fill-rule="nonzero">
            <path d="M16.5024,0 C17.2914,0 18,0.635999994 18,1.4922 L18,16.443 C18,17.2998 17.412,18 16.6224,18 L1.43760001,18 C0.648599994,18 0,17.2998 0,16.443 L0,1.4922 C0,0.6354 0.644999994,0 1.43760001,0 L16.5024,0 Z M9.70799999,5.69399999 L12.8724,5.69399999 C13.0266,5.69399999 13.1772,5.63819999 13.323,5.52659999 C13.4688,5.41499999 13.542,5.2218 13.542,4.94699999 C13.542,4.68059999 13.4736,4.48979999 13.3362,4.374 C13.2079664,4.26142386 13.0430372,4.19954872 12.8724,4.19999999 L4.86959999,4.19999999 C4.698,4.19999999 4.5432,4.25819999 4.40580001,4.374 C4.26839999,4.48979999 4.19999999,4.68 4.19999999,4.94699999 C4.19999999,5.2218 4.2732,5.41499999 4.419,5.52659999 C4.5648,5.63819999 4.71540001,5.69459999 4.86959999,5.69460001 L8.03399999,5.69460001 L8.03399999,12.6366 C8.03399999,12.7914 8.0982,12.9414 8.22720001,13.0872 C8.3556,13.2336 8.57040001,13.3062 8.87099999,13.3062 C9.171,13.3062 9.38639999,13.2378 9.5148,13.1004 C9.64380001,12.9624 9.70799999,12.8082 9.70799999,12.6366 L9.70799999,5.69460001 L9.70799999,5.69399999 Z" id="Shape"></path>
        </g>
    </g>
</svg>