<svg id="图层_1" data-name="图层 1" xmlns="http://www.w3.org/2000/svg" viewBox="0 0 18 15.74"><defs><style>.cls-1{fill:#fff;}</style></defs><title>日期</title><path class="cls-1" d="M13.49,1.2V.07H12.37V1.2H5.63V.07H4.51V1.2H0V15.81H18V1.2Zm3.39,13.61H1.12v-8H16.88Zm0-9.11H1.12V2.21H4.49V3.44H5.62V2.21h6.75V3.44h1.12V2.21h3.38V5.7Z" transform="translate(0 -0.07)"/><path class="cls-1" d="M12.37,11.32h2.25v2.25H12.37ZM7.88,8h2.24V10.2H7.88Zm4.49,0h2.25V10.2H12.37Zm-9,3.37H5.62v2.25H3.37Zm4.51,0h2.24v2.25H7.88ZM3.37,8H5.62V10.2H3.37Z" transform="translate(0 -0.07)"/></svg>