<svg id="图层_1" data-name="图层 1" xmlns="http://www.w3.org/2000/svg" viewBox="0 0 13.95 18"><defs><style>.cls-1{opacity:0.4;}.cls-2{fill:#fff;}</style></defs><title>度量-数字-未点击</title><g class="cls-1"><path class="cls-2" d="M5.74,14V9.74a3.94,3.94,0,0,1-.64.47,4.07,4.07,0,0,1-.71.34V9.9a3.83,3.83,0,0,0,1-.64A2.54,2.54,0,0,0,6,8.53h.43V14Zm3.71-2a6.68,6.68,0,0,0-.88.83,2.49,2.49,0,0,0-.45.73A1.5,1.5,0,0,0,8,14h3.62v-.65H9A2.2,2.2,0,0,1,9.26,13q.18-.18.78-.69a11,11,0,0,0,1-1,2.48,2.48,0,0,0,.44-.67,1.61,1.61,0,0,0,.14-.64A1.45,1.45,0,0,0,11.2,9,1.71,1.71,0,0,0,10,8.53a1.8,1.8,0,0,0-1.24.4,1.73,1.73,0,0,0-.54,1.18l.69.07a1.09,1.09,0,0,1,.3-.8,1,1,0,0,1,.77-.29,1,1,0,0,1,.75.27A.9.9,0,0,1,11,10a1.37,1.37,0,0,1-.32.81A7.48,7.48,0,0,1,9.45,12Zm4.68,1.57a1,1,0,0,1-.67-.25,1.5,1.5,0,0,1-.4-.83l-.67.09a1.6,1.6,0,0,0,.54,1.11,1.72,1.72,0,0,0,1.2.43,1.84,1.84,0,0,0,1.32-.49A1.63,1.63,0,0,0,16,12.41a1.39,1.39,0,0,0-.26-.88,1.28,1.28,0,0,0-.76-.47,1.32,1.32,0,0,0,.57-.46,1.23,1.23,0,0,0,.19-.65,1.35,1.35,0,0,0-.2-.7,1.42,1.42,0,0,0-.58-.53,1.78,1.78,0,0,0-.83-.19A1.59,1.59,0,0,0,13,8.9a1.74,1.74,0,0,0-.56,1l.67.12a1.25,1.25,0,0,1,.33-.74.92.92,0,0,1,.66-.25.88.88,0,0,1,.64.24.83.83,0,0,1,.25.62.76.76,0,0,1-.34.69,1.38,1.38,0,0,1-.77.22h-.11l-.07.59a1.78,1.78,0,0,1,.47-.07,1,1,0,0,1,1.07,1.06,1.11,1.11,0,0,1-.33.82A1.06,1.06,0,0,1,14.13,13.57ZM16,1.8V6.21a.45.45,0,0,1-.44.45h0a.45.45,0,0,1-.45-.45V1.8a.9.9,0,0,0-.9-.9H9.22V6.3a.9.9,0,0,1-.9.9H2.93v9a.89.89,0,0,0,.89.9H14.18a.9.9,0,0,0,.9-.9v-.09a.45.45,0,0,1,.45-.45h0a.45.45,0,0,1,.44.45v.09a1.81,1.81,0,0,1-1.8,1.8H3.83A1.81,1.81,0,0,1,2,16.2V6.3H2L8.33,0h5.85A1.8,1.8,0,0,1,16,1.8ZM8.33,5.85V1.35L3.38,6.3h4.5A.45.45,0,0,0,8.33,5.85Z" transform="translate(-2.03)"/></g></svg>