<svg id="图层_1" data-name="图层 1" xmlns="http://www.w3.org/2000/svg" viewBox="0 0 24.03 10.27"><defs><style>.cls-1{fill:#283443;}</style></defs><title>隐藏</title><path class="cls-1" d="M23.58,5.68h0c-.1-.07-.46-.34-.93-.66a.12.12,0,0,1-.05-.09.11.11,0,0,1,0-.1c.37-.35.72-.71,1.05-1.09,0,0,0,0,0,0a1.29,1.29,0,0,0,0-1.51.72.72,0,0,0-.2-.19.63.63,0,0,0-.48-.11,1.21,1.21,0,0,0-.71.52C21.11,4,16.84,8,12,8a11.51,11.51,0,0,1-3.77-.67L7.15,6.92A16.91,16.91,0,0,1,4.26,5.26L3.51,4.7A12.7,12.7,0,0,1,1.62,2.93l-.06-.06-.05,0A1.52,1.52,0,0,0,1,2.47a.63.63,0,0,0-.72.13A1.17,1.17,0,0,0,.23,4.16l.1.13c.43.42.88.84,1.35,1.23a.12.12,0,0,1,.05.1.11.11,0,0,1-.06.09L1,6.19H1a.87.87,0,0,0-.42.54.85.85,0,0,0,.12.69.94.94,0,0,0,1.24.33,6.38,6.38,0,0,0,.55-.38c.2-.14.44-.33.76-.53a.12.12,0,0,1,.15,0A21.31,21.31,0,0,0,5.83,8.28a.1.1,0,0,1,.07.08.1.1,0,0,1,0,.09l-.77,1.3a.83.83,0,0,0-.1.67.93.93,0,0,0,.43.54h0a1,1,0,0,0,1.25-.32l.88-1.5a.15.15,0,0,1,.17-.06A12.86,12.86,0,0,0,11,9.81a.14.14,0,0,1,.12.13v1.3a.93.93,0,0,0,1.85,0V9.92A.13.13,0,0,1,13,9.79,12.19,12.19,0,0,0,16.18,9a.15.15,0,0,1,.17.05l.92,1.57h0a.94.94,0,0,0,1.24.33h0a.87.87,0,0,0,.42-.54.84.84,0,0,0-.09-.67L18,8.34a.12.12,0,0,1,0-.17,19.46,19.46,0,0,0,3-2,.13.13,0,0,1,.16,0c.67.44,1.22.83,1.37.94l.16.09a.94.94,0,0,0,1.16-.36A.88.88,0,0,0,23.58,5.68Z" transform="translate(0.03 -1.87)"/></svg>