<svg id="图层_1" data-name="图层 1" xmlns="http://www.w3.org/2000/svg" viewBox="0 0 76.34 80.32"><defs><style>.cls-1{opacity:0.4;}</style></defs><title>无数据</title><g class="cls-1"><path d="M18.67,3.88H65.43c2.89,0,8.73-1,8.73,3.47V53.56c0,1.64.11,3.27-1.4,4.39-1.06.79-2.37.66-3.6.66h-52c-2.69,0-6,.5-8.6-.18C5.24,57.59,6.19,52,6.19,49.49V7.3C6.19,4.6,2,4.6,2,7.3V53a24.26,24.26,0,0,0,.19,3.81c.54,3.54,4.18,5.95,7.56,5.95H70.11c5.15,0,8.23-3.7,8.23-8.64V7.54A7.84,7.84,0,0,0,72.93,0a12,12,0,0,0-4-.33H18.67C16-.3,16,3.88,18.67,3.88Z" transform="translate(-2 0.32)"/><path d="M40.17,77.91V60.57" transform="translate(-2 0.32)"/><path d="M42.27,77.91V60.57c0-2.7-4.19-2.7-4.19,0V77.91C38.08,80.61,42.27,80.61,42.27,77.91Z" transform="translate(-2 0.32)"/><path d="M13.05,77.91H67.3" transform="translate(-2 0.32)"/><path d="M13.05,80H67.3c2.7,0,2.7-4.19,0-4.19H13.05C10.34,75.81,10.34,80,13.05,80Z" transform="translate(-2 0.32)"/><path d="M22,28.12V45.8" transform="translate(-2 0.32)"/><path d="M19.92,28.12V45.8c0,2.7,4.19,2.7,4.19,0V28.12C24.11,25.42,19.92,25.42,19.92,28.12Z" transform="translate(-2 0.32)"/><path d="M47.73,28.12V45.8" transform="translate(-2 0.32)"/><path d="M45.64,28.12V45.8c0,2.7,4.18,2.7,4.18,0V28.12C49.82,25.42,45.64,25.42,45.64,28.12Z" transform="translate(-2 0.32)"/><path d="M59.39,28.12V45.8" transform="translate(-2 0.32)"/><path d="M57.3,28.12V45.8c0,2.7,4.19,2.7,4.19,0V28.12C61.49,25.42,57.3,25.42,57.3,28.12Z" transform="translate(-2 0.32)"/><path d="M35.77,18.3V45.8" transform="translate(-2 0.32)"/><path d="M33.67,18.3V45.8c0,2.7,4.19,2.7,4.19,0V18.3C37.86,15.6,33.67,15.6,33.67,18.3Z" transform="translate(-2 0.32)"/></g></svg>