<svg id="图层_1" data-name="图层 1" xmlns="http://www.w3.org/2000/svg" viewBox="0 0 24 14"><defs><style>.cls-1{fill:#283443;}</style></defs><title>显示</title><path class="cls-1" d="M12.21,14C8.64,14,5,12.25,1.13,8.72L.76,8.4C.31,8,0,7.74,0,7.29s.27-.74.69-1.18L1,5.79C4.69,1.94,8.27.05,12,0s7.25,1.72,11,5.4c.68.67,1,1.14,1,1.7a2.16,2.16,0,0,1-.88,1.46C19.4,12.19,15.84,14,12.21,14ZM1.45,7.23l.18.17L2,7.73c3.6,3.26,6.87,4.88,10,4.93,3.29.07,6.63-1.59,10.19-5a4.54,4.54,0,0,0,.48-.52A4,4,0,0,0,22,6.34c-3.48-3.42-6.76-5.07-10.06-5S5.39,3.14,2,6.7L1.64,7a.73.73,0,0,1-.19.2ZM12,10.69A3.7,3.7,0,1,0,8.32,7,3.69,3.69,0,0,0,12,10.69Z" transform="translate(0)"/></svg>