<svg id="图层_1" data-name="图层 1" xmlns="http://www.w3.org/2000/svg" viewBox="0 0 16 16"><defs><style>.cls-1{opacity:0.4;}.cls-2{fill:#fff;}</style></defs><title>切换</title><g class="cls-1"><path class="cls-2" d="M11.8,6h0L10.25,4.44a.2.2,0,0,0-.35.14V5.79a.2.2,0,0,1-.2.2h-6a.2.2,0,0,0-.2.21v.54a.2.2,0,0,0,.2.2h8.52a.2.2,0,0,0,.14-.34L11.8,6Z"/><path class="cls-2" d="M4.2,10h0l1.55,1.55a.2.2,0,0,0,.35-.14V10.21a.2.2,0,0,1,.2-.2h6a.21.21,0,0,0,.2-.21V9.26a.2.2,0,0,0-.2-.2H3.74a.2.2,0,0,0-.14.34l.6.61Z"/><path class="cls-2" d="M8,16a8,8,0,1,1,8-8,8,8,0,0,1-8,8ZM8,.66A7.34,7.34,0,1,0,15.34,8,7.34,7.34,0,0,0,8,.66Z"/></g></svg>