<svg id="图层_1" data-name="图层 1" xmlns="http://www.w3.org/2000/svg" viewBox="0 0 16 17.89"><defs><style>.cls-1{opacity:0.4;}.cls-2{fill:#fff;}</style></defs><title>维度-文本-未点击</title><g class="cls-1"><path class="cls-2" d="M16,3.32A3.35,3.35,0,0,0,12.53.11H3.47A3.35,3.35,0,0,0,0,3.32V14.77A3.36,3.36,0,0,0,3.47,18h7a.59.59,0,0,0,.4-.15l4.92-4.34a.5.5,0,0,0,.18-.39ZM10.27,16.93l-6.8,0a2.23,2.23,0,0,1-2.31-2.14V3.32A2.23,2.23,0,0,1,3.47,1.18h9.06a2.23,2.23,0,0,1,2.31,2.14v9.57Z" transform="translate(0 -0.11)"/><path class="cls-2" d="M12.78,5.32H3.27a.54.54,0,1,0,0,1.07h9.51a.54.54,0,1,0,0-1.07Zm0,3.16H3.27a.54.54,0,1,0,0,1.07h9.51a.54.54,0,1,0,0-1.07Zm-2.51,3.17h-7a.54.54,0,1,0,0,1.07h7a.54.54,0,1,0,0-1.07Z" transform="translate(0 -0.11)"/></g></svg>