<svg id="图层_1" data-name="图层 1" xmlns="http://www.w3.org/2000/svg" viewBox="0 0 18 16"><defs><style>.cls-1{fill:#fff;opacity:0.4;}</style></defs><title>订单表</title><path class="cls-1" d="M18,1.82V14.18a1.81,1.81,0,0,1-.51,1.29,1.65,1.65,0,0,1-1.22.53H1.73a1.65,1.65,0,0,1-1.22-.53A1.81,1.81,0,0,1,0,14.18V1.82A1.81,1.81,0,0,1,.51.53,1.65,1.65,0,0,1,1.73,0H16.27a1.64,1.64,0,0,1,1.22.53A1.8,1.8,0,0,1,18,1.82ZM5.53,5.45V3.27A.36.36,0,0,0,5.44,3a.33.33,0,0,0-.25-.1H1.73a.32.32,0,0,0-.25.1.38.38,0,0,0-.1.26V5.45a.38.38,0,0,0,.1.26.33.33,0,0,0,.25.1H5.19a.32.32,0,0,0,.25-.1A.37.37,0,0,0,5.53,5.45Zm0,4.37V7.64a.36.36,0,0,0-.09-.26.34.34,0,0,0-.25-.11H1.73a.33.33,0,0,0-.25.11.36.36,0,0,0-.1.26V9.82a.4.4,0,0,0,.1.26.33.33,0,0,0,.25.1H5.19a.32.32,0,0,0,.25-.1A.39.39,0,0,0,5.53,9.82Zm0,4.36V12a.37.37,0,0,0-.09-.26.33.33,0,0,0-.25-.1H1.73a.32.32,0,0,0-.25.1.38.38,0,0,0-.1.26v2.18a.38.38,0,0,0,.1.26.33.33,0,0,0,.25.1H5.19a.32.32,0,0,0,.25-.1A.37.37,0,0,0,5.53,14.18Zm5.54-8.73V3.27A.36.36,0,0,0,11,3a.33.33,0,0,0-.25-.1H7.27A.3.3,0,0,0,7,3a.34.34,0,0,0-.1.26V5.45a.34.34,0,0,0,.1.26.32.32,0,0,0,.25.1h3.46a.33.33,0,0,0,.25-.1A.37.37,0,0,0,11.07,5.45Zm0,4.37V7.64A.36.36,0,0,0,11,7.38a.34.34,0,0,0-.25-.11H7.27A.31.31,0,0,0,7,7.38a.33.33,0,0,0-.1.26V9.82a.35.35,0,0,0,.1.26.32.32,0,0,0,.25.1h3.46a.33.33,0,0,0,.25-.1A.39.39,0,0,0,11.07,9.82Zm0,4.36V12a.37.37,0,0,0-.09-.26.33.33,0,0,0-.25-.1H7.27a.3.3,0,0,0-.25.1.34.34,0,0,0-.1.26v2.18a.34.34,0,0,0,.1.26.32.32,0,0,0,.25.1h3.46a.33.33,0,0,0,.25-.1A.37.37,0,0,0,11.07,14.18Zm5.54-8.73V3.27A.36.36,0,0,0,16.52,3a.33.33,0,0,0-.25-.1H12.81a.32.32,0,0,0-.25.1.34.34,0,0,0-.1.26V5.45a.34.34,0,0,0,.1.26.32.32,0,0,0,.25.1h3.46a.33.33,0,0,0,.25-.1.37.37,0,0,0,.09-.26Zm0,4.37V7.64a.36.36,0,0,0-.09-.26.34.34,0,0,0-.25-.11H12.81a.36.36,0,0,0-.35.37V9.82a.34.34,0,0,0,.35.36h3.46a.33.33,0,0,0,.25-.1.39.39,0,0,0,.09-.26Zm0,4.36V12a.37.37,0,0,0-.09-.26.33.33,0,0,0-.25-.1H12.81a.32.32,0,0,0-.25.1.34.34,0,0,0-.1.26v2.18a.34.34,0,0,0,.1.26.32.32,0,0,0,.25.1h3.46a.33.33,0,0,0,.25-.1.37.37,0,0,0,.09-.26Z"/></svg>